<?xml version="1.0" encoding="utf-8" standalone="no"?>
<!DOCTYPE svg PUBLIC "-//W3C//DTD SVG 1.1//EN"
  "http://www.w3.org/Graphics/SVG/1.1/DTD/svg11.dtd">
<!-- Created with matplotlib (http://matplotlib.org/) -->
<svg height="345pt" version="1.1" viewBox="0 0 460 345" width="460pt" xmlns="http://www.w3.org/2000/svg" xmlns:xlink="http://www.w3.org/1999/xlink">
 <defs>
  <style type="text/css">
*{stroke-linecap:butt;stroke-linejoin:round;}
  </style>
 </defs>
 <g id="figure_1">
  <g id="patch_1">
   <path d="M 0 345.6 
L 460.8 345.6 
L 460.8 0 
L 0 0 
z
" style="fill:#ffffff;"/>
  </g>
  <g id="axes_1">
   <g id="patch_2">
    <path d="M 57.6 307.584 
L 414.72 307.584 
L 414.72 41.472 
L 57.6 41.472 
z
" style="fill:#ffffff;"/>
   </g>
   <g id="matplotlib.axis_1">
    <g id="xtick_1">
     <g id="line2d_1">
      <defs>
       <path d="M 0 0 
L 0 3.5 
" id="m74146ca4e9" style="stroke:#000000;stroke-width:0.8;"/>
      </defs>
      <g>
       <use style="stroke:#000000;stroke-width:0.8;" x="73.832727" xlink:href="#m74146ca4e9" y="307.584"/>
      </g>
     </g>
     <g id="text_1">
      <!-- 0.0 -->
      <defs>
       <path d="M 31.78125 66.40625 
Q 24.171875 66.40625 20.328125 58.90625 
Q 16.5 51.421875 16.5 36.375 
Q 16.5 21.390625 20.328125 13.890625 
Q 24.171875 6.390625 31.78125 6.390625 
Q 39.453125 6.390625 43.28125 13.890625 
Q 47.125 21.390625 47.125 36.375 
Q 47.125 51.421875 43.28125 58.90625 
Q 39.453125 66.40625 31.78125 66.40625 
z
M 31.78125 74.21875 
Q 44.046875 74.21875 50.515625 64.515625 
Q 56.984375 54.828125 56.984375 36.375 
Q 56.984375 17.96875 50.515625 8.265625 
Q 44.046875 -1.421875 31.78125 -1.421875 
Q 19.53125 -1.421875 13.0625 8.265625 
Q 6.59375 17.96875 6.59375 36.375 
Q 6.59375 54.828125 13.0625 64.515625 
Q 19.53125 74.21875 31.78125 74.21875 
z
" id="DejaVuSans-30"/>
       <path d="M 10.6875 12.40625 
L 21 12.40625 
L 21 0 
L 10.6875 0 
z
" id="DejaVuSans-2e"/>
      </defs>
      <g transform="translate(65.881165 322.182437)scale(0.1 -0.1)">
       <use xlink:href="#DejaVuSans-30"/>
       <use x="63.623047" xlink:href="#DejaVuSans-2e"/>
       <use x="95.410156" xlink:href="#DejaVuSans-30"/>
      </g>
     </g>
    </g>
    <g id="xtick_2">
     <g id="line2d_2">
      <g>
       <use style="stroke:#000000;stroke-width:0.8;" x="138.766883" xlink:href="#m74146ca4e9" y="307.584"/>
      </g>
     </g>
     <g id="text_2">
      <!-- 0.2 -->
      <defs>
       <path d="M 19.1875 8.296875 
L 53.609375 8.296875 
L 53.609375 0 
L 7.328125 0 
L 7.328125 8.296875 
Q 12.9375 14.109375 22.625 23.890625 
Q 32.328125 33.6875 34.8125 36.53125 
Q 39.546875 41.84375 41.421875 45.53125 
Q 43.3125 49.21875 43.3125 52.78125 
Q 43.3125 58.59375 39.234375 62.25 
Q 35.15625 65.921875 28.609375 65.921875 
Q 23.96875 65.921875 18.8125 64.3125 
Q 13.671875 62.703125 7.8125 59.421875 
L 7.8125 69.390625 
Q 13.765625 71.78125 18.9375 73 
Q 24.125 74.21875 28.421875 74.21875 
Q 39.75 74.21875 46.484375 68.546875 
Q 53.21875 62.890625 53.21875 53.421875 
Q 53.21875 48.921875 51.53125 44.890625 
Q 49.859375 40.875 45.40625 35.40625 
Q 44.1875 33.984375 37.640625 27.21875 
Q 31.109375 20.453125 19.1875 8.296875 
z
" id="DejaVuSans-32"/>
      </defs>
      <g transform="translate(130.815321 322.182437)scale(0.1 -0.1)">
       <use xlink:href="#DejaVuSans-30"/>
       <use x="63.623047" xlink:href="#DejaVuSans-2e"/>
       <use x="95.410156" xlink:href="#DejaVuSans-32"/>
      </g>
     </g>
    </g>
    <g id="xtick_3">
     <g id="line2d_3">
      <g>
       <use style="stroke:#000000;stroke-width:0.8;" x="203.701039" xlink:href="#m74146ca4e9" y="307.584"/>
      </g>
     </g>
     <g id="text_3">
      <!-- 0.4 -->
      <defs>
       <path d="M 37.796875 64.3125 
L 12.890625 25.390625 
L 37.796875 25.390625 
z
M 35.203125 72.90625 
L 47.609375 72.90625 
L 47.609375 25.390625 
L 58.015625 25.390625 
L 58.015625 17.1875 
L 47.609375 17.1875 
L 47.609375 0 
L 37.796875 0 
L 37.796875 17.1875 
L 4.890625 17.1875 
L 4.890625 26.703125 
z
" id="DejaVuSans-34"/>
      </defs>
      <g transform="translate(195.749476 322.182437)scale(0.1 -0.1)">
       <use xlink:href="#DejaVuSans-30"/>
       <use x="63.623047" xlink:href="#DejaVuSans-2e"/>
       <use x="95.410156" xlink:href="#DejaVuSans-34"/>
      </g>
     </g>
    </g>
    <g id="xtick_4">
     <g id="line2d_4">
      <g>
       <use style="stroke:#000000;stroke-width:0.8;" x="268.635195" xlink:href="#m74146ca4e9" y="307.584"/>
      </g>
     </g>
     <g id="text_4">
      <!-- 0.6 -->
      <defs>
       <path d="M 33.015625 40.375 
Q 26.375 40.375 22.484375 35.828125 
Q 18.609375 31.296875 18.609375 23.390625 
Q 18.609375 15.53125 22.484375 10.953125 
Q 26.375 6.390625 33.015625 6.390625 
Q 39.65625 6.390625 43.53125 10.953125 
Q 47.40625 15.53125 47.40625 23.390625 
Q 47.40625 31.296875 43.53125 35.828125 
Q 39.65625 40.375 33.015625 40.375 
z
M 52.59375 71.296875 
L 52.59375 62.3125 
Q 48.875 64.0625 45.09375 64.984375 
Q 41.3125 65.921875 37.59375 65.921875 
Q 27.828125 65.921875 22.671875 59.328125 
Q 17.53125 52.734375 16.796875 39.40625 
Q 19.671875 43.65625 24.015625 45.921875 
Q 28.375 48.1875 33.59375 48.1875 
Q 44.578125 48.1875 50.953125 41.515625 
Q 57.328125 34.859375 57.328125 23.390625 
Q 57.328125 12.15625 50.6875 5.359375 
Q 44.046875 -1.421875 33.015625 -1.421875 
Q 20.359375 -1.421875 13.671875 8.265625 
Q 6.984375 17.96875 6.984375 36.375 
Q 6.984375 53.65625 15.1875 63.9375 
Q 23.390625 74.21875 37.203125 74.21875 
Q 40.921875 74.21875 44.703125 73.484375 
Q 48.484375 72.75 52.59375 71.296875 
z
" id="DejaVuSans-36"/>
      </defs>
      <g transform="translate(260.683632 322.182437)scale(0.1 -0.1)">
       <use xlink:href="#DejaVuSans-30"/>
       <use x="63.623047" xlink:href="#DejaVuSans-2e"/>
       <use x="95.410156" xlink:href="#DejaVuSans-36"/>
      </g>
     </g>
    </g>
    <g id="xtick_5">
     <g id="line2d_5">
      <g>
       <use style="stroke:#000000;stroke-width:0.8;" x="333.56935" xlink:href="#m74146ca4e9" y="307.584"/>
      </g>
     </g>
     <g id="text_5">
      <!-- 0.8 -->
      <defs>
       <path d="M 31.78125 34.625 
Q 24.75 34.625 20.71875 30.859375 
Q 16.703125 27.09375 16.703125 20.515625 
Q 16.703125 13.921875 20.71875 10.15625 
Q 24.75 6.390625 31.78125 6.390625 
Q 38.8125 6.390625 42.859375 10.171875 
Q 46.921875 13.96875 46.921875 20.515625 
Q 46.921875 27.09375 42.890625 30.859375 
Q 38.875 34.625 31.78125 34.625 
z
M 21.921875 38.8125 
Q 15.578125 40.375 12.03125 44.71875 
Q 8.5 49.078125 8.5 55.328125 
Q 8.5 64.0625 14.71875 69.140625 
Q 20.953125 74.21875 31.78125 74.21875 
Q 42.671875 74.21875 48.875 69.140625 
Q 55.078125 64.0625 55.078125 55.328125 
Q 55.078125 49.078125 51.53125 44.71875 
Q 48 40.375 41.703125 38.8125 
Q 48.828125 37.15625 52.796875 32.3125 
Q 56.78125 27.484375 56.78125 20.515625 
Q 56.78125 9.90625 50.3125 4.234375 
Q 43.84375 -1.421875 31.78125 -1.421875 
Q 19.734375 -1.421875 13.25 4.234375 
Q 6.78125 9.90625 6.78125 20.515625 
Q 6.78125 27.484375 10.78125 32.3125 
Q 14.796875 37.15625 21.921875 38.8125 
z
M 18.3125 54.390625 
Q 18.3125 48.734375 21.84375 45.5625 
Q 25.390625 42.390625 31.78125 42.390625 
Q 38.140625 42.390625 41.71875 45.5625 
Q 45.3125 48.734375 45.3125 54.390625 
Q 45.3125 60.0625 41.71875 63.234375 
Q 38.140625 66.40625 31.78125 66.40625 
Q 25.390625 66.40625 21.84375 63.234375 
Q 18.3125 60.0625 18.3125 54.390625 
z
" id="DejaVuSans-38"/>
      </defs>
      <g transform="translate(325.617788 322.182437)scale(0.1 -0.1)">
       <use xlink:href="#DejaVuSans-30"/>
       <use x="63.623047" xlink:href="#DejaVuSans-2e"/>
       <use x="95.410156" xlink:href="#DejaVuSans-38"/>
      </g>
     </g>
    </g>
    <g id="xtick_6">
     <g id="line2d_6">
      <g>
       <use style="stroke:#000000;stroke-width:0.8;" x="398.503506" xlink:href="#m74146ca4e9" y="307.584"/>
      </g>
     </g>
     <g id="text_6">
      <!-- 1.0 -->
      <defs>
       <path d="M 12.40625 8.296875 
L 28.515625 8.296875 
L 28.515625 63.921875 
L 10.984375 60.40625 
L 10.984375 69.390625 
L 28.421875 72.90625 
L 38.28125 72.90625 
L 38.28125 8.296875 
L 54.390625 8.296875 
L 54.390625 0 
L 12.40625 0 
z
" id="DejaVuSans-31"/>
      </defs>
      <g transform="translate(390.551944 322.182437)scale(0.1 -0.1)">
       <use xlink:href="#DejaVuSans-31"/>
       <use x="63.623047" xlink:href="#DejaVuSans-2e"/>
       <use x="95.410156" xlink:href="#DejaVuSans-30"/>
      </g>
     </g>
    </g>
    <g id="text_7">
     <!-- Time (seconds) -->
     <defs>
      <path d="M -0.296875 72.90625 
L 61.375 72.90625 
L 61.375 64.59375 
L 35.5 64.59375 
L 35.5 0 
L 25.59375 0 
L 25.59375 64.59375 
L -0.296875 64.59375 
z
" id="DejaVuSans-54"/>
      <path d="M 9.421875 54.6875 
L 18.40625 54.6875 
L 18.40625 0 
L 9.421875 0 
z
M 9.421875 75.984375 
L 18.40625 75.984375 
L 18.40625 64.59375 
L 9.421875 64.59375 
z
" id="DejaVuSans-69"/>
      <path d="M 52 44.1875 
Q 55.375 50.25 60.0625 53.125 
Q 64.75 56 71.09375 56 
Q 79.640625 56 84.28125 50.015625 
Q 88.921875 44.046875 88.921875 33.015625 
L 88.921875 0 
L 79.890625 0 
L 79.890625 32.71875 
Q 79.890625 40.578125 77.09375 44.375 
Q 74.3125 48.1875 68.609375 48.1875 
Q 61.625 48.1875 57.5625 43.546875 
Q 53.515625 38.921875 53.515625 30.90625 
L 53.515625 0 
L 44.484375 0 
L 44.484375 32.71875 
Q 44.484375 40.625 41.703125 44.40625 
Q 38.921875 48.1875 33.109375 48.1875 
Q 26.21875 48.1875 22.15625 43.53125 
Q 18.109375 38.875 18.109375 30.90625 
L 18.109375 0 
L 9.078125 0 
L 9.078125 54.6875 
L 18.109375 54.6875 
L 18.109375 46.1875 
Q 21.1875 51.21875 25.484375 53.609375 
Q 29.78125 56 35.6875 56 
Q 41.65625 56 45.828125 52.96875 
Q 50 49.953125 52 44.1875 
z
" id="DejaVuSans-6d"/>
      <path d="M 56.203125 29.59375 
L 56.203125 25.203125 
L 14.890625 25.203125 
Q 15.484375 15.921875 20.484375 11.0625 
Q 25.484375 6.203125 34.421875 6.203125 
Q 39.59375 6.203125 44.453125 7.46875 
Q 49.3125 8.734375 54.109375 11.28125 
L 54.109375 2.78125 
Q 49.265625 0.734375 44.1875 -0.34375 
Q 39.109375 -1.421875 33.890625 -1.421875 
Q 20.796875 -1.421875 13.15625 6.1875 
Q 5.515625 13.8125 5.515625 26.8125 
Q 5.515625 40.234375 12.765625 48.109375 
Q 20.015625 56 32.328125 56 
Q 43.359375 56 49.78125 48.890625 
Q 56.203125 41.796875 56.203125 29.59375 
z
M 47.21875 32.234375 
Q 47.125 39.59375 43.09375 43.984375 
Q 39.0625 48.390625 32.421875 48.390625 
Q 24.90625 48.390625 20.390625 44.140625 
Q 15.875 39.890625 15.1875 32.171875 
z
" id="DejaVuSans-65"/>
      <path id="DejaVuSans-20"/>
      <path d="M 31 75.875 
Q 24.46875 64.65625 21.28125 53.65625 
Q 18.109375 42.671875 18.109375 31.390625 
Q 18.109375 20.125 21.3125 9.0625 
Q 24.515625 -2 31 -13.1875 
L 23.1875 -13.1875 
Q 15.875 -1.703125 12.234375 9.375 
Q 8.59375 20.453125 8.59375 31.390625 
Q 8.59375 42.28125 12.203125 53.3125 
Q 15.828125 64.359375 23.1875 75.875 
z
" id="DejaVuSans-28"/>
      <path d="M 44.28125 53.078125 
L 44.28125 44.578125 
Q 40.484375 46.53125 36.375 47.5 
Q 32.28125 48.484375 27.875 48.484375 
Q 21.1875 48.484375 17.84375 46.4375 
Q 14.5 44.390625 14.5 40.28125 
Q 14.5 37.15625 16.890625 35.375 
Q 19.28125 33.59375 26.515625 31.984375 
L 29.59375 31.296875 
Q 39.15625 29.25 43.1875 25.515625 
Q 47.21875 21.78125 47.21875 15.09375 
Q 47.21875 7.46875 41.1875 3.015625 
Q 35.15625 -1.421875 24.609375 -1.421875 
Q 20.21875 -1.421875 15.453125 -0.5625 
Q 10.6875 0.296875 5.421875 2 
L 5.421875 11.28125 
Q 10.40625 8.6875 15.234375 7.390625 
Q 20.0625 6.109375 24.8125 6.109375 
Q 31.15625 6.109375 34.5625 8.28125 
Q 37.984375 10.453125 37.984375 14.40625 
Q 37.984375 18.0625 35.515625 20.015625 
Q 33.0625 21.96875 24.703125 23.78125 
L 21.578125 24.515625 
Q 13.234375 26.265625 9.515625 29.90625 
Q 5.8125 33.546875 5.8125 39.890625 
Q 5.8125 47.609375 11.28125 51.796875 
Q 16.75 56 26.8125 56 
Q 31.78125 56 36.171875 55.265625 
Q 40.578125 54.546875 44.28125 53.078125 
z
" id="DejaVuSans-73"/>
      <path d="M 48.78125 52.59375 
L 48.78125 44.1875 
Q 44.96875 46.296875 41.140625 47.34375 
Q 37.3125 48.390625 33.40625 48.390625 
Q 24.65625 48.390625 19.8125 42.84375 
Q 14.984375 37.3125 14.984375 27.296875 
Q 14.984375 17.28125 19.8125 11.734375 
Q 24.65625 6.203125 33.40625 6.203125 
Q 37.3125 6.203125 41.140625 7.25 
Q 44.96875 8.296875 48.78125 10.40625 
L 48.78125 2.09375 
Q 45.015625 0.34375 40.984375 -0.53125 
Q 36.96875 -1.421875 32.421875 -1.421875 
Q 20.0625 -1.421875 12.78125 6.34375 
Q 5.515625 14.109375 5.515625 27.296875 
Q 5.515625 40.671875 12.859375 48.328125 
Q 20.21875 56 33.015625 56 
Q 37.15625 56 41.109375 55.140625 
Q 45.0625 54.296875 48.78125 52.59375 
z
" id="DejaVuSans-63"/>
      <path d="M 30.609375 48.390625 
Q 23.390625 48.390625 19.1875 42.75 
Q 14.984375 37.109375 14.984375 27.296875 
Q 14.984375 17.484375 19.15625 11.84375 
Q 23.34375 6.203125 30.609375 6.203125 
Q 37.796875 6.203125 41.984375 11.859375 
Q 46.1875 17.53125 46.1875 27.296875 
Q 46.1875 37.015625 41.984375 42.703125 
Q 37.796875 48.390625 30.609375 48.390625 
z
M 30.609375 56 
Q 42.328125 56 49.015625 48.375 
Q 55.71875 40.765625 55.71875 27.296875 
Q 55.71875 13.875 49.015625 6.21875 
Q 42.328125 -1.421875 30.609375 -1.421875 
Q 18.84375 -1.421875 12.171875 6.21875 
Q 5.515625 13.875 5.515625 27.296875 
Q 5.515625 40.765625 12.171875 48.375 
Q 18.84375 56 30.609375 56 
z
" id="DejaVuSans-6f"/>
      <path d="M 54.890625 33.015625 
L 54.890625 0 
L 45.90625 0 
L 45.90625 32.71875 
Q 45.90625 40.484375 42.875 44.328125 
Q 39.84375 48.1875 33.796875 48.1875 
Q 26.515625 48.1875 22.3125 43.546875 
Q 18.109375 38.921875 18.109375 30.90625 
L 18.109375 0 
L 9.078125 0 
L 9.078125 54.6875 
L 18.109375 54.6875 
L 18.109375 46.1875 
Q 21.34375 51.125 25.703125 53.5625 
Q 30.078125 56 35.796875 56 
Q 45.21875 56 50.046875 50.171875 
Q 54.890625 44.34375 54.890625 33.015625 
z
" id="DejaVuSans-6e"/>
      <path d="M 45.40625 46.390625 
L 45.40625 75.984375 
L 54.390625 75.984375 
L 54.390625 0 
L 45.40625 0 
L 45.40625 8.203125 
Q 42.578125 3.328125 38.25 0.953125 
Q 33.9375 -1.421875 27.875 -1.421875 
Q 17.96875 -1.421875 11.734375 6.484375 
Q 5.515625 14.40625 5.515625 27.296875 
Q 5.515625 40.1875 11.734375 48.09375 
Q 17.96875 56 27.875 56 
Q 33.9375 56 38.25 53.625 
Q 42.578125 51.265625 45.40625 46.390625 
z
M 14.796875 27.296875 
Q 14.796875 17.390625 18.875 11.75 
Q 22.953125 6.109375 30.078125 6.109375 
Q 37.203125 6.109375 41.296875 11.75 
Q 45.40625 17.390625 45.40625 27.296875 
Q 45.40625 37.203125 41.296875 42.84375 
Q 37.203125 48.484375 30.078125 48.484375 
Q 22.953125 48.484375 18.875 42.84375 
Q 14.796875 37.203125 14.796875 27.296875 
z
" id="DejaVuSans-64"/>
      <path d="M 8.015625 75.875 
L 15.828125 75.875 
Q 23.140625 64.359375 26.78125 53.3125 
Q 30.421875 42.28125 30.421875 31.390625 
Q 30.421875 20.453125 26.78125 9.375 
Q 23.140625 -1.703125 15.828125 -13.1875 
L 8.015625 -13.1875 
Q 14.5 -2 17.703125 9.0625 
Q 20.90625 20.125 20.90625 31.390625 
Q 20.90625 42.671875 17.703125 53.65625 
Q 14.5 64.65625 8.015625 75.875 
z
" id="DejaVuSans-29"/>
     </defs>
     <g transform="translate(197.844375 335.860562)scale(0.1 -0.1)">
      <use xlink:href="#DejaVuSans-54"/>
      <use x="61.037109" xlink:href="#DejaVuSans-69"/>
      <use x="88.820312" xlink:href="#DejaVuSans-6d"/>
      <use x="186.232422" xlink:href="#DejaVuSans-65"/>
      <use x="247.755859" xlink:href="#DejaVuSans-20"/>
      <use x="279.542969" xlink:href="#DejaVuSans-28"/>
      <use x="318.556641" xlink:href="#DejaVuSans-73"/>
      <use x="370.65625" xlink:href="#DejaVuSans-65"/>
      <use x="432.179688" xlink:href="#DejaVuSans-63"/>
      <use x="487.160156" xlink:href="#DejaVuSans-6f"/>
      <use x="548.341797" xlink:href="#DejaVuSans-6e"/>
      <use x="611.720703" xlink:href="#DejaVuSans-64"/>
      <use x="675.197266" xlink:href="#DejaVuSans-73"/>
      <use x="727.296875" xlink:href="#DejaVuSans-29"/>
     </g>
    </g>
   </g>
   <g id="matplotlib.axis_2">
    <g id="ytick_1">
     <g id="line2d_7">
      <defs>
       <path d="M 0 0 
L -3.5 0 
" id="m38fc66b8b4" style="stroke:#000000;stroke-width:0.8;"/>
      </defs>
      <g>
       <use style="stroke:#000000;stroke-width:0.8;" x="57.6" xlink:href="#m38fc66b8b4" y="280.338041"/>
      </g>
     </g>
     <g id="text_8">
      <!-- −175 -->
      <defs>
       <path d="M 10.59375 35.5 
L 73.1875 35.5 
L 73.1875 27.203125 
L 10.59375 27.203125 
z
" id="DejaVuSans-2212"/>
       <path d="M 8.203125 72.90625 
L 55.078125 72.90625 
L 55.078125 68.703125 
L 28.609375 0 
L 18.3125 0 
L 43.21875 64.59375 
L 8.203125 64.59375 
z
" id="DejaVuSans-37"/>
       <path d="M 10.796875 72.90625 
L 49.515625 72.90625 
L 49.515625 64.59375 
L 19.828125 64.59375 
L 19.828125 46.734375 
Q 21.96875 47.46875 24.109375 47.828125 
Q 26.265625 48.1875 28.421875 48.1875 
Q 40.625 48.1875 47.75 41.5 
Q 54.890625 34.8125 54.890625 23.390625 
Q 54.890625 11.625 47.5625 5.09375 
Q 40.234375 -1.421875 26.90625 -1.421875 
Q 22.3125 -1.421875 17.546875 -0.640625 
Q 12.796875 0.140625 7.71875 1.703125 
L 7.71875 11.625 
Q 12.109375 9.234375 16.796875 8.0625 
Q 21.484375 6.890625 26.703125 6.890625 
Q 35.15625 6.890625 40.078125 11.328125 
Q 45.015625 15.765625 45.015625 23.390625 
Q 45.015625 31 40.078125 35.4375 
Q 35.15625 39.890625 26.703125 39.890625 
Q 22.75 39.890625 18.8125 39.015625 
Q 14.890625 38.140625 10.796875 36.28125 
z
" id="DejaVuSans-35"/>
      </defs>
      <g transform="translate(23.132812 284.137259)scale(0.1 -0.1)">
       <use xlink:href="#DejaVuSans-2212"/>
       <use x="83.789062" xlink:href="#DejaVuSans-31"/>
       <use x="147.412109" xlink:href="#DejaVuSans-37"/>
       <use x="211.035156" xlink:href="#DejaVuSans-35"/>
      </g>
     </g>
    </g>
    <g id="ytick_2">
     <g id="line2d_8">
      <g>
       <use style="stroke:#000000;stroke-width:0.8;" x="57.6" xlink:href="#m38fc66b8b4" y="247.942321"/>
      </g>
     </g>
     <g id="text_9">
      <!-- −150 -->
      <g transform="translate(23.132812 251.741539)scale(0.1 -0.1)">
       <use xlink:href="#DejaVuSans-2212"/>
       <use x="83.789062" xlink:href="#DejaVuSans-31"/>
       <use x="147.412109" xlink:href="#DejaVuSans-35"/>
       <use x="211.035156" xlink:href="#DejaVuSans-30"/>
      </g>
     </g>
    </g>
    <g id="ytick_3">
     <g id="line2d_9">
      <g>
       <use style="stroke:#000000;stroke-width:0.8;" x="57.6" xlink:href="#m38fc66b8b4" y="215.5466"/>
      </g>
     </g>
     <g id="text_10">
      <!-- −125 -->
      <g transform="translate(23.132812 219.345819)scale(0.1 -0.1)">
       <use xlink:href="#DejaVuSans-2212"/>
       <use x="83.789062" xlink:href="#DejaVuSans-31"/>
       <use x="147.412109" xlink:href="#DejaVuSans-32"/>
       <use x="211.035156" xlink:href="#DejaVuSans-35"/>
      </g>
     </g>
    </g>
    <g id="ytick_4">
     <g id="line2d_10">
      <g>
       <use style="stroke:#000000;stroke-width:0.8;" x="57.6" xlink:href="#m38fc66b8b4" y="183.15088"/>
      </g>
     </g>
     <g id="text_11">
      <!-- −100 -->
      <g transform="translate(23.132812 186.950099)scale(0.1 -0.1)">
       <use xlink:href="#DejaVuSans-2212"/>
       <use x="83.789062" xlink:href="#DejaVuSans-31"/>
       <use x="147.412109" xlink:href="#DejaVuSans-30"/>
       <use x="211.035156" xlink:href="#DejaVuSans-30"/>
      </g>
     </g>
    </g>
    <g id="ytick_5">
     <g id="line2d_11">
      <g>
       <use style="stroke:#000000;stroke-width:0.8;" x="57.6" xlink:href="#m38fc66b8b4" y="150.75516"/>
      </g>
     </g>
     <g id="text_12">
      <!-- −75 -->
      <g transform="translate(29.495313 154.554379)scale(0.1 -0.1)">
       <use xlink:href="#DejaVuSans-2212"/>
       <use x="83.789062" xlink:href="#DejaVuSans-37"/>
       <use x="147.412109" xlink:href="#DejaVuSans-35"/>
      </g>
     </g>
    </g>
    <g id="ytick_6">
     <g id="line2d_12">
      <g>
       <use style="stroke:#000000;stroke-width:0.8;" x="57.6" xlink:href="#m38fc66b8b4" y="118.35944"/>
      </g>
     </g>
     <g id="text_13">
      <!-- −50 -->
      <g transform="translate(29.495313 122.158659)scale(0.1 -0.1)">
       <use xlink:href="#DejaVuSans-2212"/>
       <use x="83.789062" xlink:href="#DejaVuSans-35"/>
       <use x="147.412109" xlink:href="#DejaVuSans-30"/>
      </g>
     </g>
    </g>
    <g id="ytick_7">
     <g id="line2d_13">
      <g>
       <use style="stroke:#000000;stroke-width:0.8;" x="57.6" xlink:href="#m38fc66b8b4" y="85.96372"/>
      </g>
     </g>
     <g id="text_14">
      <!-- −25 -->
      <g transform="translate(29.495313 89.762939)scale(0.1 -0.1)">
       <use xlink:href="#DejaVuSans-2212"/>
       <use x="83.789062" xlink:href="#DejaVuSans-32"/>
       <use x="147.412109" xlink:href="#DejaVuSans-35"/>
      </g>
     </g>
    </g>
    <g id="ytick_8">
     <g id="line2d_14">
      <g>
       <use style="stroke:#000000;stroke-width:0.8;" x="57.6" xlink:href="#m38fc66b8b4" y="53.568"/>
      </g>
     </g>
     <g id="text_15">
      <!-- 0 -->
      <g transform="translate(44.2375 57.367219)scale(0.1 -0.1)">
       <use xlink:href="#DejaVuSans-30"/>
      </g>
     </g>
    </g>
    <g id="text_16">
     <!-- Mean EPSC (pA) -->
     <defs>
      <path d="M 9.8125 72.90625 
L 24.515625 72.90625 
L 43.109375 23.296875 
L 61.8125 72.90625 
L 76.515625 72.90625 
L 76.515625 0 
L 66.890625 0 
L 66.890625 64.015625 
L 48.09375 14.015625 
L 38.1875 14.015625 
L 19.390625 64.015625 
L 19.390625 0 
L 9.8125 0 
z
" id="DejaVuSans-4d"/>
      <path d="M 34.28125 27.484375 
Q 23.390625 27.484375 19.1875 25 
Q 14.984375 22.515625 14.984375 16.5 
Q 14.984375 11.71875 18.140625 8.90625 
Q 21.296875 6.109375 26.703125 6.109375 
Q 34.1875 6.109375 38.703125 11.40625 
Q 43.21875 16.703125 43.21875 25.484375 
L 43.21875 27.484375 
z
M 52.203125 31.203125 
L 52.203125 0 
L 43.21875 0 
L 43.21875 8.296875 
Q 40.140625 3.328125 35.546875 0.953125 
Q 30.953125 -1.421875 24.3125 -1.421875 
Q 15.921875 -1.421875 10.953125 3.296875 
Q 6 8.015625 6 15.921875 
Q 6 25.140625 12.171875 29.828125 
Q 18.359375 34.515625 30.609375 34.515625 
L 43.21875 34.515625 
L 43.21875 35.40625 
Q 43.21875 41.609375 39.140625 45 
Q 35.0625 48.390625 27.6875 48.390625 
Q 23 48.390625 18.546875 47.265625 
Q 14.109375 46.140625 10.015625 43.890625 
L 10.015625 52.203125 
Q 14.9375 54.109375 19.578125 55.046875 
Q 24.21875 56 28.609375 56 
Q 40.484375 56 46.34375 49.84375 
Q 52.203125 43.703125 52.203125 31.203125 
z
" id="DejaVuSans-61"/>
      <path d="M 9.8125 72.90625 
L 55.90625 72.90625 
L 55.90625 64.59375 
L 19.671875 64.59375 
L 19.671875 43.015625 
L 54.390625 43.015625 
L 54.390625 34.71875 
L 19.671875 34.71875 
L 19.671875 8.296875 
L 56.78125 8.296875 
L 56.78125 0 
L 9.8125 0 
z
" id="DejaVuSans-45"/>
      <path d="M 19.671875 64.796875 
L 19.671875 37.40625 
L 32.078125 37.40625 
Q 38.96875 37.40625 42.71875 40.96875 
Q 46.484375 44.53125 46.484375 51.125 
Q 46.484375 57.671875 42.71875 61.234375 
Q 38.96875 64.796875 32.078125 64.796875 
z
M 9.8125 72.90625 
L 32.078125 72.90625 
Q 44.34375 72.90625 50.609375 67.359375 
Q 56.890625 61.8125 56.890625 51.125 
Q 56.890625 40.328125 50.609375 34.8125 
Q 44.34375 29.296875 32.078125 29.296875 
L 19.671875 29.296875 
L 19.671875 0 
L 9.8125 0 
z
" id="DejaVuSans-50"/>
      <path d="M 53.515625 70.515625 
L 53.515625 60.890625 
Q 47.90625 63.578125 42.921875 64.890625 
Q 37.9375 66.21875 33.296875 66.21875 
Q 25.25 66.21875 20.875 63.09375 
Q 16.5 59.96875 16.5 54.203125 
Q 16.5 49.359375 19.40625 46.890625 
Q 22.3125 44.4375 30.421875 42.921875 
L 36.375 41.703125 
Q 47.40625 39.59375 52.65625 34.296875 
Q 57.90625 29 57.90625 20.125 
Q 57.90625 9.515625 50.796875 4.046875 
Q 43.703125 -1.421875 29.984375 -1.421875 
Q 24.8125 -1.421875 18.96875 -0.25 
Q 13.140625 0.921875 6.890625 3.21875 
L 6.890625 13.375 
Q 12.890625 10.015625 18.65625 8.296875 
Q 24.421875 6.59375 29.984375 6.59375 
Q 38.421875 6.59375 43.015625 9.90625 
Q 47.609375 13.234375 47.609375 19.390625 
Q 47.609375 24.75 44.3125 27.78125 
Q 41.015625 30.8125 33.5 32.328125 
L 27.484375 33.5 
Q 16.453125 35.6875 11.515625 40.375 
Q 6.59375 45.0625 6.59375 53.421875 
Q 6.59375 63.09375 13.40625 68.65625 
Q 20.21875 74.21875 32.171875 74.21875 
Q 37.3125 74.21875 42.625 73.28125 
Q 47.953125 72.359375 53.515625 70.515625 
z
" id="DejaVuSans-53"/>
      <path d="M 64.40625 67.28125 
L 64.40625 56.890625 
Q 59.421875 61.53125 53.78125 63.8125 
Q 48.140625 66.109375 41.796875 66.109375 
Q 29.296875 66.109375 22.65625 58.46875 
Q 16.015625 50.828125 16.015625 36.375 
Q 16.015625 21.96875 22.65625 14.328125 
Q 29.296875 6.6875 41.796875 6.6875 
Q 48.140625 6.6875 53.78125 8.984375 
Q 59.421875 11.28125 64.40625 15.921875 
L 64.40625 5.609375 
Q 59.234375 2.09375 53.4375 0.328125 
Q 47.65625 -1.421875 41.21875 -1.421875 
Q 24.65625 -1.421875 15.125 8.703125 
Q 5.609375 18.84375 5.609375 36.375 
Q 5.609375 53.953125 15.125 64.078125 
Q 24.65625 74.21875 41.21875 74.21875 
Q 47.75 74.21875 53.53125 72.484375 
Q 59.328125 70.75 64.40625 67.28125 
z
" id="DejaVuSans-43"/>
      <path d="M 18.109375 8.203125 
L 18.109375 -20.796875 
L 9.078125 -20.796875 
L 9.078125 54.6875 
L 18.109375 54.6875 
L 18.109375 46.390625 
Q 20.953125 51.265625 25.265625 53.625 
Q 29.59375 56 35.59375 56 
Q 45.5625 56 51.78125 48.09375 
Q 58.015625 40.1875 58.015625 27.296875 
Q 58.015625 14.40625 51.78125 6.484375 
Q 45.5625 -1.421875 35.59375 -1.421875 
Q 29.59375 -1.421875 25.265625 0.953125 
Q 20.953125 3.328125 18.109375 8.203125 
z
M 48.6875 27.296875 
Q 48.6875 37.203125 44.609375 42.84375 
Q 40.53125 48.484375 33.40625 48.484375 
Q 26.265625 48.484375 22.1875 42.84375 
Q 18.109375 37.203125 18.109375 27.296875 
Q 18.109375 17.390625 22.1875 11.75 
Q 26.265625 6.109375 33.40625 6.109375 
Q 40.53125 6.109375 44.609375 11.75 
Q 48.6875 17.390625 48.6875 27.296875 
z
" id="DejaVuSans-70"/>
      <path d="M 34.1875 63.1875 
L 20.796875 26.90625 
L 47.609375 26.90625 
z
M 28.609375 72.90625 
L 39.796875 72.90625 
L 67.578125 0 
L 57.328125 0 
L 50.6875 18.703125 
L 17.828125 18.703125 
L 11.1875 0 
L 0.78125 0 
z
" id="DejaVuSans-41"/>
     </defs>
     <g transform="translate(17.053125 214.6655)rotate(-90)scale(0.1 -0.1)">
      <use xlink:href="#DejaVuSans-4d"/>
      <use x="86.279297" xlink:href="#DejaVuSans-65"/>
      <use x="147.802734" xlink:href="#DejaVuSans-61"/>
      <use x="209.082031" xlink:href="#DejaVuSans-6e"/>
      <use x="272.460938" xlink:href="#DejaVuSans-20"/>
      <use x="304.248047" xlink:href="#DejaVuSans-45"/>
      <use x="367.431641" xlink:href="#DejaVuSans-50"/>
      <use x="427.734375" xlink:href="#DejaVuSans-53"/>
      <use x="491.210938" xlink:href="#DejaVuSans-43"/>
      <use x="561.035156" xlink:href="#DejaVuSans-20"/>
      <use x="592.822266" xlink:href="#DejaVuSans-28"/>
      <use x="631.835938" xlink:href="#DejaVuSans-70"/>
      <use x="695.3125" xlink:href="#DejaVuSans-41"/>
      <use x="763.720703" xlink:href="#DejaVuSans-29"/>
     </g>
    </g>
   </g>
   <g id="line2d_15">
    <path clip-path="url(#pebcef306ad)" d="M 73.832727 53.568 
L 106.299805 53.568 
L 106.575775 70.110965 
L 106.819278 74.403299 
L 106.949147 74.829829 
L 106.981614 74.814156 
L 107.095249 74.485976 
L 107.354985 72.774599 
L 108.767303 62.240349 
L 109.416645 59.39189 
L 110.065986 57.47331 
L 110.731561 56.159955 
L 111.429603 55.254115 
L 112.19258 54.621829 
L 113.085424 54.176007 
L 114.221772 53.869927 
L 115.86136 53.677968 
L 118.880798 53.585119 
L 122.533344 53.569804 
L 122.809314 72.377177 
L 123.052817 77.256909 
L 123.182686 77.74173 
L 123.215153 77.723887 
L 123.328788 77.350699 
L 123.588524 75.404875 
L 125.000842 63.427966 
L 125.650184 60.18943 
L 126.299525 58.008114 
L 126.9651 56.514905 
L 127.646909 55.504283 
L 128.393652 54.790347 
L 129.237796 54.294711 
L 130.276742 53.951189 
L 131.721527 53.725359 
L 134.140324 53.603464 
L 140.844776 53.56857 
L 398.487273 53.568 
L 398.487273 53.568 
" style="fill:none;stroke:#1f77b4;stroke-linecap:square;stroke-width:1.5;"/>
   </g>
   <g id="line2d_16">
    <path clip-path="url(#pebcef306ad)" d="M 73.832727 53.568 
L 106.299805 53.568 
L 106.575775 78.312728 
L 106.819278 84.73314 
L 106.949147 85.371138 
L 106.981614 85.347693 
L 107.079015 84.959806 
L 107.306285 82.869049 
L 108.945872 65.198224 
L 109.595214 61.373155 
L 110.244555 58.801194 
L 110.893897 57.076083 
L 111.575705 55.872998 
L 112.289981 55.052505 
L 113.085424 54.477447 
L 114.02697 54.077198 
L 115.260719 53.806135 
L 117.143809 53.642652 
L 121.056092 53.574705 
L 122.533344 53.570699 
L 122.809314 81.853747 
L 123.052817 89.192024 
L 123.182686 89.921111 
L 123.215153 89.894279 
L 123.312554 89.450816 
L 123.539824 87.060843 
L 125.179411 66.86199 
L 125.828753 62.489724 
L 126.478094 59.549831 
L 127.127436 57.577933 
L 127.793011 56.229219 
L 128.491053 55.299151 
L 129.254029 54.649974 
L 130.13064 54.198518 
L 131.250755 53.884253 
L 132.857875 53.685512 
L 135.747445 53.587817 
L 146.510281 53.568026 
L 398.487273 53.568 
L 398.487273 53.568 
" style="fill:none;stroke:#ff7f0e;stroke-linecap:square;stroke-width:1.5;"/>
   </g>
   <g id="line2d_17">
    <path clip-path="url(#pebcef306ad)" d="M 73.832727 53.568 
L 106.299805 53.568 
L 106.575775 86.667641 
L 106.819278 95.255868 
L 106.949147 96.109282 
L 106.981614 96.077922 
L 107.079015 95.559067 
L 107.306285 92.762378 
L 108.945872 69.125101 
L 109.595214 64.00852 
L 110.244555 60.568152 
L 110.893897 58.260567 
L 111.559472 56.682254 
L 112.24128 55.614215 
L 112.97179 54.872724 
L 113.7997 54.351481 
L 114.80618 53.989469 
L 116.169797 53.749953 
L 118.377558 53.6147 
L 122.533344 53.57161 
L 122.809314 91.215997 
L 123.052817 100.983153 
L 123.182686 101.953558 
L 123.215153 101.917843 
L 123.312554 101.327599 
L 123.539824 98.146572 
L 125.179411 71.262141 
L 125.828753 65.442708 
L 126.478094 61.529745 
L 127.127436 58.905173 
L 127.776777 57.145649 
L 128.442352 55.942312 
L 129.156628 55.097144 
L 129.935838 54.514209 
L 130.86115 54.103105 
L 132.062431 53.823306 
L 133.864354 53.652138 
L 137.4682 53.577138 
L 158.928938 53.568 
L 398.487273 53.568 
L 398.487273 53.568 
" style="fill:none;stroke:#2ca02c;stroke-linecap:square;stroke-width:1.5;"/>
   </g>
   <g id="line2d_18">
    <path clip-path="url(#pebcef306ad)" d="M 73.832727 53.568 
L 106.299805 53.568 
L 106.575775 94.995232 
L 106.819278 105.744184 
L 106.949147 106.81231 
L 106.981614 106.77306 
L 107.079015 106.123665 
L 107.306285 102.623353 
L 108.945872 73.039137 
L 109.595214 66.635267 
L 110.244555 62.329331 
L 110.893897 59.441178 
L 111.543238 57.504947 
L 112.208813 56.180761 
L 112.906856 55.267625 
L 113.669832 54.63027 
L 114.562676 54.180876 
L 115.699024 53.872345 
L 117.338612 53.678848 
L 120.341816 53.585429 
L 122.533344 53.572518 
L 122.809314 100.557677 
L 123.052817 112.748374 
L 123.182686 113.959567 
L 123.215153 113.91499 
L 123.312554 113.178287 
L 123.539824 109.207945 
L 125.179411 75.652625 
L 125.828753 68.389203 
L 126.478094 63.505309 
L 127.127436 60.229497 
L 127.776777 58.033378 
L 128.442352 56.531455 
L 129.124161 55.51513 
L 129.85467 54.809545 
L 130.698814 54.306124 
L 131.737761 53.957207 
L 133.166312 53.729436 
L 135.536409 53.605491 
L 141.96489 53.568715 
L 397.221057 53.568 
L 398.487273 53.568 
L 398.487273 53.568 
" style="fill:none;stroke:#d62728;stroke-linecap:square;stroke-width:1.5;"/>
   </g>
   <g id="line2d_19">
    <path clip-path="url(#pebcef306ad)" d="M 73.832727 53.568 
L 106.299805 53.568 
L 106.575775 103.127326 
L 106.819278 115.986279 
L 106.949147 117.264076 
L 106.981614 117.217122 
L 107.079015 116.440251 
L 107.306285 112.252835 
L 108.945872 76.861287 
L 109.595214 69.200349 
L 110.244555 64.049166 
L 110.893897 60.594072 
L 111.543238 58.277763 
L 112.208813 56.693641 
L 112.890622 55.621694 
L 113.621131 54.877493 
L 114.449042 54.354345 
L 115.455521 53.99101 
L 116.819138 53.750618 
L 119.0269 53.614871 
L 122.533344 53.573405 
L 122.809314 110.181241 
L 123.052817 124.868626 
L 123.182686 126.327875 
L 123.215153 126.27417 
L 123.312554 125.38659 
L 123.539824 120.603116 
L 125.179411 80.1756 
L 125.828753 71.424615 
L 126.478094 65.54049 
L 127.127436 61.593785 
L 127.776777 58.947897 
L 128.426119 57.17426 
L 129.091694 55.961296 
L 129.80597 55.10937 
L 130.585179 54.521774 
L 131.510491 54.107384 
L 132.711773 53.825347 
L 134.513696 53.652811 
L 138.101308 53.577304 
L 159.204909 53.568 
L 398.487273 53.568 
L 398.487273 53.568 
" style="fill:none;stroke:#9467bd;stroke-linecap:square;stroke-width:1.5;"/>
   </g>
   <g id="line2d_20">
    <path clip-path="url(#pebcef306ad)" d="M 73.832727 53.568 
L 106.299805 53.568 
L 106.575775 111.38792 
L 106.819278 126.390215 
L 106.949147 127.880996 
L 106.981614 127.826215 
L 107.079015 126.919855 
L 107.306285 122.034476 
L 108.945872 80.743834 
L 109.595214 71.805963 
L 110.244555 65.796176 
L 110.893897 61.765184 
L 111.543238 59.06279 
L 112.19258 57.251275 
L 112.858155 56.012408 
L 113.572431 55.142288 
L 114.35164 54.542143 
L 115.276952 54.118903 
L 116.462001 53.833485 
L 118.231456 53.65726 
L 121.6892 53.578607 
L 122.533344 53.574306 
L 122.809314 119.576553 
L 123.052817 136.701397 
L 123.182686 138.402818 
L 123.215153 138.3402 
L 123.312554 137.305321 
L 123.539824 131.727999 
L 125.179411 84.591293 
L 125.828753 74.388029 
L 126.478094 67.527397 
L 127.127436 62.925712 
L 127.776777 59.840723 
L 128.426119 57.77274 
L 129.091694 56.358478 
L 129.789736 55.383231 
L 130.536479 54.713926 
L 131.396856 54.242498 
L 132.46827 53.916615 
L 133.977989 53.705547 
L 136.607822 53.59522 
L 144.886927 53.568166 
L 398.487273 53.568 
L 398.487273 53.568 
" style="fill:none;stroke:#8c564b;stroke-linecap:square;stroke-width:1.5;"/>
   </g>
   <g id="line2d_21">
    <path clip-path="url(#pebcef306ad)" d="M 73.832727 53.568 
L 106.299805 53.568 
L 106.575775 119.815678 
L 106.819278 137.004689 
L 106.949147 138.712764 
L 106.981614 138.649998 
L 107.079015 137.611529 
L 107.306285 132.014063 
L 108.945872 84.704949 
L 109.595214 74.464305 
L 110.244555 67.578539 
L 110.893897 62.959996 
L 111.543238 59.863704 
L 112.19258 57.788145 
L 112.858155 56.368701 
L 113.556197 55.389882 
L 114.30294 54.718124 
L 115.163317 54.244969 
L 116.234731 53.917892 
L 117.74445 53.706051 
L 120.35805 53.595595 
L 122.533344 53.575226 
L 122.809314 128.9866 
L 123.052817 148.552721 
L 123.182686 150.496691 
L 123.215153 150.425147 
L 123.312554 149.242736 
L 123.539824 142.870323 
L 125.179411 89.013907 
L 125.828753 77.356088 
L 126.478094 69.517419 
L 127.127436 64.259728 
L 127.776777 60.734949 
L 128.426119 58.372159 
L 129.091694 56.756283 
L 129.773502 55.662851 
L 130.504012 54.903736 
L 131.315689 54.378165 
L 132.305935 54.008204 
L 133.637085 53.76188 
L 135.763678 53.620313 
L 140.779842 53.57038 
L 218.554727 53.568 
L 398.487273 53.568 
L 398.487273 53.568 
" style="fill:none;stroke:#e377c2;stroke-linecap:square;stroke-width:1.5;"/>
   </g>
   <g id="line2d_22">
    <path clip-path="url(#pebcef306ad)" d="M 73.832727 53.568 
L 106.299805 53.568 
L 106.575775 127.820785 
L 106.819278 147.086848 
L 106.949147 149.001321 
L 106.981614 148.930971 
L 107.079015 147.767016 
L 107.306285 141.493175 
L 108.945872 88.467414 
L 109.595214 76.989332 
L 110.244555 69.271518 
L 110.893897 64.094887 
L 111.543238 60.624452 
L 112.19258 58.29809 
L 112.858155 56.707127 
L 113.539964 55.630554 
L 114.270473 54.883142 
L 115.098383 54.357737 
L 116.104863 53.992835 
L 117.46848 53.751406 
L 119.660008 53.615546 
L 122.533344 53.576099 
L 122.809314 138.745557 
L 123.052817 160.843501 
L 123.182686 163.03902 
L 123.215153 162.958219 
L 123.312554 161.62281 
L 123.539824 154.425825 
L 125.179411 93.600522 
L 125.828753 80.434208 
L 126.478094 71.581235 
L 127.127436 65.643212 
L 127.776777 61.662335 
L 128.426119 58.993805 
L 129.07546 57.205028 
L 129.741035 55.981714 
L 130.455311 55.12252 
L 131.234521 54.529911 
L 132.159833 54.111985 
L 133.361115 53.827543 
L 135.146804 53.654394 
L 138.685715 53.577766 
L 158.864004 53.568 
L 398.487273 53.568 
L 398.487273 53.568 
" style="fill:none;stroke:#7f7f7f;stroke-linecap:square;stroke-width:1.5;"/>
   </g>
   <g id="line2d_23">
    <path clip-path="url(#pebcef306ad)" d="M 73.832727 53.568 
L 106.299805 53.568 
L 106.575775 136.246023 
L 106.819278 157.698147 
L 106.949147 159.829849 
L 106.981614 159.751517 
L 107.079015 158.455492 
L 107.306285 151.469778 
L 108.945872 92.427345 
L 109.595214 79.646879 
L 110.244555 71.053348 
L 110.893897 65.289341 
L 111.543238 61.425126 
L 112.19258 58.834799 
L 112.841921 57.098443 
L 113.52373 55.887666 
L 114.238006 55.06195 
L 115.033449 54.483233 
L 115.974994 54.080437 
L 117.208743 53.80765 
L 119.091834 53.643127 
L 122.533344 53.577018 
L 122.809314 147.913326 
L 123.052817 172.389684 
L 123.182686 174.821506 
L 123.215153 174.732007 
L 123.312554 173.252865 
L 123.539824 165.281259 
L 125.179411 97.909263 
L 125.828753 83.325846 
L 126.478094 73.520019 
L 127.127436 66.942879 
L 127.776777 62.533536 
L 128.426119 59.577791 
L 129.07546 57.596485 
L 129.741035 56.241505 
L 130.439078 55.307139 
L 131.202054 54.654966 
L 132.078665 54.201428 
L 133.198779 53.885712 
L 134.789666 53.687241 
L 137.663002 53.588311 
L 148.214803 53.568031 
L 398.487273 53.568 
L 398.487273 53.568 
" style="fill:none;stroke:#bcbd22;stroke-linecap:square;stroke-width:1.5;"/>
   </g>
   <g id="line2d_24">
    <path clip-path="url(#pebcef306ad)" d="M 73.832727 53.568 
L 106.299805 53.568 
L 106.575775 144.318077 
L 106.819278 167.864624 
L 106.949147 170.204449 
L 106.981614 170.118469 
L 107.079015 168.69591 
L 107.306285 161.028163 
L 108.945872 96.221276 
L 109.595214 82.193023 
L 110.244555 72.760484 
L 110.893897 66.433724 
L 111.543238 62.192236 
L 112.19258 59.34901 
L 112.841921 57.443128 
L 113.507496 56.13973 
L 114.205539 55.240934 
L 114.968515 54.613587 
L 115.86136 54.171251 
L 116.997707 53.867566 
L 118.653528 53.676022 
L 121.705434 53.584483 
L 122.533344 53.577898 
L 122.809314 157.234717 
L 123.052817 184.129361 
L 123.182686 186.801451 
L 123.215153 186.703109 
L 123.312554 185.077827 
L 123.539824 176.31862 
L 125.179411 102.290217 
L 125.828753 86.265946 
L 126.478094 75.491294 
L 127.127436 68.264328 
L 127.776777 63.419339 
L 128.426119 60.171563 
L 129.07546 57.994502 
L 129.741035 56.50565 
L 130.422844 55.498173 
L 131.169587 54.786487 
L 132.013731 54.292415 
L 133.052677 53.949979 
L 134.497462 53.724862 
L 136.91626 53.603352 
L 143.636945 53.568563 
L 398.487273 53.568 
L 398.487273 53.568 
" style="fill:none;stroke:#17becf;stroke-linecap:square;stroke-width:1.5;"/>
   </g>
   <g id="line2d_25">
    <path clip-path="url(#pebcef306ad)" d="M 73.832727 53.568 
L 106.299805 53.568 
L 106.575775 152.534208 
L 106.819278 178.21256 
L 106.949147 180.764223 
L 106.981614 180.670458 
L 107.079015 179.119107 
L 107.306285 170.757155 
L 108.945872 100.082924 
L 109.595214 84.784612 
L 110.244555 74.498091 
L 110.893897 67.598532 
L 111.543238 62.973038 
L 112.19258 59.872398 
L 112.841921 57.793966 
L 113.507496 56.372564 
L 114.205539 55.392394 
L 114.952281 54.71971 
L 115.812659 54.245902 
L 116.884073 53.918375 
L 118.393792 53.706242 
L 121.007391 53.595633 
L 122.533344 53.578794 
L 122.809314 166.283294 
L 123.052817 195.525433 
L 123.182686 198.430754 
L 123.215153 198.323829 
L 123.312554 196.556682 
L 123.539824 187.032925 
L 125.179411 106.542942 
L 125.828753 89.11999 
L 126.478094 77.404872 
L 127.111202 69.707684 
L 127.760544 64.386863 
L 128.409885 60.820115 
L 129.059227 58.42924 
L 129.724802 56.794164 
L 130.406611 55.687741 
L 131.13712 54.919606 
L 131.948797 54.387791 
L 132.939043 54.013434 
L 134.270193 53.764183 
L 136.380553 53.621466 
L 141.315549 53.570558 
L 213.814534 53.568 
L 398.487273 53.568 
L 398.487273 53.568 
" style="fill:none;stroke:#1f77b4;stroke-linecap:square;stroke-width:1.5;"/>
   </g>
   <g id="line2d_26">
    <path clip-path="url(#pebcef306ad)" d="M 73.832727 53.568 
L 106.299805 53.568 
L 106.575775 161.019939 
L 106.819278 188.900049 
L 106.949147 191.670501 
L 106.981614 191.568697 
L 107.079015 189.884327 
L 107.306285 180.80539 
L 108.945872 104.071287 
L 109.595214 87.461241 
L 110.244555 76.292715 
L 110.877663 68.954655 
L 111.527005 63.882087 
L 112.176346 60.481753 
L 112.825688 58.202429 
L 113.491263 56.64364 
L 114.173072 55.58884 
L 114.903581 54.856544 
L 115.731491 54.341765 
L 116.737971 53.984243 
L 118.117822 53.745908 
L 120.35805 53.612758 
L 122.533344 53.57972 
L 122.809314 175.839439 
L 123.052817 207.560761 
L 123.182686 210.712398 
L 123.215153 210.596407 
L 123.312554 208.679439 
L 123.539824 198.348246 
L 125.179411 111.034222 
L 125.828753 92.134132 
L 126.478094 79.425791 
L 127.111202 71.076026 
L 127.760544 65.304099 
L 128.409885 61.434958 
L 129.059227 58.841382 
L 129.708568 57.102854 
L 130.390377 55.890565 
L 131.104653 55.063816 
L 131.900096 54.484377 
L 132.841641 54.081078 
L 134.07539 53.807949 
L 135.958481 53.643221 
L 139.838297 53.574892 
L 167.759984 53.568 
L 398.487273 53.568 
L 398.487273 53.568 
" style="fill:none;stroke:#ff7f0e;stroke-linecap:square;stroke-width:1.5;"/>
   </g>
   <g id="line2d_27">
    <path clip-path="url(#pebcef306ad)" d="M 73.832727 53.568 
L 106.299805 53.568 
L 106.575775 169.45909 
L 106.819278 199.528872 
L 106.949147 202.516912 
L 106.981614 202.407113 
L 107.079015 200.590454 
L 107.306285 190.798468 
L 108.945872 108.037757 
L 109.595214 90.123177 
L 110.244555 78.077488 
L 110.877663 70.163105 
L 111.527005 64.692144 
L 112.176346 61.024752 
L 112.825688 58.566412 
L 113.491263 56.885198 
L 114.173072 55.747554 
L 114.887347 54.971712 
L 115.699024 54.419395 
L 116.673037 54.035255 
L 117.97172 53.777951 
L 120.000912 53.628152 
L 122.533344 53.58064 
L 122.809314 185.278827 
L 123.052817 219.449038 
L 123.182686 222.843981 
L 123.215153 222.719035 
L 123.312554 220.654077 
L 123.539824 209.525313 
L 125.179411 115.470627 
L 125.828753 95.111445 
L 126.478094 81.422018 
L 127.111202 72.427649 
L 127.760544 66.210128 
L 128.409885 62.042289 
L 129.059227 59.248488 
L 129.708568 57.375746 
L 130.374143 56.095011 
L 131.072186 55.211844 
L 131.835162 54.595406 
L 132.728007 54.160762 
L 133.880588 53.859428 
L 135.552642 53.672042 
L 138.685715 53.583101 
L 152.305655 53.568003 
L 398.487273 53.568 
L 398.487273 53.568 
" style="fill:none;stroke:#2ca02c;stroke-linecap:square;stroke-width:1.5;"/>
   </g>
   <g id="line2d_28">
    <path clip-path="url(#pebcef306ad)" d="M 73.832727 53.568 
L 106.299805 53.568 
L 106.575775 177.25383 
L 106.819278 209.346081 
L 106.949147 212.535094 
L 106.981614 212.41791 
L 107.079015 210.479064 
L 107.306285 200.028477 
L 108.945872 111.701349 
L 109.595214 92.581848 
L 110.244555 79.725976 
L 110.877663 71.279278 
L 111.527005 65.440344 
L 112.176346 61.526287 
L 112.825688 58.902601 
L 113.475029 57.14389 
L 114.140604 55.941141 
L 114.85488 55.096389 
L 115.63409 54.513742 
L 116.559402 54.102841 
L 117.760684 53.82318 
L 119.57884 53.65126 
L 122.533344 53.58149 
L 122.809314 195.451947 
L 123.052817 232.261449 
L 123.182686 235.918621 
L 123.215153 235.784026 
L 123.312554 233.559577 
L 123.539824 221.571247 
L 125.179411 120.251905 
L 125.828753 98.320207 
L 126.478094 83.573427 
L 127.111202 73.884344 
L 127.760544 67.18659 
L 128.409885 62.696832 
L 129.059227 59.687242 
L 129.708568 57.669851 
L 130.374143 56.290194 
L 131.072186 55.338812 
L 131.818928 54.685885 
L 132.69554 54.219445 
L 133.79942 53.898033 
L 135.35784 53.694367 
L 138.117542 53.591085 
L 147.581695 53.568068 
L 398.487273 53.568 
L 398.487273 53.568 
" style="fill:none;stroke:#d62728;stroke-linecap:square;stroke-width:1.5;"/>
   </g>
   <g id="line2d_29">
    <path clip-path="url(#pebcef306ad)" d="M 73.832727 53.568 
L 106.299805 53.568 
L 106.575775 185.726203 
L 106.819278 220.016745 
L 106.949147 223.424203 
L 106.981614 223.298991 
L 107.079015 221.227336 
L 107.306285 210.060893 
L 108.945872 115.683433 
L 109.595214 95.254263 
L 110.244555 81.517775 
L 110.877663 72.492485 
L 111.527005 66.25359 
L 112.176346 62.071422 
L 112.825688 59.268017 
L 113.475029 57.388836 
L 114.140604 56.103699 
L 114.838647 55.217495 
L 115.601623 54.598938 
L 116.494468 54.1628 
L 117.647049 53.86043 
L 119.319103 53.672399 
L 122.452176 53.583153 
L 122.533344 53.582414 
L 122.809314 203.784905 
L 123.052817 242.756214 
L 123.182686 246.628164 
L 123.215153 246.485663 
L 123.312554 244.130567 
L 123.539824 231.438152 
L 125.179411 124.168278 
L 125.828753 100.948522 
L 126.478094 85.335657 
L 127.111202 75.077531 
L 127.74431 68.131321 
L 128.393652 63.330107 
L 129.042993 60.111739 
L 129.692335 57.9544 
L 130.35791 56.479035 
L 131.039719 55.480686 
L 131.786461 54.775448 
L 132.630605 54.285852 
L 133.685785 53.942752 
L 135.146804 53.720363 
L 137.614302 53.601324 
L 144.659658 53.568434 
L 398.487273 53.568 
L 398.487273 53.568 
" style="fill:none;stroke:#9467bd;stroke-linecap:square;stroke-width:1.5;"/>
   </g>
   <g id="line2d_30">
    <path clip-path="url(#pebcef306ad)" d="M 73.832727 53.568 
L 106.299805 53.568 
L 106.575775 194.03494 
L 106.819278 230.481315 
L 106.949147 234.102999 
L 106.981614 233.969915 
L 107.079015 231.768016 
L 107.306285 219.899542 
L 108.945872 119.588607 
L 109.595214 97.875063 
L 110.244555 83.274967 
L 110.877663 73.682261 
L 111.527005 67.051128 
L 112.176346 62.606029 
L 112.825688 59.626375 
L 113.475029 57.62905 
L 114.140604 56.263117 
L 114.838647 55.321198 
L 115.601623 54.663753 
L 116.478234 54.206548 
L 117.582115 53.891499 
L 119.156768 53.690633 
L 121.981404 53.589525 
L 122.533344 53.583321 
L 122.809314 213.689378 
L 123.052817 255.230255 
L 123.182686 259.357504 
L 123.215153 259.205607 
L 123.312554 256.69523 
L 123.539824 243.165948 
L 125.179411 128.823279 
L 125.828753 104.072538 
L 126.478094 87.430245 
L 127.111202 76.495754 
L 127.74431 69.091548 
L 128.393652 63.973768 
L 129.042993 60.543198 
L 129.692335 58.243615 
L 130.35791 56.670973 
L 131.039719 55.606799 
L 131.770228 54.867995 
L 132.598138 54.348642 
L 133.604618 53.987942 
L 134.984468 53.747489 
L 137.208463 53.61361 
L 142.760334 53.569492 
L 265.875493 53.568 
L 398.487273 53.568 
L 398.487273 53.568 
" style="fill:none;stroke:#8c564b;stroke-linecap:square;stroke-width:1.5;"/>
   </g>
   <g id="line2d_31">
    <path clip-path="url(#pebcef306ad)" d="M 73.832727 53.568 
L 106.299805 53.568 
L 106.575775 202.501868 
L 106.819278 241.145122 
L 106.949147 244.98511 
L 106.981614 244.844004 
L 107.079015 242.509381 
L 107.306285 229.925511 
L 108.945872 123.568132 
L 109.595214 100.54576 
L 110.244555 85.065614 
L 110.877663 74.894688 
L 111.510771 68.007525 
L 112.160113 63.247123 
L 112.809454 60.056113 
L 113.458796 57.917113 
L 114.124371 56.45429 
L 114.80618 55.464428 
L 115.552922 54.765184 
L 116.397066 54.27975 
L 117.452246 53.939566 
L 118.913265 53.719068 
L 121.380763 53.60104 
L 122.533344 53.584244 
L 122.809314 223.307931 
L 123.052817 267.344183 
L 123.182686 271.719357 
L 123.215153 271.558337 
L 123.312554 268.89716 
L 123.539824 254.555168 
L 125.179411 133.343893 
L 125.828753 107.106365 
L 126.478094 89.464363 
L 127.111202 77.873033 
L 127.74431 70.024054 
L 128.393652 64.598846 
L 129.042993 60.9622 
L 129.692335 58.524481 
L 130.35791 56.85737 
L 131.039719 55.72927 
L 131.753994 54.959937 
L 132.565671 54.412252 
L 133.539684 54.031335 
L 134.838367 53.77619 
L 136.883793 53.627054 
L 141.477884 53.571485 
L 195.113497 53.568 
L 398.487273 53.568 
L 398.487273 53.568 
" style="fill:none;stroke:#e377c2;stroke-linecap:square;stroke-width:1.5;"/>
   </g>
   <g id="line2d_32">
    <path clip-path="url(#pebcef306ad)" d="M 73.832727 53.568 
L 106.299805 53.568 
L 106.575775 211.442614 
L 106.819278 252.405687 
L 106.949147 256.476196 
L 106.981614 256.326619 
L 107.079015 253.851845 
L 107.306285 240.512544 
L 108.945872 127.770356 
L 109.595214 103.365913 
L 110.244555 86.956468 
L 110.877663 76.174965 
L 111.510771 68.874353 
L 112.160113 63.828177 
L 112.809454 60.445605 
L 113.458796 58.178197 
L 114.124371 56.627559 
L 114.80618 55.578273 
L 115.536689 54.849807 
L 116.364599 54.337719 
L 117.387312 53.977946 
L 118.783397 53.741474 
L 121.056092 53.610778 
L 122.533344 53.585219 
L 122.809314 233.130695 
L 123.052817 279.715291 
L 123.182686 284.343651 
L 123.215153 284.173312 
L 123.312554 281.358134 
L 123.539824 266.186178 
L 125.179411 137.960476 
L 125.828753 110.204598 
L 126.478094 91.541664 
L 127.111202 79.27955 
L 127.74431 70.976356 
L 128.393652 65.237194 
L 129.042993 61.390098 
L 129.692335 58.81131 
L 130.341676 57.082696 
L 131.023485 55.87732 
L 131.737761 55.055286 
L 132.533204 54.479151 
L 133.474749 54.078152 
L 134.708498 53.806581 
L 136.591589 53.642792 
L 140.487638 53.574785 
L 168.831397 53.568 
L 398.487273 53.568 
L 398.487273 53.568 
" style="fill:none;stroke:#7f7f7f;stroke-linecap:square;stroke-width:1.5;"/>
   </g>
   <g id="line2d_33">
    <path clip-path="url(#pebcef306ad)" d="M 73.832727 53.568 
L 106.299805 53.568 
L 106.575775 218.894807 
L 106.819278 261.79147 
L 106.949147 266.05412 
L 106.981614 265.897483 
L 107.079015 263.305891 
L 107.306285 249.336933 
L 108.945872 131.272947 
L 109.595214 105.716536 
L 110.244555 88.532512 
L 110.877663 77.242087 
L 111.510771 69.596863 
L 112.160113 64.312491 
L 112.809454 60.770251 
L 113.458796 58.395813 
L 114.124371 56.77198 
L 114.80618 55.673165 
L 115.536689 54.910312 
L 116.348366 54.382154 
L 117.338612 54.010371 
L 118.669762 53.762834 
L 120.796355 53.62057 
L 122.533344 53.586032 
L 122.809314 241.801921 
L 123.052817 290.636131 
L 123.182686 295.488 
L 123.215153 295.309435 
L 123.312554 292.35831 
L 123.539824 276.453688 
L 125.179411 142.03586 
L 125.828753 112.939627 
L 126.478094 93.375445 
L 127.111202 80.521183 
L 127.74431 71.81702 
L 128.393652 65.80071 
L 129.042993 61.767834 
L 129.692335 59.064514 
L 130.341676 57.252423 
L 131.007251 56.013168 
L 131.721527 55.142778 
L 132.500737 54.542446 
L 133.426049 54.119074 
L 134.611097 53.833568 
L 136.380553 53.657288 
L 139.838297 53.578611 
L 158.539334 53.568 
L 398.487273 53.568 
L 398.487273 53.568 
" style="fill:none;stroke:#bcbd22;stroke-linecap:square;stroke-width:1.5;"/>
   </g>
   <g id="patch_3">
    <path d="M 57.6 307.584 
L 57.6 41.472 
" style="fill:none;stroke:#000000;stroke-linecap:square;stroke-linejoin:miter;stroke-width:0.8;"/>
   </g>
   <g id="patch_4">
    <path d="M 414.72 307.584 
L 414.72 41.472 
" style="fill:none;stroke:#000000;stroke-linecap:square;stroke-linejoin:miter;stroke-width:0.8;"/>
   </g>
   <g id="patch_5">
    <path d="M 57.6 307.584 
L 414.72 307.584 
" style="fill:none;stroke:#000000;stroke-linecap:square;stroke-linejoin:miter;stroke-width:0.8;"/>
   </g>
   <g id="patch_6">
    <path d="M 57.6 41.472 
L 414.72 41.472 
" style="fill:none;stroke:#000000;stroke-linecap:square;stroke-linejoin:miter;stroke-width:0.8;"/>
   </g>
   <g id="text_17">
    <!-- Mean EPSC across conditions -->
    <defs>
     <path d="M 41.109375 46.296875 
Q 39.59375 47.171875 37.8125 47.578125 
Q 36.03125 48 33.890625 48 
Q 26.265625 48 22.1875 43.046875 
Q 18.109375 38.09375 18.109375 28.8125 
L 18.109375 0 
L 9.078125 0 
L 9.078125 54.6875 
L 18.109375 54.6875 
L 18.109375 46.1875 
Q 20.953125 51.171875 25.484375 53.578125 
Q 30.03125 56 36.53125 56 
Q 37.453125 56 38.578125 55.875 
Q 39.703125 55.765625 41.0625 55.515625 
z
" id="DejaVuSans-72"/>
     <path d="M 18.3125 70.21875 
L 18.3125 54.6875 
L 36.8125 54.6875 
L 36.8125 47.703125 
L 18.3125 47.703125 
L 18.3125 18.015625 
Q 18.3125 11.328125 20.140625 9.421875 
Q 21.96875 7.515625 27.59375 7.515625 
L 36.8125 7.515625 
L 36.8125 0 
L 27.59375 0 
Q 17.1875 0 13.234375 3.875 
Q 9.28125 7.765625 9.28125 18.015625 
L 9.28125 47.703125 
L 2.6875 47.703125 
L 2.6875 54.6875 
L 9.28125 54.6875 
L 9.28125 70.21875 
z
" id="DejaVuSans-74"/>
    </defs>
    <g transform="translate(148.453125 35.472)scale(0.12 -0.12)">
     <use xlink:href="#DejaVuSans-4d"/>
     <use x="86.279297" xlink:href="#DejaVuSans-65"/>
     <use x="147.802734" xlink:href="#DejaVuSans-61"/>
     <use x="209.082031" xlink:href="#DejaVuSans-6e"/>
     <use x="272.460938" xlink:href="#DejaVuSans-20"/>
     <use x="304.248047" xlink:href="#DejaVuSans-45"/>
     <use x="367.431641" xlink:href="#DejaVuSans-50"/>
     <use x="427.734375" xlink:href="#DejaVuSans-53"/>
     <use x="491.210938" xlink:href="#DejaVuSans-43"/>
     <use x="561.035156" xlink:href="#DejaVuSans-20"/>
     <use x="592.822266" xlink:href="#DejaVuSans-61"/>
     <use x="654.101562" xlink:href="#DejaVuSans-63"/>
     <use x="709.082031" xlink:href="#DejaVuSans-72"/>
     <use x="750.164062" xlink:href="#DejaVuSans-6f"/>
     <use x="811.345703" xlink:href="#DejaVuSans-73"/>
     <use x="863.445312" xlink:href="#DejaVuSans-73"/>
     <use x="915.544922" xlink:href="#DejaVuSans-20"/>
     <use x="947.332031" xlink:href="#DejaVuSans-63"/>
     <use x="1002.3125" xlink:href="#DejaVuSans-6f"/>
     <use x="1063.494141" xlink:href="#DejaVuSans-6e"/>
     <use x="1126.873047" xlink:href="#DejaVuSans-64"/>
     <use x="1190.349609" xlink:href="#DejaVuSans-69"/>
     <use x="1218.132812" xlink:href="#DejaVuSans-74"/>
     <use x="1257.341797" xlink:href="#DejaVuSans-69"/>
     <use x="1285.125" xlink:href="#DejaVuSans-6f"/>
     <use x="1346.306641" xlink:href="#DejaVuSans-6e"/>
     <use x="1409.685547" xlink:href="#DejaVuSans-73"/>
    </g>
   </g>
  </g>
 </g>
 <defs>
  <clipPath id="pebcef306ad">
   <rect height="266.112" width="357.12" x="57.6" y="41.472"/>
  </clipPath>
 </defs>
</svg>
