<?xml version="1.0" encoding="utf-8" standalone="no"?>
<!DOCTYPE svg PUBLIC "-//W3C//DTD SVG 1.1//EN"
  "http://www.w3.org/Graphics/SVG/1.1/DTD/svg11.dtd">
<!-- Created with matplotlib (http://matplotlib.org/) -->
<svg height="345pt" version="1.1" viewBox="0 0 460 345" width="460pt" xmlns="http://www.w3.org/2000/svg" xmlns:xlink="http://www.w3.org/1999/xlink">
 <defs>
  <style type="text/css">
*{stroke-linecap:butt;stroke-linejoin:round;}
  </style>
 </defs>
 <g id="figure_1">
  <g id="patch_1">
   <path d="M 0 345.6 
L 460.8 345.6 
L 460.8 0 
L 0 0 
z
" style="fill:#ffffff;"/>
  </g>
  <g id="axes_1">
   <g id="patch_2">
    <path d="M 57.6 307.584 
L 414.72 307.584 
L 414.72 41.472 
L 57.6 41.472 
z
" style="fill:#ffffff;"/>
   </g>
   <g id="matplotlib.axis_1">
    <g id="xtick_1">
     <g id="line2d_1">
      <defs>
       <path d="M 0 0 
L 0 3.5 
" id="m5a29c3ee50" style="stroke:#000000;stroke-width:0.8;"/>
      </defs>
      <g>
       <use style="stroke:#000000;stroke-width:0.8;" x="73.832727" xlink:href="#m5a29c3ee50" y="307.584"/>
      </g>
     </g>
     <g id="text_1">
      <!-- 0.0 -->
      <defs>
       <path d="M 31.78125 66.40625 
Q 24.171875 66.40625 20.328125 58.90625 
Q 16.5 51.421875 16.5 36.375 
Q 16.5 21.390625 20.328125 13.890625 
Q 24.171875 6.390625 31.78125 6.390625 
Q 39.453125 6.390625 43.28125 13.890625 
Q 47.125 21.390625 47.125 36.375 
Q 47.125 51.421875 43.28125 58.90625 
Q 39.453125 66.40625 31.78125 66.40625 
z
M 31.78125 74.21875 
Q 44.046875 74.21875 50.515625 64.515625 
Q 56.984375 54.828125 56.984375 36.375 
Q 56.984375 17.96875 50.515625 8.265625 
Q 44.046875 -1.421875 31.78125 -1.421875 
Q 19.53125 -1.421875 13.0625 8.265625 
Q 6.59375 17.96875 6.59375 36.375 
Q 6.59375 54.828125 13.0625 64.515625 
Q 19.53125 74.21875 31.78125 74.21875 
z
" id="DejaVuSans-30"/>
       <path d="M 10.6875 12.40625 
L 21 12.40625 
L 21 0 
L 10.6875 0 
z
" id="DejaVuSans-2e"/>
      </defs>
      <g transform="translate(65.881165 322.182437)scale(0.1 -0.1)">
       <use xlink:href="#DejaVuSans-30"/>
       <use x="63.623047" xlink:href="#DejaVuSans-2e"/>
       <use x="95.410156" xlink:href="#DejaVuSans-30"/>
      </g>
     </g>
    </g>
    <g id="xtick_2">
     <g id="line2d_2">
      <g>
       <use style="stroke:#000000;stroke-width:0.8;" x="138.766883" xlink:href="#m5a29c3ee50" y="307.584"/>
      </g>
     </g>
     <g id="text_2">
      <!-- 0.2 -->
      <defs>
       <path d="M 19.1875 8.296875 
L 53.609375 8.296875 
L 53.609375 0 
L 7.328125 0 
L 7.328125 8.296875 
Q 12.9375 14.109375 22.625 23.890625 
Q 32.328125 33.6875 34.8125 36.53125 
Q 39.546875 41.84375 41.421875 45.53125 
Q 43.3125 49.21875 43.3125 52.78125 
Q 43.3125 58.59375 39.234375 62.25 
Q 35.15625 65.921875 28.609375 65.921875 
Q 23.96875 65.921875 18.8125 64.3125 
Q 13.671875 62.703125 7.8125 59.421875 
L 7.8125 69.390625 
Q 13.765625 71.78125 18.9375 73 
Q 24.125 74.21875 28.421875 74.21875 
Q 39.75 74.21875 46.484375 68.546875 
Q 53.21875 62.890625 53.21875 53.421875 
Q 53.21875 48.921875 51.53125 44.890625 
Q 49.859375 40.875 45.40625 35.40625 
Q 44.1875 33.984375 37.640625 27.21875 
Q 31.109375 20.453125 19.1875 8.296875 
z
" id="DejaVuSans-32"/>
      </defs>
      <g transform="translate(130.815321 322.182437)scale(0.1 -0.1)">
       <use xlink:href="#DejaVuSans-30"/>
       <use x="63.623047" xlink:href="#DejaVuSans-2e"/>
       <use x="95.410156" xlink:href="#DejaVuSans-32"/>
      </g>
     </g>
    </g>
    <g id="xtick_3">
     <g id="line2d_3">
      <g>
       <use style="stroke:#000000;stroke-width:0.8;" x="203.701039" xlink:href="#m5a29c3ee50" y="307.584"/>
      </g>
     </g>
     <g id="text_3">
      <!-- 0.4 -->
      <defs>
       <path d="M 37.796875 64.3125 
L 12.890625 25.390625 
L 37.796875 25.390625 
z
M 35.203125 72.90625 
L 47.609375 72.90625 
L 47.609375 25.390625 
L 58.015625 25.390625 
L 58.015625 17.1875 
L 47.609375 17.1875 
L 47.609375 0 
L 37.796875 0 
L 37.796875 17.1875 
L 4.890625 17.1875 
L 4.890625 26.703125 
z
" id="DejaVuSans-34"/>
      </defs>
      <g transform="translate(195.749476 322.182437)scale(0.1 -0.1)">
       <use xlink:href="#DejaVuSans-30"/>
       <use x="63.623047" xlink:href="#DejaVuSans-2e"/>
       <use x="95.410156" xlink:href="#DejaVuSans-34"/>
      </g>
     </g>
    </g>
    <g id="xtick_4">
     <g id="line2d_4">
      <g>
       <use style="stroke:#000000;stroke-width:0.8;" x="268.635195" xlink:href="#m5a29c3ee50" y="307.584"/>
      </g>
     </g>
     <g id="text_4">
      <!-- 0.6 -->
      <defs>
       <path d="M 33.015625 40.375 
Q 26.375 40.375 22.484375 35.828125 
Q 18.609375 31.296875 18.609375 23.390625 
Q 18.609375 15.53125 22.484375 10.953125 
Q 26.375 6.390625 33.015625 6.390625 
Q 39.65625 6.390625 43.53125 10.953125 
Q 47.40625 15.53125 47.40625 23.390625 
Q 47.40625 31.296875 43.53125 35.828125 
Q 39.65625 40.375 33.015625 40.375 
z
M 52.59375 71.296875 
L 52.59375 62.3125 
Q 48.875 64.0625 45.09375 64.984375 
Q 41.3125 65.921875 37.59375 65.921875 
Q 27.828125 65.921875 22.671875 59.328125 
Q 17.53125 52.734375 16.796875 39.40625 
Q 19.671875 43.65625 24.015625 45.921875 
Q 28.375 48.1875 33.59375 48.1875 
Q 44.578125 48.1875 50.953125 41.515625 
Q 57.328125 34.859375 57.328125 23.390625 
Q 57.328125 12.15625 50.6875 5.359375 
Q 44.046875 -1.421875 33.015625 -1.421875 
Q 20.359375 -1.421875 13.671875 8.265625 
Q 6.984375 17.96875 6.984375 36.375 
Q 6.984375 53.65625 15.1875 63.9375 
Q 23.390625 74.21875 37.203125 74.21875 
Q 40.921875 74.21875 44.703125 73.484375 
Q 48.484375 72.75 52.59375 71.296875 
z
" id="DejaVuSans-36"/>
      </defs>
      <g transform="translate(260.683632 322.182437)scale(0.1 -0.1)">
       <use xlink:href="#DejaVuSans-30"/>
       <use x="63.623047" xlink:href="#DejaVuSans-2e"/>
       <use x="95.410156" xlink:href="#DejaVuSans-36"/>
      </g>
     </g>
    </g>
    <g id="xtick_5">
     <g id="line2d_5">
      <g>
       <use style="stroke:#000000;stroke-width:0.8;" x="333.56935" xlink:href="#m5a29c3ee50" y="307.584"/>
      </g>
     </g>
     <g id="text_5">
      <!-- 0.8 -->
      <defs>
       <path d="M 31.78125 34.625 
Q 24.75 34.625 20.71875 30.859375 
Q 16.703125 27.09375 16.703125 20.515625 
Q 16.703125 13.921875 20.71875 10.15625 
Q 24.75 6.390625 31.78125 6.390625 
Q 38.8125 6.390625 42.859375 10.171875 
Q 46.921875 13.96875 46.921875 20.515625 
Q 46.921875 27.09375 42.890625 30.859375 
Q 38.875 34.625 31.78125 34.625 
z
M 21.921875 38.8125 
Q 15.578125 40.375 12.03125 44.71875 
Q 8.5 49.078125 8.5 55.328125 
Q 8.5 64.0625 14.71875 69.140625 
Q 20.953125 74.21875 31.78125 74.21875 
Q 42.671875 74.21875 48.875 69.140625 
Q 55.078125 64.0625 55.078125 55.328125 
Q 55.078125 49.078125 51.53125 44.71875 
Q 48 40.375 41.703125 38.8125 
Q 48.828125 37.15625 52.796875 32.3125 
Q 56.78125 27.484375 56.78125 20.515625 
Q 56.78125 9.90625 50.3125 4.234375 
Q 43.84375 -1.421875 31.78125 -1.421875 
Q 19.734375 -1.421875 13.25 4.234375 
Q 6.78125 9.90625 6.78125 20.515625 
Q 6.78125 27.484375 10.78125 32.3125 
Q 14.796875 37.15625 21.921875 38.8125 
z
M 18.3125 54.390625 
Q 18.3125 48.734375 21.84375 45.5625 
Q 25.390625 42.390625 31.78125 42.390625 
Q 38.140625 42.390625 41.71875 45.5625 
Q 45.3125 48.734375 45.3125 54.390625 
Q 45.3125 60.0625 41.71875 63.234375 
Q 38.140625 66.40625 31.78125 66.40625 
Q 25.390625 66.40625 21.84375 63.234375 
Q 18.3125 60.0625 18.3125 54.390625 
z
" id="DejaVuSans-38"/>
      </defs>
      <g transform="translate(325.617788 322.182437)scale(0.1 -0.1)">
       <use xlink:href="#DejaVuSans-30"/>
       <use x="63.623047" xlink:href="#DejaVuSans-2e"/>
       <use x="95.410156" xlink:href="#DejaVuSans-38"/>
      </g>
     </g>
    </g>
    <g id="xtick_6">
     <g id="line2d_6">
      <g>
       <use style="stroke:#000000;stroke-width:0.8;" x="398.503506" xlink:href="#m5a29c3ee50" y="307.584"/>
      </g>
     </g>
     <g id="text_6">
      <!-- 1.0 -->
      <defs>
       <path d="M 12.40625 8.296875 
L 28.515625 8.296875 
L 28.515625 63.921875 
L 10.984375 60.40625 
L 10.984375 69.390625 
L 28.421875 72.90625 
L 38.28125 72.90625 
L 38.28125 8.296875 
L 54.390625 8.296875 
L 54.390625 0 
L 12.40625 0 
z
" id="DejaVuSans-31"/>
      </defs>
      <g transform="translate(390.551944 322.182437)scale(0.1 -0.1)">
       <use xlink:href="#DejaVuSans-31"/>
       <use x="63.623047" xlink:href="#DejaVuSans-2e"/>
       <use x="95.410156" xlink:href="#DejaVuSans-30"/>
      </g>
     </g>
    </g>
    <g id="text_7">
     <!-- Time (seconds) -->
     <defs>
      <path d="M -0.296875 72.90625 
L 61.375 72.90625 
L 61.375 64.59375 
L 35.5 64.59375 
L 35.5 0 
L 25.59375 0 
L 25.59375 64.59375 
L -0.296875 64.59375 
z
" id="DejaVuSans-54"/>
      <path d="M 9.421875 54.6875 
L 18.40625 54.6875 
L 18.40625 0 
L 9.421875 0 
z
M 9.421875 75.984375 
L 18.40625 75.984375 
L 18.40625 64.59375 
L 9.421875 64.59375 
z
" id="DejaVuSans-69"/>
      <path d="M 52 44.1875 
Q 55.375 50.25 60.0625 53.125 
Q 64.75 56 71.09375 56 
Q 79.640625 56 84.28125 50.015625 
Q 88.921875 44.046875 88.921875 33.015625 
L 88.921875 0 
L 79.890625 0 
L 79.890625 32.71875 
Q 79.890625 40.578125 77.09375 44.375 
Q 74.3125 48.1875 68.609375 48.1875 
Q 61.625 48.1875 57.5625 43.546875 
Q 53.515625 38.921875 53.515625 30.90625 
L 53.515625 0 
L 44.484375 0 
L 44.484375 32.71875 
Q 44.484375 40.625 41.703125 44.40625 
Q 38.921875 48.1875 33.109375 48.1875 
Q 26.21875 48.1875 22.15625 43.53125 
Q 18.109375 38.875 18.109375 30.90625 
L 18.109375 0 
L 9.078125 0 
L 9.078125 54.6875 
L 18.109375 54.6875 
L 18.109375 46.1875 
Q 21.1875 51.21875 25.484375 53.609375 
Q 29.78125 56 35.6875 56 
Q 41.65625 56 45.828125 52.96875 
Q 50 49.953125 52 44.1875 
z
" id="DejaVuSans-6d"/>
      <path d="M 56.203125 29.59375 
L 56.203125 25.203125 
L 14.890625 25.203125 
Q 15.484375 15.921875 20.484375 11.0625 
Q 25.484375 6.203125 34.421875 6.203125 
Q 39.59375 6.203125 44.453125 7.46875 
Q 49.3125 8.734375 54.109375 11.28125 
L 54.109375 2.78125 
Q 49.265625 0.734375 44.1875 -0.34375 
Q 39.109375 -1.421875 33.890625 -1.421875 
Q 20.796875 -1.421875 13.15625 6.1875 
Q 5.515625 13.8125 5.515625 26.8125 
Q 5.515625 40.234375 12.765625 48.109375 
Q 20.015625 56 32.328125 56 
Q 43.359375 56 49.78125 48.890625 
Q 56.203125 41.796875 56.203125 29.59375 
z
M 47.21875 32.234375 
Q 47.125 39.59375 43.09375 43.984375 
Q 39.0625 48.390625 32.421875 48.390625 
Q 24.90625 48.390625 20.390625 44.140625 
Q 15.875 39.890625 15.1875 32.171875 
z
" id="DejaVuSans-65"/>
      <path id="DejaVuSans-20"/>
      <path d="M 31 75.875 
Q 24.46875 64.65625 21.28125 53.65625 
Q 18.109375 42.671875 18.109375 31.390625 
Q 18.109375 20.125 21.3125 9.0625 
Q 24.515625 -2 31 -13.1875 
L 23.1875 -13.1875 
Q 15.875 -1.703125 12.234375 9.375 
Q 8.59375 20.453125 8.59375 31.390625 
Q 8.59375 42.28125 12.203125 53.3125 
Q 15.828125 64.359375 23.1875 75.875 
z
" id="DejaVuSans-28"/>
      <path d="M 44.28125 53.078125 
L 44.28125 44.578125 
Q 40.484375 46.53125 36.375 47.5 
Q 32.28125 48.484375 27.875 48.484375 
Q 21.1875 48.484375 17.84375 46.4375 
Q 14.5 44.390625 14.5 40.28125 
Q 14.5 37.15625 16.890625 35.375 
Q 19.28125 33.59375 26.515625 31.984375 
L 29.59375 31.296875 
Q 39.15625 29.25 43.1875 25.515625 
Q 47.21875 21.78125 47.21875 15.09375 
Q 47.21875 7.46875 41.1875 3.015625 
Q 35.15625 -1.421875 24.609375 -1.421875 
Q 20.21875 -1.421875 15.453125 -0.5625 
Q 10.6875 0.296875 5.421875 2 
L 5.421875 11.28125 
Q 10.40625 8.6875 15.234375 7.390625 
Q 20.0625 6.109375 24.8125 6.109375 
Q 31.15625 6.109375 34.5625 8.28125 
Q 37.984375 10.453125 37.984375 14.40625 
Q 37.984375 18.0625 35.515625 20.015625 
Q 33.0625 21.96875 24.703125 23.78125 
L 21.578125 24.515625 
Q 13.234375 26.265625 9.515625 29.90625 
Q 5.8125 33.546875 5.8125 39.890625 
Q 5.8125 47.609375 11.28125 51.796875 
Q 16.75 56 26.8125 56 
Q 31.78125 56 36.171875 55.265625 
Q 40.578125 54.546875 44.28125 53.078125 
z
" id="DejaVuSans-73"/>
      <path d="M 48.78125 52.59375 
L 48.78125 44.1875 
Q 44.96875 46.296875 41.140625 47.34375 
Q 37.3125 48.390625 33.40625 48.390625 
Q 24.65625 48.390625 19.8125 42.84375 
Q 14.984375 37.3125 14.984375 27.296875 
Q 14.984375 17.28125 19.8125 11.734375 
Q 24.65625 6.203125 33.40625 6.203125 
Q 37.3125 6.203125 41.140625 7.25 
Q 44.96875 8.296875 48.78125 10.40625 
L 48.78125 2.09375 
Q 45.015625 0.34375 40.984375 -0.53125 
Q 36.96875 -1.421875 32.421875 -1.421875 
Q 20.0625 -1.421875 12.78125 6.34375 
Q 5.515625 14.109375 5.515625 27.296875 
Q 5.515625 40.671875 12.859375 48.328125 
Q 20.21875 56 33.015625 56 
Q 37.15625 56 41.109375 55.140625 
Q 45.0625 54.296875 48.78125 52.59375 
z
" id="DejaVuSans-63"/>
      <path d="M 30.609375 48.390625 
Q 23.390625 48.390625 19.1875 42.75 
Q 14.984375 37.109375 14.984375 27.296875 
Q 14.984375 17.484375 19.15625 11.84375 
Q 23.34375 6.203125 30.609375 6.203125 
Q 37.796875 6.203125 41.984375 11.859375 
Q 46.1875 17.53125 46.1875 27.296875 
Q 46.1875 37.015625 41.984375 42.703125 
Q 37.796875 48.390625 30.609375 48.390625 
z
M 30.609375 56 
Q 42.328125 56 49.015625 48.375 
Q 55.71875 40.765625 55.71875 27.296875 
Q 55.71875 13.875 49.015625 6.21875 
Q 42.328125 -1.421875 30.609375 -1.421875 
Q 18.84375 -1.421875 12.171875 6.21875 
Q 5.515625 13.875 5.515625 27.296875 
Q 5.515625 40.765625 12.171875 48.375 
Q 18.84375 56 30.609375 56 
z
" id="DejaVuSans-6f"/>
      <path d="M 54.890625 33.015625 
L 54.890625 0 
L 45.90625 0 
L 45.90625 32.71875 
Q 45.90625 40.484375 42.875 44.328125 
Q 39.84375 48.1875 33.796875 48.1875 
Q 26.515625 48.1875 22.3125 43.546875 
Q 18.109375 38.921875 18.109375 30.90625 
L 18.109375 0 
L 9.078125 0 
L 9.078125 54.6875 
L 18.109375 54.6875 
L 18.109375 46.1875 
Q 21.34375 51.125 25.703125 53.5625 
Q 30.078125 56 35.796875 56 
Q 45.21875 56 50.046875 50.171875 
Q 54.890625 44.34375 54.890625 33.015625 
z
" id="DejaVuSans-6e"/>
      <path d="M 45.40625 46.390625 
L 45.40625 75.984375 
L 54.390625 75.984375 
L 54.390625 0 
L 45.40625 0 
L 45.40625 8.203125 
Q 42.578125 3.328125 38.25 0.953125 
Q 33.9375 -1.421875 27.875 -1.421875 
Q 17.96875 -1.421875 11.734375 6.484375 
Q 5.515625 14.40625 5.515625 27.296875 
Q 5.515625 40.1875 11.734375 48.09375 
Q 17.96875 56 27.875 56 
Q 33.9375 56 38.25 53.625 
Q 42.578125 51.265625 45.40625 46.390625 
z
M 14.796875 27.296875 
Q 14.796875 17.390625 18.875 11.75 
Q 22.953125 6.109375 30.078125 6.109375 
Q 37.203125 6.109375 41.296875 11.75 
Q 45.40625 17.390625 45.40625 27.296875 
Q 45.40625 37.203125 41.296875 42.84375 
Q 37.203125 48.484375 30.078125 48.484375 
Q 22.953125 48.484375 18.875 42.84375 
Q 14.796875 37.203125 14.796875 27.296875 
z
" id="DejaVuSans-64"/>
      <path d="M 8.015625 75.875 
L 15.828125 75.875 
Q 23.140625 64.359375 26.78125 53.3125 
Q 30.421875 42.28125 30.421875 31.390625 
Q 30.421875 20.453125 26.78125 9.375 
Q 23.140625 -1.703125 15.828125 -13.1875 
L 8.015625 -13.1875 
Q 14.5 -2 17.703125 9.0625 
Q 20.90625 20.125 20.90625 31.390625 
Q 20.90625 42.671875 17.703125 53.65625 
Q 14.5 64.65625 8.015625 75.875 
z
" id="DejaVuSans-29"/>
     </defs>
     <g transform="translate(197.844375 335.860562)scale(0.1 -0.1)">
      <use xlink:href="#DejaVuSans-54"/>
      <use x="61.037109" xlink:href="#DejaVuSans-69"/>
      <use x="88.820312" xlink:href="#DejaVuSans-6d"/>
      <use x="186.232422" xlink:href="#DejaVuSans-65"/>
      <use x="247.755859" xlink:href="#DejaVuSans-20"/>
      <use x="279.542969" xlink:href="#DejaVuSans-28"/>
      <use x="318.556641" xlink:href="#DejaVuSans-73"/>
      <use x="370.65625" xlink:href="#DejaVuSans-65"/>
      <use x="432.179688" xlink:href="#DejaVuSans-63"/>
      <use x="487.160156" xlink:href="#DejaVuSans-6f"/>
      <use x="548.341797" xlink:href="#DejaVuSans-6e"/>
      <use x="611.720703" xlink:href="#DejaVuSans-64"/>
      <use x="675.197266" xlink:href="#DejaVuSans-73"/>
      <use x="727.296875" xlink:href="#DejaVuSans-29"/>
     </g>
    </g>
   </g>
   <g id="matplotlib.axis_2">
    <g id="ytick_1">
     <g id="line2d_7">
      <defs>
       <path d="M 0 0 
L -3.5 0 
" id="mb1fd6fa485" style="stroke:#000000;stroke-width:0.8;"/>
      </defs>
      <g>
       <use style="stroke:#000000;stroke-width:0.8;" x="57.6" xlink:href="#mb1fd6fa485" y="265.278119"/>
      </g>
     </g>
     <g id="text_8">
      <!-- −200 -->
      <defs>
       <path d="M 10.59375 35.5 
L 73.1875 35.5 
L 73.1875 27.203125 
L 10.59375 27.203125 
z
" id="DejaVuSans-2212"/>
      </defs>
      <g transform="translate(23.132812 269.077338)scale(0.1 -0.1)">
       <use xlink:href="#DejaVuSans-2212"/>
       <use x="83.789062" xlink:href="#DejaVuSans-32"/>
       <use x="147.412109" xlink:href="#DejaVuSans-30"/>
       <use x="211.035156" xlink:href="#DejaVuSans-30"/>
      </g>
     </g>
    </g>
    <g id="ytick_2">
     <g id="line2d_8">
      <g>
       <use style="stroke:#000000;stroke-width:0.8;" x="57.6" xlink:href="#mb1fd6fa485" y="212.350589"/>
      </g>
     </g>
     <g id="text_9">
      <!-- −150 -->
      <defs>
       <path d="M 10.796875 72.90625 
L 49.515625 72.90625 
L 49.515625 64.59375 
L 19.828125 64.59375 
L 19.828125 46.734375 
Q 21.96875 47.46875 24.109375 47.828125 
Q 26.265625 48.1875 28.421875 48.1875 
Q 40.625 48.1875 47.75 41.5 
Q 54.890625 34.8125 54.890625 23.390625 
Q 54.890625 11.625 47.5625 5.09375 
Q 40.234375 -1.421875 26.90625 -1.421875 
Q 22.3125 -1.421875 17.546875 -0.640625 
Q 12.796875 0.140625 7.71875 1.703125 
L 7.71875 11.625 
Q 12.109375 9.234375 16.796875 8.0625 
Q 21.484375 6.890625 26.703125 6.890625 
Q 35.15625 6.890625 40.078125 11.328125 
Q 45.015625 15.765625 45.015625 23.390625 
Q 45.015625 31 40.078125 35.4375 
Q 35.15625 39.890625 26.703125 39.890625 
Q 22.75 39.890625 18.8125 39.015625 
Q 14.890625 38.140625 10.796875 36.28125 
z
" id="DejaVuSans-35"/>
      </defs>
      <g transform="translate(23.132812 216.149808)scale(0.1 -0.1)">
       <use xlink:href="#DejaVuSans-2212"/>
       <use x="83.789062" xlink:href="#DejaVuSans-31"/>
       <use x="147.412109" xlink:href="#DejaVuSans-35"/>
       <use x="211.035156" xlink:href="#DejaVuSans-30"/>
      </g>
     </g>
    </g>
    <g id="ytick_3">
     <g id="line2d_9">
      <g>
       <use style="stroke:#000000;stroke-width:0.8;" x="57.6" xlink:href="#mb1fd6fa485" y="159.423059"/>
      </g>
     </g>
     <g id="text_10">
      <!-- −100 -->
      <g transform="translate(23.132812 163.222278)scale(0.1 -0.1)">
       <use xlink:href="#DejaVuSans-2212"/>
       <use x="83.789062" xlink:href="#DejaVuSans-31"/>
       <use x="147.412109" xlink:href="#DejaVuSans-30"/>
       <use x="211.035156" xlink:href="#DejaVuSans-30"/>
      </g>
     </g>
    </g>
    <g id="ytick_4">
     <g id="line2d_10">
      <g>
       <use style="stroke:#000000;stroke-width:0.8;" x="57.6" xlink:href="#mb1fd6fa485" y="106.49553"/>
      </g>
     </g>
     <g id="text_11">
      <!-- −50 -->
      <g transform="translate(29.495313 110.294748)scale(0.1 -0.1)">
       <use xlink:href="#DejaVuSans-2212"/>
       <use x="83.789062" xlink:href="#DejaVuSans-35"/>
       <use x="147.412109" xlink:href="#DejaVuSans-30"/>
      </g>
     </g>
    </g>
    <g id="ytick_5">
     <g id="line2d_11">
      <g>
       <use style="stroke:#000000;stroke-width:0.8;" x="57.6" xlink:href="#mb1fd6fa485" y="53.568"/>
      </g>
     </g>
     <g id="text_12">
      <!-- 0 -->
      <g transform="translate(44.2375 57.367219)scale(0.1 -0.1)">
       <use xlink:href="#DejaVuSans-30"/>
      </g>
     </g>
    </g>
    <g id="text_13">
     <!-- Mean EPSC (pA) -->
     <defs>
      <path d="M 9.8125 72.90625 
L 24.515625 72.90625 
L 43.109375 23.296875 
L 61.8125 72.90625 
L 76.515625 72.90625 
L 76.515625 0 
L 66.890625 0 
L 66.890625 64.015625 
L 48.09375 14.015625 
L 38.1875 14.015625 
L 19.390625 64.015625 
L 19.390625 0 
L 9.8125 0 
z
" id="DejaVuSans-4d"/>
      <path d="M 34.28125 27.484375 
Q 23.390625 27.484375 19.1875 25 
Q 14.984375 22.515625 14.984375 16.5 
Q 14.984375 11.71875 18.140625 8.90625 
Q 21.296875 6.109375 26.703125 6.109375 
Q 34.1875 6.109375 38.703125 11.40625 
Q 43.21875 16.703125 43.21875 25.484375 
L 43.21875 27.484375 
z
M 52.203125 31.203125 
L 52.203125 0 
L 43.21875 0 
L 43.21875 8.296875 
Q 40.140625 3.328125 35.546875 0.953125 
Q 30.953125 -1.421875 24.3125 -1.421875 
Q 15.921875 -1.421875 10.953125 3.296875 
Q 6 8.015625 6 15.921875 
Q 6 25.140625 12.171875 29.828125 
Q 18.359375 34.515625 30.609375 34.515625 
L 43.21875 34.515625 
L 43.21875 35.40625 
Q 43.21875 41.609375 39.140625 45 
Q 35.0625 48.390625 27.6875 48.390625 
Q 23 48.390625 18.546875 47.265625 
Q 14.109375 46.140625 10.015625 43.890625 
L 10.015625 52.203125 
Q 14.9375 54.109375 19.578125 55.046875 
Q 24.21875 56 28.609375 56 
Q 40.484375 56 46.34375 49.84375 
Q 52.203125 43.703125 52.203125 31.203125 
z
" id="DejaVuSans-61"/>
      <path d="M 9.8125 72.90625 
L 55.90625 72.90625 
L 55.90625 64.59375 
L 19.671875 64.59375 
L 19.671875 43.015625 
L 54.390625 43.015625 
L 54.390625 34.71875 
L 19.671875 34.71875 
L 19.671875 8.296875 
L 56.78125 8.296875 
L 56.78125 0 
L 9.8125 0 
z
" id="DejaVuSans-45"/>
      <path d="M 19.671875 64.796875 
L 19.671875 37.40625 
L 32.078125 37.40625 
Q 38.96875 37.40625 42.71875 40.96875 
Q 46.484375 44.53125 46.484375 51.125 
Q 46.484375 57.671875 42.71875 61.234375 
Q 38.96875 64.796875 32.078125 64.796875 
z
M 9.8125 72.90625 
L 32.078125 72.90625 
Q 44.34375 72.90625 50.609375 67.359375 
Q 56.890625 61.8125 56.890625 51.125 
Q 56.890625 40.328125 50.609375 34.8125 
Q 44.34375 29.296875 32.078125 29.296875 
L 19.671875 29.296875 
L 19.671875 0 
L 9.8125 0 
z
" id="DejaVuSans-50"/>
      <path d="M 53.515625 70.515625 
L 53.515625 60.890625 
Q 47.90625 63.578125 42.921875 64.890625 
Q 37.9375 66.21875 33.296875 66.21875 
Q 25.25 66.21875 20.875 63.09375 
Q 16.5 59.96875 16.5 54.203125 
Q 16.5 49.359375 19.40625 46.890625 
Q 22.3125 44.4375 30.421875 42.921875 
L 36.375 41.703125 
Q 47.40625 39.59375 52.65625 34.296875 
Q 57.90625 29 57.90625 20.125 
Q 57.90625 9.515625 50.796875 4.046875 
Q 43.703125 -1.421875 29.984375 -1.421875 
Q 24.8125 -1.421875 18.96875 -0.25 
Q 13.140625 0.921875 6.890625 3.21875 
L 6.890625 13.375 
Q 12.890625 10.015625 18.65625 8.296875 
Q 24.421875 6.59375 29.984375 6.59375 
Q 38.421875 6.59375 43.015625 9.90625 
Q 47.609375 13.234375 47.609375 19.390625 
Q 47.609375 24.75 44.3125 27.78125 
Q 41.015625 30.8125 33.5 32.328125 
L 27.484375 33.5 
Q 16.453125 35.6875 11.515625 40.375 
Q 6.59375 45.0625 6.59375 53.421875 
Q 6.59375 63.09375 13.40625 68.65625 
Q 20.21875 74.21875 32.171875 74.21875 
Q 37.3125 74.21875 42.625 73.28125 
Q 47.953125 72.359375 53.515625 70.515625 
z
" id="DejaVuSans-53"/>
      <path d="M 64.40625 67.28125 
L 64.40625 56.890625 
Q 59.421875 61.53125 53.78125 63.8125 
Q 48.140625 66.109375 41.796875 66.109375 
Q 29.296875 66.109375 22.65625 58.46875 
Q 16.015625 50.828125 16.015625 36.375 
Q 16.015625 21.96875 22.65625 14.328125 
Q 29.296875 6.6875 41.796875 6.6875 
Q 48.140625 6.6875 53.78125 8.984375 
Q 59.421875 11.28125 64.40625 15.921875 
L 64.40625 5.609375 
Q 59.234375 2.09375 53.4375 0.328125 
Q 47.65625 -1.421875 41.21875 -1.421875 
Q 24.65625 -1.421875 15.125 8.703125 
Q 5.609375 18.84375 5.609375 36.375 
Q 5.609375 53.953125 15.125 64.078125 
Q 24.65625 74.21875 41.21875 74.21875 
Q 47.75 74.21875 53.53125 72.484375 
Q 59.328125 70.75 64.40625 67.28125 
z
" id="DejaVuSans-43"/>
      <path d="M 18.109375 8.203125 
L 18.109375 -20.796875 
L 9.078125 -20.796875 
L 9.078125 54.6875 
L 18.109375 54.6875 
L 18.109375 46.390625 
Q 20.953125 51.265625 25.265625 53.625 
Q 29.59375 56 35.59375 56 
Q 45.5625 56 51.78125 48.09375 
Q 58.015625 40.1875 58.015625 27.296875 
Q 58.015625 14.40625 51.78125 6.484375 
Q 45.5625 -1.421875 35.59375 -1.421875 
Q 29.59375 -1.421875 25.265625 0.953125 
Q 20.953125 3.328125 18.109375 8.203125 
z
M 48.6875 27.296875 
Q 48.6875 37.203125 44.609375 42.84375 
Q 40.53125 48.484375 33.40625 48.484375 
Q 26.265625 48.484375 22.1875 42.84375 
Q 18.109375 37.203125 18.109375 27.296875 
Q 18.109375 17.390625 22.1875 11.75 
Q 26.265625 6.109375 33.40625 6.109375 
Q 40.53125 6.109375 44.609375 11.75 
Q 48.6875 17.390625 48.6875 27.296875 
z
" id="DejaVuSans-70"/>
      <path d="M 34.1875 63.1875 
L 20.796875 26.90625 
L 47.609375 26.90625 
z
M 28.609375 72.90625 
L 39.796875 72.90625 
L 67.578125 0 
L 57.328125 0 
L 50.6875 18.703125 
L 17.828125 18.703125 
L 11.1875 0 
L 0.78125 0 
z
" id="DejaVuSans-41"/>
     </defs>
     <g transform="translate(17.053125 214.6655)rotate(-90)scale(0.1 -0.1)">
      <use xlink:href="#DejaVuSans-4d"/>
      <use x="86.279297" xlink:href="#DejaVuSans-65"/>
      <use x="147.802734" xlink:href="#DejaVuSans-61"/>
      <use x="209.082031" xlink:href="#DejaVuSans-6e"/>
      <use x="272.460938" xlink:href="#DejaVuSans-20"/>
      <use x="304.248047" xlink:href="#DejaVuSans-45"/>
      <use x="367.431641" xlink:href="#DejaVuSans-50"/>
      <use x="427.734375" xlink:href="#DejaVuSans-53"/>
      <use x="491.210938" xlink:href="#DejaVuSans-43"/>
      <use x="561.035156" xlink:href="#DejaVuSans-20"/>
      <use x="592.822266" xlink:href="#DejaVuSans-28"/>
      <use x="631.835938" xlink:href="#DejaVuSans-70"/>
      <use x="695.3125" xlink:href="#DejaVuSans-41"/>
      <use x="763.720703" xlink:href="#DejaVuSans-29"/>
     </g>
    </g>
   </g>
   <g id="line2d_12">
    <path clip-path="url(#pe3bd361ee8)" d="M 73.832727 53.568 
L 106.299805 53.568 
L 106.575775 56.08991 
L 106.819278 56.744259 
L 107.014081 56.79867 
L 107.273818 56.591412 
L 109.189375 54.588892 
L 110.098453 54.151565 
L 111.251035 53.854929 
L 112.939323 53.669417 
L 116.121096 53.582285 
L 122.533344 53.568275 
L 122.809314 56.104143 
L 123.052817 56.762093 
L 123.24762 56.816784 
L 123.507356 56.608349 
L 125.422914 54.594606 
L 126.331992 54.154831 
L 127.484574 53.856535 
L 129.172862 53.669985 
L 132.354635 53.582365 
L 146.591449 53.568002 
L 398.487273 53.568 
L 398.487273 53.568 
" style="fill:none;stroke:#1f77b4;stroke-linecap:square;stroke-width:1.5;"/>
   </g>
   <g id="line2d_13">
    <path clip-path="url(#pe3bd361ee8)" d="M 73.832727 53.568 
L 106.299805 53.568 
L 106.575775 58.890201 
L 106.819278 60.271131 
L 106.997847 60.396082 
L 107.176416 60.159767 
L 107.598488 59.078968 
L 108.5238 56.803484 
L 109.221842 55.679946 
L 109.952351 54.915476 
L 110.764028 54.385373 
L 111.754274 54.012127 
L 113.085424 53.763608 
L 115.195785 53.621309 
L 120.147014 53.570525 
L 122.533344 53.56858 
L 122.809314 59.174015 
L 123.052817 60.628389 
L 123.215153 60.767566 
L 123.231386 60.759947 
L 123.409955 60.511013 
L 123.832027 59.372601 
L 124.741105 57.009531 
L 125.439148 55.814757 
L 126.153423 55.015925 
L 126.948867 54.455139 
L 127.906646 54.059774 
L 129.172862 53.793432 
L 131.120886 53.635899 
L 135.292906 53.573197 
L 171.802135 53.568 
L 398.487273 53.568 
L 398.487273 53.568 
" style="fill:none;stroke:#ff7f0e;stroke-linecap:square;stroke-width:1.5;"/>
   </g>
   <g id="line2d_14">
    <path clip-path="url(#pe3bd361ee8)" d="M 73.832727 53.568 
L 106.299805 53.568 
L 106.575775 62.187133 
L 106.819278 64.423503 
L 106.96538 64.644295 
L 106.981614 64.637566 
L 107.111482 64.427503 
L 107.403686 63.367283 
L 108.653668 58.410455 
L 109.319243 56.789563 
L 110.001052 55.685729 
L 110.731561 54.918447 
L 111.543238 54.387101 
L 112.533484 54.01306 
L 113.864634 53.764019 
L 115.974994 53.621421 
L 120.90999 53.570555 
L 122.533344 53.56894 
L 122.809314 62.80399 
L 123.052817 65.200098 
L 123.198919 65.436612 
L 123.215153 65.429396 
L 123.345021 65.20427 
L 123.637225 64.068176 
L 124.887207 58.756797 
L 125.552782 57.019974 
L 126.234591 55.837193 
L 126.948867 55.029576 
L 127.74431 54.463414 
L 128.702089 54.064354 
L 129.952071 53.797818 
L 131.867629 53.638618 
L 135.926014 53.573797 
L 168.815164 53.568 
L 398.487273 53.568 
L 398.487273 53.568 
" style="fill:none;stroke:#2ca02c;stroke-linecap:square;stroke-width:1.5;"/>
   </g>
   <g id="line2d_15">
    <path clip-path="url(#pe3bd361ee8)" d="M 73.832727 53.568 
L 106.299805 53.568 
L 106.575775 65.729502 
L 106.819278 68.884996 
L 106.96538 69.19653 
L 106.981614 69.187036 
L 107.095249 68.945775 
L 107.354985 67.687663 
L 108.767303 59.943446 
L 109.432878 57.806888 
L 110.098453 56.382146 
L 110.796495 55.398757 
L 111.543238 54.723742 
L 112.403616 54.248277 
L 113.475029 53.919602 
L 114.984749 53.706726 
L 117.598348 53.59573 
L 122.533344 53.569326 
L 122.809314 67.101116 
L 123.052817 70.612052 
L 123.198919 70.95861 
L 123.215153 70.948037 
L 123.328788 70.67953 
L 123.588524 69.279518 
L 125.000842 60.662194 
L 125.666417 58.284766 
L 126.331992 56.699403 
L 127.013801 55.625623 
L 127.74431 54.880016 
L 128.572221 54.355861 
L 129.5787 53.991826 
L 130.942317 53.75097 
L 133.150079 53.614961 
L 138.572081 53.569664 
L 249.122481 53.568 
L 398.487273 53.568 
L 398.487273 53.568 
" style="fill:none;stroke:#d62728;stroke-linecap:square;stroke-width:1.5;"/>
   </g>
   <g id="line2d_16">
    <path clip-path="url(#pe3bd361ee8)" d="M 73.832727 53.568 
L 106.299805 53.568 
L 106.575775 69.861579 
L 106.819278 74.089206 
L 106.949147 74.509306 
L 106.981614 74.493869 
L 107.095249 74.170637 
L 107.354985 72.485058 
L 108.767303 62.109612 
L 109.416645 59.304094 
L 110.065986 57.414437 
L 110.731561 56.120881 
L 111.429603 55.228697 
L 112.19258 54.605942 
L 113.085424 54.166841 
L 114.221772 53.865376 
L 115.877593 53.675232 
L 118.945732 53.5842 
L 122.533344 53.569777 
L 122.809314 72.279565 
L 123.052817 77.133979 
L 123.182686 77.616285 
L 123.215153 77.598535 
L 123.328788 77.227285 
L 123.588524 75.291559 
L 125.000842 63.3768 
L 125.650184 60.15507 
L 126.299525 57.985074 
L 126.9651 56.499612 
L 127.646909 55.494235 
L 128.393652 54.784004 
L 129.237796 54.29094 
L 130.276742 53.949201 
L 131.721527 53.724542 
L 134.140324 53.60328 
L 140.877243 53.568556 
L 398.487273 53.568 
L 398.487273 53.568 
" style="fill:none;stroke:#9467bd;stroke-linecap:square;stroke-width:1.5;"/>
   </g>
   <g id="line2d_17">
    <path clip-path="url(#pe3bd361ee8)" d="M 73.832727 53.568 
L 106.299805 53.568 
L 106.575775 74.636076 
L 106.819278 80.102522 
L 106.949147 80.645724 
L 106.981614 80.625764 
L 107.095249 80.207814 
L 107.354985 78.028312 
L 108.767303 64.612556 
L 109.416645 60.984938 
L 110.065986 58.541556 
L 110.731561 56.86895 
L 111.41337 55.736911 
L 112.127646 54.964861 
L 112.939323 54.41524 
L 113.913335 54.032975 
L 115.212018 53.776927 
L 117.24121 53.627859 
L 121.802835 53.571604 
L 122.533344 53.570298 
L 122.809314 78.261098 
L 123.052817 84.66734 
L 123.182686 85.303829 
L 123.215153 85.280405 
L 123.328788 84.790478 
L 123.588524 82.235959 
L 125.000842 66.512394 
L 125.650184 62.260768 
L 126.299525 59.397086 
L 126.948867 57.475644 
L 127.614442 56.161348 
L 128.312484 55.255002 
L 129.07546 54.622381 
L 129.968305 54.176325 
L 131.104653 53.870085 
L 132.74424 53.678025 
L 135.763678 53.585128 
L 147.9713 53.568009 
L 398.487273 53.568 
L 398.487273 53.568 
" style="fill:none;stroke:#8c564b;stroke-linecap:square;stroke-width:1.5;"/>
   </g>
   <g id="line2d_18">
    <path clip-path="url(#pe3bd361ee8)" d="M 73.832727 53.568 
L 106.299805 53.568 
L 106.575775 79.92698 
L 106.819278 86.766235 
L 106.949147 87.445853 
L 106.981614 87.42088 
L 107.079015 87.007688 
L 107.306285 84.780538 
L 108.945872 65.956935 
L 109.595214 61.882333 
L 110.244555 59.142588 
L 110.893897 57.304937 
L 111.559472 56.048044 
L 112.257514 55.181294 
L 113.036724 54.56628 
L 113.945802 54.138227 
L 115.114617 53.845559 
L 116.835372 53.664162 
L 120.13078 53.580629 
L 122.533344 53.570875 
L 122.809314 85.064646 
L 123.052817 93.235983 
L 123.182686 94.047843 
L 123.215153 94.017966 
L 123.312554 93.524167 
L 123.539824 90.862893 
L 125.179411 68.371104 
L 125.828753 63.502504 
L 126.478094 60.228879 
L 127.127436 58.033135 
L 127.793011 56.531317 
L 128.474819 55.515042 
L 129.205329 54.809489 
L 130.049473 54.306091 
L 131.088419 53.95719 
L 132.516971 53.729429 
L 134.887067 53.60549 
L 141.315549 53.568715 
L 396.587949 53.568 
L 398.487273 53.568 
L 398.487273 53.568 
" style="fill:none;stroke:#e377c2;stroke-linecap:square;stroke-width:1.5;"/>
   </g>
   <g id="line2d_19">
    <path clip-path="url(#pe3bd361ee8)" d="M 73.832727 53.568 
L 106.299805 53.568 
L 106.575775 85.876776 
L 106.819278 94.2598 
L 106.949147 95.092823 
L 106.981614 95.062212 
L 107.079015 94.555754 
L 107.306285 91.825888 
L 108.945872 68.753388 
L 109.595214 63.75906 
L 110.244555 60.400894 
L 110.893897 58.148446 
L 111.559472 56.607844 
L 112.24128 55.565323 
L 112.97179 54.84155 
L 113.7997 54.332761 
L 114.822413 53.975306 
L 116.218497 53.740356 
L 118.507426 53.61008 
L 122.533344 53.571524 
L 122.809314 92.478553 
L 123.052817 102.573328 
L 123.182686 103.576292 
L 123.215153 103.539383 
L 123.312554 102.92935 
L 123.539824 99.641646 
L 125.179411 71.85557 
L 125.828753 65.840963 
L 126.478094 61.796767 
L 127.127436 59.084172 
L 127.776777 57.265637 
L 128.442352 56.021942 
L 129.140394 55.164312 
L 129.919604 54.555772 
L 130.828683 54.132224 
L 132.013731 53.839905 
L 133.766953 53.660338 
L 137.159763 53.579421 
L 154.659518 53.568 
L 398.487273 53.568 
L 398.487273 53.568 
" style="fill:none;stroke:#7f7f7f;stroke-linecap:square;stroke-width:1.5;"/>
   </g>
   <g id="line2d_20">
    <path clip-path="url(#pe3bd361ee8)" d="M 73.832727 53.568 
L 106.299805 53.568 
L 106.575775 92.376747 
L 106.819278 102.446291 
L 106.949147 103.446904 
L 106.981614 103.410135 
L 107.079015 102.801786 
L 107.306285 99.522718 
L 108.945872 71.808427 
L 109.595214 65.809326 
L 110.244555 61.775555 
L 110.893897 59.069953 
L 111.543238 57.256105 
L 112.208813 56.015616 
L 112.923089 55.144355 
L 113.702299 54.543422 
L 114.627611 54.119626 
L 115.812659 53.833834 
L 117.582115 53.657378 
L 121.039859 53.578621 
L 122.533344 53.572233 
L 122.809314 101.160879 
L 123.052817 113.508182 
L 123.182686 114.734949 
L 123.215153 114.689805 
L 123.312554 113.943654 
L 123.539824 109.922348 
L 125.179411 75.936192 
L 125.828753 68.579508 
L 126.478094 63.632905 
L 127.127436 60.315031 
L 127.776777 58.090714 
L 128.442352 56.569506 
L 129.124161 55.540131 
L 129.85467 54.825486 
L 130.682581 54.323115 
L 131.705294 53.970168 
L 133.101378 53.738182 
L 135.406541 53.609135 
L 141.396716 53.569027 
L 319.494872 53.568 
L 398.487273 53.568 
L 398.487273 53.568 
" style="fill:none;stroke:#bcbd22;stroke-linecap:square;stroke-width:1.5;"/>
   </g>
   <g id="line2d_21">
    <path clip-path="url(#pe3bd361ee8)" d="M 73.832727 53.568 
L 106.299805 53.568 
L 106.575775 99.248991 
L 106.819278 111.101649 
L 106.949147 112.27945 
L 106.981614 112.23617 
L 107.079015 111.520095 
L 107.306285 107.660371 
L 108.945872 75.038438 
L 109.595214 67.977017 
L 110.244555 63.228947 
L 110.893897 60.044237 
L 111.543238 57.909194 
L 112.208813 56.44904 
L 112.890622 55.460979 
L 113.637365 54.763007 
L 114.481509 54.278456 
L 115.536689 53.938891 
L 116.997707 53.718793 
L 119.481439 53.600652 
L 122.533344 53.572982 
L 122.809314 111.089368 
L 123.052817 126.012524 
L 123.182686 127.495221 
L 123.215153 127.44066 
L 123.312554 126.538856 
L 123.539824 121.678655 
L 125.179411 80.602513 
L 125.828753 71.71112 
L 126.478094 65.732586 
L 127.127436 61.722557 
L 127.776777 59.034216 
L 128.426119 57.232121 
L 129.091694 55.999696 
L 129.80597 55.134101 
L 130.585179 54.537077 
L 131.510491 54.116038 
L 132.711773 53.829476 
L 134.497462 53.655038 
L 138.02014 53.577938 
L 157.889992 53.568 
L 398.487273 53.568 
L 398.487273 53.568 
" style="fill:none;stroke:#17becf;stroke-linecap:square;stroke-width:1.5;"/>
   </g>
   <g id="line2d_22">
    <path clip-path="url(#pe3bd361ee8)" d="M 73.832727 53.568 
L 106.299805 53.568 
L 106.575775 107.127694 
L 106.819278 121.024606 
L 106.949147 122.405545 
L 106.981614 122.354801 
L 107.079015 121.515222 
L 107.306285 116.989803 
L 108.945872 78.741493 
L 109.595214 70.462173 
L 110.244555 64.895193 
L 110.893897 61.161208 
L 111.543238 58.657929 
L 112.19258 56.979888 
L 112.874388 55.809771 
L 113.588664 55.011782 
L 114.384108 54.452499 
L 115.341886 54.058302 
L 116.608102 53.792757 
L 118.556127 53.635696 
L 122.533344 53.573842 
L 122.809314 120.816988 
L 123.052817 138.26384 
L 123.182686 139.997279 
L 123.215153 139.933492 
L 123.312554 138.87918 
L 123.539824 133.197055 
L 125.179411 85.174401 
L 125.828753 74.779358 
L 126.478094 67.789776 
L 127.127436 63.101598 
L 127.776777 59.958624 
L 128.426119 57.851772 
L 129.091694 56.410927 
L 129.789736 55.41735 
L 130.536479 54.735465 
L 131.396856 54.255175 
L 132.46827 53.923168 
L 133.977989 53.708133 
L 136.575355 53.596292 
L 144.594724 53.568202 
L 398.487273 53.568 
L 398.487273 53.568 
" style="fill:none;stroke:#1f77b4;stroke-linecap:square;stroke-width:1.5;"/>
   </g>
   <g id="line2d_23">
    <path clip-path="url(#pe3bd361ee8)" d="M 73.832727 53.568 
L 106.299805 53.568 
L 106.575775 115.417381 
L 106.819278 131.465183 
L 106.949147 133.059857 
L 106.981614 133.001258 
L 107.079015 132.031734 
L 107.306285 126.805894 
L 108.945872 82.637713 
L 109.595214 73.076964 
L 110.244555 66.648356 
L 110.893897 62.336445 
L 111.543238 59.445721 
L 112.19258 57.507962 
L 112.858155 56.182758 
L 113.556197 55.268924 
L 114.319173 54.631081 
L 115.212018 54.181345 
L 116.348366 53.872578 
L 117.987953 53.678933 
L 120.991158 53.585443 
L 122.533344 53.574746 
L 122.809314 131.82125 
L 123.052817 152.123027 
L 123.182686 154.140121 
L 123.215153 154.065897 
L 123.312554 152.839064 
L 123.539824 146.227147 
L 125.179411 90.346312 
L 125.828753 78.250277 
L 126.478094 70.116955 
L 127.127436 64.661628 
L 127.776777 61.004353 
L 128.426119 58.552746 
L 129.091694 56.87613 
L 129.773502 55.741596 
L 130.487778 54.967875 
L 131.299455 54.417067 
L 132.273467 54.033978 
L 133.572151 53.777377 
L 135.601343 53.627988 
L 140.146734 53.571648 
L 191.460951 53.568 
L 398.487273 53.568 
L 398.487273 53.568 
" style="fill:none;stroke:#ff7f0e;stroke-linecap:square;stroke-width:1.5;"/>
   </g>
   <g id="line2d_24">
    <path clip-path="url(#pe3bd361ee8)" d="M 73.832727 53.568 
L 106.299805 53.568 
L 106.575775 125.105566 
L 106.819278 143.667122 
L 106.949147 145.511588 
L 106.981614 145.44381 
L 107.079015 144.322418 
L 107.306285 138.277994 
L 108.945872 87.191239 
L 109.595214 76.132879 
L 110.244555 68.697283 
L 110.893897 63.709948 
L 111.543238 60.366417 
L 112.19258 58.125124 
L 112.858155 56.592338 
L 113.539964 55.555132 
L 114.270473 54.835051 
L 115.098383 54.328859 
L 116.121096 53.973227 
L 117.517181 53.739477 
L 119.80611 53.609865 
L 122.533344 53.575803 
L 122.809314 143.731617 
L 123.052817 167.123372 
L 123.182686 169.447471 
L 123.215153 169.361949 
L 123.312554 167.948388 
L 123.539824 160.330119 
L 125.179411 95.94407 
L 125.828753 82.006986 
L 126.478094 72.63575 
L 127.127436 66.350108 
L 127.776777 62.136186 
L 128.426119 59.311438 
L 129.07546 57.417943 
L 129.741035 56.123016 
L 130.439078 55.230061 
L 131.202054 54.606792 
L 132.094899 54.167331 
L 133.231246 53.865619 
L 134.887067 53.67532 
L 137.955206 53.584213 
L 150.763468 53.568006 
L 398.487273 53.568 
L 398.487273 53.568 
" style="fill:none;stroke:#2ca02c;stroke-linecap:square;stroke-width:1.5;"/>
   </g>
   <g id="line2d_25">
    <path clip-path="url(#pe3bd361ee8)" d="M 73.832727 53.568 
L 106.299805 53.568 
L 106.575775 134.403357 
L 106.819278 155.377373 
L 106.949147 157.461565 
L 106.981614 157.384979 
L 107.079015 156.117839 
L 107.306285 149.287816 
L 108.945872 91.561277 
L 109.595214 79.065653 
L 110.244555 70.663648 
L 110.893897 65.028105 
L 111.543238 61.250012 
L 112.19258 58.717417 
L 112.841921 57.019759 
L 113.52373 55.835967 
L 114.238006 55.028654 
L 115.033449 54.462835 
L 115.991228 54.064031 
L 117.24121 53.797669 
L 119.173002 53.63787 
L 122.533344 53.576817 
L 122.809314 156.322254 
L 123.052817 182.980508 
L 123.182686 185.629155 
L 123.215153 185.531692 
L 123.312554 183.92074 
L 123.539824 175.23864 
L 125.179411 101.861568 
L 125.828753 85.978276 
L 126.478094 75.298418 
L 127.127436 68.135033 
L 127.776777 63.332669 
L 128.426119 60.113466 
L 129.07546 57.955559 
L 129.741035 56.479805 
L 130.422844 55.481192 
L 131.169587 54.775767 
L 132.013731 54.286042 
L 133.068911 53.942851 
L 134.529929 53.720403 
L 136.997427 53.601332 
L 144.042783 53.568435 
L 398.487273 53.568 
L 398.487273 53.568 
" style="fill:none;stroke:#d62728;stroke-linecap:square;stroke-width:1.5;"/>
   </g>
   <g id="line2d_26">
    <path clip-path="url(#pe3bd361ee8)" d="M 73.832727 53.568 
L 106.299805 53.568 
L 106.575775 145.395325 
L 106.819278 169.221381 
L 106.949147 171.588981 
L 106.981614 171.501981 
L 107.079015 170.062535 
L 107.306285 162.303769 
L 108.945872 96.727591 
L 109.595214 82.532816 
L 110.244555 72.988309 
L 110.893897 66.586446 
L 111.543238 62.29461 
L 112.19258 59.417633 
L 112.841921 57.489128 
L 113.507496 56.170258 
L 114.205539 55.260792 
L 114.968515 54.625999 
L 115.86136 54.178412 
L 116.997707 53.871122 
L 118.637295 53.678403 
L 121.656733 53.585187 
L 122.533344 53.578016 
L 122.809314 169.263083 
L 123.052817 199.278638 
L 123.182686 202.260847 
L 123.215153 202.151108 
L 123.312554 200.337271 
L 123.539824 190.561751 
L 125.179411 107.943623 
L 125.828753 90.060001 
L 126.478094 78.03513 
L 127.111202 70.134424 
L 127.760544 64.672918 
L 128.409885 61.011864 
L 129.059227 58.557774 
L 129.724802 56.879465 
L 130.406611 55.743787 
L 131.120886 54.969286 
L 131.932563 54.417923 
L 132.906576 54.034448 
L 134.205259 53.777588 
L 136.234451 53.628048 
L 140.779842 53.571652 
L 192.045358 53.568 
L 398.487273 53.568 
L 398.487273 53.568 
" style="fill:none;stroke:#9467bd;stroke-linecap:square;stroke-width:1.5;"/>
   </g>
   <g id="line2d_27">
    <path clip-path="url(#pe3bd361ee8)" d="M 73.832727 53.568 
L 106.299805 53.568 
L 106.575775 157.588948 
L 106.819278 184.578833 
L 106.949147 187.260823 
L 106.981614 187.16227 
L 107.079015 185.531682 
L 107.306285 176.74264 
L 108.945872 102.458693 
L 109.595214 86.379014 
L 110.244555 75.567104 
L 110.893897 68.315148 
L 111.543238 63.453404 
L 112.19258 60.194398 
L 112.841921 58.009809 
L 113.507496 56.515808 
L 114.189305 55.504848 
L 114.936048 54.7907 
L 115.780192 54.29492 
L 116.819138 53.9513 
L 118.263923 53.725404 
L 120.682721 53.603475 
L 122.533344 53.579345 
L 122.809314 183.532514 
L 123.052817 217.250052 
L 123.182686 220.600069 
L 123.215153 220.476794 
L 123.312554 218.439243 
L 123.539824 207.458042 
L 125.179411 114.650105 
L 125.828753 94.560785 
L 126.478094 81.052812 
L 127.111202 72.177664 
L 127.760544 66.042557 
L 128.409885 61.929962 
L 129.059227 59.173193 
L 129.708568 57.325274 
L 130.374143 56.061516 
L 131.072186 55.190055 
L 131.851395 54.5717 
L 132.760474 54.141323 
L 133.929288 53.847066 
L 135.650044 53.664684 
L 138.945452 53.580698 
L 154.838087 53.568001 
L 398.487273 53.568 
L 398.487273 53.568 
" style="fill:none;stroke:#8c564b;stroke-linecap:square;stroke-width:1.5;"/>
   </g>
   <g id="line2d_28">
    <path clip-path="url(#pe3bd361ee8)" d="M 73.832727 53.568 
L 106.299805 53.568 
L 106.575775 169.836105 
L 106.819278 200.003709 
L 106.949147 203.00147 
L 106.981614 202.891313 
L 107.079015 201.068745 
L 107.306285 191.244903 
L 108.945872 108.214957 
L 109.595214 90.242098 
L 110.244555 78.157222 
L 110.877663 70.217092 
L 111.527005 64.728332 
L 112.176346 61.04901 
L 112.825688 58.582673 
L 113.491263 56.895989 
L 114.173072 55.754645 
L 114.887347 54.976279 
L 115.699024 54.422164 
L 116.673037 54.036775 
L 117.97172 53.778634 
L 120.000912 53.628348 
L 122.533344 53.580681 
L 122.809314 197.684173 
L 123.052817 235.073134 
L 123.182686 238.787922 
L 123.215153 238.651223 
L 123.312554 236.391803 
L 123.539824 224.214873 
L 125.179411 121.301232 
L 125.828753 99.02442 
L 126.478094 84.045587 
L 127.111202 74.204039 
L 127.74431 67.539911 
L 128.393652 62.933672 
L 129.042993 59.846 
L 129.692335 57.77627 
L 130.35791 56.360819 
L 131.055952 55.384754 
L 131.802695 54.714887 
L 132.663072 54.243064 
L 133.734486 53.916908 
L 135.244205 53.705663 
L 137.874038 53.595243 
L 146.13691 53.568168 
L 398.487273 53.568 
L 398.487273 53.568 
" style="fill:none;stroke:#e377c2;stroke-linecap:square;stroke-width:1.5;"/>
   </g>
   <g id="line2d_29">
    <path clip-path="url(#pe3bd361ee8)" d="M 73.832727 53.568 
L 106.299805 53.568 
L 106.575775 182.380588 
L 106.819278 215.803057 
L 106.949147 219.124254 
L 106.981614 219.002212 
L 107.079015 216.983002 
L 107.306285 206.09924 
L 108.945872 114.110966 
L 109.595214 94.198966 
L 110.244555 80.81022 
L 110.877663 72.013408 
L 111.527005 65.932451 
L 112.176346 61.856156 
L 112.825688 59.12372 
L 113.475029 57.292111 
L 114.140604 56.039507 
L 114.838647 55.175738 
L 115.617857 54.562841 
L 116.526935 54.136262 
L 117.69575 53.844603 
L 119.416505 53.663831 
L 122.533344 53.582049 
L 122.809314 212.326734 
L 123.052817 253.514479 
L 123.182686 257.606693 
L 123.215153 257.456104 
L 123.312554 254.967119 
L 123.539824 241.552982 
L 125.179411 128.183081 
L 125.828753 103.642895 
L 126.478094 87.142179 
L 127.111202 76.300707 
L 127.74431 68.959489 
L 128.393652 63.885245 
L 129.042993 60.483859 
L 129.692335 58.20384 
L 130.35791 56.644576 
L 131.039719 55.589455 
L 131.770228 54.856936 
L 132.598138 54.342001 
L 133.604618 53.984369 
L 134.984468 53.745962 
L 137.224697 53.612772 
L 142.841501 53.569407 
L 273.29422 53.568 
L 398.487273 53.568 
L 398.487273 53.568 
" style="fill:none;stroke:#7f7f7f;stroke-linecap:square;stroke-width:1.5;"/>
   </g>
   <g id="line2d_30">
    <path clip-path="url(#pe3bd361ee8)" d="M 73.832727 53.568 
L 106.299805 53.568 
L 106.575775 197.101062 
L 106.819278 234.342991 
L 106.949147 238.043729 
L 106.981614 237.90774 
L 107.079015 235.657778 
L 107.306285 223.530239 
L 108.945872 121.029709 
L 109.595214 98.842201 
L 110.244555 83.923413 
L 110.877663 74.121316 
L 111.527005 67.345439 
L 112.176346 62.803312 
L 112.825688 59.758617 
L 113.475029 57.717695 
L 114.140604 56.321946 
L 114.838647 55.359467 
L 115.585389 54.698924 
L 116.445767 54.233667 
L 117.533414 53.908628 
L 119.0756 53.699735 
L 121.770368 53.593048 
L 122.533344 53.583655 
L 122.809314 226.561806 
L 123.052817 271.442526 
L 123.182686 275.901641 
L 123.215153 275.737545 
L 123.312554 273.025377 
L 123.539824 258.408461 
L 125.179411 134.873359 
L 125.828753 108.132804 
L 126.478094 90.15257 
L 127.111202 78.33901 
L 127.74431 70.33955 
L 128.393652 64.81033 
L 129.042993 61.103962 
L 129.692335 58.619507 
L 130.341676 56.954126 
L 131.023485 55.792844 
L 131.737761 55.00088 
L 132.533204 54.44582 
L 133.490983 54.0546 
L 134.757199 53.79106 
L 136.721457 53.634516 
L 140.958411 53.572891 
L 179.642934 53.568 
L 398.487273 53.568 
L 398.487273 53.568 
" style="fill:none;stroke:#bcbd22;stroke-linecap:square;stroke-width:1.5;"/>
   </g>
   <g id="line2d_31">
    <path clip-path="url(#pe3bd361ee8)" d="M 73.832727 53.568 
L 106.299805 53.568 
L 106.575775 211.54233 
L 106.819278 252.531276 
L 106.949147 256.604355 
L 106.981614 256.454684 
L 107.079015 253.978347 
L 107.306285 240.630621 
L 108.945872 127.817223 
L 109.595214 103.397366 
L 110.244555 86.977557 
L 110.877663 76.189244 
L 111.510771 68.884021 
L 112.160113 63.834658 
L 112.809454 60.449949 
L 113.458796 58.181109 
L 114.124371 56.629491 
L 114.80618 55.579543 
L 115.536689 54.850616 
L 116.364599 54.338205 
L 117.387312 53.978205 
L 118.783397 53.741583 
L 121.056092 53.610805 
L 122.533344 53.58523 
L 122.809314 241.801663 
L 123.052817 290.636075 
L 123.182686 295.488 
L 123.215153 295.309445 
L 123.312554 292.358344 
L 123.539824 276.453752 
L 125.179411 142.035899 
L 125.828753 112.939654 
L 126.478094 93.375463 
L 127.111202 80.521195 
L 127.74431 71.817028 
L 128.393652 65.800715 
L 129.042993 61.767838 
L 129.692335 59.064516 
L 130.341676 57.252425 
L 131.007251 56.01317 
L 131.721527 55.142778 
L 132.500737 54.542447 
L 133.426049 54.119074 
L 134.611097 53.833568 
L 136.380553 53.657288 
L 139.838297 53.578611 
L 158.539334 53.568 
L 398.487273 53.568 
L 398.487273 53.568 
" style="fill:none;stroke:#17becf;stroke-linecap:square;stroke-width:1.5;"/>
   </g>
   <g id="patch_3">
    <path d="M 57.6 307.584 
L 57.6 41.472 
" style="fill:none;stroke:#000000;stroke-linecap:square;stroke-linejoin:miter;stroke-width:0.8;"/>
   </g>
   <g id="patch_4">
    <path d="M 414.72 307.584 
L 414.72 41.472 
" style="fill:none;stroke:#000000;stroke-linecap:square;stroke-linejoin:miter;stroke-width:0.8;"/>
   </g>
   <g id="patch_5">
    <path d="M 57.6 307.584 
L 414.72 307.584 
" style="fill:none;stroke:#000000;stroke-linecap:square;stroke-linejoin:miter;stroke-width:0.8;"/>
   </g>
   <g id="patch_6">
    <path d="M 57.6 41.472 
L 414.72 41.472 
" style="fill:none;stroke:#000000;stroke-linecap:square;stroke-linejoin:miter;stroke-width:0.8;"/>
   </g>
   <g id="text_14">
    <!-- Mean EPSC across conditions -->
    <defs>
     <path d="M 41.109375 46.296875 
Q 39.59375 47.171875 37.8125 47.578125 
Q 36.03125 48 33.890625 48 
Q 26.265625 48 22.1875 43.046875 
Q 18.109375 38.09375 18.109375 28.8125 
L 18.109375 0 
L 9.078125 0 
L 9.078125 54.6875 
L 18.109375 54.6875 
L 18.109375 46.1875 
Q 20.953125 51.171875 25.484375 53.578125 
Q 30.03125 56 36.53125 56 
Q 37.453125 56 38.578125 55.875 
Q 39.703125 55.765625 41.0625 55.515625 
z
" id="DejaVuSans-72"/>
     <path d="M 18.3125 70.21875 
L 18.3125 54.6875 
L 36.8125 54.6875 
L 36.8125 47.703125 
L 18.3125 47.703125 
L 18.3125 18.015625 
Q 18.3125 11.328125 20.140625 9.421875 
Q 21.96875 7.515625 27.59375 7.515625 
L 36.8125 7.515625 
L 36.8125 0 
L 27.59375 0 
Q 17.1875 0 13.234375 3.875 
Q 9.28125 7.765625 9.28125 18.015625 
L 9.28125 47.703125 
L 2.6875 47.703125 
L 2.6875 54.6875 
L 9.28125 54.6875 
L 9.28125 70.21875 
z
" id="DejaVuSans-74"/>
    </defs>
    <g transform="translate(148.453125 35.472)scale(0.12 -0.12)">
     <use xlink:href="#DejaVuSans-4d"/>
     <use x="86.279297" xlink:href="#DejaVuSans-65"/>
     <use x="147.802734" xlink:href="#DejaVuSans-61"/>
     <use x="209.082031" xlink:href="#DejaVuSans-6e"/>
     <use x="272.460938" xlink:href="#DejaVuSans-20"/>
     <use x="304.248047" xlink:href="#DejaVuSans-45"/>
     <use x="367.431641" xlink:href="#DejaVuSans-50"/>
     <use x="427.734375" xlink:href="#DejaVuSans-53"/>
     <use x="491.210938" xlink:href="#DejaVuSans-43"/>
     <use x="561.035156" xlink:href="#DejaVuSans-20"/>
     <use x="592.822266" xlink:href="#DejaVuSans-61"/>
     <use x="654.101562" xlink:href="#DejaVuSans-63"/>
     <use x="709.082031" xlink:href="#DejaVuSans-72"/>
     <use x="750.164062" xlink:href="#DejaVuSans-6f"/>
     <use x="811.345703" xlink:href="#DejaVuSans-73"/>
     <use x="863.445312" xlink:href="#DejaVuSans-73"/>
     <use x="915.544922" xlink:href="#DejaVuSans-20"/>
     <use x="947.332031" xlink:href="#DejaVuSans-63"/>
     <use x="1002.3125" xlink:href="#DejaVuSans-6f"/>
     <use x="1063.494141" xlink:href="#DejaVuSans-6e"/>
     <use x="1126.873047" xlink:href="#DejaVuSans-64"/>
     <use x="1190.349609" xlink:href="#DejaVuSans-69"/>
     <use x="1218.132812" xlink:href="#DejaVuSans-74"/>
     <use x="1257.341797" xlink:href="#DejaVuSans-69"/>
     <use x="1285.125" xlink:href="#DejaVuSans-6f"/>
     <use x="1346.306641" xlink:href="#DejaVuSans-6e"/>
     <use x="1409.685547" xlink:href="#DejaVuSans-73"/>
    </g>
   </g>
  </g>
 </g>
 <defs>
  <clipPath id="pe3bd361ee8">
   <rect height="266.112" width="357.12" x="57.6" y="41.472"/>
  </clipPath>
 </defs>
</svg>
