<?xml version="1.0" encoding="utf-8" standalone="no"?>
<!DOCTYPE svg PUBLIC "-//W3C//DTD SVG 1.1//EN"
  "http://www.w3.org/Graphics/SVG/1.1/DTD/svg11.dtd">
<!-- Created with matplotlib (http://matplotlib.org/) -->
<svg height="345pt" version="1.1" viewBox="0 0 460 345" width="460pt" xmlns="http://www.w3.org/2000/svg" xmlns:xlink="http://www.w3.org/1999/xlink">
 <defs>
  <style type="text/css">
*{stroke-linecap:butt;stroke-linejoin:round;}
  </style>
 </defs>
 <g id="figure_1">
  <g id="patch_1">
   <path d="M 0 345.6 
L 460.8 345.6 
L 460.8 0 
L 0 0 
z
" style="fill:#ffffff;"/>
  </g>
  <g id="axes_1">
   <g id="patch_2">
    <path d="M 57.6 307.584 
L 414.72 307.584 
L 414.72 41.472 
L 57.6 41.472 
z
" style="fill:#ffffff;"/>
   </g>
   <g id="matplotlib.axis_1">
    <g id="xtick_1">
     <g id="line2d_1">
      <defs>
       <path d="M 0 0 
L 0 3.5 
" id="m84bdd310fb" style="stroke:#000000;stroke-width:0.8;"/>
      </defs>
      <g>
       <use style="stroke:#000000;stroke-width:0.8;" x="73.832727" xlink:href="#m84bdd310fb" y="307.584"/>
      </g>
     </g>
     <g id="text_1">
      <!-- 0.0 -->
      <defs>
       <path d="M 31.78125 66.40625 
Q 24.171875 66.40625 20.328125 58.90625 
Q 16.5 51.421875 16.5 36.375 
Q 16.5 21.390625 20.328125 13.890625 
Q 24.171875 6.390625 31.78125 6.390625 
Q 39.453125 6.390625 43.28125 13.890625 
Q 47.125 21.390625 47.125 36.375 
Q 47.125 51.421875 43.28125 58.90625 
Q 39.453125 66.40625 31.78125 66.40625 
z
M 31.78125 74.21875 
Q 44.046875 74.21875 50.515625 64.515625 
Q 56.984375 54.828125 56.984375 36.375 
Q 56.984375 17.96875 50.515625 8.265625 
Q 44.046875 -1.421875 31.78125 -1.421875 
Q 19.53125 -1.421875 13.0625 8.265625 
Q 6.59375 17.96875 6.59375 36.375 
Q 6.59375 54.828125 13.0625 64.515625 
Q 19.53125 74.21875 31.78125 74.21875 
z
" id="DejaVuSans-30"/>
       <path d="M 10.6875 12.40625 
L 21 12.40625 
L 21 0 
L 10.6875 0 
z
" id="DejaVuSans-2e"/>
      </defs>
      <g transform="translate(65.881165 322.182437)scale(0.1 -0.1)">
       <use xlink:href="#DejaVuSans-30"/>
       <use x="63.623047" xlink:href="#DejaVuSans-2e"/>
       <use x="95.410156" xlink:href="#DejaVuSans-30"/>
      </g>
     </g>
    </g>
    <g id="xtick_2">
     <g id="line2d_2">
      <g>
       <use style="stroke:#000000;stroke-width:0.8;" x="138.766883" xlink:href="#m84bdd310fb" y="307.584"/>
      </g>
     </g>
     <g id="text_2">
      <!-- 0.2 -->
      <defs>
       <path d="M 19.1875 8.296875 
L 53.609375 8.296875 
L 53.609375 0 
L 7.328125 0 
L 7.328125 8.296875 
Q 12.9375 14.109375 22.625 23.890625 
Q 32.328125 33.6875 34.8125 36.53125 
Q 39.546875 41.84375 41.421875 45.53125 
Q 43.3125 49.21875 43.3125 52.78125 
Q 43.3125 58.59375 39.234375 62.25 
Q 35.15625 65.921875 28.609375 65.921875 
Q 23.96875 65.921875 18.8125 64.3125 
Q 13.671875 62.703125 7.8125 59.421875 
L 7.8125 69.390625 
Q 13.765625 71.78125 18.9375 73 
Q 24.125 74.21875 28.421875 74.21875 
Q 39.75 74.21875 46.484375 68.546875 
Q 53.21875 62.890625 53.21875 53.421875 
Q 53.21875 48.921875 51.53125 44.890625 
Q 49.859375 40.875 45.40625 35.40625 
Q 44.1875 33.984375 37.640625 27.21875 
Q 31.109375 20.453125 19.1875 8.296875 
z
" id="DejaVuSans-32"/>
      </defs>
      <g transform="translate(130.815321 322.182437)scale(0.1 -0.1)">
       <use xlink:href="#DejaVuSans-30"/>
       <use x="63.623047" xlink:href="#DejaVuSans-2e"/>
       <use x="95.410156" xlink:href="#DejaVuSans-32"/>
      </g>
     </g>
    </g>
    <g id="xtick_3">
     <g id="line2d_3">
      <g>
       <use style="stroke:#000000;stroke-width:0.8;" x="203.701039" xlink:href="#m84bdd310fb" y="307.584"/>
      </g>
     </g>
     <g id="text_3">
      <!-- 0.4 -->
      <defs>
       <path d="M 37.796875 64.3125 
L 12.890625 25.390625 
L 37.796875 25.390625 
z
M 35.203125 72.90625 
L 47.609375 72.90625 
L 47.609375 25.390625 
L 58.015625 25.390625 
L 58.015625 17.1875 
L 47.609375 17.1875 
L 47.609375 0 
L 37.796875 0 
L 37.796875 17.1875 
L 4.890625 17.1875 
L 4.890625 26.703125 
z
" id="DejaVuSans-34"/>
      </defs>
      <g transform="translate(195.749476 322.182437)scale(0.1 -0.1)">
       <use xlink:href="#DejaVuSans-30"/>
       <use x="63.623047" xlink:href="#DejaVuSans-2e"/>
       <use x="95.410156" xlink:href="#DejaVuSans-34"/>
      </g>
     </g>
    </g>
    <g id="xtick_4">
     <g id="line2d_4">
      <g>
       <use style="stroke:#000000;stroke-width:0.8;" x="268.635195" xlink:href="#m84bdd310fb" y="307.584"/>
      </g>
     </g>
     <g id="text_4">
      <!-- 0.6 -->
      <defs>
       <path d="M 33.015625 40.375 
Q 26.375 40.375 22.484375 35.828125 
Q 18.609375 31.296875 18.609375 23.390625 
Q 18.609375 15.53125 22.484375 10.953125 
Q 26.375 6.390625 33.015625 6.390625 
Q 39.65625 6.390625 43.53125 10.953125 
Q 47.40625 15.53125 47.40625 23.390625 
Q 47.40625 31.296875 43.53125 35.828125 
Q 39.65625 40.375 33.015625 40.375 
z
M 52.59375 71.296875 
L 52.59375 62.3125 
Q 48.875 64.0625 45.09375 64.984375 
Q 41.3125 65.921875 37.59375 65.921875 
Q 27.828125 65.921875 22.671875 59.328125 
Q 17.53125 52.734375 16.796875 39.40625 
Q 19.671875 43.65625 24.015625 45.921875 
Q 28.375 48.1875 33.59375 48.1875 
Q 44.578125 48.1875 50.953125 41.515625 
Q 57.328125 34.859375 57.328125 23.390625 
Q 57.328125 12.15625 50.6875 5.359375 
Q 44.046875 -1.421875 33.015625 -1.421875 
Q 20.359375 -1.421875 13.671875 8.265625 
Q 6.984375 17.96875 6.984375 36.375 
Q 6.984375 53.65625 15.1875 63.9375 
Q 23.390625 74.21875 37.203125 74.21875 
Q 40.921875 74.21875 44.703125 73.484375 
Q 48.484375 72.75 52.59375 71.296875 
z
" id="DejaVuSans-36"/>
      </defs>
      <g transform="translate(260.683632 322.182437)scale(0.1 -0.1)">
       <use xlink:href="#DejaVuSans-30"/>
       <use x="63.623047" xlink:href="#DejaVuSans-2e"/>
       <use x="95.410156" xlink:href="#DejaVuSans-36"/>
      </g>
     </g>
    </g>
    <g id="xtick_5">
     <g id="line2d_5">
      <g>
       <use style="stroke:#000000;stroke-width:0.8;" x="333.56935" xlink:href="#m84bdd310fb" y="307.584"/>
      </g>
     </g>
     <g id="text_5">
      <!-- 0.8 -->
      <defs>
       <path d="M 31.78125 34.625 
Q 24.75 34.625 20.71875 30.859375 
Q 16.703125 27.09375 16.703125 20.515625 
Q 16.703125 13.921875 20.71875 10.15625 
Q 24.75 6.390625 31.78125 6.390625 
Q 38.8125 6.390625 42.859375 10.171875 
Q 46.921875 13.96875 46.921875 20.515625 
Q 46.921875 27.09375 42.890625 30.859375 
Q 38.875 34.625 31.78125 34.625 
z
M 21.921875 38.8125 
Q 15.578125 40.375 12.03125 44.71875 
Q 8.5 49.078125 8.5 55.328125 
Q 8.5 64.0625 14.71875 69.140625 
Q 20.953125 74.21875 31.78125 74.21875 
Q 42.671875 74.21875 48.875 69.140625 
Q 55.078125 64.0625 55.078125 55.328125 
Q 55.078125 49.078125 51.53125 44.71875 
Q 48 40.375 41.703125 38.8125 
Q 48.828125 37.15625 52.796875 32.3125 
Q 56.78125 27.484375 56.78125 20.515625 
Q 56.78125 9.90625 50.3125 4.234375 
Q 43.84375 -1.421875 31.78125 -1.421875 
Q 19.734375 -1.421875 13.25 4.234375 
Q 6.78125 9.90625 6.78125 20.515625 
Q 6.78125 27.484375 10.78125 32.3125 
Q 14.796875 37.15625 21.921875 38.8125 
z
M 18.3125 54.390625 
Q 18.3125 48.734375 21.84375 45.5625 
Q 25.390625 42.390625 31.78125 42.390625 
Q 38.140625 42.390625 41.71875 45.5625 
Q 45.3125 48.734375 45.3125 54.390625 
Q 45.3125 60.0625 41.71875 63.234375 
Q 38.140625 66.40625 31.78125 66.40625 
Q 25.390625 66.40625 21.84375 63.234375 
Q 18.3125 60.0625 18.3125 54.390625 
z
" id="DejaVuSans-38"/>
      </defs>
      <g transform="translate(325.617788 322.182437)scale(0.1 -0.1)">
       <use xlink:href="#DejaVuSans-30"/>
       <use x="63.623047" xlink:href="#DejaVuSans-2e"/>
       <use x="95.410156" xlink:href="#DejaVuSans-38"/>
      </g>
     </g>
    </g>
    <g id="xtick_6">
     <g id="line2d_6">
      <g>
       <use style="stroke:#000000;stroke-width:0.8;" x="398.503506" xlink:href="#m84bdd310fb" y="307.584"/>
      </g>
     </g>
     <g id="text_6">
      <!-- 1.0 -->
      <defs>
       <path d="M 12.40625 8.296875 
L 28.515625 8.296875 
L 28.515625 63.921875 
L 10.984375 60.40625 
L 10.984375 69.390625 
L 28.421875 72.90625 
L 38.28125 72.90625 
L 38.28125 8.296875 
L 54.390625 8.296875 
L 54.390625 0 
L 12.40625 0 
z
" id="DejaVuSans-31"/>
      </defs>
      <g transform="translate(390.551944 322.182437)scale(0.1 -0.1)">
       <use xlink:href="#DejaVuSans-31"/>
       <use x="63.623047" xlink:href="#DejaVuSans-2e"/>
       <use x="95.410156" xlink:href="#DejaVuSans-30"/>
      </g>
     </g>
    </g>
    <g id="text_7">
     <!-- Time (seconds) -->
     <defs>
      <path d="M -0.296875 72.90625 
L 61.375 72.90625 
L 61.375 64.59375 
L 35.5 64.59375 
L 35.5 0 
L 25.59375 0 
L 25.59375 64.59375 
L -0.296875 64.59375 
z
" id="DejaVuSans-54"/>
      <path d="M 9.421875 54.6875 
L 18.40625 54.6875 
L 18.40625 0 
L 9.421875 0 
z
M 9.421875 75.984375 
L 18.40625 75.984375 
L 18.40625 64.59375 
L 9.421875 64.59375 
z
" id="DejaVuSans-69"/>
      <path d="M 52 44.1875 
Q 55.375 50.25 60.0625 53.125 
Q 64.75 56 71.09375 56 
Q 79.640625 56 84.28125 50.015625 
Q 88.921875 44.046875 88.921875 33.015625 
L 88.921875 0 
L 79.890625 0 
L 79.890625 32.71875 
Q 79.890625 40.578125 77.09375 44.375 
Q 74.3125 48.1875 68.609375 48.1875 
Q 61.625 48.1875 57.5625 43.546875 
Q 53.515625 38.921875 53.515625 30.90625 
L 53.515625 0 
L 44.484375 0 
L 44.484375 32.71875 
Q 44.484375 40.625 41.703125 44.40625 
Q 38.921875 48.1875 33.109375 48.1875 
Q 26.21875 48.1875 22.15625 43.53125 
Q 18.109375 38.875 18.109375 30.90625 
L 18.109375 0 
L 9.078125 0 
L 9.078125 54.6875 
L 18.109375 54.6875 
L 18.109375 46.1875 
Q 21.1875 51.21875 25.484375 53.609375 
Q 29.78125 56 35.6875 56 
Q 41.65625 56 45.828125 52.96875 
Q 50 49.953125 52 44.1875 
z
" id="DejaVuSans-6d"/>
      <path d="M 56.203125 29.59375 
L 56.203125 25.203125 
L 14.890625 25.203125 
Q 15.484375 15.921875 20.484375 11.0625 
Q 25.484375 6.203125 34.421875 6.203125 
Q 39.59375 6.203125 44.453125 7.46875 
Q 49.3125 8.734375 54.109375 11.28125 
L 54.109375 2.78125 
Q 49.265625 0.734375 44.1875 -0.34375 
Q 39.109375 -1.421875 33.890625 -1.421875 
Q 20.796875 -1.421875 13.15625 6.1875 
Q 5.515625 13.8125 5.515625 26.8125 
Q 5.515625 40.234375 12.765625 48.109375 
Q 20.015625 56 32.328125 56 
Q 43.359375 56 49.78125 48.890625 
Q 56.203125 41.796875 56.203125 29.59375 
z
M 47.21875 32.234375 
Q 47.125 39.59375 43.09375 43.984375 
Q 39.0625 48.390625 32.421875 48.390625 
Q 24.90625 48.390625 20.390625 44.140625 
Q 15.875 39.890625 15.1875 32.171875 
z
" id="DejaVuSans-65"/>
      <path id="DejaVuSans-20"/>
      <path d="M 31 75.875 
Q 24.46875 64.65625 21.28125 53.65625 
Q 18.109375 42.671875 18.109375 31.390625 
Q 18.109375 20.125 21.3125 9.0625 
Q 24.515625 -2 31 -13.1875 
L 23.1875 -13.1875 
Q 15.875 -1.703125 12.234375 9.375 
Q 8.59375 20.453125 8.59375 31.390625 
Q 8.59375 42.28125 12.203125 53.3125 
Q 15.828125 64.359375 23.1875 75.875 
z
" id="DejaVuSans-28"/>
      <path d="M 44.28125 53.078125 
L 44.28125 44.578125 
Q 40.484375 46.53125 36.375 47.5 
Q 32.28125 48.484375 27.875 48.484375 
Q 21.1875 48.484375 17.84375 46.4375 
Q 14.5 44.390625 14.5 40.28125 
Q 14.5 37.15625 16.890625 35.375 
Q 19.28125 33.59375 26.515625 31.984375 
L 29.59375 31.296875 
Q 39.15625 29.25 43.1875 25.515625 
Q 47.21875 21.78125 47.21875 15.09375 
Q 47.21875 7.46875 41.1875 3.015625 
Q 35.15625 -1.421875 24.609375 -1.421875 
Q 20.21875 -1.421875 15.453125 -0.5625 
Q 10.6875 0.296875 5.421875 2 
L 5.421875 11.28125 
Q 10.40625 8.6875 15.234375 7.390625 
Q 20.0625 6.109375 24.8125 6.109375 
Q 31.15625 6.109375 34.5625 8.28125 
Q 37.984375 10.453125 37.984375 14.40625 
Q 37.984375 18.0625 35.515625 20.015625 
Q 33.0625 21.96875 24.703125 23.78125 
L 21.578125 24.515625 
Q 13.234375 26.265625 9.515625 29.90625 
Q 5.8125 33.546875 5.8125 39.890625 
Q 5.8125 47.609375 11.28125 51.796875 
Q 16.75 56 26.8125 56 
Q 31.78125 56 36.171875 55.265625 
Q 40.578125 54.546875 44.28125 53.078125 
z
" id="DejaVuSans-73"/>
      <path d="M 48.78125 52.59375 
L 48.78125 44.1875 
Q 44.96875 46.296875 41.140625 47.34375 
Q 37.3125 48.390625 33.40625 48.390625 
Q 24.65625 48.390625 19.8125 42.84375 
Q 14.984375 37.3125 14.984375 27.296875 
Q 14.984375 17.28125 19.8125 11.734375 
Q 24.65625 6.203125 33.40625 6.203125 
Q 37.3125 6.203125 41.140625 7.25 
Q 44.96875 8.296875 48.78125 10.40625 
L 48.78125 2.09375 
Q 45.015625 0.34375 40.984375 -0.53125 
Q 36.96875 -1.421875 32.421875 -1.421875 
Q 20.0625 -1.421875 12.78125 6.34375 
Q 5.515625 14.109375 5.515625 27.296875 
Q 5.515625 40.671875 12.859375 48.328125 
Q 20.21875 56 33.015625 56 
Q 37.15625 56 41.109375 55.140625 
Q 45.0625 54.296875 48.78125 52.59375 
z
" id="DejaVuSans-63"/>
      <path d="M 30.609375 48.390625 
Q 23.390625 48.390625 19.1875 42.75 
Q 14.984375 37.109375 14.984375 27.296875 
Q 14.984375 17.484375 19.15625 11.84375 
Q 23.34375 6.203125 30.609375 6.203125 
Q 37.796875 6.203125 41.984375 11.859375 
Q 46.1875 17.53125 46.1875 27.296875 
Q 46.1875 37.015625 41.984375 42.703125 
Q 37.796875 48.390625 30.609375 48.390625 
z
M 30.609375 56 
Q 42.328125 56 49.015625 48.375 
Q 55.71875 40.765625 55.71875 27.296875 
Q 55.71875 13.875 49.015625 6.21875 
Q 42.328125 -1.421875 30.609375 -1.421875 
Q 18.84375 -1.421875 12.171875 6.21875 
Q 5.515625 13.875 5.515625 27.296875 
Q 5.515625 40.765625 12.171875 48.375 
Q 18.84375 56 30.609375 56 
z
" id="DejaVuSans-6f"/>
      <path d="M 54.890625 33.015625 
L 54.890625 0 
L 45.90625 0 
L 45.90625 32.71875 
Q 45.90625 40.484375 42.875 44.328125 
Q 39.84375 48.1875 33.796875 48.1875 
Q 26.515625 48.1875 22.3125 43.546875 
Q 18.109375 38.921875 18.109375 30.90625 
L 18.109375 0 
L 9.078125 0 
L 9.078125 54.6875 
L 18.109375 54.6875 
L 18.109375 46.1875 
Q 21.34375 51.125 25.703125 53.5625 
Q 30.078125 56 35.796875 56 
Q 45.21875 56 50.046875 50.171875 
Q 54.890625 44.34375 54.890625 33.015625 
z
" id="DejaVuSans-6e"/>
      <path d="M 45.40625 46.390625 
L 45.40625 75.984375 
L 54.390625 75.984375 
L 54.390625 0 
L 45.40625 0 
L 45.40625 8.203125 
Q 42.578125 3.328125 38.25 0.953125 
Q 33.9375 -1.421875 27.875 -1.421875 
Q 17.96875 -1.421875 11.734375 6.484375 
Q 5.515625 14.40625 5.515625 27.296875 
Q 5.515625 40.1875 11.734375 48.09375 
Q 17.96875 56 27.875 56 
Q 33.9375 56 38.25 53.625 
Q 42.578125 51.265625 45.40625 46.390625 
z
M 14.796875 27.296875 
Q 14.796875 17.390625 18.875 11.75 
Q 22.953125 6.109375 30.078125 6.109375 
Q 37.203125 6.109375 41.296875 11.75 
Q 45.40625 17.390625 45.40625 27.296875 
Q 45.40625 37.203125 41.296875 42.84375 
Q 37.203125 48.484375 30.078125 48.484375 
Q 22.953125 48.484375 18.875 42.84375 
Q 14.796875 37.203125 14.796875 27.296875 
z
" id="DejaVuSans-64"/>
      <path d="M 8.015625 75.875 
L 15.828125 75.875 
Q 23.140625 64.359375 26.78125 53.3125 
Q 30.421875 42.28125 30.421875 31.390625 
Q 30.421875 20.453125 26.78125 9.375 
Q 23.140625 -1.703125 15.828125 -13.1875 
L 8.015625 -13.1875 
Q 14.5 -2 17.703125 9.0625 
Q 20.90625 20.125 20.90625 31.390625 
Q 20.90625 42.671875 17.703125 53.65625 
Q 14.5 64.65625 8.015625 75.875 
z
" id="DejaVuSans-29"/>
     </defs>
     <g transform="translate(197.844375 335.860562)scale(0.1 -0.1)">
      <use xlink:href="#DejaVuSans-54"/>
      <use x="61.037109" xlink:href="#DejaVuSans-69"/>
      <use x="88.820312" xlink:href="#DejaVuSans-6d"/>
      <use x="186.232422" xlink:href="#DejaVuSans-65"/>
      <use x="247.755859" xlink:href="#DejaVuSans-20"/>
      <use x="279.542969" xlink:href="#DejaVuSans-28"/>
      <use x="318.556641" xlink:href="#DejaVuSans-73"/>
      <use x="370.65625" xlink:href="#DejaVuSans-65"/>
      <use x="432.179688" xlink:href="#DejaVuSans-63"/>
      <use x="487.160156" xlink:href="#DejaVuSans-6f"/>
      <use x="548.341797" xlink:href="#DejaVuSans-6e"/>
      <use x="611.720703" xlink:href="#DejaVuSans-64"/>
      <use x="675.197266" xlink:href="#DejaVuSans-73"/>
      <use x="727.296875" xlink:href="#DejaVuSans-29"/>
     </g>
    </g>
   </g>
   <g id="matplotlib.axis_2">
    <g id="ytick_1">
     <g id="line2d_7">
      <defs>
       <path d="M 0 0 
L -3.5 0 
" id="m3d5588f067" style="stroke:#000000;stroke-width:0.8;"/>
      </defs>
      <g>
       <use style="stroke:#000000;stroke-width:0.8;" x="57.6" xlink:href="#m3d5588f067" y="279.954878"/>
      </g>
     </g>
     <g id="text_8">
      <!-- −175 -->
      <defs>
       <path d="M 10.59375 35.5 
L 73.1875 35.5 
L 73.1875 27.203125 
L 10.59375 27.203125 
z
" id="DejaVuSans-2212"/>
       <path d="M 8.203125 72.90625 
L 55.078125 72.90625 
L 55.078125 68.703125 
L 28.609375 0 
L 18.3125 0 
L 43.21875 64.59375 
L 8.203125 64.59375 
z
" id="DejaVuSans-37"/>
       <path d="M 10.796875 72.90625 
L 49.515625 72.90625 
L 49.515625 64.59375 
L 19.828125 64.59375 
L 19.828125 46.734375 
Q 21.96875 47.46875 24.109375 47.828125 
Q 26.265625 48.1875 28.421875 48.1875 
Q 40.625 48.1875 47.75 41.5 
Q 54.890625 34.8125 54.890625 23.390625 
Q 54.890625 11.625 47.5625 5.09375 
Q 40.234375 -1.421875 26.90625 -1.421875 
Q 22.3125 -1.421875 17.546875 -0.640625 
Q 12.796875 0.140625 7.71875 1.703125 
L 7.71875 11.625 
Q 12.109375 9.234375 16.796875 8.0625 
Q 21.484375 6.890625 26.703125 6.890625 
Q 35.15625 6.890625 40.078125 11.328125 
Q 45.015625 15.765625 45.015625 23.390625 
Q 45.015625 31 40.078125 35.4375 
Q 35.15625 39.890625 26.703125 39.890625 
Q 22.75 39.890625 18.8125 39.015625 
Q 14.890625 38.140625 10.796875 36.28125 
z
" id="DejaVuSans-35"/>
      </defs>
      <g transform="translate(23.132812 283.754097)scale(0.1 -0.1)">
       <use xlink:href="#DejaVuSans-2212"/>
       <use x="83.789062" xlink:href="#DejaVuSans-31"/>
       <use x="147.412109" xlink:href="#DejaVuSans-37"/>
       <use x="211.035156" xlink:href="#DejaVuSans-35"/>
      </g>
     </g>
    </g>
    <g id="ytick_2">
     <g id="line2d_8">
      <g>
       <use style="stroke:#000000;stroke-width:0.8;" x="57.6" xlink:href="#m3d5588f067" y="247.613896"/>
      </g>
     </g>
     <g id="text_9">
      <!-- −150 -->
      <g transform="translate(23.132812 251.413115)scale(0.1 -0.1)">
       <use xlink:href="#DejaVuSans-2212"/>
       <use x="83.789062" xlink:href="#DejaVuSans-31"/>
       <use x="147.412109" xlink:href="#DejaVuSans-35"/>
       <use x="211.035156" xlink:href="#DejaVuSans-30"/>
      </g>
     </g>
    </g>
    <g id="ytick_3">
     <g id="line2d_9">
      <g>
       <use style="stroke:#000000;stroke-width:0.8;" x="57.6" xlink:href="#m3d5588f067" y="215.272913"/>
      </g>
     </g>
     <g id="text_10">
      <!-- −125 -->
      <g transform="translate(23.132812 219.072132)scale(0.1 -0.1)">
       <use xlink:href="#DejaVuSans-2212"/>
       <use x="83.789062" xlink:href="#DejaVuSans-31"/>
       <use x="147.412109" xlink:href="#DejaVuSans-32"/>
       <use x="211.035156" xlink:href="#DejaVuSans-35"/>
      </g>
     </g>
    </g>
    <g id="ytick_4">
     <g id="line2d_10">
      <g>
       <use style="stroke:#000000;stroke-width:0.8;" x="57.6" xlink:href="#m3d5588f067" y="182.931931"/>
      </g>
     </g>
     <g id="text_11">
      <!-- −100 -->
      <g transform="translate(23.132812 186.731149)scale(0.1 -0.1)">
       <use xlink:href="#DejaVuSans-2212"/>
       <use x="83.789062" xlink:href="#DejaVuSans-31"/>
       <use x="147.412109" xlink:href="#DejaVuSans-30"/>
       <use x="211.035156" xlink:href="#DejaVuSans-30"/>
      </g>
     </g>
    </g>
    <g id="ytick_5">
     <g id="line2d_11">
      <g>
       <use style="stroke:#000000;stroke-width:0.8;" x="57.6" xlink:href="#m3d5588f067" y="150.590948"/>
      </g>
     </g>
     <g id="text_12">
      <!-- −75 -->
      <g transform="translate(29.495313 154.390167)scale(0.1 -0.1)">
       <use xlink:href="#DejaVuSans-2212"/>
       <use x="83.789062" xlink:href="#DejaVuSans-37"/>
       <use x="147.412109" xlink:href="#DejaVuSans-35"/>
      </g>
     </g>
    </g>
    <g id="ytick_6">
     <g id="line2d_12">
      <g>
       <use style="stroke:#000000;stroke-width:0.8;" x="57.6" xlink:href="#m3d5588f067" y="118.249965"/>
      </g>
     </g>
     <g id="text_13">
      <!-- −50 -->
      <g transform="translate(29.495313 122.049184)scale(0.1 -0.1)">
       <use xlink:href="#DejaVuSans-2212"/>
       <use x="83.789062" xlink:href="#DejaVuSans-35"/>
       <use x="147.412109" xlink:href="#DejaVuSans-30"/>
      </g>
     </g>
    </g>
    <g id="ytick_7">
     <g id="line2d_13">
      <g>
       <use style="stroke:#000000;stroke-width:0.8;" x="57.6" xlink:href="#m3d5588f067" y="85.908983"/>
      </g>
     </g>
     <g id="text_14">
      <!-- −25 -->
      <g transform="translate(29.495313 89.708201)scale(0.1 -0.1)">
       <use xlink:href="#DejaVuSans-2212"/>
       <use x="83.789062" xlink:href="#DejaVuSans-32"/>
       <use x="147.412109" xlink:href="#DejaVuSans-35"/>
      </g>
     </g>
    </g>
    <g id="ytick_8">
     <g id="line2d_14">
      <g>
       <use style="stroke:#000000;stroke-width:0.8;" x="57.6" xlink:href="#m3d5588f067" y="53.568"/>
      </g>
     </g>
     <g id="text_15">
      <!-- 0 -->
      <g transform="translate(44.2375 57.367219)scale(0.1 -0.1)">
       <use xlink:href="#DejaVuSans-30"/>
      </g>
     </g>
    </g>
    <g id="text_16">
     <!-- Mean EPSC (pA) -->
     <defs>
      <path d="M 9.8125 72.90625 
L 24.515625 72.90625 
L 43.109375 23.296875 
L 61.8125 72.90625 
L 76.515625 72.90625 
L 76.515625 0 
L 66.890625 0 
L 66.890625 64.015625 
L 48.09375 14.015625 
L 38.1875 14.015625 
L 19.390625 64.015625 
L 19.390625 0 
L 9.8125 0 
z
" id="DejaVuSans-4d"/>
      <path d="M 34.28125 27.484375 
Q 23.390625 27.484375 19.1875 25 
Q 14.984375 22.515625 14.984375 16.5 
Q 14.984375 11.71875 18.140625 8.90625 
Q 21.296875 6.109375 26.703125 6.109375 
Q 34.1875 6.109375 38.703125 11.40625 
Q 43.21875 16.703125 43.21875 25.484375 
L 43.21875 27.484375 
z
M 52.203125 31.203125 
L 52.203125 0 
L 43.21875 0 
L 43.21875 8.296875 
Q 40.140625 3.328125 35.546875 0.953125 
Q 30.953125 -1.421875 24.3125 -1.421875 
Q 15.921875 -1.421875 10.953125 3.296875 
Q 6 8.015625 6 15.921875 
Q 6 25.140625 12.171875 29.828125 
Q 18.359375 34.515625 30.609375 34.515625 
L 43.21875 34.515625 
L 43.21875 35.40625 
Q 43.21875 41.609375 39.140625 45 
Q 35.0625 48.390625 27.6875 48.390625 
Q 23 48.390625 18.546875 47.265625 
Q 14.109375 46.140625 10.015625 43.890625 
L 10.015625 52.203125 
Q 14.9375 54.109375 19.578125 55.046875 
Q 24.21875 56 28.609375 56 
Q 40.484375 56 46.34375 49.84375 
Q 52.203125 43.703125 52.203125 31.203125 
z
" id="DejaVuSans-61"/>
      <path d="M 9.8125 72.90625 
L 55.90625 72.90625 
L 55.90625 64.59375 
L 19.671875 64.59375 
L 19.671875 43.015625 
L 54.390625 43.015625 
L 54.390625 34.71875 
L 19.671875 34.71875 
L 19.671875 8.296875 
L 56.78125 8.296875 
L 56.78125 0 
L 9.8125 0 
z
" id="DejaVuSans-45"/>
      <path d="M 19.671875 64.796875 
L 19.671875 37.40625 
L 32.078125 37.40625 
Q 38.96875 37.40625 42.71875 40.96875 
Q 46.484375 44.53125 46.484375 51.125 
Q 46.484375 57.671875 42.71875 61.234375 
Q 38.96875 64.796875 32.078125 64.796875 
z
M 9.8125 72.90625 
L 32.078125 72.90625 
Q 44.34375 72.90625 50.609375 67.359375 
Q 56.890625 61.8125 56.890625 51.125 
Q 56.890625 40.328125 50.609375 34.8125 
Q 44.34375 29.296875 32.078125 29.296875 
L 19.671875 29.296875 
L 19.671875 0 
L 9.8125 0 
z
" id="DejaVuSans-50"/>
      <path d="M 53.515625 70.515625 
L 53.515625 60.890625 
Q 47.90625 63.578125 42.921875 64.890625 
Q 37.9375 66.21875 33.296875 66.21875 
Q 25.25 66.21875 20.875 63.09375 
Q 16.5 59.96875 16.5 54.203125 
Q 16.5 49.359375 19.40625 46.890625 
Q 22.3125 44.4375 30.421875 42.921875 
L 36.375 41.703125 
Q 47.40625 39.59375 52.65625 34.296875 
Q 57.90625 29 57.90625 20.125 
Q 57.90625 9.515625 50.796875 4.046875 
Q 43.703125 -1.421875 29.984375 -1.421875 
Q 24.8125 -1.421875 18.96875 -0.25 
Q 13.140625 0.921875 6.890625 3.21875 
L 6.890625 13.375 
Q 12.890625 10.015625 18.65625 8.296875 
Q 24.421875 6.59375 29.984375 6.59375 
Q 38.421875 6.59375 43.015625 9.90625 
Q 47.609375 13.234375 47.609375 19.390625 
Q 47.609375 24.75 44.3125 27.78125 
Q 41.015625 30.8125 33.5 32.328125 
L 27.484375 33.5 
Q 16.453125 35.6875 11.515625 40.375 
Q 6.59375 45.0625 6.59375 53.421875 
Q 6.59375 63.09375 13.40625 68.65625 
Q 20.21875 74.21875 32.171875 74.21875 
Q 37.3125 74.21875 42.625 73.28125 
Q 47.953125 72.359375 53.515625 70.515625 
z
" id="DejaVuSans-53"/>
      <path d="M 64.40625 67.28125 
L 64.40625 56.890625 
Q 59.421875 61.53125 53.78125 63.8125 
Q 48.140625 66.109375 41.796875 66.109375 
Q 29.296875 66.109375 22.65625 58.46875 
Q 16.015625 50.828125 16.015625 36.375 
Q 16.015625 21.96875 22.65625 14.328125 
Q 29.296875 6.6875 41.796875 6.6875 
Q 48.140625 6.6875 53.78125 8.984375 
Q 59.421875 11.28125 64.40625 15.921875 
L 64.40625 5.609375 
Q 59.234375 2.09375 53.4375 0.328125 
Q 47.65625 -1.421875 41.21875 -1.421875 
Q 24.65625 -1.421875 15.125 8.703125 
Q 5.609375 18.84375 5.609375 36.375 
Q 5.609375 53.953125 15.125 64.078125 
Q 24.65625 74.21875 41.21875 74.21875 
Q 47.75 74.21875 53.53125 72.484375 
Q 59.328125 70.75 64.40625 67.28125 
z
" id="DejaVuSans-43"/>
      <path d="M 18.109375 8.203125 
L 18.109375 -20.796875 
L 9.078125 -20.796875 
L 9.078125 54.6875 
L 18.109375 54.6875 
L 18.109375 46.390625 
Q 20.953125 51.265625 25.265625 53.625 
Q 29.59375 56 35.59375 56 
Q 45.5625 56 51.78125 48.09375 
Q 58.015625 40.1875 58.015625 27.296875 
Q 58.015625 14.40625 51.78125 6.484375 
Q 45.5625 -1.421875 35.59375 -1.421875 
Q 29.59375 -1.421875 25.265625 0.953125 
Q 20.953125 3.328125 18.109375 8.203125 
z
M 48.6875 27.296875 
Q 48.6875 37.203125 44.609375 42.84375 
Q 40.53125 48.484375 33.40625 48.484375 
Q 26.265625 48.484375 22.1875 42.84375 
Q 18.109375 37.203125 18.109375 27.296875 
Q 18.109375 17.390625 22.1875 11.75 
Q 26.265625 6.109375 33.40625 6.109375 
Q 40.53125 6.109375 44.609375 11.75 
Q 48.6875 17.390625 48.6875 27.296875 
z
" id="DejaVuSans-70"/>
      <path d="M 34.1875 63.1875 
L 20.796875 26.90625 
L 47.609375 26.90625 
z
M 28.609375 72.90625 
L 39.796875 72.90625 
L 67.578125 0 
L 57.328125 0 
L 50.6875 18.703125 
L 17.828125 18.703125 
L 11.1875 0 
L 0.78125 0 
z
" id="DejaVuSans-41"/>
     </defs>
     <g transform="translate(17.053125 214.6655)rotate(-90)scale(0.1 -0.1)">
      <use xlink:href="#DejaVuSans-4d"/>
      <use x="86.279297" xlink:href="#DejaVuSans-65"/>
      <use x="147.802734" xlink:href="#DejaVuSans-61"/>
      <use x="209.082031" xlink:href="#DejaVuSans-6e"/>
      <use x="272.460938" xlink:href="#DejaVuSans-20"/>
      <use x="304.248047" xlink:href="#DejaVuSans-45"/>
      <use x="367.431641" xlink:href="#DejaVuSans-50"/>
      <use x="427.734375" xlink:href="#DejaVuSans-53"/>
      <use x="491.210938" xlink:href="#DejaVuSans-43"/>
      <use x="561.035156" xlink:href="#DejaVuSans-20"/>
      <use x="592.822266" xlink:href="#DejaVuSans-28"/>
      <use x="631.835938" xlink:href="#DejaVuSans-70"/>
      <use x="695.3125" xlink:href="#DejaVuSans-41"/>
      <use x="763.720703" xlink:href="#DejaVuSans-29"/>
     </g>
    </g>
   </g>
   <g id="line2d_15">
    <path clip-path="url(#pfb21ce30db)" d="M 73.832727 53.568 
L 106.462141 53.677642 
L 106.900446 53.764086 
L 108.24783 53.677793 
L 111.397136 53.583908 
L 122.533344 53.568017 
L 122.825548 53.978521 
L 123.166452 54.080099 
L 123.848261 53.977304 
L 125.666417 53.706929 
L 128.280017 53.595783 
L 136.41302 53.568185 
L 398.487273 53.568 
L 398.487273 53.568 
" style="fill:none;stroke:#1f77b4;stroke-linecap:square;stroke-width:1.5;"/>
   </g>
   <g id="line2d_16">
    <path clip-path="url(#pfb21ce30db)" d="M 73.832727 53.568 
L 106.316039 53.633147 
L 106.608242 54.306753 
L 106.900446 54.463289 
L 107.322518 54.389858 
L 109.400411 53.816382 
L 111.251035 53.647475 
L 115.000982 53.575889 
L 122.533344 53.568076 
L 122.809314 55.457318 
L 123.069051 55.959402 
L 123.29632 55.971919 
L 123.653458 55.70048 
L 124.984609 54.568284 
L 125.90992 54.134898 
L 127.078735 53.844002 
L 128.815724 53.662672 
L 132.143599 53.580188 
L 148.636875 53.568 
L 398.487273 53.568 
L 398.487273 53.568 
" style="fill:none;stroke:#ff7f0e;stroke-linecap:square;stroke-width:1.5;"/>
   </g>
   <g id="line2d_17">
    <path clip-path="url(#pfb21ce30db)" d="M 73.832727 53.568 
L 106.299805 53.568 
L 106.575775 55.567971 
L 106.819278 56.086896 
L 107.030314 56.12522 
L 107.338752 55.90565 
L 108.945872 54.508003 
L 109.887417 54.095006 
L 111.104933 53.816974 
L 112.939323 53.648428 
L 116.656803 53.576145 
L 122.533344 53.568218 
L 122.809314 58.975253 
L 123.052817 60.378177 
L 123.231386 60.505104 
L 123.409955 60.265006 
L 123.832027 59.166944 
L 124.741105 56.887601 
L 125.439148 55.735157 
L 126.169657 54.950737 
L 126.981334 54.406766 
L 127.955346 54.028332 
L 129.254029 53.774841 
L 131.299455 53.626671 
L 135.926014 53.571394 
L 190.957711 53.568 
L 398.487273 53.568 
L 398.487273 53.568 
" style="fill:none;stroke:#2ca02c;stroke-linecap:square;stroke-width:1.5;"/>
   </g>
   <g id="line2d_18">
    <path clip-path="url(#pfb21ce30db)" d="M 73.832727 53.568 
L 106.299805 53.568 
L 106.575775 57.946397 
L 106.819278 59.082442 
L 106.997847 59.185235 
L 107.19265 58.964311 
L 107.663422 57.951289 
L 108.540034 56.203673 
L 109.254309 55.271122 
L 110.017286 54.633077 
L 110.91013 54.182553 
L 112.046478 53.873182 
L 113.686065 53.679153 
L 116.68927 53.585477 
L 122.533344 53.568478 
L 122.809314 65.480663 
L 123.052817 68.571432 
L 123.198919 68.876552 
L 123.215153 68.867249 
L 123.328788 68.630912 
L 123.588524 67.39854 
L 125.000842 59.81289 
L 125.666417 57.720084 
L 126.331992 56.324518 
L 127.030034 55.361267 
L 127.776777 54.700075 
L 128.637155 54.234346 
L 129.724802 53.908975 
L 131.266988 53.699869 
L 133.961756 53.593073 
L 142.809034 53.568108 
L 398.487273 53.568 
L 398.487273 53.568 
" style="fill:none;stroke:#d62728;stroke-linecap:square;stroke-width:1.5;"/>
   </g>
   <g id="line2d_19">
    <path clip-path="url(#pfb21ce30db)" d="M 73.832727 53.568 
L 106.299805 53.568 
L 106.575775 62.326808 
L 106.819278 64.599419 
L 106.96538 64.823789 
L 106.981614 64.816951 
L 107.111482 64.603483 
L 107.403686 63.526083 
L 108.653668 58.488928 
L 109.319243 56.841769 
L 110.001052 55.720048 
L 110.731561 54.940332 
L 111.543238 54.400374 
L 112.517251 54.024818 
L 113.832167 53.771219 
L 115.893827 53.62507 
L 120.601553 53.57114 
L 122.533344 53.568955 
L 122.809314 76.120069 
L 123.052817 81.971239 
L 123.182686 82.552629 
L 123.215153 82.53125 
L 123.328788 82.083835 
L 123.588524 79.75081 
L 125.000842 65.390298 
L 125.650184 61.507229 
L 126.299525 58.891787 
L 126.948867 57.136907 
L 127.614442 55.936542 
L 128.328718 55.093432 
L 129.107927 54.511912 
L 130.033239 54.101807 
L 131.250755 53.820152 
L 133.068911 53.650272 
L 136.721457 53.576671 
L 159.253609 53.568 
L 398.487273 53.568 
L 398.487273 53.568 
" style="fill:none;stroke:#9467bd;stroke-linecap:square;stroke-width:1.5;"/>
   </g>
   <g id="line2d_20">
    <path clip-path="url(#pfb21ce30db)" d="M 73.832727 53.568 
L 106.299805 53.568 
L 106.575775 68.372016 
L 106.819278 72.213152 
L 106.96538 72.592378 
L 106.981614 72.580821 
L 107.095249 72.287138 
L 107.354985 70.755656 
L 108.767303 61.328736 
L 109.416645 58.779699 
L 110.08222 57.028034 
L 110.764028 55.84157 
L 111.478304 55.032282 
L 112.273748 54.46506 
L 113.215293 54.070263 
L 114.465275 53.800554 
L 116.380833 53.639459 
L 120.406751 53.573984 
L 122.533344 53.569615 
L 122.809314 89.769146 
L 123.052817 99.161565 
L 123.182686 100.09482 
L 123.215153 100.060501 
L 123.312554 99.492988 
L 123.539824 96.434228 
L 125.179411 70.58251 
L 125.828753 64.986601 
L 126.478094 61.223935 
L 127.127436 58.700173 
L 127.776777 57.008232 
L 128.458586 55.828398 
L 129.172862 55.023779 
L 129.968305 54.459849 
L 130.926084 54.062376 
L 132.1923 53.794625 
L 134.124091 53.636944 
L 138.24741 53.573437 
L 173.214453 53.568 
L 398.487273 53.568 
L 398.487273 53.568 
" style="fill:none;stroke:#8c564b;stroke-linecap:square;stroke-width:1.5;"/>
   </g>
   <g id="line2d_21">
    <path clip-path="url(#pfb21ce30db)" d="M 73.832727 53.568 
L 106.299805 53.568 
L 106.575775 76.429273 
L 106.819278 82.360993 
L 106.949147 82.95043 
L 106.981614 82.92877 
L 107.095249 82.475247 
L 107.354985 80.110238 
L 108.767303 65.552607 
L 109.416645 61.616227 
L 110.065986 58.964878 
L 110.715328 57.185905 
L 111.380903 55.96906 
L 112.095179 55.114375 
L 112.874388 54.524871 
L 113.7997 54.109135 
L 115.000982 53.826183 
L 116.802905 53.653087 
L 120.374283 53.577428 
L 122.533344 53.570493 
L 122.809314 107.347895 
L 123.052817 121.301103 
L 123.182686 122.687526 
L 123.215153 122.636542 
L 123.312554 121.793449 
L 123.539824 117.2494 
L 125.179411 78.844489 
L 125.828753 70.531294 
L 126.478094 64.941537 
L 127.127436 61.192275 
L 127.776777 58.678754 
L 128.426119 56.993848 
L 129.107927 55.818943 
L 129.822203 55.017689 
L 130.617647 54.456118 
L 131.575425 54.060308 
L 132.841641 53.793677 
L 134.789666 53.635973 
L 138.961686 53.573202 
L 175.438448 53.568 
L 398.487273 53.568 
L 398.487273 53.568 
" style="fill:none;stroke:#e377c2;stroke-linecap:square;stroke-width:1.5;"/>
   </g>
   <g id="line2d_22">
    <path clip-path="url(#pfb21ce30db)" d="M 73.832727 53.568 
L 106.299805 53.568 
L 106.575775 87.246431 
L 106.819278 95.984834 
L 106.949147 96.853171 
L 106.981614 96.821263 
L 107.079015 96.293334 
L 107.306285 93.447743 
L 108.945872 69.397137 
L 109.595214 64.191086 
L 110.244555 60.690559 
L 110.893897 58.342623 
L 111.559472 56.736711 
L 112.24128 55.649995 
L 112.97179 54.895539 
L 113.783467 54.373193 
L 114.773713 54.005502 
L 116.121096 53.758773 
L 118.263923 53.618962 
L 122.533344 53.571673 
L 122.809314 125.78144 
L 123.052817 144.517127 
L 123.182686 146.378733 
L 123.215153 146.31027 
L 123.312554 145.178191 
L 123.539824 139.076625 
L 125.179411 87.508169 
L 125.828753 76.345572 
L 126.478094 68.83989 
L 127.127436 63.805545 
L 127.776777 60.430498 
L 128.426119 58.168079 
L 129.091694 56.620845 
L 129.773502 55.573862 
L 130.504012 54.846994 
L 131.331922 54.33603 
L 132.354635 53.977047 
L 133.75072 53.741093 
L 136.023415 53.610684 
L 141.851255 53.569178 
L 297.352325 53.568 
L 398.487273 53.568 
L 398.487273 53.568 
" style="fill:none;stroke:#7f7f7f;stroke-linecap:square;stroke-width:1.5;"/>
   </g>
   <g id="line2d_23">
    <path clip-path="url(#pfb21ce30db)" d="M 73.832727 53.568 
L 106.299805 53.568 
L 106.575775 99.671014 
L 106.819278 111.633173 
L 106.949147 112.821855 
L 106.981614 112.778175 
L 107.079015 112.055484 
L 107.306285 108.160102 
L 108.945872 75.236793 
L 109.595214 68.110135 
L 110.244555 63.3182 
L 110.893897 60.104068 
L 111.543238 57.9493 
L 112.208813 56.475656 
L 112.890622 55.478467 
L 113.637365 54.774047 
L 114.481509 54.28502 
L 115.536689 53.942317 
L 116.997707 53.720186 
L 119.465205 53.601285 
L 122.533344 53.573028 
L 122.809314 144.622777 
L 123.052817 168.246691 
L 123.182686 170.593982 
L 123.215153 170.507651 
L 123.312554 169.08019 
L 123.539824 161.38665 
L 125.179411 96.363479 
L 125.828753 82.288456 
L 126.478094 72.82447 
L 127.127436 66.476617 
L 127.776777 62.220988 
L 128.426119 59.368283 
L 129.07546 57.456047 
L 129.741035 56.148304 
L 130.439078 55.246511 
L 131.202054 54.617073 
L 132.094899 54.173263 
L 133.231246 53.868565 
L 134.887067 53.676382 
L 137.938973 53.584538 
L 150.519965 53.568007 
L 398.487273 53.568 
L 398.487273 53.568 
" style="fill:none;stroke:#bcbd22;stroke-linecap:square;stroke-width:1.5;"/>
   </g>
   <g id="line2d_24">
    <path clip-path="url(#pfb21ce30db)" d="M 73.832727 53.568 
L 106.299805 53.568 
L 106.575775 114.028132 
L 106.819278 129.715472 
L 106.949147 131.274326 
L 106.981614 131.217044 
L 107.079015 130.269297 
L 107.306285 125.160839 
L 108.945872 81.984755 
L 109.595214 72.638757 
L 110.244555 66.354547 
L 110.893897 62.13949 
L 111.543238 59.313697 
L 112.19258 57.419463 
L 112.858155 56.124026 
L 113.556197 55.230718 
L 114.319173 54.607203 
L 115.212018 54.167568 
L 116.348366 53.865737 
L 118.004187 53.675362 
L 121.072326 53.584219 
L 122.533344 53.574594 
L 122.809314 161.521692 
L 123.052817 189.529771 
L 123.182686 192.312649 
L 123.215153 192.210287 
L 123.312554 190.517886 
L 123.539824 181.396492 
L 125.179411 104.305792 
L 125.828753 87.618619 
L 126.478094 76.398234 
L 127.111202 69.0261 
L 127.760544 63.929979 
L 128.409885 60.513856 
L 129.059227 58.223949 
L 129.724802 56.657922 
L 130.406611 55.598223 
L 131.13712 54.862527 
L 131.96503 54.345358 
L 132.97151 53.986175 
L 134.35136 53.746734 
L 136.591589 53.612966 
L 142.19216 53.569427 
L 270.810489 53.568 
L 398.487273 53.568 
L 398.487273 53.568 
" style="fill:none;stroke:#17becf;stroke-linecap:square;stroke-width:1.5;"/>
   </g>
   <g id="line2d_25">
    <path clip-path="url(#pfb21ce30db)" d="M 73.832727 53.568 
L 106.299805 53.568 
L 106.575775 128.829128 
L 106.819278 148.356821 
L 106.949147 150.297292 
L 106.981614 150.225986 
L 107.079015 149.046226 
L 107.306285 142.687187 
L 108.945872 88.941343 
L 109.595214 77.30739 
L 110.244555 69.484769 
L 110.893897 64.237841 
L 111.543238 60.720277 
L 112.19258 58.362324 
L 112.858155 56.749756 
L 113.539964 55.658563 
L 114.270473 54.901002 
L 115.08215 54.376506 
L 116.072396 54.007303 
L 117.419779 53.759558 
L 119.562606 53.619172 
L 122.533344 53.576209 
L 122.809314 177.369833 
L 123.052817 209.48942 
L 123.182686 212.680788 
L 123.215153 212.563391 
L 123.312554 210.622521 
L 123.539824 200.162054 
L 125.179411 111.754224 
L 125.828753 92.617332 
L 126.478094 79.749767 
L 127.111202 71.295387 
L 127.760544 65.451142 
L 128.409885 61.533525 
L 129.059227 58.907453 
L 129.708568 57.147143 
L 130.374143 55.943299 
L 131.088419 55.097779 
L 131.867629 54.514602 
L 132.792941 54.103327 
L 133.994223 53.823412 
L 135.796145 53.652173 
L 139.399991 53.577142 
L 160.844496 53.568 
L 398.487273 53.568 
L 398.487273 53.568 
" style="fill:none;stroke:#1f77b4;stroke-linecap:square;stroke-width:1.5;"/>
   </g>
   <g id="line2d_26">
    <path clip-path="url(#pfb21ce30db)" d="M 73.832727 53.568 
L 106.299805 53.568 
L 106.575775 143.377485 
L 106.819278 166.679981 
L 106.949147 168.995554 
L 106.981614 168.910465 
L 107.079015 167.502651 
L 107.306285 159.914377 
L 108.945872 95.77919 
L 109.595214 81.896335 
L 110.244555 72.561561 
L 110.893897 66.300375 
L 111.543238 62.102849 
L 112.19258 59.289092 
L 112.841921 57.402964 
L 113.507496 56.113075 
L 114.205539 55.223594 
L 114.968515 54.60275 
L 115.86136 54.164999 
L 117.013941 53.861511 
L 118.685995 53.672785 
L 121.802835 53.583362 
L 122.533344 53.577795 
L 122.809314 191.163626 
L 123.052817 226.861699 
L 123.182686 230.408591 
L 123.215153 230.278105 
L 123.312554 228.120971 
L 123.539824 216.495009 
L 125.179411 118.237101 
L 125.828753 96.968053 
L 126.478094 82.666836 
L 127.111202 73.270501 
L 127.760544 66.775115 
L 128.409885 62.421012 
L 129.059227 59.502354 
L 129.708568 57.545917 
L 130.374143 56.207945 
L 131.072186 55.285308 
L 131.835162 54.641322 
L 132.711773 54.193476 
L 133.831887 53.881724 
L 135.439008 53.684573 
L 138.344811 53.587463 
L 149.286216 53.568023 
L 398.487273 53.568 
L 398.487273 53.568 
" style="fill:none;stroke:#ff7f0e;stroke-linecap:square;stroke-width:1.5;"/>
   </g>
   <g id="line2d_27">
    <path clip-path="url(#pfb21ce30db)" d="M 73.832727 53.568 
L 106.299805 53.568 
L 106.575775 158.189553 
L 106.819278 185.335274 
L 106.949147 188.03275 
L 106.981614 187.933628 
L 107.079015 186.293626 
L 107.306285 177.453836 
L 108.945872 102.740983 
L 109.595214 86.568461 
L 110.244555 75.694125 
L 110.893897 68.400296 
L 111.543238 63.510482 
L 112.19258 60.232658 
L 112.841921 58.035455 
L 113.507496 56.532828 
L 114.189305 55.516031 
L 114.919814 54.810119 
L 115.763958 54.306465 
L 116.802905 53.957387 
L 118.231456 53.729511 
L 120.601553 53.605509 
L 122.533344 53.579411 
L 122.809314 203.652984 
L 123.052817 242.591075 
L 123.182686 246.459857 
L 123.215153 246.317518 
L 123.312554 243.964565 
L 123.539824 231.283325 
L 125.179411 124.106877 
L 125.828753 100.907316 
L 126.478094 85.308029 
L 127.111202 75.058825 
L 127.74431 68.118656 
L 128.393652 63.321617 
L 129.042993 60.106048 
L 129.692335 57.950585 
L 130.35791 56.476504 
L 131.039719 55.479023 
L 131.786461 54.774398 
L 132.630605 54.285228 
L 133.685785 53.942426 
L 135.146804 53.72023 
L 137.614302 53.601295 
L 144.659658 53.568434 
L 398.487273 53.568 
L 398.487273 53.568 
" style="fill:none;stroke:#2ca02c;stroke-linecap:square;stroke-width:1.5;"/>
   </g>
   <g id="line2d_28">
    <path clip-path="url(#pfb21ce30db)" d="M 73.832727 53.568 
L 106.299805 53.568 
L 106.575775 171.525044 
L 106.819278 202.13087 
L 106.949147 205.172177 
L 106.981614 205.06042 
L 107.079015 203.211377 
L 107.306285 193.244832 
L 108.945872 109.008772 
L 109.595214 90.774835 
L 110.244555 78.514411 
L 110.877663 70.458941 
L 111.527005 64.89045 
L 112.176346 61.157681 
L 112.825688 58.655517 
L 113.475029 56.978265 
L 114.156838 55.808704 
L 114.871114 55.011095 
L 115.666557 54.452078 
L 116.624336 54.058069 
L 117.890552 53.79265 
L 119.838577 53.635663 
L 122.533344 53.580865 
L 122.809314 213.190059 
L 123.052817 254.602205 
L 123.182686 258.71677 
L 123.215153 258.565378 
L 123.312554 256.062889 
L 123.539824 242.575819 
L 125.179411 128.589088 
L 125.828753 103.91537 
L 126.478094 87.324868 
L 127.111202 76.424404 
L 127.74431 69.04324 
L 128.393652 63.941385 
L 129.042993 60.521491 
L 129.692335 58.229065 
L 130.35791 56.661317 
L 131.039719 55.600454 
L 131.770228 54.86395 
L 132.598138 54.346212 
L 133.604618 53.986635 
L 134.984468 53.746931 
L 137.208463 53.613468 
L 142.760334 53.569487 
L 266.265098 53.568 
L 398.487273 53.568 
L 398.487273 53.568 
" style="fill:none;stroke:#d62728;stroke-linecap:square;stroke-width:1.5;"/>
   </g>
   <g id="line2d_29">
    <path clip-path="url(#pfb21ce30db)" d="M 73.832727 53.568 
L 106.299805 53.568 
L 106.575775 183.349737 
L 106.819278 217.023667 
L 106.949147 220.369852 
L 106.981614 220.246892 
L 107.079015 218.212489 
L 107.306285 207.246841 
L 108.945872 114.566474 
L 109.595214 94.504662 
L 110.244555 81.015183 
L 110.877663 72.152186 
L 111.527005 66.025478 
L 112.176346 61.918514 
L 112.825688 59.165519 
L 113.475029 57.32013 
L 114.140604 56.058102 
L 114.838647 55.187834 
L 115.617857 54.570326 
L 116.526935 54.140538 
L 117.69575 53.846684 
L 119.416505 53.664552 
L 122.533344 53.582155 
L 122.809314 221.376233 
L 123.052817 264.911979 
L 123.182686 269.23751 
L 123.215153 269.078345 
L 123.312554 266.447502 
L 123.539824 252.268745 
L 125.179411 132.436398 
L 125.828753 106.497337 
L 126.478094 89.056023 
L 127.111202 77.59655 
L 127.74431 69.836857 
L 128.393652 64.473364 
L 129.042993 60.878087 
L 129.692335 58.468098 
L 130.35791 56.819952 
L 131.039719 55.704684 
L 131.770228 54.93041 
L 132.581905 54.394344 
L 133.572151 54.016994 
L 134.903301 53.765751 
L 136.997427 53.622435 
L 141.867489 53.57071 
L 210.373023 53.568 
L 398.487273 53.568 
L 398.487273 53.568 
" style="fill:none;stroke:#9467bd;stroke-linecap:square;stroke-width:1.5;"/>
   </g>
   <g id="line2d_30">
    <path clip-path="url(#pfb21ce30db)" d="M 73.832727 53.568 
L 106.299805 53.568 
L 106.575775 193.902178 
L 106.819278 230.314106 
L 106.949147 233.932367 
L 106.981614 233.799409 
L 107.079015 231.599591 
L 107.306285 219.742334 
L 108.945872 119.526207 
L 109.595214 97.833186 
L 110.244555 83.24689 
L 110.877663 73.66325 
L 111.527005 67.038384 
L 112.176346 62.597487 
L 112.825688 59.620649 
L 113.475029 57.625212 
L 114.140604 56.26057 
L 114.838647 55.319541 
L 115.601623 54.662717 
L 116.478234 54.205945 
L 117.582115 53.891194 
L 119.173002 53.689298 
L 122.013871 53.589078 
L 122.533344 53.583306 
L 122.809314 227.780736 
L 123.052817 272.977845 
L 123.182686 277.468415 
L 123.215153 277.303168 
L 123.312554 274.571901 
L 123.539824 259.851997 
L 125.179411 135.446336 
L 125.828753 108.517335 
L 126.478094 90.410389 
L 127.111202 78.513577 
L 127.74431 70.457742 
L 128.393652 64.889557 
L 129.042993 61.15707 
L 129.692335 58.655106 
L 130.341676 56.977989 
L 131.023485 55.808523 
L 131.737761 55.010978 
L 132.533204 54.452007 
L 133.490983 54.058029 
L 134.757199 53.792632 
L 136.705224 53.635658 
L 140.893477 53.573127 
L 177.873478 53.568 
L 398.487273 53.568 
L 398.487273 53.568 
" style="fill:none;stroke:#8c564b;stroke-linecap:square;stroke-width:1.5;"/>
   </g>
   <g id="line2d_31">
    <path clip-path="url(#pfb21ce30db)" d="M 73.832727 53.568 
L 106.299805 53.568 
L 106.575775 203.465201 
L 106.819278 242.358408 
L 106.949147 246.223234 
L 106.981614 246.081215 
L 107.079015 243.731492 
L 107.306285 231.066227 
L 108.945872 124.020907 
L 109.595214 100.849622 
L 110.244555 85.269347 
L 110.877663 75.032634 
L 111.510771 68.100923 
L 112.160113 63.30973 
L 112.809454 60.09808 
L 113.458796 57.945244 
L 114.124371 56.472959 
L 114.80618 55.476694 
L 115.552922 54.772927 
L 116.397066 54.284354 
L 117.452246 53.94197 
L 118.913265 53.720045 
L 121.380763 53.601254 
L 122.533344 53.584349 
L 122.809314 234.053293 
L 123.052817 280.877565 
L 123.182686 285.52978 
L 123.215153 285.358578 
L 123.312554 282.528959 
L 123.539824 267.279058 
L 125.179411 138.394279 
L 125.828753 110.495728 
L 126.478094 91.736861 
L 127.111202 79.411716 
L 127.74431 71.06584 
L 128.393652 65.297178 
L 129.042993 61.430306 
L 129.692335 58.838262 
L 130.341676 57.100762 
L 131.023485 55.88919 
L 131.737761 55.062931 
L 132.533204 54.483834 
L 133.474749 54.080774 
L 134.708498 53.807807 
L 136.591589 53.643176 
L 140.487638 53.57482 
L 168.685295 53.568 
L 398.487273 53.568 
L 398.487273 53.568 
" style="fill:none;stroke:#e377c2;stroke-linecap:square;stroke-width:1.5;"/>
   </g>
   <g id="line2d_32">
    <path clip-path="url(#pfb21ce30db)" d="M 73.832727 53.568 
L 106.299805 53.568 
L 106.575775 211.906953 
L 106.819278 252.990505 
L 106.949147 257.072986 
L 106.981614 256.92297 
L 107.079015 254.440917 
L 107.306285 241.062383 
L 108.945872 127.988599 
L 109.595214 103.512378 
L 110.244555 87.05467 
L 110.877663 76.241456 
L 111.510771 68.919372 
L 112.160113 63.858354 
L 112.809454 60.465834 
L 113.458796 58.191757 
L 114.124371 56.636557 
L 114.80618 55.584186 
L 115.536689 54.853577 
L 116.364599 54.339983 
L 117.371079 53.983284 
L 118.75093 53.745499 
L 120.991158 53.612655 
L 122.533344 53.58527 
L 122.809314 237.969464 
L 123.052817 285.809539 
L 123.182686 290.562654 
L 123.215153 290.38773 
L 123.312554 287.4967 
L 123.539824 271.915901 
L 125.179411 140.234727 
L 125.828753 111.73087 
L 126.478094 92.564998 
L 127.111202 79.972438 
L 127.74431 71.445485 
L 128.393652 65.551662 
L 129.042993 61.600892 
L 129.692335 58.952609 
L 130.341676 57.177411 
L 131.007251 55.963387 
L 131.721527 55.110716 
L 132.500737 54.522607 
L 133.426049 54.107855 
L 134.627331 53.825572 
L 136.429253 53.652885 
L 140.016866 53.577312 
L 161.104233 53.568 
L 398.487273 53.568 
L 398.487273 53.568 
" style="fill:none;stroke:#7f7f7f;stroke-linecap:square;stroke-width:1.5;"/>
   </g>
   <g id="line2d_33">
    <path clip-path="url(#pfb21ce30db)" d="M 73.832727 53.568 
L 106.299805 53.568 
L 106.575775 218.209832 
L 106.819278 260.928767 
L 106.949147 265.173756 
L 106.981614 265.017768 
L 107.079015 262.436914 
L 107.306285 248.525831 
L 108.945872 130.951003 
L 109.595214 105.500476 
L 110.244555 88.387649 
L 110.877663 77.144001 
L 111.510771 69.530453 
L 112.160113 64.267975 
L 112.809454 60.740411 
L 113.458796 58.375811 
L 114.124371 56.758705 
L 114.80618 55.664443 
L 115.536689 54.904751 
L 116.348366 54.37878 
L 117.338612 54.008538 
L 118.669762 53.762027 
L 120.796355 53.620352 
L 122.533344 53.585957 
L 122.809314 241.801897 
L 123.052817 290.636126 
L 123.182686 295.488 
L 123.215153 295.309436 
L 123.312554 292.358313 
L 123.539824 276.453694 
L 125.179411 142.035864 
L 125.828753 112.93963 
L 126.478094 93.375446 
L 127.111202 80.521184 
L 127.74431 71.817021 
L 128.393652 65.80071 
L 129.042993 61.767834 
L 129.692335 59.064514 
L 130.341676 57.252423 
L 131.007251 56.013169 
L 131.721527 55.142778 
L 132.500737 54.542446 
L 133.426049 54.119074 
L 134.611097 53.833568 
L 136.380553 53.657288 
L 139.838297 53.578611 
L 158.539334 53.568 
L 398.487273 53.568 
L 398.487273 53.568 
" style="fill:none;stroke:#bcbd22;stroke-linecap:square;stroke-width:1.5;"/>
   </g>
   <g id="patch_3">
    <path d="M 57.6 307.584 
L 57.6 41.472 
" style="fill:none;stroke:#000000;stroke-linecap:square;stroke-linejoin:miter;stroke-width:0.8;"/>
   </g>
   <g id="patch_4">
    <path d="M 414.72 307.584 
L 414.72 41.472 
" style="fill:none;stroke:#000000;stroke-linecap:square;stroke-linejoin:miter;stroke-width:0.8;"/>
   </g>
   <g id="patch_5">
    <path d="M 57.6 307.584 
L 414.72 307.584 
" style="fill:none;stroke:#000000;stroke-linecap:square;stroke-linejoin:miter;stroke-width:0.8;"/>
   </g>
   <g id="patch_6">
    <path d="M 57.6 41.472 
L 414.72 41.472 
" style="fill:none;stroke:#000000;stroke-linecap:square;stroke-linejoin:miter;stroke-width:0.8;"/>
   </g>
   <g id="text_17">
    <!-- Mean EPSC across conditions -->
    <defs>
     <path d="M 41.109375 46.296875 
Q 39.59375 47.171875 37.8125 47.578125 
Q 36.03125 48 33.890625 48 
Q 26.265625 48 22.1875 43.046875 
Q 18.109375 38.09375 18.109375 28.8125 
L 18.109375 0 
L 9.078125 0 
L 9.078125 54.6875 
L 18.109375 54.6875 
L 18.109375 46.1875 
Q 20.953125 51.171875 25.484375 53.578125 
Q 30.03125 56 36.53125 56 
Q 37.453125 56 38.578125 55.875 
Q 39.703125 55.765625 41.0625 55.515625 
z
" id="DejaVuSans-72"/>
     <path d="M 18.3125 70.21875 
L 18.3125 54.6875 
L 36.8125 54.6875 
L 36.8125 47.703125 
L 18.3125 47.703125 
L 18.3125 18.015625 
Q 18.3125 11.328125 20.140625 9.421875 
Q 21.96875 7.515625 27.59375 7.515625 
L 36.8125 7.515625 
L 36.8125 0 
L 27.59375 0 
Q 17.1875 0 13.234375 3.875 
Q 9.28125 7.765625 9.28125 18.015625 
L 9.28125 47.703125 
L 2.6875 47.703125 
L 2.6875 54.6875 
L 9.28125 54.6875 
L 9.28125 70.21875 
z
" id="DejaVuSans-74"/>
    </defs>
    <g transform="translate(148.453125 35.472)scale(0.12 -0.12)">
     <use xlink:href="#DejaVuSans-4d"/>
     <use x="86.279297" xlink:href="#DejaVuSans-65"/>
     <use x="147.802734" xlink:href="#DejaVuSans-61"/>
     <use x="209.082031" xlink:href="#DejaVuSans-6e"/>
     <use x="272.460938" xlink:href="#DejaVuSans-20"/>
     <use x="304.248047" xlink:href="#DejaVuSans-45"/>
     <use x="367.431641" xlink:href="#DejaVuSans-50"/>
     <use x="427.734375" xlink:href="#DejaVuSans-53"/>
     <use x="491.210938" xlink:href="#DejaVuSans-43"/>
     <use x="561.035156" xlink:href="#DejaVuSans-20"/>
     <use x="592.822266" xlink:href="#DejaVuSans-61"/>
     <use x="654.101562" xlink:href="#DejaVuSans-63"/>
     <use x="709.082031" xlink:href="#DejaVuSans-72"/>
     <use x="750.164062" xlink:href="#DejaVuSans-6f"/>
     <use x="811.345703" xlink:href="#DejaVuSans-73"/>
     <use x="863.445312" xlink:href="#DejaVuSans-73"/>
     <use x="915.544922" xlink:href="#DejaVuSans-20"/>
     <use x="947.332031" xlink:href="#DejaVuSans-63"/>
     <use x="1002.3125" xlink:href="#DejaVuSans-6f"/>
     <use x="1063.494141" xlink:href="#DejaVuSans-6e"/>
     <use x="1126.873047" xlink:href="#DejaVuSans-64"/>
     <use x="1190.349609" xlink:href="#DejaVuSans-69"/>
     <use x="1218.132812" xlink:href="#DejaVuSans-74"/>
     <use x="1257.341797" xlink:href="#DejaVuSans-69"/>
     <use x="1285.125" xlink:href="#DejaVuSans-6f"/>
     <use x="1346.306641" xlink:href="#DejaVuSans-6e"/>
     <use x="1409.685547" xlink:href="#DejaVuSans-73"/>
    </g>
   </g>
  </g>
 </g>
 <defs>
  <clipPath id="pfb21ce30db">
   <rect height="266.112" width="357.12" x="57.6" y="41.472"/>
  </clipPath>
 </defs>
</svg>
