<?xml version="1.0" encoding="utf-8" standalone="no"?>
<!DOCTYPE svg PUBLIC "-//W3C//DTD SVG 1.1//EN"
  "http://www.w3.org/Graphics/SVG/1.1/DTD/svg11.dtd">
<!-- Created with matplotlib (http://matplotlib.org/) -->
<svg height="345pt" version="1.1" viewBox="0 0 460 345" width="460pt" xmlns="http://www.w3.org/2000/svg" xmlns:xlink="http://www.w3.org/1999/xlink">
 <defs>
  <style type="text/css">
*{stroke-linecap:butt;stroke-linejoin:round;}
  </style>
 </defs>
 <g id="figure_1">
  <g id="patch_1">
   <path d="M 0 345.6 
L 460.8 345.6 
L 460.8 0 
L 0 0 
z
" style="fill:#ffffff;"/>
  </g>
  <g id="axes_1">
   <g id="patch_2">
    <path d="M 57.6 307.584 
L 414.72 307.584 
L 414.72 41.472 
L 57.6 41.472 
z
" style="fill:#ffffff;"/>
   </g>
   <g id="matplotlib.axis_1">
    <g id="xtick_1">
     <g id="line2d_1">
      <defs>
       <path d="M 0 0 
L 0 3.5 
" id="md76878d42c" style="stroke:#000000;stroke-width:0.8;"/>
      </defs>
      <g>
       <use style="stroke:#000000;stroke-width:0.8;" x="73.832727" xlink:href="#md76878d42c" y="307.584"/>
      </g>
     </g>
     <g id="text_1">
      <!-- 0.0 -->
      <defs>
       <path d="M 31.78125 66.40625 
Q 24.171875 66.40625 20.328125 58.90625 
Q 16.5 51.421875 16.5 36.375 
Q 16.5 21.390625 20.328125 13.890625 
Q 24.171875 6.390625 31.78125 6.390625 
Q 39.453125 6.390625 43.28125 13.890625 
Q 47.125 21.390625 47.125 36.375 
Q 47.125 51.421875 43.28125 58.90625 
Q 39.453125 66.40625 31.78125 66.40625 
z
M 31.78125 74.21875 
Q 44.046875 74.21875 50.515625 64.515625 
Q 56.984375 54.828125 56.984375 36.375 
Q 56.984375 17.96875 50.515625 8.265625 
Q 44.046875 -1.421875 31.78125 -1.421875 
Q 19.53125 -1.421875 13.0625 8.265625 
Q 6.59375 17.96875 6.59375 36.375 
Q 6.59375 54.828125 13.0625 64.515625 
Q 19.53125 74.21875 31.78125 74.21875 
z
" id="DejaVuSans-30"/>
       <path d="M 10.6875 12.40625 
L 21 12.40625 
L 21 0 
L 10.6875 0 
z
" id="DejaVuSans-2e"/>
      </defs>
      <g transform="translate(65.881165 322.182437)scale(0.1 -0.1)">
       <use xlink:href="#DejaVuSans-30"/>
       <use x="63.623047" xlink:href="#DejaVuSans-2e"/>
       <use x="95.410156" xlink:href="#DejaVuSans-30"/>
      </g>
     </g>
    </g>
    <g id="xtick_2">
     <g id="line2d_2">
      <g>
       <use style="stroke:#000000;stroke-width:0.8;" x="138.766883" xlink:href="#md76878d42c" y="307.584"/>
      </g>
     </g>
     <g id="text_2">
      <!-- 0.2 -->
      <defs>
       <path d="M 19.1875 8.296875 
L 53.609375 8.296875 
L 53.609375 0 
L 7.328125 0 
L 7.328125 8.296875 
Q 12.9375 14.109375 22.625 23.890625 
Q 32.328125 33.6875 34.8125 36.53125 
Q 39.546875 41.84375 41.421875 45.53125 
Q 43.3125 49.21875 43.3125 52.78125 
Q 43.3125 58.59375 39.234375 62.25 
Q 35.15625 65.921875 28.609375 65.921875 
Q 23.96875 65.921875 18.8125 64.3125 
Q 13.671875 62.703125 7.8125 59.421875 
L 7.8125 69.390625 
Q 13.765625 71.78125 18.9375 73 
Q 24.125 74.21875 28.421875 74.21875 
Q 39.75 74.21875 46.484375 68.546875 
Q 53.21875 62.890625 53.21875 53.421875 
Q 53.21875 48.921875 51.53125 44.890625 
Q 49.859375 40.875 45.40625 35.40625 
Q 44.1875 33.984375 37.640625 27.21875 
Q 31.109375 20.453125 19.1875 8.296875 
z
" id="DejaVuSans-32"/>
      </defs>
      <g transform="translate(130.815321 322.182437)scale(0.1 -0.1)">
       <use xlink:href="#DejaVuSans-30"/>
       <use x="63.623047" xlink:href="#DejaVuSans-2e"/>
       <use x="95.410156" xlink:href="#DejaVuSans-32"/>
      </g>
     </g>
    </g>
    <g id="xtick_3">
     <g id="line2d_3">
      <g>
       <use style="stroke:#000000;stroke-width:0.8;" x="203.701039" xlink:href="#md76878d42c" y="307.584"/>
      </g>
     </g>
     <g id="text_3">
      <!-- 0.4 -->
      <defs>
       <path d="M 37.796875 64.3125 
L 12.890625 25.390625 
L 37.796875 25.390625 
z
M 35.203125 72.90625 
L 47.609375 72.90625 
L 47.609375 25.390625 
L 58.015625 25.390625 
L 58.015625 17.1875 
L 47.609375 17.1875 
L 47.609375 0 
L 37.796875 0 
L 37.796875 17.1875 
L 4.890625 17.1875 
L 4.890625 26.703125 
z
" id="DejaVuSans-34"/>
      </defs>
      <g transform="translate(195.749476 322.182437)scale(0.1 -0.1)">
       <use xlink:href="#DejaVuSans-30"/>
       <use x="63.623047" xlink:href="#DejaVuSans-2e"/>
       <use x="95.410156" xlink:href="#DejaVuSans-34"/>
      </g>
     </g>
    </g>
    <g id="xtick_4">
     <g id="line2d_4">
      <g>
       <use style="stroke:#000000;stroke-width:0.8;" x="268.635195" xlink:href="#md76878d42c" y="307.584"/>
      </g>
     </g>
     <g id="text_4">
      <!-- 0.6 -->
      <defs>
       <path d="M 33.015625 40.375 
Q 26.375 40.375 22.484375 35.828125 
Q 18.609375 31.296875 18.609375 23.390625 
Q 18.609375 15.53125 22.484375 10.953125 
Q 26.375 6.390625 33.015625 6.390625 
Q 39.65625 6.390625 43.53125 10.953125 
Q 47.40625 15.53125 47.40625 23.390625 
Q 47.40625 31.296875 43.53125 35.828125 
Q 39.65625 40.375 33.015625 40.375 
z
M 52.59375 71.296875 
L 52.59375 62.3125 
Q 48.875 64.0625 45.09375 64.984375 
Q 41.3125 65.921875 37.59375 65.921875 
Q 27.828125 65.921875 22.671875 59.328125 
Q 17.53125 52.734375 16.796875 39.40625 
Q 19.671875 43.65625 24.015625 45.921875 
Q 28.375 48.1875 33.59375 48.1875 
Q 44.578125 48.1875 50.953125 41.515625 
Q 57.328125 34.859375 57.328125 23.390625 
Q 57.328125 12.15625 50.6875 5.359375 
Q 44.046875 -1.421875 33.015625 -1.421875 
Q 20.359375 -1.421875 13.671875 8.265625 
Q 6.984375 17.96875 6.984375 36.375 
Q 6.984375 53.65625 15.1875 63.9375 
Q 23.390625 74.21875 37.203125 74.21875 
Q 40.921875 74.21875 44.703125 73.484375 
Q 48.484375 72.75 52.59375 71.296875 
z
" id="DejaVuSans-36"/>
      </defs>
      <g transform="translate(260.683632 322.182437)scale(0.1 -0.1)">
       <use xlink:href="#DejaVuSans-30"/>
       <use x="63.623047" xlink:href="#DejaVuSans-2e"/>
       <use x="95.410156" xlink:href="#DejaVuSans-36"/>
      </g>
     </g>
    </g>
    <g id="xtick_5">
     <g id="line2d_5">
      <g>
       <use style="stroke:#000000;stroke-width:0.8;" x="333.56935" xlink:href="#md76878d42c" y="307.584"/>
      </g>
     </g>
     <g id="text_5">
      <!-- 0.8 -->
      <defs>
       <path d="M 31.78125 34.625 
Q 24.75 34.625 20.71875 30.859375 
Q 16.703125 27.09375 16.703125 20.515625 
Q 16.703125 13.921875 20.71875 10.15625 
Q 24.75 6.390625 31.78125 6.390625 
Q 38.8125 6.390625 42.859375 10.171875 
Q 46.921875 13.96875 46.921875 20.515625 
Q 46.921875 27.09375 42.890625 30.859375 
Q 38.875 34.625 31.78125 34.625 
z
M 21.921875 38.8125 
Q 15.578125 40.375 12.03125 44.71875 
Q 8.5 49.078125 8.5 55.328125 
Q 8.5 64.0625 14.71875 69.140625 
Q 20.953125 74.21875 31.78125 74.21875 
Q 42.671875 74.21875 48.875 69.140625 
Q 55.078125 64.0625 55.078125 55.328125 
Q 55.078125 49.078125 51.53125 44.71875 
Q 48 40.375 41.703125 38.8125 
Q 48.828125 37.15625 52.796875 32.3125 
Q 56.78125 27.484375 56.78125 20.515625 
Q 56.78125 9.90625 50.3125 4.234375 
Q 43.84375 -1.421875 31.78125 -1.421875 
Q 19.734375 -1.421875 13.25 4.234375 
Q 6.78125 9.90625 6.78125 20.515625 
Q 6.78125 27.484375 10.78125 32.3125 
Q 14.796875 37.15625 21.921875 38.8125 
z
M 18.3125 54.390625 
Q 18.3125 48.734375 21.84375 45.5625 
Q 25.390625 42.390625 31.78125 42.390625 
Q 38.140625 42.390625 41.71875 45.5625 
Q 45.3125 48.734375 45.3125 54.390625 
Q 45.3125 60.0625 41.71875 63.234375 
Q 38.140625 66.40625 31.78125 66.40625 
Q 25.390625 66.40625 21.84375 63.234375 
Q 18.3125 60.0625 18.3125 54.390625 
z
" id="DejaVuSans-38"/>
      </defs>
      <g transform="translate(325.617788 322.182437)scale(0.1 -0.1)">
       <use xlink:href="#DejaVuSans-30"/>
       <use x="63.623047" xlink:href="#DejaVuSans-2e"/>
       <use x="95.410156" xlink:href="#DejaVuSans-38"/>
      </g>
     </g>
    </g>
    <g id="xtick_6">
     <g id="line2d_6">
      <g>
       <use style="stroke:#000000;stroke-width:0.8;" x="398.503506" xlink:href="#md76878d42c" y="307.584"/>
      </g>
     </g>
     <g id="text_6">
      <!-- 1.0 -->
      <defs>
       <path d="M 12.40625 8.296875 
L 28.515625 8.296875 
L 28.515625 63.921875 
L 10.984375 60.40625 
L 10.984375 69.390625 
L 28.421875 72.90625 
L 38.28125 72.90625 
L 38.28125 8.296875 
L 54.390625 8.296875 
L 54.390625 0 
L 12.40625 0 
z
" id="DejaVuSans-31"/>
      </defs>
      <g transform="translate(390.551944 322.182437)scale(0.1 -0.1)">
       <use xlink:href="#DejaVuSans-31"/>
       <use x="63.623047" xlink:href="#DejaVuSans-2e"/>
       <use x="95.410156" xlink:href="#DejaVuSans-30"/>
      </g>
     </g>
    </g>
    <g id="text_7">
     <!-- Time (seconds) -->
     <defs>
      <path d="M -0.296875 72.90625 
L 61.375 72.90625 
L 61.375 64.59375 
L 35.5 64.59375 
L 35.5 0 
L 25.59375 0 
L 25.59375 64.59375 
L -0.296875 64.59375 
z
" id="DejaVuSans-54"/>
      <path d="M 9.421875 54.6875 
L 18.40625 54.6875 
L 18.40625 0 
L 9.421875 0 
z
M 9.421875 75.984375 
L 18.40625 75.984375 
L 18.40625 64.59375 
L 9.421875 64.59375 
z
" id="DejaVuSans-69"/>
      <path d="M 52 44.1875 
Q 55.375 50.25 60.0625 53.125 
Q 64.75 56 71.09375 56 
Q 79.640625 56 84.28125 50.015625 
Q 88.921875 44.046875 88.921875 33.015625 
L 88.921875 0 
L 79.890625 0 
L 79.890625 32.71875 
Q 79.890625 40.578125 77.09375 44.375 
Q 74.3125 48.1875 68.609375 48.1875 
Q 61.625 48.1875 57.5625 43.546875 
Q 53.515625 38.921875 53.515625 30.90625 
L 53.515625 0 
L 44.484375 0 
L 44.484375 32.71875 
Q 44.484375 40.625 41.703125 44.40625 
Q 38.921875 48.1875 33.109375 48.1875 
Q 26.21875 48.1875 22.15625 43.53125 
Q 18.109375 38.875 18.109375 30.90625 
L 18.109375 0 
L 9.078125 0 
L 9.078125 54.6875 
L 18.109375 54.6875 
L 18.109375 46.1875 
Q 21.1875 51.21875 25.484375 53.609375 
Q 29.78125 56 35.6875 56 
Q 41.65625 56 45.828125 52.96875 
Q 50 49.953125 52 44.1875 
z
" id="DejaVuSans-6d"/>
      <path d="M 56.203125 29.59375 
L 56.203125 25.203125 
L 14.890625 25.203125 
Q 15.484375 15.921875 20.484375 11.0625 
Q 25.484375 6.203125 34.421875 6.203125 
Q 39.59375 6.203125 44.453125 7.46875 
Q 49.3125 8.734375 54.109375 11.28125 
L 54.109375 2.78125 
Q 49.265625 0.734375 44.1875 -0.34375 
Q 39.109375 -1.421875 33.890625 -1.421875 
Q 20.796875 -1.421875 13.15625 6.1875 
Q 5.515625 13.8125 5.515625 26.8125 
Q 5.515625 40.234375 12.765625 48.109375 
Q 20.015625 56 32.328125 56 
Q 43.359375 56 49.78125 48.890625 
Q 56.203125 41.796875 56.203125 29.59375 
z
M 47.21875 32.234375 
Q 47.125 39.59375 43.09375 43.984375 
Q 39.0625 48.390625 32.421875 48.390625 
Q 24.90625 48.390625 20.390625 44.140625 
Q 15.875 39.890625 15.1875 32.171875 
z
" id="DejaVuSans-65"/>
      <path id="DejaVuSans-20"/>
      <path d="M 31 75.875 
Q 24.46875 64.65625 21.28125 53.65625 
Q 18.109375 42.671875 18.109375 31.390625 
Q 18.109375 20.125 21.3125 9.0625 
Q 24.515625 -2 31 -13.1875 
L 23.1875 -13.1875 
Q 15.875 -1.703125 12.234375 9.375 
Q 8.59375 20.453125 8.59375 31.390625 
Q 8.59375 42.28125 12.203125 53.3125 
Q 15.828125 64.359375 23.1875 75.875 
z
" id="DejaVuSans-28"/>
      <path d="M 44.28125 53.078125 
L 44.28125 44.578125 
Q 40.484375 46.53125 36.375 47.5 
Q 32.28125 48.484375 27.875 48.484375 
Q 21.1875 48.484375 17.84375 46.4375 
Q 14.5 44.390625 14.5 40.28125 
Q 14.5 37.15625 16.890625 35.375 
Q 19.28125 33.59375 26.515625 31.984375 
L 29.59375 31.296875 
Q 39.15625 29.25 43.1875 25.515625 
Q 47.21875 21.78125 47.21875 15.09375 
Q 47.21875 7.46875 41.1875 3.015625 
Q 35.15625 -1.421875 24.609375 -1.421875 
Q 20.21875 -1.421875 15.453125 -0.5625 
Q 10.6875 0.296875 5.421875 2 
L 5.421875 11.28125 
Q 10.40625 8.6875 15.234375 7.390625 
Q 20.0625 6.109375 24.8125 6.109375 
Q 31.15625 6.109375 34.5625 8.28125 
Q 37.984375 10.453125 37.984375 14.40625 
Q 37.984375 18.0625 35.515625 20.015625 
Q 33.0625 21.96875 24.703125 23.78125 
L 21.578125 24.515625 
Q 13.234375 26.265625 9.515625 29.90625 
Q 5.8125 33.546875 5.8125 39.890625 
Q 5.8125 47.609375 11.28125 51.796875 
Q 16.75 56 26.8125 56 
Q 31.78125 56 36.171875 55.265625 
Q 40.578125 54.546875 44.28125 53.078125 
z
" id="DejaVuSans-73"/>
      <path d="M 48.78125 52.59375 
L 48.78125 44.1875 
Q 44.96875 46.296875 41.140625 47.34375 
Q 37.3125 48.390625 33.40625 48.390625 
Q 24.65625 48.390625 19.8125 42.84375 
Q 14.984375 37.3125 14.984375 27.296875 
Q 14.984375 17.28125 19.8125 11.734375 
Q 24.65625 6.203125 33.40625 6.203125 
Q 37.3125 6.203125 41.140625 7.25 
Q 44.96875 8.296875 48.78125 10.40625 
L 48.78125 2.09375 
Q 45.015625 0.34375 40.984375 -0.53125 
Q 36.96875 -1.421875 32.421875 -1.421875 
Q 20.0625 -1.421875 12.78125 6.34375 
Q 5.515625 14.109375 5.515625 27.296875 
Q 5.515625 40.671875 12.859375 48.328125 
Q 20.21875 56 33.015625 56 
Q 37.15625 56 41.109375 55.140625 
Q 45.0625 54.296875 48.78125 52.59375 
z
" id="DejaVuSans-63"/>
      <path d="M 30.609375 48.390625 
Q 23.390625 48.390625 19.1875 42.75 
Q 14.984375 37.109375 14.984375 27.296875 
Q 14.984375 17.484375 19.15625 11.84375 
Q 23.34375 6.203125 30.609375 6.203125 
Q 37.796875 6.203125 41.984375 11.859375 
Q 46.1875 17.53125 46.1875 27.296875 
Q 46.1875 37.015625 41.984375 42.703125 
Q 37.796875 48.390625 30.609375 48.390625 
z
M 30.609375 56 
Q 42.328125 56 49.015625 48.375 
Q 55.71875 40.765625 55.71875 27.296875 
Q 55.71875 13.875 49.015625 6.21875 
Q 42.328125 -1.421875 30.609375 -1.421875 
Q 18.84375 -1.421875 12.171875 6.21875 
Q 5.515625 13.875 5.515625 27.296875 
Q 5.515625 40.765625 12.171875 48.375 
Q 18.84375 56 30.609375 56 
z
" id="DejaVuSans-6f"/>
      <path d="M 54.890625 33.015625 
L 54.890625 0 
L 45.90625 0 
L 45.90625 32.71875 
Q 45.90625 40.484375 42.875 44.328125 
Q 39.84375 48.1875 33.796875 48.1875 
Q 26.515625 48.1875 22.3125 43.546875 
Q 18.109375 38.921875 18.109375 30.90625 
L 18.109375 0 
L 9.078125 0 
L 9.078125 54.6875 
L 18.109375 54.6875 
L 18.109375 46.1875 
Q 21.34375 51.125 25.703125 53.5625 
Q 30.078125 56 35.796875 56 
Q 45.21875 56 50.046875 50.171875 
Q 54.890625 44.34375 54.890625 33.015625 
z
" id="DejaVuSans-6e"/>
      <path d="M 45.40625 46.390625 
L 45.40625 75.984375 
L 54.390625 75.984375 
L 54.390625 0 
L 45.40625 0 
L 45.40625 8.203125 
Q 42.578125 3.328125 38.25 0.953125 
Q 33.9375 -1.421875 27.875 -1.421875 
Q 17.96875 -1.421875 11.734375 6.484375 
Q 5.515625 14.40625 5.515625 27.296875 
Q 5.515625 40.1875 11.734375 48.09375 
Q 17.96875 56 27.875 56 
Q 33.9375 56 38.25 53.625 
Q 42.578125 51.265625 45.40625 46.390625 
z
M 14.796875 27.296875 
Q 14.796875 17.390625 18.875 11.75 
Q 22.953125 6.109375 30.078125 6.109375 
Q 37.203125 6.109375 41.296875 11.75 
Q 45.40625 17.390625 45.40625 27.296875 
Q 45.40625 37.203125 41.296875 42.84375 
Q 37.203125 48.484375 30.078125 48.484375 
Q 22.953125 48.484375 18.875 42.84375 
Q 14.796875 37.203125 14.796875 27.296875 
z
" id="DejaVuSans-64"/>
      <path d="M 8.015625 75.875 
L 15.828125 75.875 
Q 23.140625 64.359375 26.78125 53.3125 
Q 30.421875 42.28125 30.421875 31.390625 
Q 30.421875 20.453125 26.78125 9.375 
Q 23.140625 -1.703125 15.828125 -13.1875 
L 8.015625 -13.1875 
Q 14.5 -2 17.703125 9.0625 
Q 20.90625 20.125 20.90625 31.390625 
Q 20.90625 42.671875 17.703125 53.65625 
Q 14.5 64.65625 8.015625 75.875 
z
" id="DejaVuSans-29"/>
     </defs>
     <g transform="translate(197.844375 335.860562)scale(0.1 -0.1)">
      <use xlink:href="#DejaVuSans-54"/>
      <use x="61.037109" xlink:href="#DejaVuSans-69"/>
      <use x="88.820312" xlink:href="#DejaVuSans-6d"/>
      <use x="186.232422" xlink:href="#DejaVuSans-65"/>
      <use x="247.755859" xlink:href="#DejaVuSans-20"/>
      <use x="279.542969" xlink:href="#DejaVuSans-28"/>
      <use x="318.556641" xlink:href="#DejaVuSans-73"/>
      <use x="370.65625" xlink:href="#DejaVuSans-65"/>
      <use x="432.179688" xlink:href="#DejaVuSans-63"/>
      <use x="487.160156" xlink:href="#DejaVuSans-6f"/>
      <use x="548.341797" xlink:href="#DejaVuSans-6e"/>
      <use x="611.720703" xlink:href="#DejaVuSans-64"/>
      <use x="675.197266" xlink:href="#DejaVuSans-73"/>
      <use x="727.296875" xlink:href="#DejaVuSans-29"/>
     </g>
    </g>
   </g>
   <g id="matplotlib.axis_2">
    <g id="ytick_1">
     <g id="line2d_7">
      <defs>
       <path d="M 0 0 
L -3.5 0 
" id="mdbcf0b2b75" style="stroke:#000000;stroke-width:0.8;"/>
      </defs>
      <g>
       <use style="stroke:#000000;stroke-width:0.8;" x="57.6" xlink:href="#mdbcf0b2b75" y="291.240172"/>
      </g>
     </g>
     <g id="text_8">
      <!-- −175 -->
      <defs>
       <path d="M 10.59375 35.5 
L 73.1875 35.5 
L 73.1875 27.203125 
L 10.59375 27.203125 
z
" id="DejaVuSans-2212"/>
       <path d="M 8.203125 72.90625 
L 55.078125 72.90625 
L 55.078125 68.703125 
L 28.609375 0 
L 18.3125 0 
L 43.21875 64.59375 
L 8.203125 64.59375 
z
" id="DejaVuSans-37"/>
       <path d="M 10.796875 72.90625 
L 49.515625 72.90625 
L 49.515625 64.59375 
L 19.828125 64.59375 
L 19.828125 46.734375 
Q 21.96875 47.46875 24.109375 47.828125 
Q 26.265625 48.1875 28.421875 48.1875 
Q 40.625 48.1875 47.75 41.5 
Q 54.890625 34.8125 54.890625 23.390625 
Q 54.890625 11.625 47.5625 5.09375 
Q 40.234375 -1.421875 26.90625 -1.421875 
Q 22.3125 -1.421875 17.546875 -0.640625 
Q 12.796875 0.140625 7.71875 1.703125 
L 7.71875 11.625 
Q 12.109375 9.234375 16.796875 8.0625 
Q 21.484375 6.890625 26.703125 6.890625 
Q 35.15625 6.890625 40.078125 11.328125 
Q 45.015625 15.765625 45.015625 23.390625 
Q 45.015625 31 40.078125 35.4375 
Q 35.15625 39.890625 26.703125 39.890625 
Q 22.75 39.890625 18.8125 39.015625 
Q 14.890625 38.140625 10.796875 36.28125 
z
" id="DejaVuSans-35"/>
      </defs>
      <g transform="translate(23.132812 295.039391)scale(0.1 -0.1)">
       <use xlink:href="#DejaVuSans-2212"/>
       <use x="83.789062" xlink:href="#DejaVuSans-31"/>
       <use x="147.412109" xlink:href="#DejaVuSans-37"/>
       <use x="211.035156" xlink:href="#DejaVuSans-35"/>
      </g>
     </g>
    </g>
    <g id="ytick_2">
     <g id="line2d_8">
      <g>
       <use style="stroke:#000000;stroke-width:0.8;" x="57.6" xlink:href="#mdbcf0b2b75" y="257.287005"/>
      </g>
     </g>
     <g id="text_9">
      <!-- −150 -->
      <g transform="translate(23.132812 261.086223)scale(0.1 -0.1)">
       <use xlink:href="#DejaVuSans-2212"/>
       <use x="83.789062" xlink:href="#DejaVuSans-31"/>
       <use x="147.412109" xlink:href="#DejaVuSans-35"/>
       <use x="211.035156" xlink:href="#DejaVuSans-30"/>
      </g>
     </g>
    </g>
    <g id="ytick_3">
     <g id="line2d_9">
      <g>
       <use style="stroke:#000000;stroke-width:0.8;" x="57.6" xlink:href="#mdbcf0b2b75" y="223.333837"/>
      </g>
     </g>
     <g id="text_10">
      <!-- −125 -->
      <g transform="translate(23.132812 227.133056)scale(0.1 -0.1)">
       <use xlink:href="#DejaVuSans-2212"/>
       <use x="83.789062" xlink:href="#DejaVuSans-31"/>
       <use x="147.412109" xlink:href="#DejaVuSans-32"/>
       <use x="211.035156" xlink:href="#DejaVuSans-35"/>
      </g>
     </g>
    </g>
    <g id="ytick_4">
     <g id="line2d_10">
      <g>
       <use style="stroke:#000000;stroke-width:0.8;" x="57.6" xlink:href="#mdbcf0b2b75" y="189.38067"/>
      </g>
     </g>
     <g id="text_11">
      <!-- −100 -->
      <g transform="translate(23.132812 193.179888)scale(0.1 -0.1)">
       <use xlink:href="#DejaVuSans-2212"/>
       <use x="83.789062" xlink:href="#DejaVuSans-31"/>
       <use x="147.412109" xlink:href="#DejaVuSans-30"/>
       <use x="211.035156" xlink:href="#DejaVuSans-30"/>
      </g>
     </g>
    </g>
    <g id="ytick_5">
     <g id="line2d_11">
      <g>
       <use style="stroke:#000000;stroke-width:0.8;" x="57.6" xlink:href="#mdbcf0b2b75" y="155.427502"/>
      </g>
     </g>
     <g id="text_12">
      <!-- −75 -->
      <g transform="translate(29.495313 159.226721)scale(0.1 -0.1)">
       <use xlink:href="#DejaVuSans-2212"/>
       <use x="83.789062" xlink:href="#DejaVuSans-37"/>
       <use x="147.412109" xlink:href="#DejaVuSans-35"/>
      </g>
     </g>
    </g>
    <g id="ytick_6">
     <g id="line2d_12">
      <g>
       <use style="stroke:#000000;stroke-width:0.8;" x="57.6" xlink:href="#mdbcf0b2b75" y="121.474335"/>
      </g>
     </g>
     <g id="text_13">
      <!-- −50 -->
      <g transform="translate(29.495313 125.273554)scale(0.1 -0.1)">
       <use xlink:href="#DejaVuSans-2212"/>
       <use x="83.789062" xlink:href="#DejaVuSans-35"/>
       <use x="147.412109" xlink:href="#DejaVuSans-30"/>
      </g>
     </g>
    </g>
    <g id="ytick_7">
     <g id="line2d_13">
      <g>
       <use style="stroke:#000000;stroke-width:0.8;" x="57.6" xlink:href="#mdbcf0b2b75" y="87.521167"/>
      </g>
     </g>
     <g id="text_14">
      <!-- −25 -->
      <g transform="translate(29.495313 91.320386)scale(0.1 -0.1)">
       <use xlink:href="#DejaVuSans-2212"/>
       <use x="83.789062" xlink:href="#DejaVuSans-32"/>
       <use x="147.412109" xlink:href="#DejaVuSans-35"/>
      </g>
     </g>
    </g>
    <g id="ytick_8">
     <g id="line2d_14">
      <g>
       <use style="stroke:#000000;stroke-width:0.8;" x="57.6" xlink:href="#mdbcf0b2b75" y="53.568"/>
      </g>
     </g>
     <g id="text_15">
      <!-- 0 -->
      <g transform="translate(44.2375 57.367219)scale(0.1 -0.1)">
       <use xlink:href="#DejaVuSans-30"/>
      </g>
     </g>
    </g>
    <g id="text_16">
     <!-- Mean EPSC (pA) -->
     <defs>
      <path d="M 9.8125 72.90625 
L 24.515625 72.90625 
L 43.109375 23.296875 
L 61.8125 72.90625 
L 76.515625 72.90625 
L 76.515625 0 
L 66.890625 0 
L 66.890625 64.015625 
L 48.09375 14.015625 
L 38.1875 14.015625 
L 19.390625 64.015625 
L 19.390625 0 
L 9.8125 0 
z
" id="DejaVuSans-4d"/>
      <path d="M 34.28125 27.484375 
Q 23.390625 27.484375 19.1875 25 
Q 14.984375 22.515625 14.984375 16.5 
Q 14.984375 11.71875 18.140625 8.90625 
Q 21.296875 6.109375 26.703125 6.109375 
Q 34.1875 6.109375 38.703125 11.40625 
Q 43.21875 16.703125 43.21875 25.484375 
L 43.21875 27.484375 
z
M 52.203125 31.203125 
L 52.203125 0 
L 43.21875 0 
L 43.21875 8.296875 
Q 40.140625 3.328125 35.546875 0.953125 
Q 30.953125 -1.421875 24.3125 -1.421875 
Q 15.921875 -1.421875 10.953125 3.296875 
Q 6 8.015625 6 15.921875 
Q 6 25.140625 12.171875 29.828125 
Q 18.359375 34.515625 30.609375 34.515625 
L 43.21875 34.515625 
L 43.21875 35.40625 
Q 43.21875 41.609375 39.140625 45 
Q 35.0625 48.390625 27.6875 48.390625 
Q 23 48.390625 18.546875 47.265625 
Q 14.109375 46.140625 10.015625 43.890625 
L 10.015625 52.203125 
Q 14.9375 54.109375 19.578125 55.046875 
Q 24.21875 56 28.609375 56 
Q 40.484375 56 46.34375 49.84375 
Q 52.203125 43.703125 52.203125 31.203125 
z
" id="DejaVuSans-61"/>
      <path d="M 9.8125 72.90625 
L 55.90625 72.90625 
L 55.90625 64.59375 
L 19.671875 64.59375 
L 19.671875 43.015625 
L 54.390625 43.015625 
L 54.390625 34.71875 
L 19.671875 34.71875 
L 19.671875 8.296875 
L 56.78125 8.296875 
L 56.78125 0 
L 9.8125 0 
z
" id="DejaVuSans-45"/>
      <path d="M 19.671875 64.796875 
L 19.671875 37.40625 
L 32.078125 37.40625 
Q 38.96875 37.40625 42.71875 40.96875 
Q 46.484375 44.53125 46.484375 51.125 
Q 46.484375 57.671875 42.71875 61.234375 
Q 38.96875 64.796875 32.078125 64.796875 
z
M 9.8125 72.90625 
L 32.078125 72.90625 
Q 44.34375 72.90625 50.609375 67.359375 
Q 56.890625 61.8125 56.890625 51.125 
Q 56.890625 40.328125 50.609375 34.8125 
Q 44.34375 29.296875 32.078125 29.296875 
L 19.671875 29.296875 
L 19.671875 0 
L 9.8125 0 
z
" id="DejaVuSans-50"/>
      <path d="M 53.515625 70.515625 
L 53.515625 60.890625 
Q 47.90625 63.578125 42.921875 64.890625 
Q 37.9375 66.21875 33.296875 66.21875 
Q 25.25 66.21875 20.875 63.09375 
Q 16.5 59.96875 16.5 54.203125 
Q 16.5 49.359375 19.40625 46.890625 
Q 22.3125 44.4375 30.421875 42.921875 
L 36.375 41.703125 
Q 47.40625 39.59375 52.65625 34.296875 
Q 57.90625 29 57.90625 20.125 
Q 57.90625 9.515625 50.796875 4.046875 
Q 43.703125 -1.421875 29.984375 -1.421875 
Q 24.8125 -1.421875 18.96875 -0.25 
Q 13.140625 0.921875 6.890625 3.21875 
L 6.890625 13.375 
Q 12.890625 10.015625 18.65625 8.296875 
Q 24.421875 6.59375 29.984375 6.59375 
Q 38.421875 6.59375 43.015625 9.90625 
Q 47.609375 13.234375 47.609375 19.390625 
Q 47.609375 24.75 44.3125 27.78125 
Q 41.015625 30.8125 33.5 32.328125 
L 27.484375 33.5 
Q 16.453125 35.6875 11.515625 40.375 
Q 6.59375 45.0625 6.59375 53.421875 
Q 6.59375 63.09375 13.40625 68.65625 
Q 20.21875 74.21875 32.171875 74.21875 
Q 37.3125 74.21875 42.625 73.28125 
Q 47.953125 72.359375 53.515625 70.515625 
z
" id="DejaVuSans-53"/>
      <path d="M 64.40625 67.28125 
L 64.40625 56.890625 
Q 59.421875 61.53125 53.78125 63.8125 
Q 48.140625 66.109375 41.796875 66.109375 
Q 29.296875 66.109375 22.65625 58.46875 
Q 16.015625 50.828125 16.015625 36.375 
Q 16.015625 21.96875 22.65625 14.328125 
Q 29.296875 6.6875 41.796875 6.6875 
Q 48.140625 6.6875 53.78125 8.984375 
Q 59.421875 11.28125 64.40625 15.921875 
L 64.40625 5.609375 
Q 59.234375 2.09375 53.4375 0.328125 
Q 47.65625 -1.421875 41.21875 -1.421875 
Q 24.65625 -1.421875 15.125 8.703125 
Q 5.609375 18.84375 5.609375 36.375 
Q 5.609375 53.953125 15.125 64.078125 
Q 24.65625 74.21875 41.21875 74.21875 
Q 47.75 74.21875 53.53125 72.484375 
Q 59.328125 70.75 64.40625 67.28125 
z
" id="DejaVuSans-43"/>
      <path d="M 18.109375 8.203125 
L 18.109375 -20.796875 
L 9.078125 -20.796875 
L 9.078125 54.6875 
L 18.109375 54.6875 
L 18.109375 46.390625 
Q 20.953125 51.265625 25.265625 53.625 
Q 29.59375 56 35.59375 56 
Q 45.5625 56 51.78125 48.09375 
Q 58.015625 40.1875 58.015625 27.296875 
Q 58.015625 14.40625 51.78125 6.484375 
Q 45.5625 -1.421875 35.59375 -1.421875 
Q 29.59375 -1.421875 25.265625 0.953125 
Q 20.953125 3.328125 18.109375 8.203125 
z
M 48.6875 27.296875 
Q 48.6875 37.203125 44.609375 42.84375 
Q 40.53125 48.484375 33.40625 48.484375 
Q 26.265625 48.484375 22.1875 42.84375 
Q 18.109375 37.203125 18.109375 27.296875 
Q 18.109375 17.390625 22.1875 11.75 
Q 26.265625 6.109375 33.40625 6.109375 
Q 40.53125 6.109375 44.609375 11.75 
Q 48.6875 17.390625 48.6875 27.296875 
z
" id="DejaVuSans-70"/>
      <path d="M 34.1875 63.1875 
L 20.796875 26.90625 
L 47.609375 26.90625 
z
M 28.609375 72.90625 
L 39.796875 72.90625 
L 67.578125 0 
L 57.328125 0 
L 50.6875 18.703125 
L 17.828125 18.703125 
L 11.1875 0 
L 0.78125 0 
z
" id="DejaVuSans-41"/>
     </defs>
     <g transform="translate(17.053125 214.6655)rotate(-90)scale(0.1 -0.1)">
      <use xlink:href="#DejaVuSans-4d"/>
      <use x="86.279297" xlink:href="#DejaVuSans-65"/>
      <use x="147.802734" xlink:href="#DejaVuSans-61"/>
      <use x="209.082031" xlink:href="#DejaVuSans-6e"/>
      <use x="272.460938" xlink:href="#DejaVuSans-20"/>
      <use x="304.248047" xlink:href="#DejaVuSans-45"/>
      <use x="367.431641" xlink:href="#DejaVuSans-50"/>
      <use x="427.734375" xlink:href="#DejaVuSans-53"/>
      <use x="491.210938" xlink:href="#DejaVuSans-43"/>
      <use x="561.035156" xlink:href="#DejaVuSans-20"/>
      <use x="592.822266" xlink:href="#DejaVuSans-28"/>
      <use x="631.835938" xlink:href="#DejaVuSans-70"/>
      <use x="695.3125" xlink:href="#DejaVuSans-41"/>
      <use x="763.720703" xlink:href="#DejaVuSans-29"/>
     </g>
    </g>
   </g>
   <g id="line2d_15">
    <path clip-path="url(#pfb095e7193)" d="M 73.832727 53.568 
L 398.487273 53.568 
L 398.487273 53.568 
" style="fill:none;stroke:#1f77b4;stroke-linecap:square;stroke-width:1.5;"/>
   </g>
   <g id="line2d_16">
    <path clip-path="url(#pfb095e7193)" d="M 73.832727 53.568 
L 106.575775 53.67684 
L 107.24135 53.700014 
L 112.322448 53.5744 
L 122.582045 53.634871 
L 122.906716 53.859178 
L 123.393722 53.883581 
L 127.857945 53.590926 
L 137.387032 53.568065 
L 398.487273 53.568 
L 398.487273 53.568 
" style="fill:none;stroke:#ff7f0e;stroke-linecap:square;stroke-width:1.5;"/>
   </g>
   <g id="line2d_17">
    <path clip-path="url(#pfb095e7193)" d="M 73.832727 53.568 
L 106.364739 53.677993 
L 106.673177 53.938027 
L 107.095249 53.97553 
L 112.679586 53.58321 
L 122.533344 53.568035 
L 122.825548 54.43106 
L 123.101518 54.636825 
L 123.458656 54.590049 
L 126.072256 53.795534 
L 128.004047 53.637232 
L 132.127366 53.57346 
L 166.948307 53.568 
L 398.487273 53.568 
L 398.487273 53.568 
" style="fill:none;stroke:#2ca02c;stroke-linecap:square;stroke-width:1.5;"/>
   </g>
   <g id="line2d_18">
    <path clip-path="url(#pfb095e7193)" d="M 73.832727 53.568 
L 106.316039 53.645658 
L 106.592009 54.425589 
L 106.867979 54.630061 
L 107.225117 54.583585 
L 109.838717 53.794096 
L 111.786741 53.63611 
L 115.942527 53.573265 
L 122.533344 53.568091 
L 122.809314 55.783983 
L 123.052817 56.358925 
L 123.263853 56.401379 
L 123.556057 56.175178 
L 125.211878 54.589004 
L 126.120956 54.151917 
L 127.273537 53.855118 
L 128.961826 53.669484 
L 132.143599 53.582295 
L 146.445347 53.568002 
L 398.487273 53.568 
L 398.487273 53.568 
" style="fill:none;stroke:#d62728;stroke-linecap:square;stroke-width:1.5;"/>
   </g>
   <g id="line2d_19">
    <path clip-path="url(#pfb095e7193)" d="M 73.832727 53.568 
L 106.299805 53.568 
L 106.575775 55.236534 
L 106.835512 55.679969 
L 107.062782 55.69103 
L 107.452386 55.423609 
L 108.734836 54.460198 
L 109.708848 54.058755 
L 110.975064 53.793014 
L 112.923089 53.635773 
L 117.095109 53.573187 
L 122.533344 53.568182 
L 122.809314 58.3994 
L 123.052817 59.652923 
L 123.231386 59.766333 
L 123.409955 59.551805 
L 123.832027 58.570682 
L 124.757339 56.505068 
L 125.471615 55.466136 
L 126.218357 54.766986 
L 127.062501 54.280893 
L 128.117682 53.940167 
L 129.5787 53.719312 
L 132.046198 53.601094 
L 139.124021 53.568423 
L 398.487273 53.568 
L 398.487273 53.568 
" style="fill:none;stroke:#9467bd;stroke-linecap:square;stroke-width:1.5;"/>
   </g>
   <g id="line2d_20">
    <path clip-path="url(#pfb095e7193)" d="M 73.832727 53.568 
L 106.299805 53.568 
L 106.575775 56.896615 
L 106.819278 57.760277 
L 107.014081 57.832093 
L 107.24135 57.605322 
L 107.988093 56.350348 
L 108.767303 55.312966 
L 109.530279 54.660727 
L 110.406891 54.204982 
L 111.510771 53.890718 
L 113.101658 53.68912 
L 115.942527 53.589047 
L 122.533344 53.568363 
L 122.809314 62.662294 
L 123.052817 65.02183 
L 123.198919 65.254763 
L 123.215153 65.247661 
L 123.345021 65.026006 
L 123.637225 63.90734 
L 124.887207 58.677326 
L 125.552782 56.967105 
L 126.234591 55.802439 
L 126.948867 55.00719 
L 127.74431 54.4497 
L 128.702089 54.056752 
L 129.968305 53.792047 
L 131.91633 53.635482 
L 136.104583 53.573113 
L 173.181986 53.568 
L 398.487273 53.568 
L 398.487273 53.568 
" style="fill:none;stroke:#8c564b;stroke-linecap:square;stroke-width:1.5;"/>
   </g>
   <g id="line2d_21">
    <path clip-path="url(#pfb095e7193)" d="M 73.832727 53.568 
L 106.299805 53.568 
L 106.575775 59.415795 
L 106.819278 60.933098 
L 106.981614 61.078333 
L 106.997847 61.070389 
L 107.160183 60.844609 
L 107.533554 59.823852 
L 108.5238 57.123004 
L 109.221842 55.888511 
L 109.936118 55.063418 
L 110.731561 54.484234 
L 111.673107 54.081006 
L 112.906856 53.807916 
L 114.789946 53.64321 
L 118.685995 53.574823 
L 122.533344 53.568638 
L 122.809314 69.360967 
L 123.052817 73.458488 
L 123.198919 73.862993 
L 123.215153 73.85066 
L 123.328788 73.537341 
L 123.588524 71.903549 
L 125.000842 61.847033 
L 125.650184 59.12776 
L 126.299525 57.296193 
L 126.9651 56.042402 
L 127.663142 55.177645 
L 128.442352 54.564024 
L 129.35143 54.136938 
L 130.520245 53.844932 
L 132.241 53.663945 
L 135.552642 53.580476 
L 151.705014 53.568001 
L 398.487273 53.568 
L 398.487273 53.568 
" style="fill:none;stroke:#e377c2;stroke-linecap:square;stroke-width:1.5;"/>
   </g>
   <g id="line2d_22">
    <path clip-path="url(#pfb095e7193)" d="M 73.832727 53.568 
L 106.299805 53.568 
L 106.575775 63.288612 
L 106.819278 65.810779 
L 106.96538 66.059786 
L 106.981614 66.052198 
L 107.111482 65.81529 
L 107.403686 64.61958 
L 108.653668 59.029295 
L 109.319243 57.201261 
L 110.001052 55.956364 
L 110.715328 55.106333 
L 111.494538 54.51991 
L 112.419849 54.106331 
L 113.621131 53.824845 
L 115.423054 53.652646 
L 119.010666 53.577286 
L 122.533344 53.56906 
L 122.809314 78.084407 
L 123.052817 84.445221 
L 123.182686 85.07725 
L 123.215153 85.054009 
L 123.328788 84.567622 
L 123.588524 82.031385 
L 125.000842 66.420044 
L 125.650184 62.198751 
L 126.299525 59.3555 
L 126.948867 57.447766 
L 127.614442 56.142847 
L 128.312484 55.242966 
L 129.07546 54.614858 
L 129.968305 54.171985 
L 131.104653 53.86793 
L 132.760474 53.676153 
L 135.812379 53.584503 
L 148.425839 53.568007 
L 398.487273 53.568 
L 398.487273 53.568 
" style="fill:none;stroke:#7f7f7f;stroke-linecap:square;stroke-width:1.5;"/>
   </g>
   <g id="line2d_23">
    <path clip-path="url(#pfb095e7193)" d="M 73.832727 53.568 
L 106.299805 53.568 
L 106.575775 68.320633 
L 106.819278 72.148437 
L 106.96538 72.526347 
L 106.981614 72.51483 
L 107.095249 72.222166 
L 107.354985 70.696 
L 108.767303 61.301799 
L 109.416645 58.76161 
L 110.08222 57.016024 
L 110.764028 55.833679 
L 111.478304 55.0272 
L 112.273748 54.461947 
L 113.231526 54.063539 
L 114.481509 53.797441 
L 116.4133 53.637801 
L 120.504152 53.573616 
L 122.533344 53.569609 
L 122.809314 89.111568 
L 123.052817 98.333369 
L 123.182686 99.24967 
L 123.215153 99.215975 
L 123.312554 98.658769 
L 123.539824 95.655571 
L 125.179411 70.273444 
L 125.828753 64.779183 
L 126.478094 61.084866 
L 127.127436 58.606948 
L 127.776777 56.94574 
L 128.458586 55.787338 
L 129.172862 54.997335 
L 129.968305 54.443648 
L 130.926084 54.053396 
L 132.1923 53.790508 
L 134.156558 53.634351 
L 138.393512 53.572879 
L 177.175436 53.568 
L 398.487273 53.568 
L 398.487273 53.568 
" style="fill:none;stroke:#bcbd22;stroke-linecap:square;stroke-width:1.5;"/>
   </g>
   <g id="line2d_24">
    <path clip-path="url(#pfb095e7193)" d="M 73.832727 53.568 
L 106.299805 53.568 
L 106.575775 75.364616 
L 106.819278 81.020093 
L 106.949147 81.582079 
L 106.981614 81.561428 
L 107.095249 81.129026 
L 107.354985 78.874156 
L 108.767303 64.99448 
L 109.416645 61.241418 
L 110.065986 58.713543 
L 110.715328 57.017418 
L 111.397136 55.834464 
L 112.111412 55.027689 
L 112.906856 54.462245 
L 113.864634 54.063704 
L 115.114617 53.797518 
L 117.046408 53.637824 
L 121.13726 53.573618 
L 122.533344 53.570377 
L 122.809314 102.136082 
L 123.052817 114.737042 
L 123.182686 115.989097 
L 123.215153 115.943052 
L 123.312554 115.18166 
L 123.539824 111.077974 
L 125.179411 76.394918 
L 125.828753 68.887363 
L 126.478094 63.839315 
L 127.127436 60.453399 
L 127.776777 58.183465 
L 128.442352 56.631061 
L 129.124161 55.580575 
L 129.85467 54.851275 
L 130.682581 54.338601 
L 131.705294 53.978416 
L 133.101378 53.741672 
L 135.374073 53.610827 
L 141.18568 53.569194 
L 294.657558 53.568 
L 398.487273 53.568 
L 398.487273 53.568 
" style="fill:none;stroke:#17becf;stroke-linecap:square;stroke-width:1.5;"/>
   </g>
   <g id="line2d_25">
    <path clip-path="url(#pfb095e7193)" d="M 73.832727 53.568 
L 106.299805 53.568 
L 106.575775 83.864736 
L 106.819278 91.725704 
L 106.949147 92.506851 
L 106.981614 92.478146 
L 107.079015 92.003228 
L 107.306285 89.443365 
L 108.945872 67.807713 
L 109.595214 63.124408 
L 110.244555 59.975373 
L 110.893897 57.863197 
L 111.559472 56.418536 
L 112.257514 55.422303 
L 113.004257 54.738592 
L 113.864634 54.257016 
L 114.936048 53.924119 
L 116.429533 53.70992 
L 118.994433 53.597232 
L 122.533344 53.571304 
L 122.809314 117.003621 
L 123.052817 133.461887 
L 123.182686 135.097203 
L 123.215153 135.03706 
L 123.312554 134.042588 
L 123.539824 128.68269 
L 125.179411 83.382596 
L 125.828753 73.576861 
L 126.478094 66.983526 
L 127.127436 62.561127 
L 127.776777 59.596332 
L 128.426119 57.60892 
L 129.091694 56.249758 
L 129.789736 55.312508 
L 130.552712 54.658322 
L 131.429323 54.203383 
L 132.533204 53.889896 
L 134.124091 53.688811 
L 136.96496 53.588994 
L 147.224557 53.568038 
L 398.487273 53.568 
L 398.487273 53.568 
" style="fill:none;stroke:#1f77b4;stroke-linecap:square;stroke-width:1.5;"/>
   </g>
   <g id="line2d_26">
    <path clip-path="url(#pfb095e7193)" d="M 73.832727 53.568 
L 106.299805 53.568 
L 106.575775 93.922436 
L 106.819278 104.393035 
L 106.949147 105.4335 
L 106.981614 105.395267 
L 107.079015 104.762688 
L 107.306285 101.353021 
L 108.945872 72.534914 
L 109.595214 66.296878 
L 110.244555 62.102449 
L 110.893897 59.289086 
L 111.543238 57.402996 
L 112.208813 56.113101 
L 112.906856 55.223612 
L 113.669832 54.602761 
L 114.562676 54.165005 
L 115.715258 53.861514 
L 117.387312 53.672787 
L 120.504152 53.583362 
L 122.533344 53.572401 
L 122.809314 132.45249 
L 123.052817 152.918841 
L 123.182686 154.952392 
L 123.215153 154.877599 
L 123.312554 153.64093 
L 123.539824 146.9757 
L 125.179411 90.64347 
L 125.828753 78.449703 
L 126.478094 70.250666 
L 127.127436 64.751262 
L 127.776777 61.064437 
L 128.426119 58.593022 
L 129.07546 56.936374 
L 129.757269 55.78118 
L 130.471545 54.993368 
L 131.266988 54.441218 
L 132.224767 54.052049 
L 133.490983 53.789891 
L 135.455241 53.634167 
L 139.708428 53.572817 
L 178.961126 53.568 
L 398.487273 53.568 
L 398.487273 53.568 
" style="fill:none;stroke:#ff7f0e;stroke-linecap:square;stroke-width:1.5;"/>
   </g>
   <g id="line2d_27">
    <path clip-path="url(#pfb095e7193)" d="M 73.832727 53.568 
L 106.299805 53.568 
L 106.575775 105.932924 
L 106.819278 119.519834 
L 106.949147 120.869968 
L 106.981614 120.820356 
L 107.079015 119.999506 
L 107.306285 115.575036 
L 108.945872 78.179941 
L 109.595214 70.08531 
L 110.244555 64.642514 
L 110.893897 60.991825 
L 111.543238 58.544387 
L 112.208813 56.870587 
L 112.890622 55.737955 
L 113.604898 54.96553 
L 114.416575 54.415645 
L 115.390587 54.033197 
L 116.68927 53.777027 
L 118.718462 53.627887 
L 122.533344 53.573711 
L 122.809314 148.312596 
L 123.052817 172.893662 
L 123.182686 175.336036 
L 123.215153 175.2462 
L 123.312554 173.760881 
L 123.539824 165.755571 
L 125.179411 98.097587 
L 125.828753 83.452232 
L 126.478094 73.604758 
L 127.127436 66.999684 
L 127.776777 62.571614 
L 128.426119 59.603315 
L 129.07546 57.613594 
L 129.741035 56.25286 
L 130.439078 55.314526 
L 131.202054 54.659583 
L 132.078665 54.204118 
L 133.182546 53.890268 
L 134.773432 53.688951 
L 137.614302 53.589018 
L 147.857665 53.568038 
L 398.487273 53.568 
L 398.487273 53.568 
" style="fill:none;stroke:#2ca02c;stroke-linecap:square;stroke-width:1.5;"/>
   </g>
   <g id="line2d_28">
    <path clip-path="url(#pfb095e7193)" d="M 73.832727 53.568 
L 106.299805 53.568 
L 106.575775 118.410475 
L 106.819278 135.234884 
L 106.949147 136.906729 
L 106.981614 136.845294 
L 107.079015 135.828852 
L 107.306285 130.350116 
L 108.945872 84.044492 
L 109.595214 74.021066 
L 110.244555 67.281357 
L 110.893897 62.760779 
L 111.543238 59.730164 
L 112.19258 57.69863 
L 112.858155 56.309295 
L 113.556197 55.351237 
L 114.30294 54.693728 
L 115.163317 54.230609 
L 116.250965 53.907063 
L 117.793151 53.69913 
L 120.504152 53.592685 
L 122.533344 53.575072 
L 122.809314 164.807823 
L 123.052817 193.66838 
L 123.182686 196.535947 
L 123.215153 196.430466 
L 123.312554 194.686542 
L 123.539824 185.287488 
L 125.179411 105.850205 
L 125.828753 88.655089 
L 126.478094 77.093165 
L 127.111202 69.496631 
L 127.760544 64.245388 
L 128.409885 60.725282 
L 129.059227 58.365671 
L 129.724802 56.751976 
L 130.406611 55.660021 
L 131.13712 54.901932 
L 131.948797 54.377071 
L 132.939043 54.007609 
L 134.270193 53.761618 
L 136.396786 53.620242 
L 141.41295 53.570377 
L 219.30147 53.568 
L 398.487273 53.568 
L 398.487273 53.568 
" style="fill:none;stroke:#d62728;stroke-linecap:square;stroke-width:1.5;"/>
   </g>
   <g id="line2d_29">
    <path clip-path="url(#pfb095e7193)" d="M 73.832727 53.568 
L 106.299805 53.568 
L 106.575775 133.196922 
L 106.819278 153.857909 
L 106.949147 155.910995 
L 106.981614 155.835552 
L 107.079015 154.587323 
L 107.306285 147.859236 
L 108.945872 90.994242 
L 109.595214 78.685111 
L 110.244555 70.408502 
L 110.893897 64.857067 
L 111.543238 61.135361 
L 112.19258 58.640564 
L 112.841921 56.968243 
L 113.52373 55.802119 
L 114.238006 55.006854 
L 115.033449 54.44948 
L 115.991228 54.056628 
L 117.257444 53.79199 
L 119.205469 53.635465 
L 122.533344 53.576685 
L 122.809314 180.230709 
L 123.052817 213.092437 
L 123.182686 216.35753 
L 123.215153 216.237416 
L 123.312554 214.251689 
L 123.539824 203.549493 
L 125.179411 113.098764 
L 125.828753 93.519666 
L 126.478094 80.354763 
L 127.111202 71.705023 
L 127.760544 65.725732 
L 128.409885 61.717588 
L 129.059227 59.030835 
L 129.708568 57.229848 
L 130.374143 55.998186 
L 131.088419 55.133128 
L 131.867629 54.536476 
L 132.792941 54.115698 
L 133.994223 53.829314 
L 135.779912 53.654984 
L 139.30259 53.577932 
L 159.172442 53.568 
L 398.487273 53.568 
L 398.487273 53.568 
" style="fill:none;stroke:#9467bd;stroke-linecap:square;stroke-width:1.5;"/>
   </g>
   <g id="line2d_30">
    <path clip-path="url(#pfb095e7193)" d="M 73.832727 53.568 
L 106.299805 53.568 
L 106.575775 148.249658 
L 106.819278 172.816316 
L 106.949147 175.25751 
L 106.981614 175.167805 
L 107.079015 173.683616 
L 107.306285 165.683679 
L 108.945872 98.069151 
L 109.595214 83.43315 
L 110.244555 73.591964 
L 110.893897 66.991108 
L 111.543238 62.565865 
L 112.19258 59.599461 
L 112.841921 57.611011 
L 113.507496 56.251145 
L 114.205539 55.313411 
L 114.968515 54.658886 
L 115.845126 54.203712 
L 116.949007 53.890062 
L 118.539894 53.688874 
L 121.380763 53.589005 
L 122.533344 53.578327 
L 122.809314 195.927306 
L 123.052817 232.861212 
L 123.182686 236.530886 
L 123.215153 236.39588 
L 123.312554 234.164059 
L 123.539824 222.135595 
L 125.179411 120.475963 
L 125.828753 98.470575 
L 126.478094 83.674245 
L 127.111202 73.952607 
L 127.760544 67.232349 
L 128.409885 62.727505 
L 129.059227 59.707803 
L 129.708568 57.683633 
L 130.374143 56.299341 
L 131.072186 55.344762 
L 131.818928 54.689641 
L 132.69554 54.221634 
L 133.783187 53.90247 
L 135.341606 53.696066 
L 138.085074 53.591631 
L 147.370659 53.568078 
L 398.487273 53.568 
L 398.487273 53.568 
" style="fill:none;stroke:#8c564b;stroke-linecap:square;stroke-width:1.5;"/>
   </g>
   <g id="line2d_31">
    <path clip-path="url(#pfb095e7193)" d="M 73.832727 53.568 
L 106.299805 53.568 
L 106.575775 164.556701 
L 106.819278 193.35448 
L 106.949147 196.216121 
L 106.981614 196.110966 
L 107.079015 194.371156 
L 107.306285 184.993387 
L 108.945872 105.733594 
L 109.595214 88.576831 
L 110.244555 77.040695 
L 110.877663 69.461104 
L 111.527005 64.221573 
L 112.176346 60.709318 
L 112.825688 58.354971 
L 113.491263 56.744875 
L 114.173072 55.655355 
L 114.903581 54.898957 
L 115.715258 54.375266 
L 116.705504 54.006629 
L 118.052887 53.759264 
L 120.195715 53.619093 
L 122.533344 53.580105 
L 122.809314 212.04987 
L 123.052817 253.166432 
L 123.182686 257.251659 
L 123.215153 257.101356 
L 123.312554 254.61676 
L 123.539824 241.226035 
L 125.179411 128.053342 
L 125.828753 103.555826 
L 126.478094 87.083801 
L 127.111202 76.26118 
L 127.74431 68.932727 
L 128.393652 63.867306 
L 129.042993 60.471834 
L 129.692335 58.195779 
L 130.35791 56.639227 
L 131.039719 55.58594 
L 131.770228 54.854695 
L 132.598138 54.340655 
L 133.604618 53.983645 
L 134.984468 53.745653 
L 137.224697 53.612694 
L 142.857735 53.569391 
L 274.820173 53.568 
L 398.487273 53.568 
L 398.487273 53.568 
" style="fill:none;stroke:#e377c2;stroke-linecap:square;stroke-width:1.5;"/>
   </g>
   <g id="line2d_32">
    <path clip-path="url(#pfb095e7193)" d="M 73.832727 53.568 
L 106.299805 53.568 
L 106.575775 180.298408 
L 106.819278 213.180622 
L 106.949147 216.448135 
L 106.981614 216.328066 
L 107.079015 214.341494 
L 107.306285 203.633662 
L 108.945872 113.132325 
L 109.595214 93.54219 
L 110.244555 80.369866 
L 110.877663 71.715248 
L 111.527005 65.732587 
L 112.176346 61.722183 
L 112.825688 59.033915 
L 113.475029 57.231912 
L 114.140604 55.999556 
L 114.85488 55.134011 
L 115.63409 54.537022 
L 116.559402 54.116006 
L 117.760684 53.829461 
L 119.546373 53.655033 
L 122.533344 53.581822 
L 122.809314 226.86207 
L 123.052817 271.821315 
L 123.182686 276.288314 
L 123.215153 276.123956 
L 123.312554 273.407127 
L 123.539824 258.764858 
L 125.179411 135.014853 
L 125.828753 108.227763 
L 126.478094 90.216237 
L 127.111202 78.382118 
L 127.74431 70.368737 
L 128.393652 64.829895 
L 129.042993 61.117077 
L 129.692335 58.628298 
L 130.341676 56.960019 
L 131.023485 55.796715 
L 131.737761 55.003374 
L 132.533204 54.447348 
L 133.490983 54.055447 
L 134.757199 53.791448 
L 136.705224 53.635301 
L 140.90971 53.573049 
L 178.441652 53.568 
L 398.487273 53.568 
L 398.487273 53.568 
" style="fill:none;stroke:#7f7f7f;stroke-linecap:square;stroke-width:1.5;"/>
   </g>
   <g id="line2d_33">
    <path clip-path="url(#pfb095e7193)" d="M 73.832727 53.568 
L 106.299805 53.568 
L 106.575775 196.811508 
L 106.819278 233.978308 
L 106.949147 237.671581 
L 106.981614 237.535866 
L 107.079015 235.290443 
L 107.306285 223.187369 
L 108.945872 120.893616 
L 109.595214 98.750868 
L 110.244555 83.862176 
L 110.877663 74.079853 
L 111.527005 67.317645 
L 112.176346 62.784681 
L 112.825688 59.746129 
L 113.475029 57.709324 
L 114.140604 56.316391 
L 114.838647 55.355853 
L 115.585389 54.696642 
L 116.445767 54.232325 
L 117.533414 53.907941 
L 119.0756 53.699469 
L 121.770368 53.592997 
L 122.533344 53.583623 
L 122.809314 241.801145 
L 123.052817 290.635964 
L 123.182686 295.488 
L 123.215153 295.309466 
L 123.312554 292.358413 
L 123.539824 276.45388 
L 125.179411 142.035978 
L 125.828753 112.939707 
L 126.478094 93.375498 
L 127.111202 80.521219 
L 127.74431 71.817044 
L 128.393652 65.800726 
L 129.042993 61.767845 
L 129.692335 59.064521 
L 130.341676 57.252428 
L 131.007251 56.013172 
L 131.721527 55.14278 
L 132.500737 54.542448 
L 133.426049 54.119075 
L 134.611097 53.833568 
L 136.380553 53.657288 
L 139.838297 53.578611 
L 158.539334 53.568 
L 398.487273 53.568 
L 398.487273 53.568 
" style="fill:none;stroke:#bcbd22;stroke-linecap:square;stroke-width:1.5;"/>
   </g>
   <g id="patch_3">
    <path d="M 57.6 307.584 
L 57.6 41.472 
" style="fill:none;stroke:#000000;stroke-linecap:square;stroke-linejoin:miter;stroke-width:0.8;"/>
   </g>
   <g id="patch_4">
    <path d="M 414.72 307.584 
L 414.72 41.472 
" style="fill:none;stroke:#000000;stroke-linecap:square;stroke-linejoin:miter;stroke-width:0.8;"/>
   </g>
   <g id="patch_5">
    <path d="M 57.6 307.584 
L 414.72 307.584 
" style="fill:none;stroke:#000000;stroke-linecap:square;stroke-linejoin:miter;stroke-width:0.8;"/>
   </g>
   <g id="patch_6">
    <path d="M 57.6 41.472 
L 414.72 41.472 
" style="fill:none;stroke:#000000;stroke-linecap:square;stroke-linejoin:miter;stroke-width:0.8;"/>
   </g>
   <g id="text_17">
    <!-- Mean EPSC across conditions -->
    <defs>
     <path d="M 41.109375 46.296875 
Q 39.59375 47.171875 37.8125 47.578125 
Q 36.03125 48 33.890625 48 
Q 26.265625 48 22.1875 43.046875 
Q 18.109375 38.09375 18.109375 28.8125 
L 18.109375 0 
L 9.078125 0 
L 9.078125 54.6875 
L 18.109375 54.6875 
L 18.109375 46.1875 
Q 20.953125 51.171875 25.484375 53.578125 
Q 30.03125 56 36.53125 56 
Q 37.453125 56 38.578125 55.875 
Q 39.703125 55.765625 41.0625 55.515625 
z
" id="DejaVuSans-72"/>
     <path d="M 18.3125 70.21875 
L 18.3125 54.6875 
L 36.8125 54.6875 
L 36.8125 47.703125 
L 18.3125 47.703125 
L 18.3125 18.015625 
Q 18.3125 11.328125 20.140625 9.421875 
Q 21.96875 7.515625 27.59375 7.515625 
L 36.8125 7.515625 
L 36.8125 0 
L 27.59375 0 
Q 17.1875 0 13.234375 3.875 
Q 9.28125 7.765625 9.28125 18.015625 
L 9.28125 47.703125 
L 2.6875 47.703125 
L 2.6875 54.6875 
L 9.28125 54.6875 
L 9.28125 70.21875 
z
" id="DejaVuSans-74"/>
    </defs>
    <g transform="translate(148.453125 35.472)scale(0.12 -0.12)">
     <use xlink:href="#DejaVuSans-4d"/>
     <use x="86.279297" xlink:href="#DejaVuSans-65"/>
     <use x="147.802734" xlink:href="#DejaVuSans-61"/>
     <use x="209.082031" xlink:href="#DejaVuSans-6e"/>
     <use x="272.460938" xlink:href="#DejaVuSans-20"/>
     <use x="304.248047" xlink:href="#DejaVuSans-45"/>
     <use x="367.431641" xlink:href="#DejaVuSans-50"/>
     <use x="427.734375" xlink:href="#DejaVuSans-53"/>
     <use x="491.210938" xlink:href="#DejaVuSans-43"/>
     <use x="561.035156" xlink:href="#DejaVuSans-20"/>
     <use x="592.822266" xlink:href="#DejaVuSans-61"/>
     <use x="654.101562" xlink:href="#DejaVuSans-63"/>
     <use x="709.082031" xlink:href="#DejaVuSans-72"/>
     <use x="750.164062" xlink:href="#DejaVuSans-6f"/>
     <use x="811.345703" xlink:href="#DejaVuSans-73"/>
     <use x="863.445312" xlink:href="#DejaVuSans-73"/>
     <use x="915.544922" xlink:href="#DejaVuSans-20"/>
     <use x="947.332031" xlink:href="#DejaVuSans-63"/>
     <use x="1002.3125" xlink:href="#DejaVuSans-6f"/>
     <use x="1063.494141" xlink:href="#DejaVuSans-6e"/>
     <use x="1126.873047" xlink:href="#DejaVuSans-64"/>
     <use x="1190.349609" xlink:href="#DejaVuSans-69"/>
     <use x="1218.132812" xlink:href="#DejaVuSans-74"/>
     <use x="1257.341797" xlink:href="#DejaVuSans-69"/>
     <use x="1285.125" xlink:href="#DejaVuSans-6f"/>
     <use x="1346.306641" xlink:href="#DejaVuSans-6e"/>
     <use x="1409.685547" xlink:href="#DejaVuSans-73"/>
    </g>
   </g>
  </g>
 </g>
 <defs>
  <clipPath id="pfb095e7193">
   <rect height="266.112" width="357.12" x="57.6" y="41.472"/>
  </clipPath>
 </defs>
</svg>
