<?xml version="1.0" encoding="utf-8" standalone="no"?>
<!DOCTYPE svg PUBLIC "-//W3C//DTD SVG 1.1//EN"
  "http://www.w3.org/Graphics/SVG/1.1/DTD/svg11.dtd">
<!-- Created with matplotlib (http://matplotlib.org/) -->
<svg height="345pt" version="1.1" viewBox="0 0 460 345" width="460pt" xmlns="http://www.w3.org/2000/svg" xmlns:xlink="http://www.w3.org/1999/xlink">
 <defs>
  <style type="text/css">
*{stroke-linecap:butt;stroke-linejoin:round;}
  </style>
 </defs>
 <g id="figure_1">
  <g id="patch_1">
   <path d="M 0 345.6 
L 460.8 345.6 
L 460.8 0 
L 0 0 
z
" style="fill:#ffffff;"/>
  </g>
  <g id="axes_1">
   <g id="patch_2">
    <path d="M 57.6 307.584 
L 414.72 307.584 
L 414.72 41.472 
L 57.6 41.472 
z
" style="fill:#ffffff;"/>
   </g>
   <g id="matplotlib.axis_1">
    <g id="xtick_1">
     <g id="line2d_1">
      <defs>
       <path d="M 0 0 
L 0 3.5 
" id="m5a92a882fc" style="stroke:#000000;stroke-width:0.8;"/>
      </defs>
      <g>
       <use style="stroke:#000000;stroke-width:0.8;" x="73.832727" xlink:href="#m5a92a882fc" y="307.584"/>
      </g>
     </g>
     <g id="text_1">
      <!-- 0.0 -->
      <defs>
       <path d="M 31.78125 66.40625 
Q 24.171875 66.40625 20.328125 58.90625 
Q 16.5 51.421875 16.5 36.375 
Q 16.5 21.390625 20.328125 13.890625 
Q 24.171875 6.390625 31.78125 6.390625 
Q 39.453125 6.390625 43.28125 13.890625 
Q 47.125 21.390625 47.125 36.375 
Q 47.125 51.421875 43.28125 58.90625 
Q 39.453125 66.40625 31.78125 66.40625 
z
M 31.78125 74.21875 
Q 44.046875 74.21875 50.515625 64.515625 
Q 56.984375 54.828125 56.984375 36.375 
Q 56.984375 17.96875 50.515625 8.265625 
Q 44.046875 -1.421875 31.78125 -1.421875 
Q 19.53125 -1.421875 13.0625 8.265625 
Q 6.59375 17.96875 6.59375 36.375 
Q 6.59375 54.828125 13.0625 64.515625 
Q 19.53125 74.21875 31.78125 74.21875 
z
" id="DejaVuSans-30"/>
       <path d="M 10.6875 12.40625 
L 21 12.40625 
L 21 0 
L 10.6875 0 
z
" id="DejaVuSans-2e"/>
      </defs>
      <g transform="translate(65.881165 322.182437)scale(0.1 -0.1)">
       <use xlink:href="#DejaVuSans-30"/>
       <use x="63.623047" xlink:href="#DejaVuSans-2e"/>
       <use x="95.410156" xlink:href="#DejaVuSans-30"/>
      </g>
     </g>
    </g>
    <g id="xtick_2">
     <g id="line2d_2">
      <g>
       <use style="stroke:#000000;stroke-width:0.8;" x="138.766883" xlink:href="#m5a92a882fc" y="307.584"/>
      </g>
     </g>
     <g id="text_2">
      <!-- 0.2 -->
      <defs>
       <path d="M 19.1875 8.296875 
L 53.609375 8.296875 
L 53.609375 0 
L 7.328125 0 
L 7.328125 8.296875 
Q 12.9375 14.109375 22.625 23.890625 
Q 32.328125 33.6875 34.8125 36.53125 
Q 39.546875 41.84375 41.421875 45.53125 
Q 43.3125 49.21875 43.3125 52.78125 
Q 43.3125 58.59375 39.234375 62.25 
Q 35.15625 65.921875 28.609375 65.921875 
Q 23.96875 65.921875 18.8125 64.3125 
Q 13.671875 62.703125 7.8125 59.421875 
L 7.8125 69.390625 
Q 13.765625 71.78125 18.9375 73 
Q 24.125 74.21875 28.421875 74.21875 
Q 39.75 74.21875 46.484375 68.546875 
Q 53.21875 62.890625 53.21875 53.421875 
Q 53.21875 48.921875 51.53125 44.890625 
Q 49.859375 40.875 45.40625 35.40625 
Q 44.1875 33.984375 37.640625 27.21875 
Q 31.109375 20.453125 19.1875 8.296875 
z
" id="DejaVuSans-32"/>
      </defs>
      <g transform="translate(130.815321 322.182437)scale(0.1 -0.1)">
       <use xlink:href="#DejaVuSans-30"/>
       <use x="63.623047" xlink:href="#DejaVuSans-2e"/>
       <use x="95.410156" xlink:href="#DejaVuSans-32"/>
      </g>
     </g>
    </g>
    <g id="xtick_3">
     <g id="line2d_3">
      <g>
       <use style="stroke:#000000;stroke-width:0.8;" x="203.701039" xlink:href="#m5a92a882fc" y="307.584"/>
      </g>
     </g>
     <g id="text_3">
      <!-- 0.4 -->
      <defs>
       <path d="M 37.796875 64.3125 
L 12.890625 25.390625 
L 37.796875 25.390625 
z
M 35.203125 72.90625 
L 47.609375 72.90625 
L 47.609375 25.390625 
L 58.015625 25.390625 
L 58.015625 17.1875 
L 47.609375 17.1875 
L 47.609375 0 
L 37.796875 0 
L 37.796875 17.1875 
L 4.890625 17.1875 
L 4.890625 26.703125 
z
" id="DejaVuSans-34"/>
      </defs>
      <g transform="translate(195.749476 322.182437)scale(0.1 -0.1)">
       <use xlink:href="#DejaVuSans-30"/>
       <use x="63.623047" xlink:href="#DejaVuSans-2e"/>
       <use x="95.410156" xlink:href="#DejaVuSans-34"/>
      </g>
     </g>
    </g>
    <g id="xtick_4">
     <g id="line2d_4">
      <g>
       <use style="stroke:#000000;stroke-width:0.8;" x="268.635195" xlink:href="#m5a92a882fc" y="307.584"/>
      </g>
     </g>
     <g id="text_4">
      <!-- 0.6 -->
      <defs>
       <path d="M 33.015625 40.375 
Q 26.375 40.375 22.484375 35.828125 
Q 18.609375 31.296875 18.609375 23.390625 
Q 18.609375 15.53125 22.484375 10.953125 
Q 26.375 6.390625 33.015625 6.390625 
Q 39.65625 6.390625 43.53125 10.953125 
Q 47.40625 15.53125 47.40625 23.390625 
Q 47.40625 31.296875 43.53125 35.828125 
Q 39.65625 40.375 33.015625 40.375 
z
M 52.59375 71.296875 
L 52.59375 62.3125 
Q 48.875 64.0625 45.09375 64.984375 
Q 41.3125 65.921875 37.59375 65.921875 
Q 27.828125 65.921875 22.671875 59.328125 
Q 17.53125 52.734375 16.796875 39.40625 
Q 19.671875 43.65625 24.015625 45.921875 
Q 28.375 48.1875 33.59375 48.1875 
Q 44.578125 48.1875 50.953125 41.515625 
Q 57.328125 34.859375 57.328125 23.390625 
Q 57.328125 12.15625 50.6875 5.359375 
Q 44.046875 -1.421875 33.015625 -1.421875 
Q 20.359375 -1.421875 13.671875 8.265625 
Q 6.984375 17.96875 6.984375 36.375 
Q 6.984375 53.65625 15.1875 63.9375 
Q 23.390625 74.21875 37.203125 74.21875 
Q 40.921875 74.21875 44.703125 73.484375 
Q 48.484375 72.75 52.59375 71.296875 
z
" id="DejaVuSans-36"/>
      </defs>
      <g transform="translate(260.683632 322.182437)scale(0.1 -0.1)">
       <use xlink:href="#DejaVuSans-30"/>
       <use x="63.623047" xlink:href="#DejaVuSans-2e"/>
       <use x="95.410156" xlink:href="#DejaVuSans-36"/>
      </g>
     </g>
    </g>
    <g id="xtick_5">
     <g id="line2d_5">
      <g>
       <use style="stroke:#000000;stroke-width:0.8;" x="333.56935" xlink:href="#m5a92a882fc" y="307.584"/>
      </g>
     </g>
     <g id="text_5">
      <!-- 0.8 -->
      <defs>
       <path d="M 31.78125 34.625 
Q 24.75 34.625 20.71875 30.859375 
Q 16.703125 27.09375 16.703125 20.515625 
Q 16.703125 13.921875 20.71875 10.15625 
Q 24.75 6.390625 31.78125 6.390625 
Q 38.8125 6.390625 42.859375 10.171875 
Q 46.921875 13.96875 46.921875 20.515625 
Q 46.921875 27.09375 42.890625 30.859375 
Q 38.875 34.625 31.78125 34.625 
z
M 21.921875 38.8125 
Q 15.578125 40.375 12.03125 44.71875 
Q 8.5 49.078125 8.5 55.328125 
Q 8.5 64.0625 14.71875 69.140625 
Q 20.953125 74.21875 31.78125 74.21875 
Q 42.671875 74.21875 48.875 69.140625 
Q 55.078125 64.0625 55.078125 55.328125 
Q 55.078125 49.078125 51.53125 44.71875 
Q 48 40.375 41.703125 38.8125 
Q 48.828125 37.15625 52.796875 32.3125 
Q 56.78125 27.484375 56.78125 20.515625 
Q 56.78125 9.90625 50.3125 4.234375 
Q 43.84375 -1.421875 31.78125 -1.421875 
Q 19.734375 -1.421875 13.25 4.234375 
Q 6.78125 9.90625 6.78125 20.515625 
Q 6.78125 27.484375 10.78125 32.3125 
Q 14.796875 37.15625 21.921875 38.8125 
z
M 18.3125 54.390625 
Q 18.3125 48.734375 21.84375 45.5625 
Q 25.390625 42.390625 31.78125 42.390625 
Q 38.140625 42.390625 41.71875 45.5625 
Q 45.3125 48.734375 45.3125 54.390625 
Q 45.3125 60.0625 41.71875 63.234375 
Q 38.140625 66.40625 31.78125 66.40625 
Q 25.390625 66.40625 21.84375 63.234375 
Q 18.3125 60.0625 18.3125 54.390625 
z
" id="DejaVuSans-38"/>
      </defs>
      <g transform="translate(325.617788 322.182437)scale(0.1 -0.1)">
       <use xlink:href="#DejaVuSans-30"/>
       <use x="63.623047" xlink:href="#DejaVuSans-2e"/>
       <use x="95.410156" xlink:href="#DejaVuSans-38"/>
      </g>
     </g>
    </g>
    <g id="xtick_6">
     <g id="line2d_6">
      <g>
       <use style="stroke:#000000;stroke-width:0.8;" x="398.503506" xlink:href="#m5a92a882fc" y="307.584"/>
      </g>
     </g>
     <g id="text_6">
      <!-- 1.0 -->
      <defs>
       <path d="M 12.40625 8.296875 
L 28.515625 8.296875 
L 28.515625 63.921875 
L 10.984375 60.40625 
L 10.984375 69.390625 
L 28.421875 72.90625 
L 38.28125 72.90625 
L 38.28125 8.296875 
L 54.390625 8.296875 
L 54.390625 0 
L 12.40625 0 
z
" id="DejaVuSans-31"/>
      </defs>
      <g transform="translate(390.551944 322.182437)scale(0.1 -0.1)">
       <use xlink:href="#DejaVuSans-31"/>
       <use x="63.623047" xlink:href="#DejaVuSans-2e"/>
       <use x="95.410156" xlink:href="#DejaVuSans-30"/>
      </g>
     </g>
    </g>
    <g id="text_7">
     <!-- Time (seconds) -->
     <defs>
      <path d="M -0.296875 72.90625 
L 61.375 72.90625 
L 61.375 64.59375 
L 35.5 64.59375 
L 35.5 0 
L 25.59375 0 
L 25.59375 64.59375 
L -0.296875 64.59375 
z
" id="DejaVuSans-54"/>
      <path d="M 9.421875 54.6875 
L 18.40625 54.6875 
L 18.40625 0 
L 9.421875 0 
z
M 9.421875 75.984375 
L 18.40625 75.984375 
L 18.40625 64.59375 
L 9.421875 64.59375 
z
" id="DejaVuSans-69"/>
      <path d="M 52 44.1875 
Q 55.375 50.25 60.0625 53.125 
Q 64.75 56 71.09375 56 
Q 79.640625 56 84.28125 50.015625 
Q 88.921875 44.046875 88.921875 33.015625 
L 88.921875 0 
L 79.890625 0 
L 79.890625 32.71875 
Q 79.890625 40.578125 77.09375 44.375 
Q 74.3125 48.1875 68.609375 48.1875 
Q 61.625 48.1875 57.5625 43.546875 
Q 53.515625 38.921875 53.515625 30.90625 
L 53.515625 0 
L 44.484375 0 
L 44.484375 32.71875 
Q 44.484375 40.625 41.703125 44.40625 
Q 38.921875 48.1875 33.109375 48.1875 
Q 26.21875 48.1875 22.15625 43.53125 
Q 18.109375 38.875 18.109375 30.90625 
L 18.109375 0 
L 9.078125 0 
L 9.078125 54.6875 
L 18.109375 54.6875 
L 18.109375 46.1875 
Q 21.1875 51.21875 25.484375 53.609375 
Q 29.78125 56 35.6875 56 
Q 41.65625 56 45.828125 52.96875 
Q 50 49.953125 52 44.1875 
z
" id="DejaVuSans-6d"/>
      <path d="M 56.203125 29.59375 
L 56.203125 25.203125 
L 14.890625 25.203125 
Q 15.484375 15.921875 20.484375 11.0625 
Q 25.484375 6.203125 34.421875 6.203125 
Q 39.59375 6.203125 44.453125 7.46875 
Q 49.3125 8.734375 54.109375 11.28125 
L 54.109375 2.78125 
Q 49.265625 0.734375 44.1875 -0.34375 
Q 39.109375 -1.421875 33.890625 -1.421875 
Q 20.796875 -1.421875 13.15625 6.1875 
Q 5.515625 13.8125 5.515625 26.8125 
Q 5.515625 40.234375 12.765625 48.109375 
Q 20.015625 56 32.328125 56 
Q 43.359375 56 49.78125 48.890625 
Q 56.203125 41.796875 56.203125 29.59375 
z
M 47.21875 32.234375 
Q 47.125 39.59375 43.09375 43.984375 
Q 39.0625 48.390625 32.421875 48.390625 
Q 24.90625 48.390625 20.390625 44.140625 
Q 15.875 39.890625 15.1875 32.171875 
z
" id="DejaVuSans-65"/>
      <path id="DejaVuSans-20"/>
      <path d="M 31 75.875 
Q 24.46875 64.65625 21.28125 53.65625 
Q 18.109375 42.671875 18.109375 31.390625 
Q 18.109375 20.125 21.3125 9.0625 
Q 24.515625 -2 31 -13.1875 
L 23.1875 -13.1875 
Q 15.875 -1.703125 12.234375 9.375 
Q 8.59375 20.453125 8.59375 31.390625 
Q 8.59375 42.28125 12.203125 53.3125 
Q 15.828125 64.359375 23.1875 75.875 
z
" id="DejaVuSans-28"/>
      <path d="M 44.28125 53.078125 
L 44.28125 44.578125 
Q 40.484375 46.53125 36.375 47.5 
Q 32.28125 48.484375 27.875 48.484375 
Q 21.1875 48.484375 17.84375 46.4375 
Q 14.5 44.390625 14.5 40.28125 
Q 14.5 37.15625 16.890625 35.375 
Q 19.28125 33.59375 26.515625 31.984375 
L 29.59375 31.296875 
Q 39.15625 29.25 43.1875 25.515625 
Q 47.21875 21.78125 47.21875 15.09375 
Q 47.21875 7.46875 41.1875 3.015625 
Q 35.15625 -1.421875 24.609375 -1.421875 
Q 20.21875 -1.421875 15.453125 -0.5625 
Q 10.6875 0.296875 5.421875 2 
L 5.421875 11.28125 
Q 10.40625 8.6875 15.234375 7.390625 
Q 20.0625 6.109375 24.8125 6.109375 
Q 31.15625 6.109375 34.5625 8.28125 
Q 37.984375 10.453125 37.984375 14.40625 
Q 37.984375 18.0625 35.515625 20.015625 
Q 33.0625 21.96875 24.703125 23.78125 
L 21.578125 24.515625 
Q 13.234375 26.265625 9.515625 29.90625 
Q 5.8125 33.546875 5.8125 39.890625 
Q 5.8125 47.609375 11.28125 51.796875 
Q 16.75 56 26.8125 56 
Q 31.78125 56 36.171875 55.265625 
Q 40.578125 54.546875 44.28125 53.078125 
z
" id="DejaVuSans-73"/>
      <path d="M 48.78125 52.59375 
L 48.78125 44.1875 
Q 44.96875 46.296875 41.140625 47.34375 
Q 37.3125 48.390625 33.40625 48.390625 
Q 24.65625 48.390625 19.8125 42.84375 
Q 14.984375 37.3125 14.984375 27.296875 
Q 14.984375 17.28125 19.8125 11.734375 
Q 24.65625 6.203125 33.40625 6.203125 
Q 37.3125 6.203125 41.140625 7.25 
Q 44.96875 8.296875 48.78125 10.40625 
L 48.78125 2.09375 
Q 45.015625 0.34375 40.984375 -0.53125 
Q 36.96875 -1.421875 32.421875 -1.421875 
Q 20.0625 -1.421875 12.78125 6.34375 
Q 5.515625 14.109375 5.515625 27.296875 
Q 5.515625 40.671875 12.859375 48.328125 
Q 20.21875 56 33.015625 56 
Q 37.15625 56 41.109375 55.140625 
Q 45.0625 54.296875 48.78125 52.59375 
z
" id="DejaVuSans-63"/>
      <path d="M 30.609375 48.390625 
Q 23.390625 48.390625 19.1875 42.75 
Q 14.984375 37.109375 14.984375 27.296875 
Q 14.984375 17.484375 19.15625 11.84375 
Q 23.34375 6.203125 30.609375 6.203125 
Q 37.796875 6.203125 41.984375 11.859375 
Q 46.1875 17.53125 46.1875 27.296875 
Q 46.1875 37.015625 41.984375 42.703125 
Q 37.796875 48.390625 30.609375 48.390625 
z
M 30.609375 56 
Q 42.328125 56 49.015625 48.375 
Q 55.71875 40.765625 55.71875 27.296875 
Q 55.71875 13.875 49.015625 6.21875 
Q 42.328125 -1.421875 30.609375 -1.421875 
Q 18.84375 -1.421875 12.171875 6.21875 
Q 5.515625 13.875 5.515625 27.296875 
Q 5.515625 40.765625 12.171875 48.375 
Q 18.84375 56 30.609375 56 
z
" id="DejaVuSans-6f"/>
      <path d="M 54.890625 33.015625 
L 54.890625 0 
L 45.90625 0 
L 45.90625 32.71875 
Q 45.90625 40.484375 42.875 44.328125 
Q 39.84375 48.1875 33.796875 48.1875 
Q 26.515625 48.1875 22.3125 43.546875 
Q 18.109375 38.921875 18.109375 30.90625 
L 18.109375 0 
L 9.078125 0 
L 9.078125 54.6875 
L 18.109375 54.6875 
L 18.109375 46.1875 
Q 21.34375 51.125 25.703125 53.5625 
Q 30.078125 56 35.796875 56 
Q 45.21875 56 50.046875 50.171875 
Q 54.890625 44.34375 54.890625 33.015625 
z
" id="DejaVuSans-6e"/>
      <path d="M 45.40625 46.390625 
L 45.40625 75.984375 
L 54.390625 75.984375 
L 54.390625 0 
L 45.40625 0 
L 45.40625 8.203125 
Q 42.578125 3.328125 38.25 0.953125 
Q 33.9375 -1.421875 27.875 -1.421875 
Q 17.96875 -1.421875 11.734375 6.484375 
Q 5.515625 14.40625 5.515625 27.296875 
Q 5.515625 40.1875 11.734375 48.09375 
Q 17.96875 56 27.875 56 
Q 33.9375 56 38.25 53.625 
Q 42.578125 51.265625 45.40625 46.390625 
z
M 14.796875 27.296875 
Q 14.796875 17.390625 18.875 11.75 
Q 22.953125 6.109375 30.078125 6.109375 
Q 37.203125 6.109375 41.296875 11.75 
Q 45.40625 17.390625 45.40625 27.296875 
Q 45.40625 37.203125 41.296875 42.84375 
Q 37.203125 48.484375 30.078125 48.484375 
Q 22.953125 48.484375 18.875 42.84375 
Q 14.796875 37.203125 14.796875 27.296875 
z
" id="DejaVuSans-64"/>
      <path d="M 8.015625 75.875 
L 15.828125 75.875 
Q 23.140625 64.359375 26.78125 53.3125 
Q 30.421875 42.28125 30.421875 31.390625 
Q 30.421875 20.453125 26.78125 9.375 
Q 23.140625 -1.703125 15.828125 -13.1875 
L 8.015625 -13.1875 
Q 14.5 -2 17.703125 9.0625 
Q 20.90625 20.125 20.90625 31.390625 
Q 20.90625 42.671875 17.703125 53.65625 
Q 14.5 64.65625 8.015625 75.875 
z
" id="DejaVuSans-29"/>
     </defs>
     <g transform="translate(197.844375 335.860562)scale(0.1 -0.1)">
      <use xlink:href="#DejaVuSans-54"/>
      <use x="61.037109" xlink:href="#DejaVuSans-69"/>
      <use x="88.820312" xlink:href="#DejaVuSans-6d"/>
      <use x="186.232422" xlink:href="#DejaVuSans-65"/>
      <use x="247.755859" xlink:href="#DejaVuSans-20"/>
      <use x="279.542969" xlink:href="#DejaVuSans-28"/>
      <use x="318.556641" xlink:href="#DejaVuSans-73"/>
      <use x="370.65625" xlink:href="#DejaVuSans-65"/>
      <use x="432.179688" xlink:href="#DejaVuSans-63"/>
      <use x="487.160156" xlink:href="#DejaVuSans-6f"/>
      <use x="548.341797" xlink:href="#DejaVuSans-6e"/>
      <use x="611.720703" xlink:href="#DejaVuSans-64"/>
      <use x="675.197266" xlink:href="#DejaVuSans-73"/>
      <use x="727.296875" xlink:href="#DejaVuSans-29"/>
     </g>
    </g>
   </g>
   <g id="matplotlib.axis_2">
    <g id="ytick_1">
     <g id="line2d_7">
      <defs>
       <path d="M 0 0 
L -3.5 0 
" id="m6e63dc560c" style="stroke:#000000;stroke-width:0.8;"/>
      </defs>
      <g>
       <use style="stroke:#000000;stroke-width:0.8;" x="57.6" xlink:href="#m6e63dc560c" y="279.877411"/>
      </g>
     </g>
     <g id="text_8">
      <!-- −175 -->
      <defs>
       <path d="M 10.59375 35.5 
L 73.1875 35.5 
L 73.1875 27.203125 
L 10.59375 27.203125 
z
" id="DejaVuSans-2212"/>
       <path d="M 8.203125 72.90625 
L 55.078125 72.90625 
L 55.078125 68.703125 
L 28.609375 0 
L 18.3125 0 
L 43.21875 64.59375 
L 8.203125 64.59375 
z
" id="DejaVuSans-37"/>
       <path d="M 10.796875 72.90625 
L 49.515625 72.90625 
L 49.515625 64.59375 
L 19.828125 64.59375 
L 19.828125 46.734375 
Q 21.96875 47.46875 24.109375 47.828125 
Q 26.265625 48.1875 28.421875 48.1875 
Q 40.625 48.1875 47.75 41.5 
Q 54.890625 34.8125 54.890625 23.390625 
Q 54.890625 11.625 47.5625 5.09375 
Q 40.234375 -1.421875 26.90625 -1.421875 
Q 22.3125 -1.421875 17.546875 -0.640625 
Q 12.796875 0.140625 7.71875 1.703125 
L 7.71875 11.625 
Q 12.109375 9.234375 16.796875 8.0625 
Q 21.484375 6.890625 26.703125 6.890625 
Q 35.15625 6.890625 40.078125 11.328125 
Q 45.015625 15.765625 45.015625 23.390625 
Q 45.015625 31 40.078125 35.4375 
Q 35.15625 39.890625 26.703125 39.890625 
Q 22.75 39.890625 18.8125 39.015625 
Q 14.890625 38.140625 10.796875 36.28125 
z
" id="DejaVuSans-35"/>
      </defs>
      <g transform="translate(23.132812 283.67663)scale(0.1 -0.1)">
       <use xlink:href="#DejaVuSans-2212"/>
       <use x="83.789062" xlink:href="#DejaVuSans-31"/>
       <use x="147.412109" xlink:href="#DejaVuSans-37"/>
       <use x="211.035156" xlink:href="#DejaVuSans-35"/>
      </g>
     </g>
    </g>
    <g id="ytick_2">
     <g id="line2d_8">
      <g>
       <use style="stroke:#000000;stroke-width:0.8;" x="57.6" xlink:href="#m6e63dc560c" y="247.547496"/>
      </g>
     </g>
     <g id="text_9">
      <!-- −150 -->
      <g transform="translate(23.132812 251.346714)scale(0.1 -0.1)">
       <use xlink:href="#DejaVuSans-2212"/>
       <use x="83.789062" xlink:href="#DejaVuSans-31"/>
       <use x="147.412109" xlink:href="#DejaVuSans-35"/>
       <use x="211.035156" xlink:href="#DejaVuSans-30"/>
      </g>
     </g>
    </g>
    <g id="ytick_3">
     <g id="line2d_9">
      <g>
       <use style="stroke:#000000;stroke-width:0.8;" x="57.6" xlink:href="#m6e63dc560c" y="215.21758"/>
      </g>
     </g>
     <g id="text_10">
      <!-- −125 -->
      <g transform="translate(23.132812 219.016798)scale(0.1 -0.1)">
       <use xlink:href="#DejaVuSans-2212"/>
       <use x="83.789062" xlink:href="#DejaVuSans-31"/>
       <use x="147.412109" xlink:href="#DejaVuSans-32"/>
       <use x="211.035156" xlink:href="#DejaVuSans-35"/>
      </g>
     </g>
    </g>
    <g id="ytick_4">
     <g id="line2d_10">
      <g>
       <use style="stroke:#000000;stroke-width:0.8;" x="57.6" xlink:href="#m6e63dc560c" y="182.887664"/>
      </g>
     </g>
     <g id="text_11">
      <!-- −100 -->
      <g transform="translate(23.132812 186.686882)scale(0.1 -0.1)">
       <use xlink:href="#DejaVuSans-2212"/>
       <use x="83.789062" xlink:href="#DejaVuSans-31"/>
       <use x="147.412109" xlink:href="#DejaVuSans-30"/>
       <use x="211.035156" xlink:href="#DejaVuSans-30"/>
      </g>
     </g>
    </g>
    <g id="ytick_5">
     <g id="line2d_11">
      <g>
       <use style="stroke:#000000;stroke-width:0.8;" x="57.6" xlink:href="#m6e63dc560c" y="150.557748"/>
      </g>
     </g>
     <g id="text_12">
      <!-- −75 -->
      <g transform="translate(29.495313 154.356967)scale(0.1 -0.1)">
       <use xlink:href="#DejaVuSans-2212"/>
       <use x="83.789062" xlink:href="#DejaVuSans-37"/>
       <use x="147.412109" xlink:href="#DejaVuSans-35"/>
      </g>
     </g>
    </g>
    <g id="ytick_6">
     <g id="line2d_12">
      <g>
       <use style="stroke:#000000;stroke-width:0.8;" x="57.6" xlink:href="#m6e63dc560c" y="118.227832"/>
      </g>
     </g>
     <g id="text_13">
      <!-- −50 -->
      <g transform="translate(29.495313 122.027051)scale(0.1 -0.1)">
       <use xlink:href="#DejaVuSans-2212"/>
       <use x="83.789062" xlink:href="#DejaVuSans-35"/>
       <use x="147.412109" xlink:href="#DejaVuSans-30"/>
      </g>
     </g>
    </g>
    <g id="ytick_7">
     <g id="line2d_13">
      <g>
       <use style="stroke:#000000;stroke-width:0.8;" x="57.6" xlink:href="#m6e63dc560c" y="85.897916"/>
      </g>
     </g>
     <g id="text_14">
      <!-- −25 -->
      <g transform="translate(29.495313 89.697135)scale(0.1 -0.1)">
       <use xlink:href="#DejaVuSans-2212"/>
       <use x="83.789062" xlink:href="#DejaVuSans-32"/>
       <use x="147.412109" xlink:href="#DejaVuSans-35"/>
      </g>
     </g>
    </g>
    <g id="ytick_8">
     <g id="line2d_14">
      <g>
       <use style="stroke:#000000;stroke-width:0.8;" x="57.6" xlink:href="#m6e63dc560c" y="53.568"/>
      </g>
     </g>
     <g id="text_15">
      <!-- 0 -->
      <g transform="translate(44.2375 57.367219)scale(0.1 -0.1)">
       <use xlink:href="#DejaVuSans-30"/>
      </g>
     </g>
    </g>
    <g id="text_16">
     <!-- Mean EPSC (pA) -->
     <defs>
      <path d="M 9.8125 72.90625 
L 24.515625 72.90625 
L 43.109375 23.296875 
L 61.8125 72.90625 
L 76.515625 72.90625 
L 76.515625 0 
L 66.890625 0 
L 66.890625 64.015625 
L 48.09375 14.015625 
L 38.1875 14.015625 
L 19.390625 64.015625 
L 19.390625 0 
L 9.8125 0 
z
" id="DejaVuSans-4d"/>
      <path d="M 34.28125 27.484375 
Q 23.390625 27.484375 19.1875 25 
Q 14.984375 22.515625 14.984375 16.5 
Q 14.984375 11.71875 18.140625 8.90625 
Q 21.296875 6.109375 26.703125 6.109375 
Q 34.1875 6.109375 38.703125 11.40625 
Q 43.21875 16.703125 43.21875 25.484375 
L 43.21875 27.484375 
z
M 52.203125 31.203125 
L 52.203125 0 
L 43.21875 0 
L 43.21875 8.296875 
Q 40.140625 3.328125 35.546875 0.953125 
Q 30.953125 -1.421875 24.3125 -1.421875 
Q 15.921875 -1.421875 10.953125 3.296875 
Q 6 8.015625 6 15.921875 
Q 6 25.140625 12.171875 29.828125 
Q 18.359375 34.515625 30.609375 34.515625 
L 43.21875 34.515625 
L 43.21875 35.40625 
Q 43.21875 41.609375 39.140625 45 
Q 35.0625 48.390625 27.6875 48.390625 
Q 23 48.390625 18.546875 47.265625 
Q 14.109375 46.140625 10.015625 43.890625 
L 10.015625 52.203125 
Q 14.9375 54.109375 19.578125 55.046875 
Q 24.21875 56 28.609375 56 
Q 40.484375 56 46.34375 49.84375 
Q 52.203125 43.703125 52.203125 31.203125 
z
" id="DejaVuSans-61"/>
      <path d="M 9.8125 72.90625 
L 55.90625 72.90625 
L 55.90625 64.59375 
L 19.671875 64.59375 
L 19.671875 43.015625 
L 54.390625 43.015625 
L 54.390625 34.71875 
L 19.671875 34.71875 
L 19.671875 8.296875 
L 56.78125 8.296875 
L 56.78125 0 
L 9.8125 0 
z
" id="DejaVuSans-45"/>
      <path d="M 19.671875 64.796875 
L 19.671875 37.40625 
L 32.078125 37.40625 
Q 38.96875 37.40625 42.71875 40.96875 
Q 46.484375 44.53125 46.484375 51.125 
Q 46.484375 57.671875 42.71875 61.234375 
Q 38.96875 64.796875 32.078125 64.796875 
z
M 9.8125 72.90625 
L 32.078125 72.90625 
Q 44.34375 72.90625 50.609375 67.359375 
Q 56.890625 61.8125 56.890625 51.125 
Q 56.890625 40.328125 50.609375 34.8125 
Q 44.34375 29.296875 32.078125 29.296875 
L 19.671875 29.296875 
L 19.671875 0 
L 9.8125 0 
z
" id="DejaVuSans-50"/>
      <path d="M 53.515625 70.515625 
L 53.515625 60.890625 
Q 47.90625 63.578125 42.921875 64.890625 
Q 37.9375 66.21875 33.296875 66.21875 
Q 25.25 66.21875 20.875 63.09375 
Q 16.5 59.96875 16.5 54.203125 
Q 16.5 49.359375 19.40625 46.890625 
Q 22.3125 44.4375 30.421875 42.921875 
L 36.375 41.703125 
Q 47.40625 39.59375 52.65625 34.296875 
Q 57.90625 29 57.90625 20.125 
Q 57.90625 9.515625 50.796875 4.046875 
Q 43.703125 -1.421875 29.984375 -1.421875 
Q 24.8125 -1.421875 18.96875 -0.25 
Q 13.140625 0.921875 6.890625 3.21875 
L 6.890625 13.375 
Q 12.890625 10.015625 18.65625 8.296875 
Q 24.421875 6.59375 29.984375 6.59375 
Q 38.421875 6.59375 43.015625 9.90625 
Q 47.609375 13.234375 47.609375 19.390625 
Q 47.609375 24.75 44.3125 27.78125 
Q 41.015625 30.8125 33.5 32.328125 
L 27.484375 33.5 
Q 16.453125 35.6875 11.515625 40.375 
Q 6.59375 45.0625 6.59375 53.421875 
Q 6.59375 63.09375 13.40625 68.65625 
Q 20.21875 74.21875 32.171875 74.21875 
Q 37.3125 74.21875 42.625 73.28125 
Q 47.953125 72.359375 53.515625 70.515625 
z
" id="DejaVuSans-53"/>
      <path d="M 64.40625 67.28125 
L 64.40625 56.890625 
Q 59.421875 61.53125 53.78125 63.8125 
Q 48.140625 66.109375 41.796875 66.109375 
Q 29.296875 66.109375 22.65625 58.46875 
Q 16.015625 50.828125 16.015625 36.375 
Q 16.015625 21.96875 22.65625 14.328125 
Q 29.296875 6.6875 41.796875 6.6875 
Q 48.140625 6.6875 53.78125 8.984375 
Q 59.421875 11.28125 64.40625 15.921875 
L 64.40625 5.609375 
Q 59.234375 2.09375 53.4375 0.328125 
Q 47.65625 -1.421875 41.21875 -1.421875 
Q 24.65625 -1.421875 15.125 8.703125 
Q 5.609375 18.84375 5.609375 36.375 
Q 5.609375 53.953125 15.125 64.078125 
Q 24.65625 74.21875 41.21875 74.21875 
Q 47.75 74.21875 53.53125 72.484375 
Q 59.328125 70.75 64.40625 67.28125 
z
" id="DejaVuSans-43"/>
      <path d="M 18.109375 8.203125 
L 18.109375 -20.796875 
L 9.078125 -20.796875 
L 9.078125 54.6875 
L 18.109375 54.6875 
L 18.109375 46.390625 
Q 20.953125 51.265625 25.265625 53.625 
Q 29.59375 56 35.59375 56 
Q 45.5625 56 51.78125 48.09375 
Q 58.015625 40.1875 58.015625 27.296875 
Q 58.015625 14.40625 51.78125 6.484375 
Q 45.5625 -1.421875 35.59375 -1.421875 
Q 29.59375 -1.421875 25.265625 0.953125 
Q 20.953125 3.328125 18.109375 8.203125 
z
M 48.6875 27.296875 
Q 48.6875 37.203125 44.609375 42.84375 
Q 40.53125 48.484375 33.40625 48.484375 
Q 26.265625 48.484375 22.1875 42.84375 
Q 18.109375 37.203125 18.109375 27.296875 
Q 18.109375 17.390625 22.1875 11.75 
Q 26.265625 6.109375 33.40625 6.109375 
Q 40.53125 6.109375 44.609375 11.75 
Q 48.6875 17.390625 48.6875 27.296875 
z
" id="DejaVuSans-70"/>
      <path d="M 34.1875 63.1875 
L 20.796875 26.90625 
L 47.609375 26.90625 
z
M 28.609375 72.90625 
L 39.796875 72.90625 
L 67.578125 0 
L 57.328125 0 
L 50.6875 18.703125 
L 17.828125 18.703125 
L 11.1875 0 
L 0.78125 0 
z
" id="DejaVuSans-41"/>
     </defs>
     <g transform="translate(17.053125 214.6655)rotate(-90)scale(0.1 -0.1)">
      <use xlink:href="#DejaVuSans-4d"/>
      <use x="86.279297" xlink:href="#DejaVuSans-65"/>
      <use x="147.802734" xlink:href="#DejaVuSans-61"/>
      <use x="209.082031" xlink:href="#DejaVuSans-6e"/>
      <use x="272.460938" xlink:href="#DejaVuSans-20"/>
      <use x="304.248047" xlink:href="#DejaVuSans-45"/>
      <use x="367.431641" xlink:href="#DejaVuSans-50"/>
      <use x="427.734375" xlink:href="#DejaVuSans-53"/>
      <use x="491.210938" xlink:href="#DejaVuSans-43"/>
      <use x="561.035156" xlink:href="#DejaVuSans-20"/>
      <use x="592.822266" xlink:href="#DejaVuSans-28"/>
      <use x="631.835938" xlink:href="#DejaVuSans-70"/>
      <use x="695.3125" xlink:href="#DejaVuSans-41"/>
      <use x="763.720703" xlink:href="#DejaVuSans-29"/>
     </g>
    </g>
   </g>
   <g id="line2d_15">
    <path clip-path="url(#pd683075f94)" d="M 73.832727 53.568 
L 106.299805 53.568 
L 106.575775 70.125759 
L 106.819278 74.421932 
L 106.949147 74.848844 
L 106.981614 74.833156 
L 107.095249 74.504683 
L 107.354985 72.791775 
L 108.767303 62.248104 
L 109.416645 59.397098 
L 110.065986 57.476802 
L 110.731561 56.162273 
L 111.429603 55.255623 
L 112.19258 54.622771 
L 113.085424 54.17655 
L 114.221772 53.870197 
L 115.86136 53.678066 
L 118.880798 53.585134 
L 122.533344 53.569806 
L 122.809314 70.41002 
L 123.052817 74.779342 
L 123.182686 75.213443 
L 123.215153 75.197463 
L 123.328788 74.863301 
L 123.588524 73.12098 
L 125.000842 62.396719 
L 125.650184 59.496899 
L 126.299525 57.543726 
L 126.9651 56.20669 
L 127.663142 55.284517 
L 128.426119 54.64083 
L 129.30273 54.19319 
L 130.422844 53.88158 
L 132.029964 53.684519 
L 134.935768 53.587454 
L 145.877173 53.568023 
L 398.487273 53.568 
L 398.487273 53.568 
" style="fill:none;stroke:#1f77b4;stroke-linecap:square;stroke-width:1.5;"/>
   </g>
   <g id="line2d_16">
    <path clip-path="url(#pd683075f94)" d="M 73.832727 53.568 
L 106.299805 53.568 
L 106.575775 78.383509 
L 106.819278 84.822286 
L 106.949147 85.462109 
L 106.981614 85.438597 
L 107.079015 85.0496 
L 107.306285 82.952863 
L 108.945872 65.231491 
L 109.595214 61.395481 
L 110.244555 58.816164 
L 110.893897 57.086118 
L 111.575705 55.879591 
L 112.289981 55.056752 
L 113.085424 54.480049 
L 114.02697 54.078655 
L 115.260719 53.806816 
L 117.143809 53.642866 
L 121.039859 53.574792 
L 122.533344 53.570707 
L 122.809314 78.963342 
L 123.052817 85.551655 
L 123.182686 86.206218 
L 123.215153 86.182124 
L 123.312554 85.783969 
L 123.539824 83.638215 
L 125.179411 65.503475 
L 125.828753 61.578011 
L 126.478094 58.938546 
L 127.127436 57.168157 
L 127.793011 55.957269 
L 128.507286 55.106779 
L 129.286496 54.520171 
L 130.211808 54.106477 
L 131.41309 53.824915 
L 133.215013 53.652669 
L 136.802625 53.577288 
L 157.938693 53.568 
L 398.487273 53.568 
L 398.487273 53.568 
" style="fill:none;stroke:#ff7f0e;stroke-linecap:square;stroke-width:1.5;"/>
   </g>
   <g id="line2d_17">
    <path clip-path="url(#pd683075f94)" d="M 73.832727 53.568 
L 106.299805 53.568 
L 106.575775 86.401787 
L 106.819278 94.921033 
L 106.949147 95.767593 
L 106.981614 95.736485 
L 107.079015 95.221796 
L 107.306285 92.447571 
L 108.945872 69.000147 
L 109.595214 63.924662 
L 110.244555 60.511927 
L 110.893897 58.222877 
L 111.559472 56.65724 
L 112.24128 55.597779 
L 112.97179 54.862245 
L 113.7997 54.345188 
L 114.80618 53.986084 
L 116.18603 53.746695 
L 118.426259 53.612956 
L 122.533344 53.571581 
L 122.809314 87.515635 
L 123.052817 96.322682 
L 123.182686 97.197682 
L 123.215153 97.165474 
L 123.312554 96.633236 
L 123.539824 93.764864 
L 125.179411 69.522947 
L 125.828753 64.275517 
L 126.478094 60.747168 
L 127.127436 58.380571 
L 127.793011 56.761895 
L 128.474819 55.666543 
L 129.205329 54.90609 
L 130.017006 54.379593 
L 131.007251 54.00898 
L 132.338402 53.762221 
L 134.464995 53.620405 
L 139.481159 53.570385 
L 217.126176 53.568 
L 398.487273 53.568 
L 398.487273 53.568 
" style="fill:none;stroke:#2ca02c;stroke-linecap:square;stroke-width:1.5;"/>
   </g>
   <g id="line2d_18">
    <path clip-path="url(#pd683075f94)" d="M 73.832727 53.568 
L 106.299805 53.568 
L 106.575775 95.111313 
L 106.819278 105.890384 
L 106.949147 106.961503 
L 106.981614 106.922143 
L 107.079015 106.270928 
L 107.306285 102.760809 
L 108.945872 73.093696 
L 109.595214 66.671882 
L 110.244555 62.353881 
L 110.893897 59.457635 
L 111.543238 57.515978 
L 112.208813 56.188082 
L 112.906856 55.272388 
L 113.669832 54.633246 
L 114.562676 54.182594 
L 115.699024 53.873198 
L 117.338612 53.679159 
L 120.341816 53.585478 
L 122.533344 53.572531 
L 122.809314 96.406069 
L 123.052817 107.519561 
L 123.182686 108.623711 
L 123.215153 108.583068 
L 123.312554 107.911444 
L 123.539824 104.291883 
L 125.179411 73.701333 
L 125.828753 67.079672 
L 126.478094 62.627296 
L 127.127436 59.640919 
L 127.776777 57.638839 
L 128.442352 56.269618 
L 129.140394 55.325428 
L 129.903371 54.666397 
L 130.779982 54.208089 
L 131.883863 53.89228 
L 133.458516 53.690929 
L 136.266918 53.589793 
L 146.201844 53.568048 
L 398.487273 53.568 
L 398.487273 53.568 
" style="fill:none;stroke:#d62728;stroke-linecap:square;stroke-width:1.5;"/>
   </g>
   <g id="line2d_19">
    <path clip-path="url(#pd683075f94)" d="M 73.832727 53.568 
L 106.299805 53.568 
L 106.575775 102.917286 
L 106.819278 115.721741 
L 106.949147 116.994122 
L 106.981614 116.947367 
L 107.079015 116.173789 
L 107.306285 112.004119 
L 108.945872 76.762567 
L 109.595214 69.134096 
L 110.244555 64.004745 
L 110.893897 60.564295 
L 111.543238 58.257802 
L 112.208813 56.680394 
L 112.890622 55.61299 
L 113.621131 54.871943 
L 114.449042 54.351012 
L 115.455521 53.989217 
L 116.819138 53.749844 
L 119.0269 53.614672 
L 122.533344 53.573382 
L 122.809314 105.529855 
L 123.052817 119.010372 
L 123.182686 120.349696 
L 123.215153 120.300398 
L 123.312554 119.485732 
L 123.539824 115.095267 
L 125.179411 77.989416 
L 125.828753 69.957446 
L 126.478094 64.556783 
L 127.127436 60.934355 
L 127.776777 58.505863 
L 128.442352 56.845021 
L 129.124161 55.721157 
L 129.85467 54.940913 
L 130.666347 54.400714 
L 131.640359 54.025003 
L 132.955276 53.771302 
L 135.016936 53.625094 
L 139.724662 53.571141 
L 199.058247 53.568 
L 398.487273 53.568 
L 398.487273 53.568 
" style="fill:none;stroke:#9467bd;stroke-linecap:square;stroke-width:1.5;"/>
   </g>
   <g id="line2d_20">
    <path clip-path="url(#pd683075f94)" d="M 73.832727 53.568 
L 106.299805 53.568 
L 106.575775 111.501039 
L 106.819278 126.532685 
L 106.949147 128.026383 
L 106.981614 127.971495 
L 107.079015 127.063362 
L 107.306285 122.168425 
L 108.945872 80.797001 
L 109.595214 71.841644 
L 110.244555 65.820099 
L 110.893897 61.781222 
L 111.543238 59.07354 
L 112.19258 57.258481 
L 112.858155 56.01719 
L 113.556197 55.16122 
L 114.335407 54.553858 
L 115.244485 54.131131 
L 116.429533 53.839378 
L 118.182756 53.660159 
L 121.575565 53.579399 
L 122.533344 53.574319 
L 122.809314 114.169738 
L 123.052817 129.891695 
L 123.182686 131.45371 
L 123.215153 131.396215 
L 123.312554 130.44609 
L 123.539824 125.325606 
L 125.179411 82.050043 
L 125.828753 72.682572 
L 126.478094 66.383924 
L 127.127436 62.159183 
L 127.776777 59.326898 
L 128.426119 57.428312 
L 129.091694 56.129898 
L 129.789736 55.234538 
L 130.552712 54.60959 
L 131.445557 54.168945 
L 132.581905 53.866421 
L 134.237726 53.675609 
L 137.305865 53.584257 
L 150.08166 53.568006 
L 398.487273 53.568 
L 398.487273 53.568 
" style="fill:none;stroke:#8c564b;stroke-linecap:square;stroke-width:1.5;"/>
   </g>
   <g id="line2d_21">
    <path clip-path="url(#pd683075f94)" d="M 73.832727 53.568 
L 106.299805 53.568 
L 106.575775 119.223499 
L 106.819278 136.25886 
L 106.949147 137.951667 
L 106.981614 137.889462 
L 107.079015 136.860275 
L 107.306285 131.312845 
L 108.945872 84.42662 
L 109.595214 74.277516 
L 110.244555 67.453301 
L 110.893897 62.876042 
L 111.543238 59.807427 
L 112.19258 57.750421 
L 112.858155 56.343666 
L 113.556197 55.373596 
L 114.30294 54.707843 
L 115.163317 54.238917 
L 116.250965 53.911314 
L 117.776917 53.702108 
L 120.439218 53.594014 
L 122.533344 53.575161 
L 122.809314 123.27943 
L 123.052817 141.364757 
L 123.182686 143.161584 
L 123.215153 143.095447 
L 123.312554 142.002501 
L 123.539824 136.112305 
L 125.179411 86.331504 
L 125.828753 75.555901 
L 126.478094 68.310431 
L 127.127436 63.450621 
L 127.776777 60.192583 
L 128.426119 58.0086 
L 129.091694 56.515006 
L 129.773502 55.504321 
L 130.520245 54.790368 
L 131.364389 54.294723 
L 132.403336 53.951195 
L 133.848121 53.725361 
L 136.266918 53.603465 
L 142.97137 53.56857 
L 398.487273 53.568 
L 398.487273 53.568 
" style="fill:none;stroke:#e377c2;stroke-linecap:square;stroke-width:1.5;"/>
   </g>
   <g id="line2d_22">
    <path clip-path="url(#pd683075f94)" d="M 73.832727 53.568 
L 106.299805 53.568 
L 106.575775 127.855549 
L 106.819278 147.130632 
L 106.949147 149.046001 
L 106.981614 148.975618 
L 107.079015 147.811119 
L 107.306285 141.53434 
L 108.945872 88.483754 
L 109.595214 77.000297 
L 110.244555 69.27887 
L 110.893897 64.099816 
L 111.543238 60.627756 
L 112.19258 58.300305 
L 112.858155 56.708597 
L 113.539964 55.631519 
L 114.270473 54.883758 
L 115.098383 54.358107 
L 116.104863 53.993034 
L 117.46848 53.751491 
L 119.660008 53.615568 
L 122.533344 53.576102 
L 122.809314 132.68603 
L 123.052817 153.211731 
L 123.182686 155.251017 
L 123.215153 155.175956 
L 123.312554 153.935533 
L 123.539824 147.250536 
L 125.179411 90.752493 
L 125.828753 78.522869 
L 126.478094 70.299722 
L 127.127436 64.784147 
L 127.776777 61.086481 
L 128.426119 58.607798 
L 129.07546 56.946279 
L 129.757269 55.787688 
L 130.471545 54.99756 
L 131.266988 54.443786 
L 132.224767 54.053472 
L 133.490983 53.790543 
L 135.455241 53.634362 
L 139.692195 53.57288 
L 178.457886 53.568 
L 398.487273 53.568 
L 398.487273 53.568 
" style="fill:none;stroke:#7f7f7f;stroke-linecap:square;stroke-width:1.5;"/>
   </g>
   <g id="line2d_23">
    <path clip-path="url(#pd683075f94)" d="M 73.832727 53.568 
L 106.299805 53.568 
L 106.575775 136.095188 
L 106.819278 157.508175 
L 106.949147 159.635988 
L 106.981614 159.557799 
L 107.079015 158.264138 
L 107.306285 151.291168 
L 108.945872 92.356451 
L 109.595214 79.599302 
L 110.244555 71.021448 
L 110.893897 65.267957 
L 111.543238 61.410792 
L 112.19258 58.825191 
L 112.841921 57.092002 
L 113.52373 55.883434 
L 114.238006 55.059224 
L 115.033449 54.481563 
L 115.974994 54.079503 
L 117.208743 53.807213 
L 119.091834 53.64299 
L 122.533344 53.577001 
L 122.809314 141.857146 
L 123.052817 164.762137 
L 123.182686 167.037813 
L 123.215153 166.954053 
L 123.312554 165.569845 
L 123.539824 158.109944 
L 125.179411 95.062813 
L 125.828753 81.415566 
L 126.478094 72.239215 
L 127.127436 66.08429 
L 127.776777 61.958001 
L 128.426119 59.191997 
L 129.07546 57.337879 
L 129.741035 56.069882 
L 130.439078 55.195497 
L 131.218287 54.575068 
L 132.127366 54.143246 
L 133.29618 53.848002 
L 135.016936 53.665008 
L 138.29611 53.580869 
L 154.010176 53.568001 
L 398.487273 53.568 
L 398.487273 53.568 
" style="fill:none;stroke:#bcbd22;stroke-linecap:square;stroke-width:1.5;"/>
   </g>
   <g id="line2d_24">
    <path clip-path="url(#pd683075f94)" d="M 73.832727 53.568 
L 106.299805 53.568 
L 106.575775 144.497828 
L 106.819278 168.091014 
L 106.949147 170.435473 
L 106.981614 170.349323 
L 107.079015 168.923946 
L 107.306285 161.241012 
L 108.945872 96.30576 
L 109.595214 82.249721 
L 110.244555 72.798499 
L 110.893897 66.459207 
L 111.543238 62.209318 
L 112.19258 59.36046 
L 112.841921 57.450804 
L 113.507496 56.144824 
L 114.205539 55.244247 
L 114.968515 54.615658 
L 115.86136 54.172446 
L 116.997707 53.868159 
L 118.653528 53.676236 
L 121.705434 53.584516 
L 122.533344 53.577918 
L 122.809314 151.789959 
L 123.052817 177.271867 
L 123.182686 179.803572 
L 123.215153 179.710389 
L 123.312554 178.170455 
L 123.539824 169.871292 
L 125.179411 99.731132 
L 125.828753 84.548519 
L 126.478094 74.339796 
L 127.127436 67.492419 
L 127.776777 62.901907 
L 128.426119 59.824717 
L 129.07546 57.762005 
L 129.741035 56.351353 
L 130.439078 55.378596 
L 131.18582 54.711 
L 132.046198 54.240775 
L 133.133845 53.912265 
L 134.659798 53.702479 
L 137.322098 53.594086 
L 145.893407 53.568133 
L 398.487273 53.568 
L 398.487273 53.568 
" style="fill:none;stroke:#17becf;stroke-linecap:square;stroke-width:1.5;"/>
   </g>
   <g id="line2d_25">
    <path clip-path="url(#pd683075f94)" d="M 73.832727 53.568 
L 106.299805 53.568 
L 106.575775 152.771676 
L 106.819278 178.511643 
L 106.949147 181.069429 
L 106.981614 180.97544 
L 107.079015 179.420366 
L 107.306285 171.038349 
L 108.945872 100.194536 
L 109.595214 84.859516 
L 110.244555 74.548313 
L 110.893897 67.632199 
L 111.543238 62.995605 
L 112.19258 59.887525 
L 112.841921 57.804106 
L 113.507496 56.379293 
L 114.205539 55.396772 
L 114.952281 54.722474 
L 115.812659 54.247529 
L 116.884073 53.919215 
L 118.393792 53.706573 
L 121.007391 53.595699 
L 122.533344 53.57882 
L 122.809314 160.716576 
L 123.052817 188.514333 
L 123.182686 191.276124 
L 123.215153 191.174472 
L 123.312554 189.494587 
L 123.539824 180.441178 
L 125.179411 103.926533 
L 125.828753 87.364094 
L 126.478094 76.22758 
L 127.111202 68.910552 
L 127.760544 63.852524 
L 128.409885 60.461937 
L 129.059227 58.189146 
L 129.724802 56.634825 
L 130.406611 55.583048 
L 131.13712 54.852851 
L 131.96503 54.339547 
L 132.97151 53.98305 
L 134.35136 53.745398 
L 136.591589 53.61263 
L 142.224627 53.569389 
L 274.381867 53.568 
L 398.487273 53.568 
L 398.487273 53.568 
" style="fill:none;stroke:#1f77b4;stroke-linecap:square;stroke-width:1.5;"/>
   </g>
   <g id="line2d_26">
    <path clip-path="url(#pd683075f94)" d="M 73.832727 53.568 
L 106.299805 53.568 
L 106.575775 160.953962 
L 106.819278 188.816953 
L 106.949147 191.585704 
L 106.981614 191.483963 
L 107.079015 189.800627 
L 107.306285 180.727264 
L 108.945872 104.040278 
L 109.595214 87.44043 
L 110.244555 76.278762 
L 110.877663 68.945207 
L 111.527005 63.875754 
L 112.176346 60.477508 
L 112.825688 58.199584 
L 113.491263 56.641752 
L 114.173072 55.587599 
L 114.903581 54.855753 
L 115.731491 54.34129 
L 116.737971 53.983987 
L 118.117822 53.745799 
L 120.35805 53.61273 
L 122.533344 53.579712 
L 122.809314 170.378704 
L 123.052817 200.683154 
L 123.182686 203.693996 
L 123.215153 203.583179 
L 123.312554 201.751812 
L 123.539824 191.882013 
L 125.179411 108.467634 
L 125.828753 90.411669 
L 126.478094 78.270916 
L 127.111202 70.294073 
L 127.760544 64.779935 
L 128.409885 61.0836 
L 129.059227 58.605859 
L 129.708568 56.944978 
L 130.390377 55.786833 
L 131.104653 54.997009 
L 131.900096 54.443449 
L 132.857875 54.053285 
L 134.124091 53.790458 
L 136.088349 53.634336 
L 140.325303 53.572878 
L 179.107227 53.568 
L 398.487273 53.568 
L 398.487273 53.568 
" style="fill:none;stroke:#ff7f0e;stroke-linecap:square;stroke-width:1.5;"/>
   </g>
   <g id="line2d_27">
    <path clip-path="url(#pd683075f94)" d="M 73.832727 53.568 
L 106.299805 53.568 
L 106.575775 169.168446 
L 106.819278 199.162815 
L 106.949147 202.143362 
L 106.981614 202.033837 
L 107.079015 200.221735 
L 107.306285 190.454306 
L 108.945872 107.901152 
L 109.595214 90.0315 
L 110.244555 78.016021 
L 110.877663 70.121486 
L 111.527005 64.664245 
L 112.176346 61.006051 
L 112.825688 58.553877 
L 113.491263 56.876878 
L 114.173072 55.742088 
L 114.887347 54.968192 
L 115.699024 54.417259 
L 116.673037 54.034083 
L 117.97172 53.777425 
L 120.000912 53.628001 
L 122.533344 53.580608 
L 122.809314 180.546947 
L 123.052817 213.489407 
L 123.182686 216.762349 
L 123.215153 216.641887 
L 123.312554 214.651104 
L 123.539824 203.922151 
L 125.179411 113.246611 
L 125.828753 93.618887 
L 126.478094 80.421289 
L 127.111202 71.750066 
L 127.760544 65.755926 
L 128.409885 61.737828 
L 129.059227 59.044402 
L 129.708568 57.238942 
L 130.374143 56.004222 
L 131.088419 55.137016 
L 131.867629 54.538881 
L 132.792941 54.117058 
L 133.994223 53.829963 
L 135.779912 53.6552 
L 139.30259 53.577956 
L 159.139974 53.568 
L 398.487273 53.568 
L 398.487273 53.568 
" style="fill:none;stroke:#2ca02c;stroke-linecap:square;stroke-width:1.5;"/>
   </g>
   <g id="line2d_28">
    <path clip-path="url(#pd683075f94)" d="M 73.832727 53.568 
L 106.299805 53.568 
L 106.575775 177.488579 
L 106.819278 209.641739 
L 106.949147 212.836805 
L 106.981614 212.719397 
L 107.079015 210.776872 
L 107.306285 200.30645 
L 108.945872 111.811682 
L 109.595214 92.655894 
L 110.244555 79.775623 
L 110.877663 71.312893 
L 111.527005 65.462877 
L 112.176346 61.541391 
L 112.825688 58.912726 
L 113.475029 57.150677 
L 114.140604 55.945645 
L 114.85488 55.09929 
L 115.63409 54.515537 
L 116.559402 54.103856 
L 117.760684 53.823664 
L 119.562606 53.652256 
L 122.533344 53.581516 
L 122.809314 190.102433 
L 123.052817 225.52391 
L 123.182686 229.043152 
L 123.215153 228.913626 
L 123.312554 226.773033 
L 123.539824 215.236699 
L 125.179411 117.737585 
L 125.828753 96.632822 
L 126.478094 82.44207 
L 127.111202 73.118315 
L 127.760544 66.6731 
L 128.409885 62.352629 
L 129.059227 59.456516 
L 129.708568 57.51519 
L 130.374143 56.187554 
L 131.072186 55.272044 
L 131.835162 54.633031 
L 132.728007 54.18247 
L 133.864354 53.873137 
L 135.503942 53.679137 
L 138.507146 53.585475 
L 150.503732 53.568011 
L 398.487273 53.568 
L 398.487273 53.568 
" style="fill:none;stroke:#d62728;stroke-linecap:square;stroke-width:1.5;"/>
   </g>
   <g id="line2d_29">
    <path clip-path="url(#pd683075f94)" d="M 73.832727 53.568 
L 106.299805 53.568 
L 106.575775 185.642692 
L 106.819278 219.911565 
L 106.949147 223.31687 
L 106.981614 223.191737 
L 107.079015 221.121392 
L 107.306285 209.962004 
L 108.945872 115.644182 
L 109.595214 95.227921 
L 110.244555 81.500114 
L 110.877663 72.480527 
L 111.527005 66.245574 
L 112.176346 62.066049 
L 112.825688 59.264415 
L 113.475029 57.386421 
L 114.140604 56.102096 
L 114.838647 55.216453 
L 115.601623 54.598287 
L 116.494468 54.162424 
L 117.647049 53.860245 
L 119.319103 53.672333 
L 122.452176 53.583144 
L 122.533344 53.582405 
L 122.809314 200.074464 
L 123.052817 238.083043 
L 123.182686 241.859327 
L 123.215153 241.720342 
L 123.312554 239.423409 
L 123.539824 227.0445 
L 125.179411 122.424342 
L 125.828753 99.77815 
L 126.478094 84.550947 
L 127.111202 74.546213 
L 127.74431 67.771585 
L 128.393652 63.088968 
L 129.042993 59.950098 
L 129.692335 57.846049 
L 130.35791 56.407128 
L 131.055952 55.414879 
L 131.802695 54.733904 
L 132.663072 54.254257 
L 133.734486 53.922693 
L 135.244205 53.707945 
L 137.841571 53.596254 
L 145.877173 53.5682 
L 398.487273 53.568 
L 398.487273 53.568 
" style="fill:none;stroke:#9467bd;stroke-linecap:square;stroke-width:1.5;"/>
   </g>
   <g id="line2d_30">
    <path clip-path="url(#pd683075f94)" d="M 73.832727 53.568 
L 106.299805 53.568 
L 106.575775 193.514067 
L 106.819278 229.825293 
L 106.949147 233.433547 
L 106.981614 233.300957 
L 107.079015 231.107223 
L 107.306285 219.28276 
L 108.945872 119.343792 
L 109.595214 97.710766 
L 110.244555 83.164809 
L 110.877663 73.607674 
L 111.527005 67.00113 
L 112.176346 62.572515 
L 112.825688 59.603909 
L 113.475029 57.613991 
L 114.140604 56.253123 
L 114.838647 55.314697 
L 115.601623 54.65969 
L 116.478234 54.20418 
L 117.582115 53.8903 
L 119.173002 53.688963 
L 122.013871 53.58902 
L 122.533344 53.583264 
L 122.809314 209.976036 
L 123.052817 250.553446 
L 123.182686 254.584958 
L 123.215153 254.43658 
L 123.312554 251.984413 
L 123.539824 238.768883 
L 125.179411 127.07799 
L 125.828753 102.901257 
L 126.478094 86.644926 
L 127.111202 75.964023 
L 127.74431 68.731532 
L 128.393652 63.732441 
L 129.042993 60.381432 
L 129.692335 58.13518 
L 130.35791 56.59901 
L 131.039719 55.559516 
L 131.770228 54.837846 
L 132.598138 54.330537 
L 133.620851 53.974121 
L 135.016936 53.739855 
L 137.305865 53.609957 
L 143.214873 53.569101 
L 309.413845 53.568 
L 398.487273 53.568 
L 398.487273 53.568 
" style="fill:none;stroke:#8c564b;stroke-linecap:square;stroke-width:1.5;"/>
   </g>
   <g id="line2d_31">
    <path clip-path="url(#pd683075f94)" d="M 73.832727 53.568 
L 106.299805 53.568 
L 106.575775 201.839231 
L 106.819278 240.310553 
L 106.949147 244.133456 
L 106.981614 243.992979 
L 107.079015 241.668743 
L 107.306285 229.140861 
L 108.945872 123.256687 
L 109.595214 100.336747 
L 110.244555 84.925475 
L 110.877663 74.799802 
L 111.510771 67.943281 
L 112.160113 63.204059 
L 112.809454 60.027246 
L 113.458796 57.897763 
L 114.124371 56.441448 
L 114.80618 55.45599 
L 115.552922 54.759857 
L 116.397066 54.276584 
L 117.452246 53.937913 
L 118.929498 53.716899 
L 121.429463 53.599921 
L 122.533344 53.584172 
L 122.809314 220.731899 
L 123.052817 264.099784 
L 123.182686 268.408545 
L 123.215153 268.249966 
L 123.312554 265.629172 
L 123.539824 251.504837 
L 125.179411 132.133151 
L 125.828753 106.293825 
L 126.478094 88.919572 
L 127.111202 77.50416 
L 127.74431 69.774304 
L 128.393652 64.431433 
L 129.042993 60.84998 
L 129.692335 58.449258 
L 130.35791 56.807448 
L 131.039719 55.696469 
L 131.770228 54.925172 
L 132.581905 54.391166 
L 133.572151 54.015268 
L 134.903301 53.764991 
L 137.013661 53.621686 
L 141.932423 53.570594 
L 213.441162 53.568 
L 398.487273 53.568 
L 398.487273 53.568 
" style="fill:none;stroke:#e377c2;stroke-linecap:square;stroke-width:1.5;"/>
   </g>
   <g id="line2d_32">
    <path clip-path="url(#pd683075f94)" d="M 73.832727 53.568 
L 106.299805 53.568 
L 106.575775 210.526621 
L 106.819278 251.252025 
L 106.949147 255.298916 
L 106.981614 255.150208 
L 107.079015 252.689792 
L 107.306285 239.427887 
L 108.945872 127.339831 
L 109.595214 103.076984 
L 110.244555 86.762747 
L 110.877663 76.043798 
L 111.510771 68.785546 
L 112.160113 63.768647 
L 112.809454 60.405701 
L 113.458796 58.151449 
L 114.124371 56.609807 
L 114.80618 55.56661 
L 115.536689 54.84237 
L 116.364599 54.333253 
L 117.387312 53.975568 
L 118.783397 53.740467 
L 121.072326 53.610107 
L 122.533344 53.585119 
L 122.809314 231.219145 
L 123.052817 277.307793 
L 123.182686 281.886876 
L 123.215153 281.718349 
L 123.312554 278.933137 
L 123.539824 263.922695 
L 125.179411 137.062052 
L 125.828753 109.601657 
L 126.478094 91.137405 
L 127.111202 79.005831 
L 127.74431 70.79103 
L 128.393652 65.112967 
L 129.042993 61.306826 
L 129.692335 58.755491 
L 130.341676 57.045279 
L 131.023485 55.852735 
L 131.737761 55.039453 
L 132.533204 54.469451 
L 133.474749 54.072721 
L 134.724732 53.801692 
L 136.624056 53.64053 
L 140.617507 53.574197 
L 171.493698 53.568 
L 398.487273 53.568 
L 398.487273 53.568 
" style="fill:none;stroke:#7f7f7f;stroke-linecap:square;stroke-width:1.5;"/>
   </g>
   <g id="line2d_33">
    <path clip-path="url(#pd683075f94)" d="M 73.832727 53.568 
L 106.299805 53.568 
L 106.575775 218.394978 
L 106.819278 261.161951 
L 106.949147 265.411714 
L 106.981614 265.25555 
L 107.079015 262.671794 
L 107.306285 248.745068 
L 108.945872 131.038023 
L 109.595214 105.558876 
L 110.244555 88.426805 
L 110.877663 77.170513 
L 111.510771 69.548403 
L 112.160113 64.280007 
L 112.809454 60.748476 
L 113.458796 58.381218 
L 114.124371 56.762293 
L 114.80618 55.6668 
L 115.536689 54.906254 
L 116.348366 54.379692 
L 117.338612 54.009034 
L 118.669762 53.762245 
L 120.796355 53.620411 
L 122.533344 53.585978 
L 122.809314 241.801903 
L 123.052817 290.636127 
L 123.182686 295.488 
L 123.215153 295.309436 
L 123.312554 292.358312 
L 123.539824 276.453693 
L 125.179411 142.035863 
L 125.828753 112.939629 
L 126.478094 93.375446 
L 127.111202 80.521184 
L 127.74431 71.81702 
L 128.393652 65.80071 
L 129.042993 61.767834 
L 129.692335 59.064514 
L 130.341676 57.252423 
L 131.007251 56.013169 
L 131.721527 55.142778 
L 132.500737 54.542446 
L 133.426049 54.119074 
L 134.611097 53.833568 
L 136.380553 53.657288 
L 139.838297 53.578611 
L 158.539334 53.568 
L 398.487273 53.568 
L 398.487273 53.568 
" style="fill:none;stroke:#bcbd22;stroke-linecap:square;stroke-width:1.5;"/>
   </g>
   <g id="patch_3">
    <path d="M 57.6 307.584 
L 57.6 41.472 
" style="fill:none;stroke:#000000;stroke-linecap:square;stroke-linejoin:miter;stroke-width:0.8;"/>
   </g>
   <g id="patch_4">
    <path d="M 414.72 307.584 
L 414.72 41.472 
" style="fill:none;stroke:#000000;stroke-linecap:square;stroke-linejoin:miter;stroke-width:0.8;"/>
   </g>
   <g id="patch_5">
    <path d="M 57.6 307.584 
L 414.72 307.584 
" style="fill:none;stroke:#000000;stroke-linecap:square;stroke-linejoin:miter;stroke-width:0.8;"/>
   </g>
   <g id="patch_6">
    <path d="M 57.6 41.472 
L 414.72 41.472 
" style="fill:none;stroke:#000000;stroke-linecap:square;stroke-linejoin:miter;stroke-width:0.8;"/>
   </g>
   <g id="text_17">
    <!-- Mean EPSC across conditions -->
    <defs>
     <path d="M 41.109375 46.296875 
Q 39.59375 47.171875 37.8125 47.578125 
Q 36.03125 48 33.890625 48 
Q 26.265625 48 22.1875 43.046875 
Q 18.109375 38.09375 18.109375 28.8125 
L 18.109375 0 
L 9.078125 0 
L 9.078125 54.6875 
L 18.109375 54.6875 
L 18.109375 46.1875 
Q 20.953125 51.171875 25.484375 53.578125 
Q 30.03125 56 36.53125 56 
Q 37.453125 56 38.578125 55.875 
Q 39.703125 55.765625 41.0625 55.515625 
z
" id="DejaVuSans-72"/>
     <path d="M 18.3125 70.21875 
L 18.3125 54.6875 
L 36.8125 54.6875 
L 36.8125 47.703125 
L 18.3125 47.703125 
L 18.3125 18.015625 
Q 18.3125 11.328125 20.140625 9.421875 
Q 21.96875 7.515625 27.59375 7.515625 
L 36.8125 7.515625 
L 36.8125 0 
L 27.59375 0 
Q 17.1875 0 13.234375 3.875 
Q 9.28125 7.765625 9.28125 18.015625 
L 9.28125 47.703125 
L 2.6875 47.703125 
L 2.6875 54.6875 
L 9.28125 54.6875 
L 9.28125 70.21875 
z
" id="DejaVuSans-74"/>
    </defs>
    <g transform="translate(148.453125 35.472)scale(0.12 -0.12)">
     <use xlink:href="#DejaVuSans-4d"/>
     <use x="86.279297" xlink:href="#DejaVuSans-65"/>
     <use x="147.802734" xlink:href="#DejaVuSans-61"/>
     <use x="209.082031" xlink:href="#DejaVuSans-6e"/>
     <use x="272.460938" xlink:href="#DejaVuSans-20"/>
     <use x="304.248047" xlink:href="#DejaVuSans-45"/>
     <use x="367.431641" xlink:href="#DejaVuSans-50"/>
     <use x="427.734375" xlink:href="#DejaVuSans-53"/>
     <use x="491.210938" xlink:href="#DejaVuSans-43"/>
     <use x="561.035156" xlink:href="#DejaVuSans-20"/>
     <use x="592.822266" xlink:href="#DejaVuSans-61"/>
     <use x="654.101562" xlink:href="#DejaVuSans-63"/>
     <use x="709.082031" xlink:href="#DejaVuSans-72"/>
     <use x="750.164062" xlink:href="#DejaVuSans-6f"/>
     <use x="811.345703" xlink:href="#DejaVuSans-73"/>
     <use x="863.445312" xlink:href="#DejaVuSans-73"/>
     <use x="915.544922" xlink:href="#DejaVuSans-20"/>
     <use x="947.332031" xlink:href="#DejaVuSans-63"/>
     <use x="1002.3125" xlink:href="#DejaVuSans-6f"/>
     <use x="1063.494141" xlink:href="#DejaVuSans-6e"/>
     <use x="1126.873047" xlink:href="#DejaVuSans-64"/>
     <use x="1190.349609" xlink:href="#DejaVuSans-69"/>
     <use x="1218.132812" xlink:href="#DejaVuSans-74"/>
     <use x="1257.341797" xlink:href="#DejaVuSans-69"/>
     <use x="1285.125" xlink:href="#DejaVuSans-6f"/>
     <use x="1346.306641" xlink:href="#DejaVuSans-6e"/>
     <use x="1409.685547" xlink:href="#DejaVuSans-73"/>
    </g>
   </g>
  </g>
 </g>
 <defs>
  <clipPath id="pd683075f94">
   <rect height="266.112" width="357.12" x="57.6" y="41.472"/>
  </clipPath>
 </defs>
</svg>
