<?xml version="1.0" encoding="utf-8" standalone="no"?>
<!DOCTYPE svg PUBLIC "-//W3C//DTD SVG 1.1//EN"
  "http://www.w3.org/Graphics/SVG/1.1/DTD/svg11.dtd">
<!-- Created with matplotlib (http://matplotlib.org/) -->
<svg height="345pt" version="1.1" viewBox="0 0 460 345" width="460pt" xmlns="http://www.w3.org/2000/svg" xmlns:xlink="http://www.w3.org/1999/xlink">
 <defs>
  <style type="text/css">
*{stroke-linecap:butt;stroke-linejoin:round;}
  </style>
 </defs>
 <g id="figure_1">
  <g id="patch_1">
   <path d="M 0 345.6 
L 460.8 345.6 
L 460.8 0 
L 0 0 
z
" style="fill:#ffffff;"/>
  </g>
  <g id="axes_1">
   <g id="patch_2">
    <path d="M 57.6 307.584 
L 414.72 307.584 
L 414.72 41.472 
L 57.6 41.472 
z
" style="fill:#ffffff;"/>
   </g>
   <g id="matplotlib.axis_1">
    <g id="xtick_1">
     <g id="line2d_1">
      <defs>
       <path d="M 0 0 
L 0 3.5 
" id="m2ace77ae5c" style="stroke:#000000;stroke-width:0.8;"/>
      </defs>
      <g>
       <use style="stroke:#000000;stroke-width:0.8;" x="73.832727" xlink:href="#m2ace77ae5c" y="307.584"/>
      </g>
     </g>
     <g id="text_1">
      <!-- 0.0 -->
      <defs>
       <path d="M 31.78125 66.40625 
Q 24.171875 66.40625 20.328125 58.90625 
Q 16.5 51.421875 16.5 36.375 
Q 16.5 21.390625 20.328125 13.890625 
Q 24.171875 6.390625 31.78125 6.390625 
Q 39.453125 6.390625 43.28125 13.890625 
Q 47.125 21.390625 47.125 36.375 
Q 47.125 51.421875 43.28125 58.90625 
Q 39.453125 66.40625 31.78125 66.40625 
z
M 31.78125 74.21875 
Q 44.046875 74.21875 50.515625 64.515625 
Q 56.984375 54.828125 56.984375 36.375 
Q 56.984375 17.96875 50.515625 8.265625 
Q 44.046875 -1.421875 31.78125 -1.421875 
Q 19.53125 -1.421875 13.0625 8.265625 
Q 6.59375 17.96875 6.59375 36.375 
Q 6.59375 54.828125 13.0625 64.515625 
Q 19.53125 74.21875 31.78125 74.21875 
z
" id="DejaVuSans-30"/>
       <path d="M 10.6875 12.40625 
L 21 12.40625 
L 21 0 
L 10.6875 0 
z
" id="DejaVuSans-2e"/>
      </defs>
      <g transform="translate(65.881165 322.182437)scale(0.1 -0.1)">
       <use xlink:href="#DejaVuSans-30"/>
       <use x="63.623047" xlink:href="#DejaVuSans-2e"/>
       <use x="95.410156" xlink:href="#DejaVuSans-30"/>
      </g>
     </g>
    </g>
    <g id="xtick_2">
     <g id="line2d_2">
      <g>
       <use style="stroke:#000000;stroke-width:0.8;" x="138.766883" xlink:href="#m2ace77ae5c" y="307.584"/>
      </g>
     </g>
     <g id="text_2">
      <!-- 0.2 -->
      <defs>
       <path d="M 19.1875 8.296875 
L 53.609375 8.296875 
L 53.609375 0 
L 7.328125 0 
L 7.328125 8.296875 
Q 12.9375 14.109375 22.625 23.890625 
Q 32.328125 33.6875 34.8125 36.53125 
Q 39.546875 41.84375 41.421875 45.53125 
Q 43.3125 49.21875 43.3125 52.78125 
Q 43.3125 58.59375 39.234375 62.25 
Q 35.15625 65.921875 28.609375 65.921875 
Q 23.96875 65.921875 18.8125 64.3125 
Q 13.671875 62.703125 7.8125 59.421875 
L 7.8125 69.390625 
Q 13.765625 71.78125 18.9375 73 
Q 24.125 74.21875 28.421875 74.21875 
Q 39.75 74.21875 46.484375 68.546875 
Q 53.21875 62.890625 53.21875 53.421875 
Q 53.21875 48.921875 51.53125 44.890625 
Q 49.859375 40.875 45.40625 35.40625 
Q 44.1875 33.984375 37.640625 27.21875 
Q 31.109375 20.453125 19.1875 8.296875 
z
" id="DejaVuSans-32"/>
      </defs>
      <g transform="translate(130.815321 322.182437)scale(0.1 -0.1)">
       <use xlink:href="#DejaVuSans-30"/>
       <use x="63.623047" xlink:href="#DejaVuSans-2e"/>
       <use x="95.410156" xlink:href="#DejaVuSans-32"/>
      </g>
     </g>
    </g>
    <g id="xtick_3">
     <g id="line2d_3">
      <g>
       <use style="stroke:#000000;stroke-width:0.8;" x="203.701039" xlink:href="#m2ace77ae5c" y="307.584"/>
      </g>
     </g>
     <g id="text_3">
      <!-- 0.4 -->
      <defs>
       <path d="M 37.796875 64.3125 
L 12.890625 25.390625 
L 37.796875 25.390625 
z
M 35.203125 72.90625 
L 47.609375 72.90625 
L 47.609375 25.390625 
L 58.015625 25.390625 
L 58.015625 17.1875 
L 47.609375 17.1875 
L 47.609375 0 
L 37.796875 0 
L 37.796875 17.1875 
L 4.890625 17.1875 
L 4.890625 26.703125 
z
" id="DejaVuSans-34"/>
      </defs>
      <g transform="translate(195.749476 322.182437)scale(0.1 -0.1)">
       <use xlink:href="#DejaVuSans-30"/>
       <use x="63.623047" xlink:href="#DejaVuSans-2e"/>
       <use x="95.410156" xlink:href="#DejaVuSans-34"/>
      </g>
     </g>
    </g>
    <g id="xtick_4">
     <g id="line2d_4">
      <g>
       <use style="stroke:#000000;stroke-width:0.8;" x="268.635195" xlink:href="#m2ace77ae5c" y="307.584"/>
      </g>
     </g>
     <g id="text_4">
      <!-- 0.6 -->
      <defs>
       <path d="M 33.015625 40.375 
Q 26.375 40.375 22.484375 35.828125 
Q 18.609375 31.296875 18.609375 23.390625 
Q 18.609375 15.53125 22.484375 10.953125 
Q 26.375 6.390625 33.015625 6.390625 
Q 39.65625 6.390625 43.53125 10.953125 
Q 47.40625 15.53125 47.40625 23.390625 
Q 47.40625 31.296875 43.53125 35.828125 
Q 39.65625 40.375 33.015625 40.375 
z
M 52.59375 71.296875 
L 52.59375 62.3125 
Q 48.875 64.0625 45.09375 64.984375 
Q 41.3125 65.921875 37.59375 65.921875 
Q 27.828125 65.921875 22.671875 59.328125 
Q 17.53125 52.734375 16.796875 39.40625 
Q 19.671875 43.65625 24.015625 45.921875 
Q 28.375 48.1875 33.59375 48.1875 
Q 44.578125 48.1875 50.953125 41.515625 
Q 57.328125 34.859375 57.328125 23.390625 
Q 57.328125 12.15625 50.6875 5.359375 
Q 44.046875 -1.421875 33.015625 -1.421875 
Q 20.359375 -1.421875 13.671875 8.265625 
Q 6.984375 17.96875 6.984375 36.375 
Q 6.984375 53.65625 15.1875 63.9375 
Q 23.390625 74.21875 37.203125 74.21875 
Q 40.921875 74.21875 44.703125 73.484375 
Q 48.484375 72.75 52.59375 71.296875 
z
" id="DejaVuSans-36"/>
      </defs>
      <g transform="translate(260.683632 322.182437)scale(0.1 -0.1)">
       <use xlink:href="#DejaVuSans-30"/>
       <use x="63.623047" xlink:href="#DejaVuSans-2e"/>
       <use x="95.410156" xlink:href="#DejaVuSans-36"/>
      </g>
     </g>
    </g>
    <g id="xtick_5">
     <g id="line2d_5">
      <g>
       <use style="stroke:#000000;stroke-width:0.8;" x="333.56935" xlink:href="#m2ace77ae5c" y="307.584"/>
      </g>
     </g>
     <g id="text_5">
      <!-- 0.8 -->
      <defs>
       <path d="M 31.78125 34.625 
Q 24.75 34.625 20.71875 30.859375 
Q 16.703125 27.09375 16.703125 20.515625 
Q 16.703125 13.921875 20.71875 10.15625 
Q 24.75 6.390625 31.78125 6.390625 
Q 38.8125 6.390625 42.859375 10.171875 
Q 46.921875 13.96875 46.921875 20.515625 
Q 46.921875 27.09375 42.890625 30.859375 
Q 38.875 34.625 31.78125 34.625 
z
M 21.921875 38.8125 
Q 15.578125 40.375 12.03125 44.71875 
Q 8.5 49.078125 8.5 55.328125 
Q 8.5 64.0625 14.71875 69.140625 
Q 20.953125 74.21875 31.78125 74.21875 
Q 42.671875 74.21875 48.875 69.140625 
Q 55.078125 64.0625 55.078125 55.328125 
Q 55.078125 49.078125 51.53125 44.71875 
Q 48 40.375 41.703125 38.8125 
Q 48.828125 37.15625 52.796875 32.3125 
Q 56.78125 27.484375 56.78125 20.515625 
Q 56.78125 9.90625 50.3125 4.234375 
Q 43.84375 -1.421875 31.78125 -1.421875 
Q 19.734375 -1.421875 13.25 4.234375 
Q 6.78125 9.90625 6.78125 20.515625 
Q 6.78125 27.484375 10.78125 32.3125 
Q 14.796875 37.15625 21.921875 38.8125 
z
M 18.3125 54.390625 
Q 18.3125 48.734375 21.84375 45.5625 
Q 25.390625 42.390625 31.78125 42.390625 
Q 38.140625 42.390625 41.71875 45.5625 
Q 45.3125 48.734375 45.3125 54.390625 
Q 45.3125 60.0625 41.71875 63.234375 
Q 38.140625 66.40625 31.78125 66.40625 
Q 25.390625 66.40625 21.84375 63.234375 
Q 18.3125 60.0625 18.3125 54.390625 
z
" id="DejaVuSans-38"/>
      </defs>
      <g transform="translate(325.617788 322.182437)scale(0.1 -0.1)">
       <use xlink:href="#DejaVuSans-30"/>
       <use x="63.623047" xlink:href="#DejaVuSans-2e"/>
       <use x="95.410156" xlink:href="#DejaVuSans-38"/>
      </g>
     </g>
    </g>
    <g id="xtick_6">
     <g id="line2d_6">
      <g>
       <use style="stroke:#000000;stroke-width:0.8;" x="398.503506" xlink:href="#m2ace77ae5c" y="307.584"/>
      </g>
     </g>
     <g id="text_6">
      <!-- 1.0 -->
      <defs>
       <path d="M 12.40625 8.296875 
L 28.515625 8.296875 
L 28.515625 63.921875 
L 10.984375 60.40625 
L 10.984375 69.390625 
L 28.421875 72.90625 
L 38.28125 72.90625 
L 38.28125 8.296875 
L 54.390625 8.296875 
L 54.390625 0 
L 12.40625 0 
z
" id="DejaVuSans-31"/>
      </defs>
      <g transform="translate(390.551944 322.182437)scale(0.1 -0.1)">
       <use xlink:href="#DejaVuSans-31"/>
       <use x="63.623047" xlink:href="#DejaVuSans-2e"/>
       <use x="95.410156" xlink:href="#DejaVuSans-30"/>
      </g>
     </g>
    </g>
    <g id="text_7">
     <!-- Time (seconds) -->
     <defs>
      <path d="M -0.296875 72.90625 
L 61.375 72.90625 
L 61.375 64.59375 
L 35.5 64.59375 
L 35.5 0 
L 25.59375 0 
L 25.59375 64.59375 
L -0.296875 64.59375 
z
" id="DejaVuSans-54"/>
      <path d="M 9.421875 54.6875 
L 18.40625 54.6875 
L 18.40625 0 
L 9.421875 0 
z
M 9.421875 75.984375 
L 18.40625 75.984375 
L 18.40625 64.59375 
L 9.421875 64.59375 
z
" id="DejaVuSans-69"/>
      <path d="M 52 44.1875 
Q 55.375 50.25 60.0625 53.125 
Q 64.75 56 71.09375 56 
Q 79.640625 56 84.28125 50.015625 
Q 88.921875 44.046875 88.921875 33.015625 
L 88.921875 0 
L 79.890625 0 
L 79.890625 32.71875 
Q 79.890625 40.578125 77.09375 44.375 
Q 74.3125 48.1875 68.609375 48.1875 
Q 61.625 48.1875 57.5625 43.546875 
Q 53.515625 38.921875 53.515625 30.90625 
L 53.515625 0 
L 44.484375 0 
L 44.484375 32.71875 
Q 44.484375 40.625 41.703125 44.40625 
Q 38.921875 48.1875 33.109375 48.1875 
Q 26.21875 48.1875 22.15625 43.53125 
Q 18.109375 38.875 18.109375 30.90625 
L 18.109375 0 
L 9.078125 0 
L 9.078125 54.6875 
L 18.109375 54.6875 
L 18.109375 46.1875 
Q 21.1875 51.21875 25.484375 53.609375 
Q 29.78125 56 35.6875 56 
Q 41.65625 56 45.828125 52.96875 
Q 50 49.953125 52 44.1875 
z
" id="DejaVuSans-6d"/>
      <path d="M 56.203125 29.59375 
L 56.203125 25.203125 
L 14.890625 25.203125 
Q 15.484375 15.921875 20.484375 11.0625 
Q 25.484375 6.203125 34.421875 6.203125 
Q 39.59375 6.203125 44.453125 7.46875 
Q 49.3125 8.734375 54.109375 11.28125 
L 54.109375 2.78125 
Q 49.265625 0.734375 44.1875 -0.34375 
Q 39.109375 -1.421875 33.890625 -1.421875 
Q 20.796875 -1.421875 13.15625 6.1875 
Q 5.515625 13.8125 5.515625 26.8125 
Q 5.515625 40.234375 12.765625 48.109375 
Q 20.015625 56 32.328125 56 
Q 43.359375 56 49.78125 48.890625 
Q 56.203125 41.796875 56.203125 29.59375 
z
M 47.21875 32.234375 
Q 47.125 39.59375 43.09375 43.984375 
Q 39.0625 48.390625 32.421875 48.390625 
Q 24.90625 48.390625 20.390625 44.140625 
Q 15.875 39.890625 15.1875 32.171875 
z
" id="DejaVuSans-65"/>
      <path id="DejaVuSans-20"/>
      <path d="M 31 75.875 
Q 24.46875 64.65625 21.28125 53.65625 
Q 18.109375 42.671875 18.109375 31.390625 
Q 18.109375 20.125 21.3125 9.0625 
Q 24.515625 -2 31 -13.1875 
L 23.1875 -13.1875 
Q 15.875 -1.703125 12.234375 9.375 
Q 8.59375 20.453125 8.59375 31.390625 
Q 8.59375 42.28125 12.203125 53.3125 
Q 15.828125 64.359375 23.1875 75.875 
z
" id="DejaVuSans-28"/>
      <path d="M 44.28125 53.078125 
L 44.28125 44.578125 
Q 40.484375 46.53125 36.375 47.5 
Q 32.28125 48.484375 27.875 48.484375 
Q 21.1875 48.484375 17.84375 46.4375 
Q 14.5 44.390625 14.5 40.28125 
Q 14.5 37.15625 16.890625 35.375 
Q 19.28125 33.59375 26.515625 31.984375 
L 29.59375 31.296875 
Q 39.15625 29.25 43.1875 25.515625 
Q 47.21875 21.78125 47.21875 15.09375 
Q 47.21875 7.46875 41.1875 3.015625 
Q 35.15625 -1.421875 24.609375 -1.421875 
Q 20.21875 -1.421875 15.453125 -0.5625 
Q 10.6875 0.296875 5.421875 2 
L 5.421875 11.28125 
Q 10.40625 8.6875 15.234375 7.390625 
Q 20.0625 6.109375 24.8125 6.109375 
Q 31.15625 6.109375 34.5625 8.28125 
Q 37.984375 10.453125 37.984375 14.40625 
Q 37.984375 18.0625 35.515625 20.015625 
Q 33.0625 21.96875 24.703125 23.78125 
L 21.578125 24.515625 
Q 13.234375 26.265625 9.515625 29.90625 
Q 5.8125 33.546875 5.8125 39.890625 
Q 5.8125 47.609375 11.28125 51.796875 
Q 16.75 56 26.8125 56 
Q 31.78125 56 36.171875 55.265625 
Q 40.578125 54.546875 44.28125 53.078125 
z
" id="DejaVuSans-73"/>
      <path d="M 48.78125 52.59375 
L 48.78125 44.1875 
Q 44.96875 46.296875 41.140625 47.34375 
Q 37.3125 48.390625 33.40625 48.390625 
Q 24.65625 48.390625 19.8125 42.84375 
Q 14.984375 37.3125 14.984375 27.296875 
Q 14.984375 17.28125 19.8125 11.734375 
Q 24.65625 6.203125 33.40625 6.203125 
Q 37.3125 6.203125 41.140625 7.25 
Q 44.96875 8.296875 48.78125 10.40625 
L 48.78125 2.09375 
Q 45.015625 0.34375 40.984375 -0.53125 
Q 36.96875 -1.421875 32.421875 -1.421875 
Q 20.0625 -1.421875 12.78125 6.34375 
Q 5.515625 14.109375 5.515625 27.296875 
Q 5.515625 40.671875 12.859375 48.328125 
Q 20.21875 56 33.015625 56 
Q 37.15625 56 41.109375 55.140625 
Q 45.0625 54.296875 48.78125 52.59375 
z
" id="DejaVuSans-63"/>
      <path d="M 30.609375 48.390625 
Q 23.390625 48.390625 19.1875 42.75 
Q 14.984375 37.109375 14.984375 27.296875 
Q 14.984375 17.484375 19.15625 11.84375 
Q 23.34375 6.203125 30.609375 6.203125 
Q 37.796875 6.203125 41.984375 11.859375 
Q 46.1875 17.53125 46.1875 27.296875 
Q 46.1875 37.015625 41.984375 42.703125 
Q 37.796875 48.390625 30.609375 48.390625 
z
M 30.609375 56 
Q 42.328125 56 49.015625 48.375 
Q 55.71875 40.765625 55.71875 27.296875 
Q 55.71875 13.875 49.015625 6.21875 
Q 42.328125 -1.421875 30.609375 -1.421875 
Q 18.84375 -1.421875 12.171875 6.21875 
Q 5.515625 13.875 5.515625 27.296875 
Q 5.515625 40.765625 12.171875 48.375 
Q 18.84375 56 30.609375 56 
z
" id="DejaVuSans-6f"/>
      <path d="M 54.890625 33.015625 
L 54.890625 0 
L 45.90625 0 
L 45.90625 32.71875 
Q 45.90625 40.484375 42.875 44.328125 
Q 39.84375 48.1875 33.796875 48.1875 
Q 26.515625 48.1875 22.3125 43.546875 
Q 18.109375 38.921875 18.109375 30.90625 
L 18.109375 0 
L 9.078125 0 
L 9.078125 54.6875 
L 18.109375 54.6875 
L 18.109375 46.1875 
Q 21.34375 51.125 25.703125 53.5625 
Q 30.078125 56 35.796875 56 
Q 45.21875 56 50.046875 50.171875 
Q 54.890625 44.34375 54.890625 33.015625 
z
" id="DejaVuSans-6e"/>
      <path d="M 45.40625 46.390625 
L 45.40625 75.984375 
L 54.390625 75.984375 
L 54.390625 0 
L 45.40625 0 
L 45.40625 8.203125 
Q 42.578125 3.328125 38.25 0.953125 
Q 33.9375 -1.421875 27.875 -1.421875 
Q 17.96875 -1.421875 11.734375 6.484375 
Q 5.515625 14.40625 5.515625 27.296875 
Q 5.515625 40.1875 11.734375 48.09375 
Q 17.96875 56 27.875 56 
Q 33.9375 56 38.25 53.625 
Q 42.578125 51.265625 45.40625 46.390625 
z
M 14.796875 27.296875 
Q 14.796875 17.390625 18.875 11.75 
Q 22.953125 6.109375 30.078125 6.109375 
Q 37.203125 6.109375 41.296875 11.75 
Q 45.40625 17.390625 45.40625 27.296875 
Q 45.40625 37.203125 41.296875 42.84375 
Q 37.203125 48.484375 30.078125 48.484375 
Q 22.953125 48.484375 18.875 42.84375 
Q 14.796875 37.203125 14.796875 27.296875 
z
" id="DejaVuSans-64"/>
      <path d="M 8.015625 75.875 
L 15.828125 75.875 
Q 23.140625 64.359375 26.78125 53.3125 
Q 30.421875 42.28125 30.421875 31.390625 
Q 30.421875 20.453125 26.78125 9.375 
Q 23.140625 -1.703125 15.828125 -13.1875 
L 8.015625 -13.1875 
Q 14.5 -2 17.703125 9.0625 
Q 20.90625 20.125 20.90625 31.390625 
Q 20.90625 42.671875 17.703125 53.65625 
Q 14.5 64.65625 8.015625 75.875 
z
" id="DejaVuSans-29"/>
     </defs>
     <g transform="translate(197.844375 335.860562)scale(0.1 -0.1)">
      <use xlink:href="#DejaVuSans-54"/>
      <use x="61.037109" xlink:href="#DejaVuSans-69"/>
      <use x="88.820312" xlink:href="#DejaVuSans-6d"/>
      <use x="186.232422" xlink:href="#DejaVuSans-65"/>
      <use x="247.755859" xlink:href="#DejaVuSans-20"/>
      <use x="279.542969" xlink:href="#DejaVuSans-28"/>
      <use x="318.556641" xlink:href="#DejaVuSans-73"/>
      <use x="370.65625" xlink:href="#DejaVuSans-65"/>
      <use x="432.179688" xlink:href="#DejaVuSans-63"/>
      <use x="487.160156" xlink:href="#DejaVuSans-6f"/>
      <use x="548.341797" xlink:href="#DejaVuSans-6e"/>
      <use x="611.720703" xlink:href="#DejaVuSans-64"/>
      <use x="675.197266" xlink:href="#DejaVuSans-73"/>
      <use x="727.296875" xlink:href="#DejaVuSans-29"/>
     </g>
    </g>
   </g>
   <g id="matplotlib.axis_2">
    <g id="ytick_1">
     <g id="line2d_7">
      <defs>
       <path d="M 0 0 
L -3.5 0 
" id="m2f087b8a15" style="stroke:#000000;stroke-width:0.8;"/>
      </defs>
      <g>
       <use style="stroke:#000000;stroke-width:0.8;" x="57.6" xlink:href="#m2f087b8a15" y="280.230008"/>
      </g>
     </g>
     <g id="text_8">
      <!-- −175 -->
      <defs>
       <path d="M 10.59375 35.5 
L 73.1875 35.5 
L 73.1875 27.203125 
L 10.59375 27.203125 
z
" id="DejaVuSans-2212"/>
       <path d="M 8.203125 72.90625 
L 55.078125 72.90625 
L 55.078125 68.703125 
L 28.609375 0 
L 18.3125 0 
L 43.21875 64.59375 
L 8.203125 64.59375 
z
" id="DejaVuSans-37"/>
       <path d="M 10.796875 72.90625 
L 49.515625 72.90625 
L 49.515625 64.59375 
L 19.828125 64.59375 
L 19.828125 46.734375 
Q 21.96875 47.46875 24.109375 47.828125 
Q 26.265625 48.1875 28.421875 48.1875 
Q 40.625 48.1875 47.75 41.5 
Q 54.890625 34.8125 54.890625 23.390625 
Q 54.890625 11.625 47.5625 5.09375 
Q 40.234375 -1.421875 26.90625 -1.421875 
Q 22.3125 -1.421875 17.546875 -0.640625 
Q 12.796875 0.140625 7.71875 1.703125 
L 7.71875 11.625 
Q 12.109375 9.234375 16.796875 8.0625 
Q 21.484375 6.890625 26.703125 6.890625 
Q 35.15625 6.890625 40.078125 11.328125 
Q 45.015625 15.765625 45.015625 23.390625 
Q 45.015625 31 40.078125 35.4375 
Q 35.15625 39.890625 26.703125 39.890625 
Q 22.75 39.890625 18.8125 39.015625 
Q 14.890625 38.140625 10.796875 36.28125 
z
" id="DejaVuSans-35"/>
      </defs>
      <g transform="translate(23.132812 284.029226)scale(0.1 -0.1)">
       <use xlink:href="#DejaVuSans-2212"/>
       <use x="83.789062" xlink:href="#DejaVuSans-31"/>
       <use x="147.412109" xlink:href="#DejaVuSans-37"/>
       <use x="211.035156" xlink:href="#DejaVuSans-35"/>
      </g>
     </g>
    </g>
    <g id="ytick_2">
     <g id="line2d_8">
      <g>
       <use style="stroke:#000000;stroke-width:0.8;" x="57.6" xlink:href="#m2f087b8a15" y="247.849721"/>
      </g>
     </g>
     <g id="text_9">
      <!-- −150 -->
      <g transform="translate(23.132812 251.64894)scale(0.1 -0.1)">
       <use xlink:href="#DejaVuSans-2212"/>
       <use x="83.789062" xlink:href="#DejaVuSans-31"/>
       <use x="147.412109" xlink:href="#DejaVuSans-35"/>
       <use x="211.035156" xlink:href="#DejaVuSans-30"/>
      </g>
     </g>
    </g>
    <g id="ytick_3">
     <g id="line2d_9">
      <g>
       <use style="stroke:#000000;stroke-width:0.8;" x="57.6" xlink:href="#m2f087b8a15" y="215.469434"/>
      </g>
     </g>
     <g id="text_10">
      <!-- −125 -->
      <g transform="translate(23.132812 219.268653)scale(0.1 -0.1)">
       <use xlink:href="#DejaVuSans-2212"/>
       <use x="83.789062" xlink:href="#DejaVuSans-31"/>
       <use x="147.412109" xlink:href="#DejaVuSans-32"/>
       <use x="211.035156" xlink:href="#DejaVuSans-35"/>
      </g>
     </g>
    </g>
    <g id="ytick_4">
     <g id="line2d_10">
      <g>
       <use style="stroke:#000000;stroke-width:0.8;" x="57.6" xlink:href="#m2f087b8a15" y="183.089147"/>
      </g>
     </g>
     <g id="text_11">
      <!-- −100 -->
      <g transform="translate(23.132812 186.888366)scale(0.1 -0.1)">
       <use xlink:href="#DejaVuSans-2212"/>
       <use x="83.789062" xlink:href="#DejaVuSans-31"/>
       <use x="147.412109" xlink:href="#DejaVuSans-30"/>
       <use x="211.035156" xlink:href="#DejaVuSans-30"/>
      </g>
     </g>
    </g>
    <g id="ytick_5">
     <g id="line2d_11">
      <g>
       <use style="stroke:#000000;stroke-width:0.8;" x="57.6" xlink:href="#m2f087b8a15" y="150.70886"/>
      </g>
     </g>
     <g id="text_12">
      <!-- −75 -->
      <g transform="translate(29.495313 154.508079)scale(0.1 -0.1)">
       <use xlink:href="#DejaVuSans-2212"/>
       <use x="83.789062" xlink:href="#DejaVuSans-37"/>
       <use x="147.412109" xlink:href="#DejaVuSans-35"/>
      </g>
     </g>
    </g>
    <g id="ytick_6">
     <g id="line2d_12">
      <g>
       <use style="stroke:#000000;stroke-width:0.8;" x="57.6" xlink:href="#m2f087b8a15" y="118.328574"/>
      </g>
     </g>
     <g id="text_13">
      <!-- −50 -->
      <g transform="translate(29.495313 122.127792)scale(0.1 -0.1)">
       <use xlink:href="#DejaVuSans-2212"/>
       <use x="83.789062" xlink:href="#DejaVuSans-35"/>
       <use x="147.412109" xlink:href="#DejaVuSans-30"/>
      </g>
     </g>
    </g>
    <g id="ytick_7">
     <g id="line2d_13">
      <g>
       <use style="stroke:#000000;stroke-width:0.8;" x="57.6" xlink:href="#m2f087b8a15" y="85.948287"/>
      </g>
     </g>
     <g id="text_14">
      <!-- −25 -->
      <g transform="translate(29.495313 89.747506)scale(0.1 -0.1)">
       <use xlink:href="#DejaVuSans-2212"/>
       <use x="83.789062" xlink:href="#DejaVuSans-32"/>
       <use x="147.412109" xlink:href="#DejaVuSans-35"/>
      </g>
     </g>
    </g>
    <g id="ytick_8">
     <g id="line2d_14">
      <g>
       <use style="stroke:#000000;stroke-width:0.8;" x="57.6" xlink:href="#m2f087b8a15" y="53.568"/>
      </g>
     </g>
     <g id="text_15">
      <!-- 0 -->
      <g transform="translate(44.2375 57.367219)scale(0.1 -0.1)">
       <use xlink:href="#DejaVuSans-30"/>
      </g>
     </g>
    </g>
    <g id="text_16">
     <!-- Mean EPSC (pA) -->
     <defs>
      <path d="M 9.8125 72.90625 
L 24.515625 72.90625 
L 43.109375 23.296875 
L 61.8125 72.90625 
L 76.515625 72.90625 
L 76.515625 0 
L 66.890625 0 
L 66.890625 64.015625 
L 48.09375 14.015625 
L 38.1875 14.015625 
L 19.390625 64.015625 
L 19.390625 0 
L 9.8125 0 
z
" id="DejaVuSans-4d"/>
      <path d="M 34.28125 27.484375 
Q 23.390625 27.484375 19.1875 25 
Q 14.984375 22.515625 14.984375 16.5 
Q 14.984375 11.71875 18.140625 8.90625 
Q 21.296875 6.109375 26.703125 6.109375 
Q 34.1875 6.109375 38.703125 11.40625 
Q 43.21875 16.703125 43.21875 25.484375 
L 43.21875 27.484375 
z
M 52.203125 31.203125 
L 52.203125 0 
L 43.21875 0 
L 43.21875 8.296875 
Q 40.140625 3.328125 35.546875 0.953125 
Q 30.953125 -1.421875 24.3125 -1.421875 
Q 15.921875 -1.421875 10.953125 3.296875 
Q 6 8.015625 6 15.921875 
Q 6 25.140625 12.171875 29.828125 
Q 18.359375 34.515625 30.609375 34.515625 
L 43.21875 34.515625 
L 43.21875 35.40625 
Q 43.21875 41.609375 39.140625 45 
Q 35.0625 48.390625 27.6875 48.390625 
Q 23 48.390625 18.546875 47.265625 
Q 14.109375 46.140625 10.015625 43.890625 
L 10.015625 52.203125 
Q 14.9375 54.109375 19.578125 55.046875 
Q 24.21875 56 28.609375 56 
Q 40.484375 56 46.34375 49.84375 
Q 52.203125 43.703125 52.203125 31.203125 
z
" id="DejaVuSans-61"/>
      <path d="M 9.8125 72.90625 
L 55.90625 72.90625 
L 55.90625 64.59375 
L 19.671875 64.59375 
L 19.671875 43.015625 
L 54.390625 43.015625 
L 54.390625 34.71875 
L 19.671875 34.71875 
L 19.671875 8.296875 
L 56.78125 8.296875 
L 56.78125 0 
L 9.8125 0 
z
" id="DejaVuSans-45"/>
      <path d="M 19.671875 64.796875 
L 19.671875 37.40625 
L 32.078125 37.40625 
Q 38.96875 37.40625 42.71875 40.96875 
Q 46.484375 44.53125 46.484375 51.125 
Q 46.484375 57.671875 42.71875 61.234375 
Q 38.96875 64.796875 32.078125 64.796875 
z
M 9.8125 72.90625 
L 32.078125 72.90625 
Q 44.34375 72.90625 50.609375 67.359375 
Q 56.890625 61.8125 56.890625 51.125 
Q 56.890625 40.328125 50.609375 34.8125 
Q 44.34375 29.296875 32.078125 29.296875 
L 19.671875 29.296875 
L 19.671875 0 
L 9.8125 0 
z
" id="DejaVuSans-50"/>
      <path d="M 53.515625 70.515625 
L 53.515625 60.890625 
Q 47.90625 63.578125 42.921875 64.890625 
Q 37.9375 66.21875 33.296875 66.21875 
Q 25.25 66.21875 20.875 63.09375 
Q 16.5 59.96875 16.5 54.203125 
Q 16.5 49.359375 19.40625 46.890625 
Q 22.3125 44.4375 30.421875 42.921875 
L 36.375 41.703125 
Q 47.40625 39.59375 52.65625 34.296875 
Q 57.90625 29 57.90625 20.125 
Q 57.90625 9.515625 50.796875 4.046875 
Q 43.703125 -1.421875 29.984375 -1.421875 
Q 24.8125 -1.421875 18.96875 -0.25 
Q 13.140625 0.921875 6.890625 3.21875 
L 6.890625 13.375 
Q 12.890625 10.015625 18.65625 8.296875 
Q 24.421875 6.59375 29.984375 6.59375 
Q 38.421875 6.59375 43.015625 9.90625 
Q 47.609375 13.234375 47.609375 19.390625 
Q 47.609375 24.75 44.3125 27.78125 
Q 41.015625 30.8125 33.5 32.328125 
L 27.484375 33.5 
Q 16.453125 35.6875 11.515625 40.375 
Q 6.59375 45.0625 6.59375 53.421875 
Q 6.59375 63.09375 13.40625 68.65625 
Q 20.21875 74.21875 32.171875 74.21875 
Q 37.3125 74.21875 42.625 73.28125 
Q 47.953125 72.359375 53.515625 70.515625 
z
" id="DejaVuSans-53"/>
      <path d="M 64.40625 67.28125 
L 64.40625 56.890625 
Q 59.421875 61.53125 53.78125 63.8125 
Q 48.140625 66.109375 41.796875 66.109375 
Q 29.296875 66.109375 22.65625 58.46875 
Q 16.015625 50.828125 16.015625 36.375 
Q 16.015625 21.96875 22.65625 14.328125 
Q 29.296875 6.6875 41.796875 6.6875 
Q 48.140625 6.6875 53.78125 8.984375 
Q 59.421875 11.28125 64.40625 15.921875 
L 64.40625 5.609375 
Q 59.234375 2.09375 53.4375 0.328125 
Q 47.65625 -1.421875 41.21875 -1.421875 
Q 24.65625 -1.421875 15.125 8.703125 
Q 5.609375 18.84375 5.609375 36.375 
Q 5.609375 53.953125 15.125 64.078125 
Q 24.65625 74.21875 41.21875 74.21875 
Q 47.75 74.21875 53.53125 72.484375 
Q 59.328125 70.75 64.40625 67.28125 
z
" id="DejaVuSans-43"/>
      <path d="M 18.109375 8.203125 
L 18.109375 -20.796875 
L 9.078125 -20.796875 
L 9.078125 54.6875 
L 18.109375 54.6875 
L 18.109375 46.390625 
Q 20.953125 51.265625 25.265625 53.625 
Q 29.59375 56 35.59375 56 
Q 45.5625 56 51.78125 48.09375 
Q 58.015625 40.1875 58.015625 27.296875 
Q 58.015625 14.40625 51.78125 6.484375 
Q 45.5625 -1.421875 35.59375 -1.421875 
Q 29.59375 -1.421875 25.265625 0.953125 
Q 20.953125 3.328125 18.109375 8.203125 
z
M 48.6875 27.296875 
Q 48.6875 37.203125 44.609375 42.84375 
Q 40.53125 48.484375 33.40625 48.484375 
Q 26.265625 48.484375 22.1875 42.84375 
Q 18.109375 37.203125 18.109375 27.296875 
Q 18.109375 17.390625 22.1875 11.75 
Q 26.265625 6.109375 33.40625 6.109375 
Q 40.53125 6.109375 44.609375 11.75 
Q 48.6875 17.390625 48.6875 27.296875 
z
" id="DejaVuSans-70"/>
      <path d="M 34.1875 63.1875 
L 20.796875 26.90625 
L 47.609375 26.90625 
z
M 28.609375 72.90625 
L 39.796875 72.90625 
L 67.578125 0 
L 57.328125 0 
L 50.6875 18.703125 
L 17.828125 18.703125 
L 11.1875 0 
L 0.78125 0 
z
" id="DejaVuSans-41"/>
     </defs>
     <g transform="translate(17.053125 214.6655)rotate(-90)scale(0.1 -0.1)">
      <use xlink:href="#DejaVuSans-4d"/>
      <use x="86.279297" xlink:href="#DejaVuSans-65"/>
      <use x="147.802734" xlink:href="#DejaVuSans-61"/>
      <use x="209.082031" xlink:href="#DejaVuSans-6e"/>
      <use x="272.460938" xlink:href="#DejaVuSans-20"/>
      <use x="304.248047" xlink:href="#DejaVuSans-45"/>
      <use x="367.431641" xlink:href="#DejaVuSans-50"/>
      <use x="427.734375" xlink:href="#DejaVuSans-53"/>
      <use x="491.210938" xlink:href="#DejaVuSans-43"/>
      <use x="561.035156" xlink:href="#DejaVuSans-20"/>
      <use x="592.822266" xlink:href="#DejaVuSans-28"/>
      <use x="631.835938" xlink:href="#DejaVuSans-70"/>
      <use x="695.3125" xlink:href="#DejaVuSans-41"/>
      <use x="763.720703" xlink:href="#DejaVuSans-29"/>
     </g>
    </g>
   </g>
   <g id="line2d_15">
    <path clip-path="url(#p3b6f753756)" d="M 73.832727 53.568 
L 106.299805 53.568 
L 106.575775 69.868378 
L 106.819278 74.09777 
L 106.949147 74.518046 
L 106.981614 74.502602 
L 107.095249 74.179234 
L 107.354985 72.492953 
L 108.767303 62.113177 
L 109.416645 59.306488 
L 110.065986 57.416042 
L 110.731561 56.121946 
L 111.429603 55.22939 
L 112.19258 54.606375 
L 113.085424 54.167091 
L 114.221772 53.8655 
L 115.877593 53.675277 
L 118.945732 53.584207 
L 122.533344 53.569778 
L 122.809314 70.532979 
L 123.052817 74.934213 
L 123.182686 75.371486 
L 123.215153 75.355391 
L 123.328788 75.01879 
L 123.588524 73.263749 
L 125.000842 62.461184 
L 125.650184 59.540191 
L 126.299525 57.572756 
L 126.9651 56.225957 
L 127.663142 55.297051 
L 128.426119 54.648664 
L 129.30273 54.197755 
L 130.422844 53.88387 
L 132.029964 53.68537 
L 134.935768 53.587596 
L 145.812239 53.568024 
L 398.487273 53.568 
L 398.487273 53.568 
" style="fill:none;stroke:#1f77b4;stroke-linecap:square;stroke-width:1.5;"/>
   </g>
   <g id="line2d_16">
    <path clip-path="url(#p3b6f753756)" d="M 73.832727 53.568 
L 106.299805 53.568 
L 106.575775 78.402017 
L 106.819278 84.845597 
L 106.949147 85.485896 
L 106.981614 85.462368 
L 107.079015 85.07308 
L 107.306285 82.97478 
L 108.945872 65.24019 
L 109.595214 61.401319 
L 110.244555 58.820078 
L 110.893897 57.088742 
L 111.575705 55.881315 
L 112.289981 55.057862 
L 113.085424 54.480729 
L 114.02697 54.079036 
L 115.260719 53.806994 
L 117.143809 53.642921 
L 121.039859 53.574797 
L 122.533344 53.570709 
L 122.809314 78.90717 
L 123.052817 85.480908 
L 123.182686 86.134022 
L 123.215153 86.109981 
L 123.312554 85.712708 
L 123.539824 83.571699 
L 125.179411 65.477073 
L 125.828753 61.560293 
L 126.478094 58.926667 
L 127.127436 57.160194 
L 127.793011 55.951984 
L 128.507286 55.103375 
L 129.286496 54.518065 
L 130.211808 54.105286 
L 131.41309 53.824347 
L 133.215013 53.652481 
L 136.802625 53.577268 
L 157.987393 53.568 
L 398.487273 53.568 
L 398.487273 53.568 
" style="fill:none;stroke:#ff7f0e;stroke-linecap:square;stroke-width:1.5;"/>
   </g>
   <g id="line2d_17">
    <path clip-path="url(#p3b6f753756)" d="M 73.832727 53.568 
L 106.299805 53.568 
L 106.575775 86.649454 
L 106.819278 95.232962 
L 106.949147 96.085907 
L 106.981614 96.054564 
L 107.079015 95.535994 
L 107.306285 92.740842 
L 108.945872 69.116553 
L 109.595214 64.002783 
L 110.244555 60.564306 
L 110.893897 58.257989 
L 111.559472 56.680543 
L 112.24128 55.61309 
L 112.97179 54.872008 
L 113.7997 54.351051 
L 114.80618 53.989238 
L 116.169797 53.749853 
L 118.377558 53.614674 
L 122.533344 53.571608 
L 122.809314 87.230947 
L 123.052817 95.964119 
L 123.182686 96.831777 
L 123.215153 96.799838 
L 123.312554 96.272062 
L 123.539824 93.427744 
L 125.179411 69.389136 
L 125.828753 64.185716 
L 126.478094 60.686958 
L 127.127436 58.340209 
L 127.793011 56.735109 
L 128.474819 55.648943 
L 129.205329 54.894868 
L 130.017006 54.372786 
L 131.007251 54.005281 
L 132.354635 53.758676 
L 134.497462 53.618936 
L 139.611027 53.570183 
L 224.285166 53.568 
L 398.487273 53.568 
L 398.487273 53.568 
" style="fill:none;stroke:#2ca02c;stroke-linecap:square;stroke-width:1.5;"/>
   </g>
   <g id="line2d_18">
    <path clip-path="url(#p3b6f753756)" d="M 73.832727 53.568 
L 106.299805 53.568 
L 106.575775 94.865651 
L 106.819278 105.580982 
L 106.949147 106.645766 
L 106.981614 106.606639 
L 107.079015 105.959275 
L 107.306285 102.469912 
L 108.945872 72.978233 
L 109.595214 66.594393 
L 110.244555 62.301927 
L 110.893897 59.422807 
L 111.543238 57.492632 
L 112.208813 56.172588 
L 112.906856 55.262309 
L 113.669832 54.626947 
L 114.562676 54.178959 
L 115.699024 53.871393 
L 117.338612 53.678502 
L 120.35805 53.585202 
L 122.533344 53.572504 
L 122.809314 96.171466 
L 123.052817 107.224095 
L 123.182686 108.322199 
L 123.215153 108.281778 
L 123.312554 107.613832 
L 123.539824 104.014094 
L 125.179411 73.591073 
L 125.828753 67.005676 
L 126.478094 62.577683 
L 127.127436 59.607661 
L 127.776777 57.616545 
L 128.442352 56.254823 
L 129.140394 55.315803 
L 129.903371 54.660381 
L 130.779982 54.204583 
L 131.883863 53.890504 
L 133.474749 53.689039 
L 136.315619 53.589033 
L 146.558982 53.568038 
L 398.487273 53.568 
L 398.487273 53.568 
" style="fill:none;stroke:#d62728;stroke-linecap:square;stroke-width:1.5;"/>
   </g>
   <g id="line2d_19">
    <path clip-path="url(#p3b6f753756)" d="M 73.832727 53.568 
L 106.299805 53.568 
L 106.575775 102.787585 
L 106.819278 115.558386 
L 106.949147 116.827424 
L 106.981614 116.780791 
L 107.079015 116.009246 
L 107.306285 111.850536 
L 108.945872 76.701606 
L 109.595214 69.093185 
L 110.244555 63.977315 
L 110.893897 60.545907 
L 111.543238 58.245476 
L 112.208813 56.672214 
L 112.890622 55.607615 
L 113.621131 54.868516 
L 114.449042 54.348954 
L 115.455521 53.98811 
L 116.819138 53.749366 
L 119.0269 53.61455 
L 122.533344 53.573368 
L 122.809314 104.61312 
L 123.052817 117.85578 
L 123.182686 119.171469 
L 123.215153 119.12304 
L 123.312554 118.322744 
L 123.539824 114.009738 
L 125.179411 77.558546 
L 125.828753 69.668285 
L 126.478094 64.362907 
L 127.127436 60.804389 
L 127.776777 58.418744 
L 128.442352 56.787204 
L 129.124161 55.683168 
L 129.85467 54.916691 
L 130.666347 54.386022 
L 131.656593 54.012473 
L 132.987743 53.76376 
L 135.098103 53.621351 
L 140.049333 53.570527 
L 213.424929 53.568 
L 398.487273 53.568 
L 398.487273 53.568 
" style="fill:none;stroke:#9467bd;stroke-linecap:square;stroke-width:1.5;"/>
   </g>
   <g id="line2d_20">
    <path clip-path="url(#p3b6f753756)" d="M 73.832727 53.568 
L 106.299805 53.568 
L 106.575775 111.223471 
L 106.819278 126.183098 
L 106.949147 127.669639 
L 106.981614 127.615014 
L 107.079015 126.711232 
L 107.306285 121.839748 
L 108.945872 80.666541 
L 109.595214 71.754091 
L 110.244555 65.761397 
L 110.893897 61.74187 
L 111.543238 59.047162 
L 112.19258 57.240799 
L 112.858155 56.005455 
L 113.572431 55.13781 
L 114.35164 54.539372 
L 115.276952 54.117336 
L 116.462001 53.83273 
L 118.231456 53.657007 
L 121.705434 53.578472 
L 122.533344 53.574288 
L 122.809314 113.862031 
L 123.052817 129.504158 
L 123.182686 131.058242 
L 123.215153 131.001038 
L 123.312554 130.055738 
L 123.539824 124.961254 
L 125.179411 81.905425 
L 125.828753 72.585517 
L 126.478094 66.31885 
L 127.127436 62.11556 
L 127.776777 59.297657 
L 128.426119 57.408711 
L 129.091694 56.11689 
L 129.789736 55.226076 
L 130.552712 54.604301 
L 131.445557 54.165894 
L 132.581905 53.864905 
L 134.237726 53.675063 
L 137.305865 53.584174 
L 150.13036 53.568006 
L 398.487273 53.568 
L 398.487273 53.568 
" style="fill:none;stroke:#8c564b;stroke-linecap:square;stroke-width:1.5;"/>
   </g>
   <g id="line2d_21">
    <path clip-path="url(#p3b6f753756)" d="M 73.832727 53.568 
L 106.299805 53.568 
L 106.575775 119.529358 
L 106.819278 136.644078 
L 106.949147 138.344772 
L 106.981614 138.282277 
L 107.079015 137.248296 
L 107.306285 131.675022 
L 108.945872 84.570376 
L 109.595214 74.373992 
L 110.244555 67.517986 
L 110.893897 62.919404 
L 111.543238 59.836494 
L 112.19258 57.769905 
L 112.858155 56.356597 
L 113.556197 55.382008 
L 114.30294 54.713153 
L 115.163317 54.242043 
L 116.234731 53.91638 
L 117.760684 53.704087 
L 120.406751 53.594663 
L 122.533344 53.575194 
L 122.809314 123.132092 
L 123.052817 141.179179 
L 123.182686 142.972204 
L 123.215153 142.906207 
L 123.312554 141.81557 
L 123.539824 135.937822 
L 125.179411 86.262247 
L 125.828753 75.509422 
L 126.478094 68.279268 
L 127.127436 63.429731 
L 127.776777 60.17858 
L 128.426119 57.999213 
L 129.091694 56.508777 
L 129.773502 55.500228 
L 130.520245 54.787784 
L 131.364389 54.293187 
L 132.403336 53.950385 
L 133.848121 53.725029 
L 136.266918 53.60339 
L 142.987603 53.568564 
L 398.487273 53.568 
L 398.487273 53.568 
" style="fill:none;stroke:#e377c2;stroke-linecap:square;stroke-width:1.5;"/>
   </g>
   <g id="line2d_22">
    <path clip-path="url(#p3b6f753756)" d="M 73.832727 53.568 
L 106.299805 53.568 
L 106.575775 128.103307 
L 106.819278 147.442674 
L 106.949147 149.364431 
L 106.981614 149.293813 
L 107.079015 148.12543 
L 107.306285 141.827718 
L 108.945872 88.600202 
L 109.595214 77.078447 
L 110.244555 69.331267 
L 110.893897 64.134941 
L 111.543238 60.651301 
L 112.19258 58.316088 
L 112.858155 56.719071 
L 113.539964 55.638401 
L 114.270473 54.888146 
L 115.098383 54.360742 
L 116.104863 53.994451 
L 117.46848 53.752103 
L 119.660008 53.615727 
L 122.533344 53.576129 
L 122.809314 133.126751 
L 123.052817 153.766796 
L 123.182686 155.817443 
L 123.215153 155.741965 
L 123.312554 154.494632 
L 123.539824 147.772397 
L 125.179411 90.959631 
L 125.828753 78.661881 
L 126.478094 70.392927 
L 127.127436 64.846626 
L 127.776777 61.128363 
L 128.426119 58.635873 
L 129.07546 56.965098 
L 129.757269 55.800053 
L 130.471545 55.005523 
L 131.266988 54.448665 
L 132.224767 54.056176 
L 133.490983 53.791783 
L 135.439008 53.635402 
L 139.627261 53.573107 
L 176.737131 53.568 
L 398.487273 53.568 
L 398.487273 53.568 
" style="fill:none;stroke:#7f7f7f;stroke-linecap:square;stroke-width:1.5;"/>
   </g>
   <g id="line2d_23">
    <path clip-path="url(#p3b6f753756)" d="M 73.832727 53.568 
L 106.299805 53.568 
L 106.575775 136.257023 
L 106.819278 157.712001 
L 106.949147 159.843987 
L 106.981614 159.765644 
L 107.079015 158.469447 
L 107.306285 151.482803 
L 108.945872 92.432515 
L 109.595214 79.650349 
L 110.244555 71.055674 
L 110.893897 65.290901 
L 111.543238 61.426171 
L 112.19258 58.8355 
L 112.841921 57.098912 
L 113.52373 55.887975 
L 114.238006 55.062148 
L 115.033449 54.483355 
L 115.974994 54.080506 
L 117.208743 53.807682 
L 119.091834 53.643137 
L 122.533344 53.577019 
L 122.809314 142.201295 
L 123.052817 165.195575 
L 123.182686 167.480123 
L 123.215153 167.396036 
L 123.312554 166.006433 
L 123.539824 158.517454 
L 125.179411 95.224562 
L 125.828753 81.524117 
L 126.478094 72.311997 
L 127.127436 66.133079 
L 127.776777 61.990706 
L 128.426119 59.21392 
L 129.07546 57.352575 
L 129.741035 56.079634 
L 130.439078 55.201841 
L 131.202054 54.589154 
L 132.094899 54.157155 
L 133.24748 53.857655 
L 134.935768 53.67038 
L 138.101308 53.582566 
L 152.175786 53.568003 
L 398.487273 53.568 
L 398.487273 53.568 
" style="fill:none;stroke:#bcbd22;stroke-linecap:square;stroke-width:1.5;"/>
   </g>
   <g id="line2d_24">
    <path clip-path="url(#p3b6f753756)" d="M 73.832727 53.568 
L 106.299805 53.568 
L 106.575775 144.729189 
L 106.819278 168.382405 
L 106.949147 170.73283 
L 106.981614 170.64646 
L 107.079015 169.217457 
L 107.306285 161.514974 
L 108.945872 96.414502 
L 109.595214 82.322699 
L 110.244555 72.847429 
L 110.893897 66.492008 
L 111.543238 62.231305 
L 112.19258 59.375198 
L 112.841921 57.460683 
L 113.507496 56.15138 
L 114.205539 55.248512 
L 114.968515 54.618324 
L 115.86136 54.173984 
L 116.997707 53.868923 
L 118.637295 53.677602 
L 121.672967 53.584892 
L 122.533344 53.577943 
L 122.809314 151.612457 
L 123.052817 177.048301 
L 123.182686 179.575427 
L 123.215153 179.482412 
L 123.312554 177.945261 
L 123.539824 169.661095 
L 125.179411 99.647699 
L 125.828753 84.492527 
L 126.478094 74.302254 
L 127.127436 67.467252 
L 127.776777 62.885038 
L 128.426119 59.813409 
L 129.07546 57.754425 
L 129.741035 56.346322 
L 130.439078 55.375324 
L 131.18582 54.708934 
L 132.046198 54.239559 
L 133.133845 53.911643 
L 134.659798 53.702236 
L 137.322098 53.594039 
L 145.893407 53.568133 
L 398.487273 53.568 
L 398.487273 53.568 
" style="fill:none;stroke:#17becf;stroke-linecap:square;stroke-width:1.5;"/>
   </g>
   <g id="line2d_25">
    <path clip-path="url(#p3b6f753756)" d="M 73.832727 53.568 
L 106.299805 53.568 
L 106.575775 152.869804 
L 106.819278 178.635232 
L 106.949147 181.195548 
L 106.981614 181.101466 
L 107.079015 179.544854 
L 107.306285 171.154546 
L 108.945872 100.240657 
L 109.595214 84.890468 
L 110.244555 74.569066 
L 110.893897 67.64611 
L 111.543238 63.004931 
L 112.19258 59.893776 
L 112.841921 57.808296 
L 113.507496 56.382074 
L 114.205539 55.398581 
L 114.952281 54.723616 
L 115.812659 54.248201 
L 116.884073 53.919563 
L 118.393792 53.70671 
L 121.007391 53.595726 
L 122.533344 53.578831 
L 122.809314 160.638627 
L 123.052817 188.416156 
L 123.182686 191.175936 
L 123.215153 191.074359 
L 123.312554 189.395695 
L 123.539824 180.348872 
L 125.179411 103.889895 
L 125.828753 87.339505 
L 126.478094 76.211094 
L 127.111202 68.89939 
L 127.760544 63.845041 
L 128.409885 60.456921 
L 129.059227 58.185784 
L 129.724802 56.632594 
L 130.406611 55.581581 
L 131.13712 54.851916 
L 131.96503 54.338986 
L 132.97151 53.982748 
L 134.35136 53.745269 
L 136.591589 53.612597 
L 142.224627 53.569388 
L 274.479269 53.568 
L 398.487273 53.568 
L 398.487273 53.568 
" style="fill:none;stroke:#1f77b4;stroke-linecap:square;stroke-width:1.5;"/>
   </g>
   <g id="line2d_26">
    <path clip-path="url(#p3b6f753756)" d="M 73.832727 53.568 
L 106.299805 53.568 
L 106.575775 160.795769 
L 106.819278 188.617714 
L 106.949147 191.382386 
L 106.981614 191.280795 
L 107.079015 189.599938 
L 107.306285 180.539942 
L 108.945872 103.965925 
L 109.595214 87.390532 
L 110.244555 76.245306 
L 110.877663 68.922555 
L 111.527005 63.860569 
L 112.176346 60.46733 
L 112.825688 58.192761 
L 113.491263 56.637224 
L 114.173072 55.584624 
L 114.903581 54.853856 
L 115.731491 54.340151 
L 116.737971 53.983374 
L 118.117822 53.745537 
L 120.35805 53.612665 
L 122.533344 53.579695 
L 122.809314 171.445474 
L 123.052817 202.02672 
L 123.182686 205.065069 
L 123.215153 204.953241 
L 123.312554 203.105152 
L 123.539824 193.145218 
L 125.179411 108.969028 
L 125.828753 90.74816 
L 126.478094 78.496526 
L 127.111202 70.446831 
L 127.760544 64.882333 
L 128.409885 61.152239 
L 129.059227 58.65187 
L 129.708568 56.97582 
L 130.390377 55.807097 
L 131.104653 55.01006 
L 131.900096 54.451444 
L 132.857875 54.057717 
L 134.124091 53.792489 
L 136.072116 53.635615 
L 140.260369 53.573123 
L 177.272837 53.568 
L 398.487273 53.568 
L 398.487273 53.568 
" style="fill:none;stroke:#ff7f0e;stroke-linecap:square;stroke-width:1.5;"/>
   </g>
   <g id="line2d_27">
    <path clip-path="url(#p3b6f753756)" d="M 73.832727 53.568 
L 106.299805 53.568 
L 106.575775 169.280027 
L 106.819278 199.303348 
L 106.949147 202.286772 
L 106.981614 202.177142 
L 107.079015 200.36329 
L 107.306285 190.586433 
L 108.945872 107.953596 
L 109.595214 90.066696 
L 110.244555 78.039619 
L 110.877663 70.137464 
L 111.527005 64.674956 
L 112.176346 61.01323 
L 112.825688 58.558689 
L 113.491263 56.880072 
L 114.173072 55.744187 
L 114.887347 54.969543 
L 115.699024 54.418079 
L 116.673037 54.034533 
L 117.97172 53.777627 
L 120.000912 53.628059 
L 122.533344 53.580621 
L 122.809314 180.37594 
L 123.052817 213.274025 
L 123.182686 216.542558 
L 123.215153 216.422258 
L 123.312554 214.434155 
L 123.539824 203.719651 
L 125.179411 113.166234 
L 125.828753 93.564945 
L 126.478094 80.385122 
L 127.111202 71.725578 
L 127.760544 65.739511 
L 128.409885 61.726825 
L 129.059227 59.037026 
L 129.708568 57.233998 
L 130.374143 56.000941 
L 131.088419 55.134902 
L 131.867629 54.537573 
L 132.792941 54.116318 
L 133.994223 53.82961 
L 135.779912 53.655082 
L 139.30259 53.577943 
L 159.156208 53.568 
L 398.487273 53.568 
L 398.487273 53.568 
" style="fill:none;stroke:#2ca02c;stroke-linecap:square;stroke-width:1.5;"/>
   </g>
   <g id="line2d_28">
    <path clip-path="url(#p3b6f753756)" d="M 73.832727 53.568 
L 106.299805 53.568 
L 106.575775 177.572813 
L 106.819278 209.747829 
L 106.949147 212.945067 
L 106.981614 212.82758 
L 107.079015 210.883734 
L 107.306285 200.406195 
L 108.945872 111.851273 
L 109.595214 92.682464 
L 110.244555 79.793437 
L 110.877663 71.324955 
L 111.527005 65.470963 
L 112.176346 61.546811 
L 112.825688 58.916359 
L 113.475029 57.153113 
L 114.140604 55.947261 
L 114.85488 55.100331 
L 115.63409 54.516181 
L 116.559402 54.10422 
L 117.760684 53.823838 
L 119.562606 53.652314 
L 122.533344 53.581525 
L 122.809314 191.281581 
L 123.052817 227.009003 
L 123.182686 230.558647 
L 123.215153 230.428003 
L 123.312554 228.268926 
L 123.539824 216.632963 
L 125.179411 118.291792 
L 125.828753 97.004756 
L 126.478094 82.691444 
L 127.111202 73.287164 
L 127.760544 66.786284 
L 128.409885 62.428499 
L 129.059227 59.507372 
L 129.708568 57.549281 
L 130.374143 56.210178 
L 131.072186 55.286761 
L 131.835162 54.642229 
L 132.711773 54.194005 
L 133.831887 53.881989 
L 135.439008 53.684671 
L 138.344811 53.587479 
L 149.269983 53.568023 
L 398.487273 53.568 
L 398.487273 53.568 
" style="fill:none;stroke:#d62728;stroke-linecap:square;stroke-width:1.5;"/>
   </g>
   <g id="line2d_29">
    <path clip-path="url(#p3b6f753756)" d="M 73.832727 53.568 
L 106.299805 53.568 
L 106.575775 185.660018 
L 106.819278 219.933387 
L 106.949147 223.339139 
L 106.981614 223.21399 
L 107.079015 221.143373 
L 107.306285 209.982521 
L 108.945872 115.652325 
L 109.595214 95.233387 
L 110.244555 81.503778 
L 110.877663 72.483008 
L 111.527005 66.247237 
L 112.176346 62.067164 
L 112.825688 59.265162 
L 113.475029 57.386922 
L 114.140604 56.102429 
L 114.838647 55.216669 
L 115.601623 54.598422 
L 116.494468 54.162502 
L 117.647049 53.860283 
L 119.319103 53.672347 
L 122.452176 53.583146 
L 122.533344 53.582407 
L 122.809314 200.358134 
L 123.052817 238.440315 
L 123.182686 242.223913 
L 123.215153 242.084659 
L 123.312554 239.783279 
L 123.539824 227.380402 
L 125.179411 122.557669 
L 125.828753 99.867627 
L 126.478094 84.61094 
L 127.111202 74.586833 
L 127.74431 67.799087 
L 128.393652 63.107403 
L 129.042993 59.962456 
L 129.692335 57.854332 
L 130.35791 56.412626 
L 131.055952 55.418455 
L 131.802695 54.736162 
L 132.663072 54.255586 
L 133.734486 53.92338 
L 135.244205 53.708216 
L 137.841571 53.596309 
L 145.86094 53.568203 
L 398.487273 53.568 
L 398.487273 53.568 
" style="fill:none;stroke:#9467bd;stroke-linecap:square;stroke-width:1.5;"/>
   </g>
   <g id="line2d_30">
    <path clip-path="url(#p3b6f753756)" d="M 73.832727 53.568 
L 106.299805 53.568 
L 106.575775 194.158385 
L 106.819278 230.636791 
L 106.949147 234.261657 
L 106.981614 234.128457 
L 107.079015 231.924622 
L 107.306285 220.045718 
L 108.945872 119.646627 
L 109.595214 97.914001 
L 110.244555 83.301074 
L 110.877663 73.699938 
L 111.527005 67.062977 
L 112.176346 62.613972 
L 112.825688 59.631699 
L 113.475029 57.632619 
L 114.140604 56.265486 
L 114.838647 55.322739 
L 115.601623 54.664716 
L 116.478234 54.207109 
L 117.582115 53.891784 
L 119.156768 53.690741 
L 121.981404 53.589544 
L 122.533344 53.583334 
L 122.809314 210.698445 
L 123.052817 251.463272 
L 123.182686 255.513404 
L 123.215153 255.364341 
L 123.312554 252.900849 
L 123.539824 239.624279 
L 125.179411 127.417514 
L 125.828753 103.129115 
L 126.478094 86.7977 
L 127.111202 76.067464 
L 127.74431 68.801569 
L 128.393652 63.779388 
L 129.042993 60.412901 
L 129.692335 58.156275 
L 130.35791 56.61301 
L 131.039719 55.568714 
L 131.770228 54.843712 
L 132.598138 54.334059 
L 133.620851 53.975997 
L 135.016936 53.740649 
L 137.305865 53.610151 
L 143.182406 53.569129 
L 305.387927 53.568 
L 398.487273 53.568 
L 398.487273 53.568 
" style="fill:none;stroke:#8c564b;stroke-linecap:square;stroke-width:1.5;"/>
   </g>
   <g id="line2d_31">
    <path clip-path="url(#p3b6f753756)" d="M 73.832727 53.568 
L 106.299805 53.568 
L 106.575775 201.535125 
L 106.819278 239.927543 
L 106.949147 243.742605 
L 106.981614 243.602415 
L 107.079015 241.282947 
L 107.306285 228.78076 
L 108.945872 123.113755 
L 109.595214 100.240824 
L 110.244555 84.861161 
L 110.877663 74.756255 
L 111.510771 67.913797 
L 112.160113 63.184295 
L 112.809454 60.013998 
L 113.458796 57.888882 
L 114.124371 56.435555 
L 114.80618 55.452118 
L 115.552922 54.757413 
L 116.397066 54.27513 
L 117.452246 53.937154 
L 118.929498 53.716594 
L 121.429463 53.599856 
L 122.533344 53.584139 
L 122.809314 221.082994 
L 123.052817 264.541986 
L 123.182686 268.859802 
L 123.215153 268.700891 
L 123.312554 266.074594 
L 123.539824 251.920595 
L 125.179411 132.298175 
L 125.828753 106.404574 
L 126.478094 88.993827 
L 127.111202 77.554438 
L 127.74431 69.808344 
L 128.393652 64.454251 
L 129.042993 60.865276 
L 129.692335 58.459511 
L 130.35791 56.814252 
L 131.039719 55.70094 
L 131.770228 54.928022 
L 132.581905 54.392895 
L 133.572151 54.016208 
L 134.903301 53.765405 
L 137.013661 53.621799 
L 141.932423 53.570599 
L 213.29506 53.568 
L 398.487273 53.568 
L 398.487273 53.568 
" style="fill:none;stroke:#e377c2;stroke-linecap:square;stroke-width:1.5;"/>
   </g>
   <g id="line2d_32">
    <path clip-path="url(#p3b6f753756)" d="M 73.832727 53.568 
L 106.299805 53.568 
L 106.575775 210.46481 
L 106.819278 251.174176 
L 106.949147 255.219474 
L 106.981614 255.070824 
L 107.079015 252.611378 
L 107.306285 239.354695 
L 108.945872 127.31078 
L 109.595214 103.057487 
L 110.244555 86.749675 
L 110.877663 76.034947 
L 111.510771 68.779553 
L 112.160113 63.76463 
L 112.809454 60.403009 
L 113.458796 58.149644 
L 114.124371 56.608609 
L 114.80618 55.565823 
L 115.536689 54.841868 
L 116.364599 54.332952 
L 117.387312 53.975407 
L 118.783397 53.740399 
L 121.072326 53.61009 
L 122.533344 53.585113 
L 122.809314 231.55536 
L 123.052817 277.731246 
L 123.182686 282.318998 
L 123.215153 282.150152 
L 123.312554 279.359671 
L 123.539824 264.320821 
L 125.179411 137.220077 
L 125.828753 109.707709 
L 126.478094 91.208511 
L 127.111202 79.053976 
L 127.74431 70.823627 
L 128.393652 65.134817 
L 129.042993 61.321473 
L 129.692335 58.765309 
L 130.341676 57.05186 
L 131.023485 55.857059 
L 131.737761 55.042238 
L 132.533204 54.471157 
L 133.474749 54.073676 
L 134.724732 53.802135 
L 136.624056 53.640668 
L 140.601273 53.574271 
L 171.13656 53.568 
L 398.487273 53.568 
L 398.487273 53.568 
" style="fill:none;stroke:#7f7f7f;stroke-linecap:square;stroke-width:1.5;"/>
   </g>
   <g id="line2d_33">
    <path clip-path="url(#p3b6f753756)" d="M 73.832727 53.568 
L 106.299805 53.568 
L 106.575775 218.496589 
L 106.819278 261.289927 
L 106.949147 265.54231 
L 106.981614 265.38605 
L 107.079015 262.800701 
L 107.306285 248.865389 
L 108.945872 131.085781 
L 109.595214 105.590927 
L 110.244555 88.448294 
L 110.877663 77.185063 
L 111.510771 69.558255 
L 112.160113 64.286611 
L 112.809454 60.752903 
L 113.458796 58.384185 
L 114.124371 56.764262 
L 114.80618 55.668094 
L 115.536689 54.907079 
L 116.348366 54.380192 
L 117.338612 54.009305 
L 118.669762 53.762365 
L 120.796355 53.620444 
L 122.533344 53.585989 
L 122.809314 241.801907 
L 123.052817 290.636128 
L 123.182686 295.488 
L 123.215153 295.309436 
L 123.312554 292.358312 
L 123.539824 276.453692 
L 125.179411 142.035862 
L 125.828753 112.939629 
L 126.478094 93.375446 
L 127.111202 80.521184 
L 127.74431 71.81702 
L 128.393652 65.80071 
L 129.042993 61.767834 
L 129.692335 59.064514 
L 130.341676 57.252423 
L 131.007251 56.013169 
L 131.721527 55.142778 
L 132.500737 54.542446 
L 133.426049 54.119074 
L 134.611097 53.833568 
L 136.380553 53.657288 
L 139.838297 53.578611 
L 158.539334 53.568 
L 398.487273 53.568 
L 398.487273 53.568 
" style="fill:none;stroke:#bcbd22;stroke-linecap:square;stroke-width:1.5;"/>
   </g>
   <g id="patch_3">
    <path d="M 57.6 307.584 
L 57.6 41.472 
" style="fill:none;stroke:#000000;stroke-linecap:square;stroke-linejoin:miter;stroke-width:0.8;"/>
   </g>
   <g id="patch_4">
    <path d="M 414.72 307.584 
L 414.72 41.472 
" style="fill:none;stroke:#000000;stroke-linecap:square;stroke-linejoin:miter;stroke-width:0.8;"/>
   </g>
   <g id="patch_5">
    <path d="M 57.6 307.584 
L 414.72 307.584 
" style="fill:none;stroke:#000000;stroke-linecap:square;stroke-linejoin:miter;stroke-width:0.8;"/>
   </g>
   <g id="patch_6">
    <path d="M 57.6 41.472 
L 414.72 41.472 
" style="fill:none;stroke:#000000;stroke-linecap:square;stroke-linejoin:miter;stroke-width:0.8;"/>
   </g>
   <g id="text_17">
    <!-- Mean EPSC across conditions -->
    <defs>
     <path d="M 41.109375 46.296875 
Q 39.59375 47.171875 37.8125 47.578125 
Q 36.03125 48 33.890625 48 
Q 26.265625 48 22.1875 43.046875 
Q 18.109375 38.09375 18.109375 28.8125 
L 18.109375 0 
L 9.078125 0 
L 9.078125 54.6875 
L 18.109375 54.6875 
L 18.109375 46.1875 
Q 20.953125 51.171875 25.484375 53.578125 
Q 30.03125 56 36.53125 56 
Q 37.453125 56 38.578125 55.875 
Q 39.703125 55.765625 41.0625 55.515625 
z
" id="DejaVuSans-72"/>
     <path d="M 18.3125 70.21875 
L 18.3125 54.6875 
L 36.8125 54.6875 
L 36.8125 47.703125 
L 18.3125 47.703125 
L 18.3125 18.015625 
Q 18.3125 11.328125 20.140625 9.421875 
Q 21.96875 7.515625 27.59375 7.515625 
L 36.8125 7.515625 
L 36.8125 0 
L 27.59375 0 
Q 17.1875 0 13.234375 3.875 
Q 9.28125 7.765625 9.28125 18.015625 
L 9.28125 47.703125 
L 2.6875 47.703125 
L 2.6875 54.6875 
L 9.28125 54.6875 
L 9.28125 70.21875 
z
" id="DejaVuSans-74"/>
    </defs>
    <g transform="translate(148.453125 35.472)scale(0.12 -0.12)">
     <use xlink:href="#DejaVuSans-4d"/>
     <use x="86.279297" xlink:href="#DejaVuSans-65"/>
     <use x="147.802734" xlink:href="#DejaVuSans-61"/>
     <use x="209.082031" xlink:href="#DejaVuSans-6e"/>
     <use x="272.460938" xlink:href="#DejaVuSans-20"/>
     <use x="304.248047" xlink:href="#DejaVuSans-45"/>
     <use x="367.431641" xlink:href="#DejaVuSans-50"/>
     <use x="427.734375" xlink:href="#DejaVuSans-53"/>
     <use x="491.210938" xlink:href="#DejaVuSans-43"/>
     <use x="561.035156" xlink:href="#DejaVuSans-20"/>
     <use x="592.822266" xlink:href="#DejaVuSans-61"/>
     <use x="654.101562" xlink:href="#DejaVuSans-63"/>
     <use x="709.082031" xlink:href="#DejaVuSans-72"/>
     <use x="750.164062" xlink:href="#DejaVuSans-6f"/>
     <use x="811.345703" xlink:href="#DejaVuSans-73"/>
     <use x="863.445312" xlink:href="#DejaVuSans-73"/>
     <use x="915.544922" xlink:href="#DejaVuSans-20"/>
     <use x="947.332031" xlink:href="#DejaVuSans-63"/>
     <use x="1002.3125" xlink:href="#DejaVuSans-6f"/>
     <use x="1063.494141" xlink:href="#DejaVuSans-6e"/>
     <use x="1126.873047" xlink:href="#DejaVuSans-64"/>
     <use x="1190.349609" xlink:href="#DejaVuSans-69"/>
     <use x="1218.132812" xlink:href="#DejaVuSans-74"/>
     <use x="1257.341797" xlink:href="#DejaVuSans-69"/>
     <use x="1285.125" xlink:href="#DejaVuSans-6f"/>
     <use x="1346.306641" xlink:href="#DejaVuSans-6e"/>
     <use x="1409.685547" xlink:href="#DejaVuSans-73"/>
    </g>
   </g>
  </g>
 </g>
 <defs>
  <clipPath id="p3b6f753756">
   <rect height="266.112" width="357.12" x="57.6" y="41.472"/>
  </clipPath>
 </defs>
</svg>
