<?xml version="1.0" encoding="utf-8" standalone="no"?>
<!DOCTYPE svg PUBLIC "-//W3C//DTD SVG 1.1//EN"
  "http://www.w3.org/Graphics/SVG/1.1/DTD/svg11.dtd">
<!-- Created with matplotlib (http://matplotlib.org/) -->
<svg height="345pt" version="1.1" viewBox="0 0 460 345" width="460pt" xmlns="http://www.w3.org/2000/svg" xmlns:xlink="http://www.w3.org/1999/xlink">
 <defs>
  <style type="text/css">
*{stroke-linecap:butt;stroke-linejoin:round;}
  </style>
 </defs>
 <g id="figure_1">
  <g id="patch_1">
   <path d="M 0 345.6 
L 460.8 345.6 
L 460.8 0 
L 0 0 
z
" style="fill:#ffffff;"/>
  </g>
  <g id="axes_1">
   <g id="patch_2">
    <path d="M 57.6 307.584 
L 414.72 307.584 
L 414.72 41.472 
L 57.6 41.472 
z
" style="fill:#ffffff;"/>
   </g>
   <g id="matplotlib.axis_1">
    <g id="xtick_1">
     <g id="line2d_1">
      <defs>
       <path d="M 0 0 
L 0 3.5 
" id="mbd36ac87d9" style="stroke:#000000;stroke-width:0.8;"/>
      </defs>
      <g>
       <use style="stroke:#000000;stroke-width:0.8;" x="73.832727" xlink:href="#mbd36ac87d9" y="307.584"/>
      </g>
     </g>
     <g id="text_1">
      <!-- 0.0 -->
      <defs>
       <path d="M 31.78125 66.40625 
Q 24.171875 66.40625 20.328125 58.90625 
Q 16.5 51.421875 16.5 36.375 
Q 16.5 21.390625 20.328125 13.890625 
Q 24.171875 6.390625 31.78125 6.390625 
Q 39.453125 6.390625 43.28125 13.890625 
Q 47.125 21.390625 47.125 36.375 
Q 47.125 51.421875 43.28125 58.90625 
Q 39.453125 66.40625 31.78125 66.40625 
z
M 31.78125 74.21875 
Q 44.046875 74.21875 50.515625 64.515625 
Q 56.984375 54.828125 56.984375 36.375 
Q 56.984375 17.96875 50.515625 8.265625 
Q 44.046875 -1.421875 31.78125 -1.421875 
Q 19.53125 -1.421875 13.0625 8.265625 
Q 6.59375 17.96875 6.59375 36.375 
Q 6.59375 54.828125 13.0625 64.515625 
Q 19.53125 74.21875 31.78125 74.21875 
z
" id="DejaVuSans-30"/>
       <path d="M 10.6875 12.40625 
L 21 12.40625 
L 21 0 
L 10.6875 0 
z
" id="DejaVuSans-2e"/>
      </defs>
      <g transform="translate(65.881165 322.182437)scale(0.1 -0.1)">
       <use xlink:href="#DejaVuSans-30"/>
       <use x="63.623047" xlink:href="#DejaVuSans-2e"/>
       <use x="95.410156" xlink:href="#DejaVuSans-30"/>
      </g>
     </g>
    </g>
    <g id="xtick_2">
     <g id="line2d_2">
      <g>
       <use style="stroke:#000000;stroke-width:0.8;" x="138.766883" xlink:href="#mbd36ac87d9" y="307.584"/>
      </g>
     </g>
     <g id="text_2">
      <!-- 0.2 -->
      <defs>
       <path d="M 19.1875 8.296875 
L 53.609375 8.296875 
L 53.609375 0 
L 7.328125 0 
L 7.328125 8.296875 
Q 12.9375 14.109375 22.625 23.890625 
Q 32.328125 33.6875 34.8125 36.53125 
Q 39.546875 41.84375 41.421875 45.53125 
Q 43.3125 49.21875 43.3125 52.78125 
Q 43.3125 58.59375 39.234375 62.25 
Q 35.15625 65.921875 28.609375 65.921875 
Q 23.96875 65.921875 18.8125 64.3125 
Q 13.671875 62.703125 7.8125 59.421875 
L 7.8125 69.390625 
Q 13.765625 71.78125 18.9375 73 
Q 24.125 74.21875 28.421875 74.21875 
Q 39.75 74.21875 46.484375 68.546875 
Q 53.21875 62.890625 53.21875 53.421875 
Q 53.21875 48.921875 51.53125 44.890625 
Q 49.859375 40.875 45.40625 35.40625 
Q 44.1875 33.984375 37.640625 27.21875 
Q 31.109375 20.453125 19.1875 8.296875 
z
" id="DejaVuSans-32"/>
      </defs>
      <g transform="translate(130.815321 322.182437)scale(0.1 -0.1)">
       <use xlink:href="#DejaVuSans-30"/>
       <use x="63.623047" xlink:href="#DejaVuSans-2e"/>
       <use x="95.410156" xlink:href="#DejaVuSans-32"/>
      </g>
     </g>
    </g>
    <g id="xtick_3">
     <g id="line2d_3">
      <g>
       <use style="stroke:#000000;stroke-width:0.8;" x="203.701039" xlink:href="#mbd36ac87d9" y="307.584"/>
      </g>
     </g>
     <g id="text_3">
      <!-- 0.4 -->
      <defs>
       <path d="M 37.796875 64.3125 
L 12.890625 25.390625 
L 37.796875 25.390625 
z
M 35.203125 72.90625 
L 47.609375 72.90625 
L 47.609375 25.390625 
L 58.015625 25.390625 
L 58.015625 17.1875 
L 47.609375 17.1875 
L 47.609375 0 
L 37.796875 0 
L 37.796875 17.1875 
L 4.890625 17.1875 
L 4.890625 26.703125 
z
" id="DejaVuSans-34"/>
      </defs>
      <g transform="translate(195.749476 322.182437)scale(0.1 -0.1)">
       <use xlink:href="#DejaVuSans-30"/>
       <use x="63.623047" xlink:href="#DejaVuSans-2e"/>
       <use x="95.410156" xlink:href="#DejaVuSans-34"/>
      </g>
     </g>
    </g>
    <g id="xtick_4">
     <g id="line2d_4">
      <g>
       <use style="stroke:#000000;stroke-width:0.8;" x="268.635195" xlink:href="#mbd36ac87d9" y="307.584"/>
      </g>
     </g>
     <g id="text_4">
      <!-- 0.6 -->
      <defs>
       <path d="M 33.015625 40.375 
Q 26.375 40.375 22.484375 35.828125 
Q 18.609375 31.296875 18.609375 23.390625 
Q 18.609375 15.53125 22.484375 10.953125 
Q 26.375 6.390625 33.015625 6.390625 
Q 39.65625 6.390625 43.53125 10.953125 
Q 47.40625 15.53125 47.40625 23.390625 
Q 47.40625 31.296875 43.53125 35.828125 
Q 39.65625 40.375 33.015625 40.375 
z
M 52.59375 71.296875 
L 52.59375 62.3125 
Q 48.875 64.0625 45.09375 64.984375 
Q 41.3125 65.921875 37.59375 65.921875 
Q 27.828125 65.921875 22.671875 59.328125 
Q 17.53125 52.734375 16.796875 39.40625 
Q 19.671875 43.65625 24.015625 45.921875 
Q 28.375 48.1875 33.59375 48.1875 
Q 44.578125 48.1875 50.953125 41.515625 
Q 57.328125 34.859375 57.328125 23.390625 
Q 57.328125 12.15625 50.6875 5.359375 
Q 44.046875 -1.421875 33.015625 -1.421875 
Q 20.359375 -1.421875 13.671875 8.265625 
Q 6.984375 17.96875 6.984375 36.375 
Q 6.984375 53.65625 15.1875 63.9375 
Q 23.390625 74.21875 37.203125 74.21875 
Q 40.921875 74.21875 44.703125 73.484375 
Q 48.484375 72.75 52.59375 71.296875 
z
" id="DejaVuSans-36"/>
      </defs>
      <g transform="translate(260.683632 322.182437)scale(0.1 -0.1)">
       <use xlink:href="#DejaVuSans-30"/>
       <use x="63.623047" xlink:href="#DejaVuSans-2e"/>
       <use x="95.410156" xlink:href="#DejaVuSans-36"/>
      </g>
     </g>
    </g>
    <g id="xtick_5">
     <g id="line2d_5">
      <g>
       <use style="stroke:#000000;stroke-width:0.8;" x="333.56935" xlink:href="#mbd36ac87d9" y="307.584"/>
      </g>
     </g>
     <g id="text_5">
      <!-- 0.8 -->
      <defs>
       <path d="M 31.78125 34.625 
Q 24.75 34.625 20.71875 30.859375 
Q 16.703125 27.09375 16.703125 20.515625 
Q 16.703125 13.921875 20.71875 10.15625 
Q 24.75 6.390625 31.78125 6.390625 
Q 38.8125 6.390625 42.859375 10.171875 
Q 46.921875 13.96875 46.921875 20.515625 
Q 46.921875 27.09375 42.890625 30.859375 
Q 38.875 34.625 31.78125 34.625 
z
M 21.921875 38.8125 
Q 15.578125 40.375 12.03125 44.71875 
Q 8.5 49.078125 8.5 55.328125 
Q 8.5 64.0625 14.71875 69.140625 
Q 20.953125 74.21875 31.78125 74.21875 
Q 42.671875 74.21875 48.875 69.140625 
Q 55.078125 64.0625 55.078125 55.328125 
Q 55.078125 49.078125 51.53125 44.71875 
Q 48 40.375 41.703125 38.8125 
Q 48.828125 37.15625 52.796875 32.3125 
Q 56.78125 27.484375 56.78125 20.515625 
Q 56.78125 9.90625 50.3125 4.234375 
Q 43.84375 -1.421875 31.78125 -1.421875 
Q 19.734375 -1.421875 13.25 4.234375 
Q 6.78125 9.90625 6.78125 20.515625 
Q 6.78125 27.484375 10.78125 32.3125 
Q 14.796875 37.15625 21.921875 38.8125 
z
M 18.3125 54.390625 
Q 18.3125 48.734375 21.84375 45.5625 
Q 25.390625 42.390625 31.78125 42.390625 
Q 38.140625 42.390625 41.71875 45.5625 
Q 45.3125 48.734375 45.3125 54.390625 
Q 45.3125 60.0625 41.71875 63.234375 
Q 38.140625 66.40625 31.78125 66.40625 
Q 25.390625 66.40625 21.84375 63.234375 
Q 18.3125 60.0625 18.3125 54.390625 
z
" id="DejaVuSans-38"/>
      </defs>
      <g transform="translate(325.617788 322.182437)scale(0.1 -0.1)">
       <use xlink:href="#DejaVuSans-30"/>
       <use x="63.623047" xlink:href="#DejaVuSans-2e"/>
       <use x="95.410156" xlink:href="#DejaVuSans-38"/>
      </g>
     </g>
    </g>
    <g id="xtick_6">
     <g id="line2d_6">
      <g>
       <use style="stroke:#000000;stroke-width:0.8;" x="398.503506" xlink:href="#mbd36ac87d9" y="307.584"/>
      </g>
     </g>
     <g id="text_6">
      <!-- 1.0 -->
      <defs>
       <path d="M 12.40625 8.296875 
L 28.515625 8.296875 
L 28.515625 63.921875 
L 10.984375 60.40625 
L 10.984375 69.390625 
L 28.421875 72.90625 
L 38.28125 72.90625 
L 38.28125 8.296875 
L 54.390625 8.296875 
L 54.390625 0 
L 12.40625 0 
z
" id="DejaVuSans-31"/>
      </defs>
      <g transform="translate(390.551944 322.182437)scale(0.1 -0.1)">
       <use xlink:href="#DejaVuSans-31"/>
       <use x="63.623047" xlink:href="#DejaVuSans-2e"/>
       <use x="95.410156" xlink:href="#DejaVuSans-30"/>
      </g>
     </g>
    </g>
    <g id="text_7">
     <!-- Time (seconds) -->
     <defs>
      <path d="M -0.296875 72.90625 
L 61.375 72.90625 
L 61.375 64.59375 
L 35.5 64.59375 
L 35.5 0 
L 25.59375 0 
L 25.59375 64.59375 
L -0.296875 64.59375 
z
" id="DejaVuSans-54"/>
      <path d="M 9.421875 54.6875 
L 18.40625 54.6875 
L 18.40625 0 
L 9.421875 0 
z
M 9.421875 75.984375 
L 18.40625 75.984375 
L 18.40625 64.59375 
L 9.421875 64.59375 
z
" id="DejaVuSans-69"/>
      <path d="M 52 44.1875 
Q 55.375 50.25 60.0625 53.125 
Q 64.75 56 71.09375 56 
Q 79.640625 56 84.28125 50.015625 
Q 88.921875 44.046875 88.921875 33.015625 
L 88.921875 0 
L 79.890625 0 
L 79.890625 32.71875 
Q 79.890625 40.578125 77.09375 44.375 
Q 74.3125 48.1875 68.609375 48.1875 
Q 61.625 48.1875 57.5625 43.546875 
Q 53.515625 38.921875 53.515625 30.90625 
L 53.515625 0 
L 44.484375 0 
L 44.484375 32.71875 
Q 44.484375 40.625 41.703125 44.40625 
Q 38.921875 48.1875 33.109375 48.1875 
Q 26.21875 48.1875 22.15625 43.53125 
Q 18.109375 38.875 18.109375 30.90625 
L 18.109375 0 
L 9.078125 0 
L 9.078125 54.6875 
L 18.109375 54.6875 
L 18.109375 46.1875 
Q 21.1875 51.21875 25.484375 53.609375 
Q 29.78125 56 35.6875 56 
Q 41.65625 56 45.828125 52.96875 
Q 50 49.953125 52 44.1875 
z
" id="DejaVuSans-6d"/>
      <path d="M 56.203125 29.59375 
L 56.203125 25.203125 
L 14.890625 25.203125 
Q 15.484375 15.921875 20.484375 11.0625 
Q 25.484375 6.203125 34.421875 6.203125 
Q 39.59375 6.203125 44.453125 7.46875 
Q 49.3125 8.734375 54.109375 11.28125 
L 54.109375 2.78125 
Q 49.265625 0.734375 44.1875 -0.34375 
Q 39.109375 -1.421875 33.890625 -1.421875 
Q 20.796875 -1.421875 13.15625 6.1875 
Q 5.515625 13.8125 5.515625 26.8125 
Q 5.515625 40.234375 12.765625 48.109375 
Q 20.015625 56 32.328125 56 
Q 43.359375 56 49.78125 48.890625 
Q 56.203125 41.796875 56.203125 29.59375 
z
M 47.21875 32.234375 
Q 47.125 39.59375 43.09375 43.984375 
Q 39.0625 48.390625 32.421875 48.390625 
Q 24.90625 48.390625 20.390625 44.140625 
Q 15.875 39.890625 15.1875 32.171875 
z
" id="DejaVuSans-65"/>
      <path id="DejaVuSans-20"/>
      <path d="M 31 75.875 
Q 24.46875 64.65625 21.28125 53.65625 
Q 18.109375 42.671875 18.109375 31.390625 
Q 18.109375 20.125 21.3125 9.0625 
Q 24.515625 -2 31 -13.1875 
L 23.1875 -13.1875 
Q 15.875 -1.703125 12.234375 9.375 
Q 8.59375 20.453125 8.59375 31.390625 
Q 8.59375 42.28125 12.203125 53.3125 
Q 15.828125 64.359375 23.1875 75.875 
z
" id="DejaVuSans-28"/>
      <path d="M 44.28125 53.078125 
L 44.28125 44.578125 
Q 40.484375 46.53125 36.375 47.5 
Q 32.28125 48.484375 27.875 48.484375 
Q 21.1875 48.484375 17.84375 46.4375 
Q 14.5 44.390625 14.5 40.28125 
Q 14.5 37.15625 16.890625 35.375 
Q 19.28125 33.59375 26.515625 31.984375 
L 29.59375 31.296875 
Q 39.15625 29.25 43.1875 25.515625 
Q 47.21875 21.78125 47.21875 15.09375 
Q 47.21875 7.46875 41.1875 3.015625 
Q 35.15625 -1.421875 24.609375 -1.421875 
Q 20.21875 -1.421875 15.453125 -0.5625 
Q 10.6875 0.296875 5.421875 2 
L 5.421875 11.28125 
Q 10.40625 8.6875 15.234375 7.390625 
Q 20.0625 6.109375 24.8125 6.109375 
Q 31.15625 6.109375 34.5625 8.28125 
Q 37.984375 10.453125 37.984375 14.40625 
Q 37.984375 18.0625 35.515625 20.015625 
Q 33.0625 21.96875 24.703125 23.78125 
L 21.578125 24.515625 
Q 13.234375 26.265625 9.515625 29.90625 
Q 5.8125 33.546875 5.8125 39.890625 
Q 5.8125 47.609375 11.28125 51.796875 
Q 16.75 56 26.8125 56 
Q 31.78125 56 36.171875 55.265625 
Q 40.578125 54.546875 44.28125 53.078125 
z
" id="DejaVuSans-73"/>
      <path d="M 48.78125 52.59375 
L 48.78125 44.1875 
Q 44.96875 46.296875 41.140625 47.34375 
Q 37.3125 48.390625 33.40625 48.390625 
Q 24.65625 48.390625 19.8125 42.84375 
Q 14.984375 37.3125 14.984375 27.296875 
Q 14.984375 17.28125 19.8125 11.734375 
Q 24.65625 6.203125 33.40625 6.203125 
Q 37.3125 6.203125 41.140625 7.25 
Q 44.96875 8.296875 48.78125 10.40625 
L 48.78125 2.09375 
Q 45.015625 0.34375 40.984375 -0.53125 
Q 36.96875 -1.421875 32.421875 -1.421875 
Q 20.0625 -1.421875 12.78125 6.34375 
Q 5.515625 14.109375 5.515625 27.296875 
Q 5.515625 40.671875 12.859375 48.328125 
Q 20.21875 56 33.015625 56 
Q 37.15625 56 41.109375 55.140625 
Q 45.0625 54.296875 48.78125 52.59375 
z
" id="DejaVuSans-63"/>
      <path d="M 30.609375 48.390625 
Q 23.390625 48.390625 19.1875 42.75 
Q 14.984375 37.109375 14.984375 27.296875 
Q 14.984375 17.484375 19.15625 11.84375 
Q 23.34375 6.203125 30.609375 6.203125 
Q 37.796875 6.203125 41.984375 11.859375 
Q 46.1875 17.53125 46.1875 27.296875 
Q 46.1875 37.015625 41.984375 42.703125 
Q 37.796875 48.390625 30.609375 48.390625 
z
M 30.609375 56 
Q 42.328125 56 49.015625 48.375 
Q 55.71875 40.765625 55.71875 27.296875 
Q 55.71875 13.875 49.015625 6.21875 
Q 42.328125 -1.421875 30.609375 -1.421875 
Q 18.84375 -1.421875 12.171875 6.21875 
Q 5.515625 13.875 5.515625 27.296875 
Q 5.515625 40.765625 12.171875 48.375 
Q 18.84375 56 30.609375 56 
z
" id="DejaVuSans-6f"/>
      <path d="M 54.890625 33.015625 
L 54.890625 0 
L 45.90625 0 
L 45.90625 32.71875 
Q 45.90625 40.484375 42.875 44.328125 
Q 39.84375 48.1875 33.796875 48.1875 
Q 26.515625 48.1875 22.3125 43.546875 
Q 18.109375 38.921875 18.109375 30.90625 
L 18.109375 0 
L 9.078125 0 
L 9.078125 54.6875 
L 18.109375 54.6875 
L 18.109375 46.1875 
Q 21.34375 51.125 25.703125 53.5625 
Q 30.078125 56 35.796875 56 
Q 45.21875 56 50.046875 50.171875 
Q 54.890625 44.34375 54.890625 33.015625 
z
" id="DejaVuSans-6e"/>
      <path d="M 45.40625 46.390625 
L 45.40625 75.984375 
L 54.390625 75.984375 
L 54.390625 0 
L 45.40625 0 
L 45.40625 8.203125 
Q 42.578125 3.328125 38.25 0.953125 
Q 33.9375 -1.421875 27.875 -1.421875 
Q 17.96875 -1.421875 11.734375 6.484375 
Q 5.515625 14.40625 5.515625 27.296875 
Q 5.515625 40.1875 11.734375 48.09375 
Q 17.96875 56 27.875 56 
Q 33.9375 56 38.25 53.625 
Q 42.578125 51.265625 45.40625 46.390625 
z
M 14.796875 27.296875 
Q 14.796875 17.390625 18.875 11.75 
Q 22.953125 6.109375 30.078125 6.109375 
Q 37.203125 6.109375 41.296875 11.75 
Q 45.40625 17.390625 45.40625 27.296875 
Q 45.40625 37.203125 41.296875 42.84375 
Q 37.203125 48.484375 30.078125 48.484375 
Q 22.953125 48.484375 18.875 42.84375 
Q 14.796875 37.203125 14.796875 27.296875 
z
" id="DejaVuSans-64"/>
      <path d="M 8.015625 75.875 
L 15.828125 75.875 
Q 23.140625 64.359375 26.78125 53.3125 
Q 30.421875 42.28125 30.421875 31.390625 
Q 30.421875 20.453125 26.78125 9.375 
Q 23.140625 -1.703125 15.828125 -13.1875 
L 8.015625 -13.1875 
Q 14.5 -2 17.703125 9.0625 
Q 20.90625 20.125 20.90625 31.390625 
Q 20.90625 42.671875 17.703125 53.65625 
Q 14.5 64.65625 8.015625 75.875 
z
" id="DejaVuSans-29"/>
     </defs>
     <g transform="translate(197.844375 335.860562)scale(0.1 -0.1)">
      <use xlink:href="#DejaVuSans-54"/>
      <use x="61.037109" xlink:href="#DejaVuSans-69"/>
      <use x="88.820312" xlink:href="#DejaVuSans-6d"/>
      <use x="186.232422" xlink:href="#DejaVuSans-65"/>
      <use x="247.755859" xlink:href="#DejaVuSans-20"/>
      <use x="279.542969" xlink:href="#DejaVuSans-28"/>
      <use x="318.556641" xlink:href="#DejaVuSans-73"/>
      <use x="370.65625" xlink:href="#DejaVuSans-65"/>
      <use x="432.179688" xlink:href="#DejaVuSans-63"/>
      <use x="487.160156" xlink:href="#DejaVuSans-6f"/>
      <use x="548.341797" xlink:href="#DejaVuSans-6e"/>
      <use x="611.720703" xlink:href="#DejaVuSans-64"/>
      <use x="675.197266" xlink:href="#DejaVuSans-73"/>
      <use x="727.296875" xlink:href="#DejaVuSans-29"/>
     </g>
    </g>
   </g>
   <g id="matplotlib.axis_2">
    <g id="ytick_1">
     <g id="line2d_7">
      <defs>
       <path d="M 0 0 
L -3.5 0 
" id="mefb7015931" style="stroke:#000000;stroke-width:0.8;"/>
      </defs>
      <g>
       <use style="stroke:#000000;stroke-width:0.8;" x="57.6" xlink:href="#mefb7015931" y="281.063121"/>
      </g>
     </g>
     <g id="text_8">
      <!-- −175 -->
      <defs>
       <path d="M 10.59375 35.5 
L 73.1875 35.5 
L 73.1875 27.203125 
L 10.59375 27.203125 
z
" id="DejaVuSans-2212"/>
       <path d="M 8.203125 72.90625 
L 55.078125 72.90625 
L 55.078125 68.703125 
L 28.609375 0 
L 18.3125 0 
L 43.21875 64.59375 
L 8.203125 64.59375 
z
" id="DejaVuSans-37"/>
       <path d="M 10.796875 72.90625 
L 49.515625 72.90625 
L 49.515625 64.59375 
L 19.828125 64.59375 
L 19.828125 46.734375 
Q 21.96875 47.46875 24.109375 47.828125 
Q 26.265625 48.1875 28.421875 48.1875 
Q 40.625 48.1875 47.75 41.5 
Q 54.890625 34.8125 54.890625 23.390625 
Q 54.890625 11.625 47.5625 5.09375 
Q 40.234375 -1.421875 26.90625 -1.421875 
Q 22.3125 -1.421875 17.546875 -0.640625 
Q 12.796875 0.140625 7.71875 1.703125 
L 7.71875 11.625 
Q 12.109375 9.234375 16.796875 8.0625 
Q 21.484375 6.890625 26.703125 6.890625 
Q 35.15625 6.890625 40.078125 11.328125 
Q 45.015625 15.765625 45.015625 23.390625 
Q 45.015625 31 40.078125 35.4375 
Q 35.15625 39.890625 26.703125 39.890625 
Q 22.75 39.890625 18.8125 39.015625 
Q 14.890625 38.140625 10.796875 36.28125 
z
" id="DejaVuSans-35"/>
      </defs>
      <g transform="translate(23.132812 284.86234)scale(0.1 -0.1)">
       <use xlink:href="#DejaVuSans-2212"/>
       <use x="83.789062" xlink:href="#DejaVuSans-31"/>
       <use x="147.412109" xlink:href="#DejaVuSans-37"/>
       <use x="211.035156" xlink:href="#DejaVuSans-35"/>
      </g>
     </g>
    </g>
    <g id="ytick_2">
     <g id="line2d_8">
      <g>
       <use style="stroke:#000000;stroke-width:0.8;" x="57.6" xlink:href="#mefb7015931" y="248.563818"/>
      </g>
     </g>
     <g id="text_9">
      <!-- −150 -->
      <g transform="translate(23.132812 252.363037)scale(0.1 -0.1)">
       <use xlink:href="#DejaVuSans-2212"/>
       <use x="83.789062" xlink:href="#DejaVuSans-31"/>
       <use x="147.412109" xlink:href="#DejaVuSans-35"/>
       <use x="211.035156" xlink:href="#DejaVuSans-30"/>
      </g>
     </g>
    </g>
    <g id="ytick_3">
     <g id="line2d_9">
      <g>
       <use style="stroke:#000000;stroke-width:0.8;" x="57.6" xlink:href="#mefb7015931" y="216.064515"/>
      </g>
     </g>
     <g id="text_10">
      <!-- −125 -->
      <g transform="translate(23.132812 219.863734)scale(0.1 -0.1)">
       <use xlink:href="#DejaVuSans-2212"/>
       <use x="83.789062" xlink:href="#DejaVuSans-31"/>
       <use x="147.412109" xlink:href="#DejaVuSans-32"/>
       <use x="211.035156" xlink:href="#DejaVuSans-35"/>
      </g>
     </g>
    </g>
    <g id="ytick_4">
     <g id="line2d_10">
      <g>
       <use style="stroke:#000000;stroke-width:0.8;" x="57.6" xlink:href="#mefb7015931" y="183.565212"/>
      </g>
     </g>
     <g id="text_11">
      <!-- −100 -->
      <g transform="translate(23.132812 187.364431)scale(0.1 -0.1)">
       <use xlink:href="#DejaVuSans-2212"/>
       <use x="83.789062" xlink:href="#DejaVuSans-31"/>
       <use x="147.412109" xlink:href="#DejaVuSans-30"/>
       <use x="211.035156" xlink:href="#DejaVuSans-30"/>
      </g>
     </g>
    </g>
    <g id="ytick_5">
     <g id="line2d_11">
      <g>
       <use style="stroke:#000000;stroke-width:0.8;" x="57.6" xlink:href="#mefb7015931" y="151.065909"/>
      </g>
     </g>
     <g id="text_12">
      <!-- −75 -->
      <g transform="translate(29.495313 154.865128)scale(0.1 -0.1)">
       <use xlink:href="#DejaVuSans-2212"/>
       <use x="83.789062" xlink:href="#DejaVuSans-37"/>
       <use x="147.412109" xlink:href="#DejaVuSans-35"/>
      </g>
     </g>
    </g>
    <g id="ytick_6">
     <g id="line2d_12">
      <g>
       <use style="stroke:#000000;stroke-width:0.8;" x="57.6" xlink:href="#mefb7015931" y="118.566606"/>
      </g>
     </g>
     <g id="text_13">
      <!-- −50 -->
      <g transform="translate(29.495313 122.365825)scale(0.1 -0.1)">
       <use xlink:href="#DejaVuSans-2212"/>
       <use x="83.789062" xlink:href="#DejaVuSans-35"/>
       <use x="147.412109" xlink:href="#DejaVuSans-30"/>
      </g>
     </g>
    </g>
    <g id="ytick_7">
     <g id="line2d_13">
      <g>
       <use style="stroke:#000000;stroke-width:0.8;" x="57.6" xlink:href="#mefb7015931" y="86.067303"/>
      </g>
     </g>
     <g id="text_14">
      <!-- −25 -->
      <g transform="translate(29.495313 89.866522)scale(0.1 -0.1)">
       <use xlink:href="#DejaVuSans-2212"/>
       <use x="83.789062" xlink:href="#DejaVuSans-32"/>
       <use x="147.412109" xlink:href="#DejaVuSans-35"/>
      </g>
     </g>
    </g>
    <g id="ytick_8">
     <g id="line2d_14">
      <g>
       <use style="stroke:#000000;stroke-width:0.8;" x="57.6" xlink:href="#mefb7015931" y="53.568"/>
      </g>
     </g>
     <g id="text_15">
      <!-- 0 -->
      <g transform="translate(44.2375 57.367219)scale(0.1 -0.1)">
       <use xlink:href="#DejaVuSans-30"/>
      </g>
     </g>
    </g>
    <g id="text_16">
     <!-- Mean EPSC (pA) -->
     <defs>
      <path d="M 9.8125 72.90625 
L 24.515625 72.90625 
L 43.109375 23.296875 
L 61.8125 72.90625 
L 76.515625 72.90625 
L 76.515625 0 
L 66.890625 0 
L 66.890625 64.015625 
L 48.09375 14.015625 
L 38.1875 14.015625 
L 19.390625 64.015625 
L 19.390625 0 
L 9.8125 0 
z
" id="DejaVuSans-4d"/>
      <path d="M 34.28125 27.484375 
Q 23.390625 27.484375 19.1875 25 
Q 14.984375 22.515625 14.984375 16.5 
Q 14.984375 11.71875 18.140625 8.90625 
Q 21.296875 6.109375 26.703125 6.109375 
Q 34.1875 6.109375 38.703125 11.40625 
Q 43.21875 16.703125 43.21875 25.484375 
L 43.21875 27.484375 
z
M 52.203125 31.203125 
L 52.203125 0 
L 43.21875 0 
L 43.21875 8.296875 
Q 40.140625 3.328125 35.546875 0.953125 
Q 30.953125 -1.421875 24.3125 -1.421875 
Q 15.921875 -1.421875 10.953125 3.296875 
Q 6 8.015625 6 15.921875 
Q 6 25.140625 12.171875 29.828125 
Q 18.359375 34.515625 30.609375 34.515625 
L 43.21875 34.515625 
L 43.21875 35.40625 
Q 43.21875 41.609375 39.140625 45 
Q 35.0625 48.390625 27.6875 48.390625 
Q 23 48.390625 18.546875 47.265625 
Q 14.109375 46.140625 10.015625 43.890625 
L 10.015625 52.203125 
Q 14.9375 54.109375 19.578125 55.046875 
Q 24.21875 56 28.609375 56 
Q 40.484375 56 46.34375 49.84375 
Q 52.203125 43.703125 52.203125 31.203125 
z
" id="DejaVuSans-61"/>
      <path d="M 9.8125 72.90625 
L 55.90625 72.90625 
L 55.90625 64.59375 
L 19.671875 64.59375 
L 19.671875 43.015625 
L 54.390625 43.015625 
L 54.390625 34.71875 
L 19.671875 34.71875 
L 19.671875 8.296875 
L 56.78125 8.296875 
L 56.78125 0 
L 9.8125 0 
z
" id="DejaVuSans-45"/>
      <path d="M 19.671875 64.796875 
L 19.671875 37.40625 
L 32.078125 37.40625 
Q 38.96875 37.40625 42.71875 40.96875 
Q 46.484375 44.53125 46.484375 51.125 
Q 46.484375 57.671875 42.71875 61.234375 
Q 38.96875 64.796875 32.078125 64.796875 
z
M 9.8125 72.90625 
L 32.078125 72.90625 
Q 44.34375 72.90625 50.609375 67.359375 
Q 56.890625 61.8125 56.890625 51.125 
Q 56.890625 40.328125 50.609375 34.8125 
Q 44.34375 29.296875 32.078125 29.296875 
L 19.671875 29.296875 
L 19.671875 0 
L 9.8125 0 
z
" id="DejaVuSans-50"/>
      <path d="M 53.515625 70.515625 
L 53.515625 60.890625 
Q 47.90625 63.578125 42.921875 64.890625 
Q 37.9375 66.21875 33.296875 66.21875 
Q 25.25 66.21875 20.875 63.09375 
Q 16.5 59.96875 16.5 54.203125 
Q 16.5 49.359375 19.40625 46.890625 
Q 22.3125 44.4375 30.421875 42.921875 
L 36.375 41.703125 
Q 47.40625 39.59375 52.65625 34.296875 
Q 57.90625 29 57.90625 20.125 
Q 57.90625 9.515625 50.796875 4.046875 
Q 43.703125 -1.421875 29.984375 -1.421875 
Q 24.8125 -1.421875 18.96875 -0.25 
Q 13.140625 0.921875 6.890625 3.21875 
L 6.890625 13.375 
Q 12.890625 10.015625 18.65625 8.296875 
Q 24.421875 6.59375 29.984375 6.59375 
Q 38.421875 6.59375 43.015625 9.90625 
Q 47.609375 13.234375 47.609375 19.390625 
Q 47.609375 24.75 44.3125 27.78125 
Q 41.015625 30.8125 33.5 32.328125 
L 27.484375 33.5 
Q 16.453125 35.6875 11.515625 40.375 
Q 6.59375 45.0625 6.59375 53.421875 
Q 6.59375 63.09375 13.40625 68.65625 
Q 20.21875 74.21875 32.171875 74.21875 
Q 37.3125 74.21875 42.625 73.28125 
Q 47.953125 72.359375 53.515625 70.515625 
z
" id="DejaVuSans-53"/>
      <path d="M 64.40625 67.28125 
L 64.40625 56.890625 
Q 59.421875 61.53125 53.78125 63.8125 
Q 48.140625 66.109375 41.796875 66.109375 
Q 29.296875 66.109375 22.65625 58.46875 
Q 16.015625 50.828125 16.015625 36.375 
Q 16.015625 21.96875 22.65625 14.328125 
Q 29.296875 6.6875 41.796875 6.6875 
Q 48.140625 6.6875 53.78125 8.984375 
Q 59.421875 11.28125 64.40625 15.921875 
L 64.40625 5.609375 
Q 59.234375 2.09375 53.4375 0.328125 
Q 47.65625 -1.421875 41.21875 -1.421875 
Q 24.65625 -1.421875 15.125 8.703125 
Q 5.609375 18.84375 5.609375 36.375 
Q 5.609375 53.953125 15.125 64.078125 
Q 24.65625 74.21875 41.21875 74.21875 
Q 47.75 74.21875 53.53125 72.484375 
Q 59.328125 70.75 64.40625 67.28125 
z
" id="DejaVuSans-43"/>
      <path d="M 18.109375 8.203125 
L 18.109375 -20.796875 
L 9.078125 -20.796875 
L 9.078125 54.6875 
L 18.109375 54.6875 
L 18.109375 46.390625 
Q 20.953125 51.265625 25.265625 53.625 
Q 29.59375 56 35.59375 56 
Q 45.5625 56 51.78125 48.09375 
Q 58.015625 40.1875 58.015625 27.296875 
Q 58.015625 14.40625 51.78125 6.484375 
Q 45.5625 -1.421875 35.59375 -1.421875 
Q 29.59375 -1.421875 25.265625 0.953125 
Q 20.953125 3.328125 18.109375 8.203125 
z
M 48.6875 27.296875 
Q 48.6875 37.203125 44.609375 42.84375 
Q 40.53125 48.484375 33.40625 48.484375 
Q 26.265625 48.484375 22.1875 42.84375 
Q 18.109375 37.203125 18.109375 27.296875 
Q 18.109375 17.390625 22.1875 11.75 
Q 26.265625 6.109375 33.40625 6.109375 
Q 40.53125 6.109375 44.609375 11.75 
Q 48.6875 17.390625 48.6875 27.296875 
z
" id="DejaVuSans-70"/>
      <path d="M 34.1875 63.1875 
L 20.796875 26.90625 
L 47.609375 26.90625 
z
M 28.609375 72.90625 
L 39.796875 72.90625 
L 67.578125 0 
L 57.328125 0 
L 50.6875 18.703125 
L 17.828125 18.703125 
L 11.1875 0 
L 0.78125 0 
z
" id="DejaVuSans-41"/>
     </defs>
     <g transform="translate(17.053125 214.6655)rotate(-90)scale(0.1 -0.1)">
      <use xlink:href="#DejaVuSans-4d"/>
      <use x="86.279297" xlink:href="#DejaVuSans-65"/>
      <use x="147.802734" xlink:href="#DejaVuSans-61"/>
      <use x="209.082031" xlink:href="#DejaVuSans-6e"/>
      <use x="272.460938" xlink:href="#DejaVuSans-20"/>
      <use x="304.248047" xlink:href="#DejaVuSans-45"/>
      <use x="367.431641" xlink:href="#DejaVuSans-50"/>
      <use x="427.734375" xlink:href="#DejaVuSans-53"/>
      <use x="491.210938" xlink:href="#DejaVuSans-43"/>
      <use x="561.035156" xlink:href="#DejaVuSans-20"/>
      <use x="592.822266" xlink:href="#DejaVuSans-28"/>
      <use x="631.835938" xlink:href="#DejaVuSans-70"/>
      <use x="695.3125" xlink:href="#DejaVuSans-41"/>
      <use x="763.720703" xlink:href="#DejaVuSans-29"/>
     </g>
    </g>
   </g>
   <g id="line2d_15">
    <path clip-path="url(#p2b98bfda17)" d="M 73.832727 53.568 
L 106.462141 53.67383 
L 106.91668 53.75755 
L 108.426399 53.663216 
L 111.819208 53.57984 
L 122.549578 53.610748 
L 122.841781 54.052586 
L 123.166452 54.156676 
L 123.783327 54.054248 
L 125.552782 53.739259 
L 127.857945 53.60942 
L 133.815654 53.569055 
L 307.222317 53.568 
L 398.487273 53.568 
L 398.487273 53.568 
" style="fill:none;stroke:#1f77b4;stroke-linecap:square;stroke-width:1.5;"/>
   </g>
   <g id="line2d_16">
    <path clip-path="url(#p2b98bfda17)" d="M 73.832727 53.568 
L 106.316039 53.635446 
L 106.608242 54.332833 
L 106.884213 54.49295 
L 107.290051 54.429734 
L 109.514046 53.807794 
L 111.397136 53.643199 
L 115.293186 53.574822 
L 122.533344 53.568079 
L 122.809314 55.494889 
L 123.052817 55.994825 
L 123.280087 56.026166 
L 123.620991 55.774336 
L 125.049543 54.54852 
L 125.974854 54.123521 
L 127.159903 53.835763 
L 128.913125 53.658932 
L 132.338402 53.579024 
L 150.40633 53.568 
L 398.487273 53.568 
L 398.487273 53.568 
" style="fill:none;stroke:#ff7f0e;stroke-linecap:square;stroke-width:1.5;"/>
   </g>
   <g id="line2d_17">
    <path clip-path="url(#p2b98bfda17)" d="M 73.832727 53.568 
L 106.299805 53.568 
L 106.575775 55.597991 
L 106.819278 56.124704 
L 107.030314 56.163604 
L 107.338752 55.940738 
L 108.945872 54.522112 
L 109.887417 54.102917 
L 111.104933 53.820712 
L 112.923089 53.650455 
L 116.575635 53.576691 
L 122.533344 53.568221 
L 122.809314 59.096802 
L 123.052817 60.531263 
L 123.231386 60.661043 
L 123.409955 60.415548 
L 123.832027 59.292802 
L 124.741105 56.962223 
L 125.439148 55.783873 
L 126.153423 54.996021 
L 126.948867 54.442944 
L 127.906646 54.053014 
L 129.172862 53.790334 
L 131.13712 53.634299 
L 135.374073 53.572875 
L 174.172232 53.568 
L 398.487273 53.568 
L 398.487273 53.568 
" style="fill:none;stroke:#2ca02c;stroke-linecap:square;stroke-width:1.5;"/>
   </g>
   <g id="line2d_18">
    <path clip-path="url(#p2b98bfda17)" d="M 73.832727 53.568 
L 106.299805 53.568 
L 106.575775 58.07808 
L 106.819278 59.248292 
L 106.997847 59.354176 
L 107.19265 59.126608 
L 107.663422 58.083119 
L 108.540034 56.282942 
L 109.254309 55.322344 
L 110.017286 54.66511 
L 110.893897 54.207398 
L 111.997777 53.891934 
L 113.572431 53.690798 
L 116.397066 53.589554 
L 122.533344 53.568492 
L 122.809314 65.757464 
L 123.052817 68.920049 
L 123.198919 69.232258 
L 123.215153 69.222739 
L 123.328788 68.98091 
L 123.588524 67.719903 
L 125.000842 59.957995 
L 125.666417 57.816561 
L 126.331992 56.388568 
L 127.030034 55.402935 
L 127.776777 54.726379 
L 128.637155 54.249829 
L 129.708568 53.920404 
L 131.218287 53.707042 
L 133.831887 53.595793 
L 141.96489 53.568185 
L 398.487273 53.568 
L 398.487273 53.568 
" style="fill:none;stroke:#d62728;stroke-linecap:square;stroke-width:1.5;"/>
   </g>
   <g id="line2d_19">
    <path clip-path="url(#p2b98bfda17)" d="M 73.832727 53.568 
L 106.299805 53.568 
L 106.575775 62.160314 
L 106.819278 64.389726 
L 106.96538 64.60983 
L 106.981614 64.603122 
L 107.111482 64.393713 
L 107.403686 63.336792 
L 108.653668 58.395388 
L 109.319243 56.779539 
L 110.001052 55.67914 
L 110.731561 54.914245 
L 111.543238 54.384552 
L 112.533484 54.011675 
L 113.864634 53.763409 
L 115.974994 53.621255 
L 120.926224 53.570522 
L 122.533344 53.568937 
L 122.809314 75.890601 
L 123.052817 81.682238 
L 123.182686 82.257713 
L 123.215153 82.236552 
L 123.328788 81.793689 
L 123.588524 79.484403 
L 125.000842 65.270008 
L 125.650184 61.426448 
L 126.299525 58.837618 
L 126.948867 57.100594 
L 127.630675 55.889115 
L 128.344951 55.062887 
L 129.140394 54.483808 
L 130.08194 54.080759 
L 131.315689 53.8078 
L 133.198779 53.643174 
L 137.094829 53.57482 
L 165.292486 53.568 
L 398.487273 53.568 
L 398.487273 53.568 
" style="fill:none;stroke:#9467bd;stroke-linecap:square;stroke-width:1.5;"/>
   </g>
   <g id="line2d_20">
    <path clip-path="url(#p2b98bfda17)" d="M 73.832727 53.568 
L 106.299805 53.568 
L 106.575775 68.487979 
L 106.819278 72.359204 
L 106.96538 72.741401 
L 106.981614 72.729753 
L 107.095249 72.43377 
L 107.354985 70.890291 
L 108.767303 61.389528 
L 109.416645 58.820524 
L 110.08222 57.055137 
L 110.764028 55.859379 
L 111.478304 55.043752 
L 112.273748 54.472087 
L 113.215293 54.074197 
L 114.465275 53.802376 
L 116.364599 53.640743 
L 120.341816 53.574277 
L 122.533344 53.569627 
L 122.809314 89.889726 
L 123.052817 99.313427 
L 123.182686 100.24979 
L 123.215153 100.215357 
L 123.312554 99.645952 
L 123.539824 96.577005 
L 125.179411 70.639181 
L 125.828753 65.024633 
L 126.478094 61.249435 
L 127.127436 58.717267 
L 127.776777 57.01969 
L 128.458586 55.835927 
L 129.172862 55.028628 
L 129.968305 54.462819 
L 130.926084 54.064023 
L 132.176066 53.797665 
L 134.107857 53.637869 
L 138.198709 53.573622 
L 172.061871 53.568 
L 398.487273 53.568 
L 398.487273 53.568 
" style="fill:none;stroke:#8c564b;stroke-linecap:square;stroke-width:1.5;"/>
   </g>
   <g id="line2d_21">
    <path clip-path="url(#p2b98bfda17)" d="M 73.832727 53.568 
L 106.299805 53.568 
L 106.575775 76.804166 
L 106.819278 82.833157 
L 106.949147 83.43226 
L 106.981614 83.410245 
L 107.095249 82.949285 
L 107.354985 80.545493 
L 108.767303 65.749137 
L 109.416645 61.748206 
L 110.065986 59.053379 
L 110.715328 57.245233 
L 111.380903 56.008434 
L 112.095179 55.139733 
L 112.874388 54.540563 
L 113.7997 54.118009 
L 114.984749 53.833054 
L 116.754204 53.657116 
L 120.228182 53.578485 
L 122.533344 53.570534 
L 122.809314 107.658729 
L 123.052817 121.692574 
L 123.182686 123.087008 
L 123.215153 123.035729 
L 123.312554 122.187762 
L 123.539824 117.61745 
L 125.179411 78.990575 
L 125.828753 70.629334 
L 126.478094 65.007271 
L 127.127436 61.23634 
L 127.776777 58.708292 
L 128.426119 57.013647 
L 129.107927 55.831953 
L 129.822203 55.026068 
L 130.617647 54.461251 
L 131.575425 54.063153 
L 132.825408 53.797262 
L 134.757199 53.637747 
L 138.848051 53.573612 
L 172.776147 53.568 
L 398.487273 53.568 
L 398.487273 53.568 
" style="fill:none;stroke:#e377c2;stroke-linecap:square;stroke-width:1.5;"/>
   </g>
   <g id="line2d_22">
    <path clip-path="url(#p2b98bfda17)" d="M 73.832727 53.568 
L 106.299805 53.568 
L 106.575775 87.890729 
L 106.819278 96.796305 
L 106.949147 97.681254 
L 106.981614 97.648735 
L 107.079015 97.110707 
L 107.306285 94.210677 
L 108.945872 69.699962 
L 109.595214 64.394315 
L 110.244555 60.82682 
L 110.893897 58.433966 
L 111.559472 56.797331 
L 112.24128 55.689826 
L 112.97179 54.920936 
L 113.783467 54.388597 
L 114.773713 54.013872 
L 116.104863 53.764376 
L 118.215223 53.621519 
L 122.533344 53.571744 
L 122.809314 125.64545 
L 123.052817 144.345828 
L 123.182686 146.203923 
L 123.215153 146.135587 
L 123.312554 145.005638 
L 123.539824 138.915562 
L 125.179411 87.444238 
L 125.828753 76.302668 
L 126.478094 68.811123 
L 127.127436 63.786261 
L 127.776777 60.417572 
L 128.426119 58.159414 
L 129.091694 56.615094 
L 129.773502 55.570084 
L 130.504012 54.844585 
L 131.331922 54.334584 
L 132.354635 53.976276 
L 133.75072 53.740767 
L 136.023415 53.610604 
L 141.851255 53.569176 
L 297.644529 53.568 
L 398.487273 53.568 
L 398.487273 53.568 
" style="fill:none;stroke:#7f7f7f;stroke-linecap:square;stroke-width:1.5;"/>
   </g>
   <g id="line2d_23">
    <path clip-path="url(#p2b98bfda17)" d="M 73.832727 53.568 
L 106.299805 53.568 
L 106.575775 100.332642 
L 106.819278 112.46647 
L 106.949147 113.672211 
L 106.981614 113.627904 
L 107.079015 112.894842 
L 107.306285 108.943557 
L 108.945872 75.547763 
L 109.595214 68.31883 
L 110.244555 63.458126 
L 110.893897 60.197867 
L 111.543238 58.012176 
L 112.208813 56.517384 
L 112.890622 55.505884 
L 113.637365 54.791355 
L 114.481509 54.29531 
L 115.520455 53.951505 
L 116.96524 53.725488 
L 119.384038 53.603494 
L 122.533344 53.573101 
L 122.809314 144.755011 
L 123.052817 168.413211 
L 123.182686 170.763906 
L 123.215153 170.677448 
L 123.312554 169.247912 
L 123.539824 161.543199 
L 125.179411 96.425615 
L 125.828753 82.330156 
L 126.478094 72.852429 
L 127.127436 66.495359 
L 127.776777 62.233552 
L 128.426119 59.376705 
L 129.07546 57.461693 
L 129.741035 56.15205 
L 130.439078 55.248948 
L 131.202054 54.618596 
L 132.094899 54.174141 
L 133.231246 53.869001 
L 134.870834 53.67763 
L 137.906506 53.584897 
L 150.260229 53.568008 
L 398.487273 53.568 
L 398.487273 53.568 
" style="fill:none;stroke:#bcbd22;stroke-linecap:square;stroke-width:1.5;"/>
   </g>
   <g id="line2d_24">
    <path clip-path="url(#p2b98bfda17)" d="M 73.832727 53.568 
L 106.299805 53.568 
L 106.575775 114.425251 
L 106.819278 130.215629 
L 106.949147 131.784723 
L 106.981614 131.727064 
L 107.079015 130.773092 
L 107.306285 125.63108 
L 108.945872 82.171404 
L 109.595214 72.764019 
L 110.244555 66.438533 
L 110.893897 62.19579 
L 111.543238 59.351436 
L 112.19258 57.444761 
L 112.858155 56.140814 
L 113.556197 55.241639 
L 114.319173 54.614028 
L 115.212018 54.171506 
L 116.348366 53.867692 
L 118.004187 53.676067 
L 121.056092 53.58449 
L 122.533344 53.574638 
L 122.809314 162.399124 
L 123.052817 190.634853 
L 123.182686 193.44035 
L 123.215153 193.337156 
L 123.312554 191.631 
L 123.539824 182.435468 
L 125.179411 104.718184 
L 125.828753 87.895379 
L 126.478094 76.583795 
L 127.111202 69.151742 
L 127.760544 64.0142 
L 128.409885 60.570311 
L 129.059227 58.261792 
L 129.724802 56.683036 
L 130.406611 55.614725 
L 131.13712 54.873049 
L 131.96503 54.351676 
L 132.97151 53.989574 
L 134.335127 53.749998 
L 136.542888 53.614712 
L 141.997357 53.569623 
L 255.339926 53.568 
L 398.487273 53.568 
L 398.487273 53.568 
" style="fill:none;stroke:#17becf;stroke-linecap:square;stroke-width:1.5;"/>
   </g>
   <g id="line2d_25">
    <path clip-path="url(#p2b98bfda17)" d="M 73.832727 53.568 
L 106.299805 53.568 
L 106.575775 129.139904 
L 106.819278 148.748233 
L 106.949147 150.696717 
L 106.981614 150.625117 
L 107.079015 149.440485 
L 107.306285 143.055188 
L 108.945872 89.087411 
L 109.595214 77.405418 
L 110.244555 69.550494 
L 110.893897 64.2819 
L 111.543238 60.749811 
L 112.19258 58.382122 
L 112.858155 56.762894 
L 113.539964 55.667195 
L 114.270473 54.906506 
L 115.08215 54.379845 
L 116.072396 54.009117 
L 117.403546 53.762282 
L 119.530139 53.620421 
L 122.533344 53.576243 
L 122.809314 177.795842 
L 123.052817 210.025953 
L 123.182686 213.228301 
L 123.215153 213.1105 
L 123.312554 211.162952 
L 123.539824 200.66649 
L 125.179411 111.954445 
L 125.828753 92.751702 
L 126.478094 79.83986 
L 127.111202 71.356387 
L 127.760544 65.492033 
L 128.409885 61.560934 
L 129.059227 58.925826 
L 129.708568 57.159459 
L 130.374143 55.951473 
L 131.088419 55.103043 
L 131.867629 54.517859 
L 132.792941 54.10517 
L 133.994223 53.824291 
L 135.796145 53.652463 
L 139.383758 53.577266 
L 160.568526 53.568 
L 398.487273 53.568 
L 398.487273 53.568 
" style="fill:none;stroke:#1f77b4;stroke-linecap:square;stroke-width:1.5;"/>
   </g>
   <g id="line2d_26">
    <path clip-path="url(#p2b98bfda17)" d="M 73.832727 53.568 
L 106.299805 53.568 
L 106.575775 144.185304 
L 106.819278 167.6974 
L 106.949147 170.033802 
L 106.981614 169.947948 
L 107.079015 168.52747 
L 107.306285 160.870942 
L 108.945872 96.158871 
L 109.595214 82.151143 
L 110.244555 72.732405 
L 110.893897 66.4149 
L 111.543238 62.179618 
L 112.19258 59.340552 
L 112.841921 57.437459 
L 113.507496 56.135967 
L 114.205539 55.238486 
L 114.968515 54.612058 
L 115.86136 54.170369 
L 116.997707 53.867128 
L 118.653528 53.675864 
L 121.721667 53.584295 
L 122.533344 53.577884 
L 122.809314 192.492662 
L 123.052817 228.535544 
L 123.182686 232.116696 
L 123.215153 231.98495 
L 123.312554 229.80698 
L 123.539824 218.068723 
L 125.179411 118.861741 
L 125.828753 97.387255 
L 126.478094 82.947902 
L 127.111202 73.460808 
L 127.760544 66.902682 
L 128.409885 62.506523 
L 129.059227 59.559674 
L 129.708568 57.584339 
L 130.374143 56.233445 
L 131.072186 55.301896 
L 131.835162 54.651689 
L 132.711773 54.199518 
L 133.831887 53.884754 
L 135.439008 53.685698 
L 138.328578 53.587848 
L 149.091414 53.568026 
L 398.487273 53.568 
L 398.487273 53.568 
" style="fill:none;stroke:#ff7f0e;stroke-linecap:square;stroke-width:1.5;"/>
   </g>
   <g id="line2d_27">
    <path clip-path="url(#p2b98bfda17)" d="M 73.832727 53.568 
L 106.299805 53.568 
L 106.575775 158.19295 
L 106.819278 185.339553 
L 106.949147 188.037116 
L 106.981614 187.937991 
L 107.079015 186.297935 
L 107.306285 177.457859 
L 108.945872 102.742579 
L 109.595214 86.569532 
L 110.244555 75.694843 
L 110.893897 68.400778 
L 111.543238 63.510804 
L 112.19258 60.232874 
L 112.841921 58.035601 
L 113.507496 56.532924 
L 114.189305 55.516094 
L 114.919814 54.81016 
L 115.763958 54.306489 
L 116.802905 53.9574 
L 118.231456 53.729516 
L 120.601553 53.60551 
L 122.533344 53.579411 
L 122.809314 204.073093 
L 123.052817 243.120187 
L 123.182686 246.999801 
L 123.215153 246.857064 
L 123.312554 244.497526 
L 123.539824 231.78079 
L 125.179411 124.304331 
L 125.828753 101.039829 
L 126.478094 85.396877 
L 127.111202 75.118983 
L 127.74431 68.159386 
L 128.393652 63.348919 
L 129.042993 60.124349 
L 129.692335 57.962853 
L 130.35791 56.484645 
L 131.039719 55.484372 
L 131.786461 54.777775 
L 132.630605 54.287236 
L 133.685785 53.943474 
L 135.146804 53.720656 
L 137.598068 53.601723 
L 144.57849 53.568458 
L 398.487273 53.568 
L 398.487273 53.568 
" style="fill:none;stroke:#2ca02c;stroke-linecap:square;stroke-width:1.5;"/>
   </g>
   <g id="line2d_28">
    <path clip-path="url(#p2b98bfda17)" d="M 73.832727 53.568 
L 106.299805 53.568 
L 106.575775 172.042809 
L 106.819278 202.782978 
L 106.949147 205.837634 
L 106.981614 205.725387 
L 107.079015 203.868227 
L 107.306285 193.857934 
L 108.945872 109.252126 
L 109.595214 90.938152 
L 110.244555 78.623912 
L 110.877663 70.533082 
L 111.527005 64.940149 
L 112.176346 61.190995 
L 112.825688 58.677849 
L 113.475029 56.993234 
L 114.156838 55.818539 
L 114.871114 55.017429 
L 115.666557 54.455959 
L 116.624336 54.06022 
L 117.890552 53.793636 
L 119.838577 53.63596 
L 122.533344 53.580922 
L 122.809314 214.682512 
L 123.052817 256.48188 
L 123.182686 260.634921 
L 123.215153 260.482114 
L 123.312554 257.956229 
L 123.539824 244.343056 
L 125.179411 129.290542 
L 125.828753 104.386123 
L 126.478094 87.640497 
L 127.111202 76.638113 
L 127.74431 69.187934 
L 128.393652 64.038377 
L 129.042993 60.586507 
L 129.692335 58.272646 
L 130.35791 56.69024 
L 131.039719 55.619458 
L 131.770228 54.876067 
L 132.598138 54.353489 
L 133.604618 53.990549 
L 134.968235 53.750419 
L 137.175996 53.61482 
L 142.614232 53.569643 
L 254.593183 53.568 
L 398.487273 53.568 
L 398.487273 53.568 
" style="fill:none;stroke:#d62728;stroke-linecap:square;stroke-width:1.5;"/>
   </g>
   <g id="line2d_29">
    <path clip-path="url(#p2b98bfda17)" d="M 73.832727 53.568 
L 106.299805 53.568 
L 106.575775 184.071037 
L 106.819278 217.93212 
L 106.949147 221.296903 
L 106.981614 221.173259 
L 107.079015 219.12755 
L 107.306285 208.100956 
L 108.945872 114.905491 
L 109.595214 94.732179 
L 110.244555 81.167729 
L 110.877663 72.255473 
L 111.527005 66.094714 
L 112.176346 61.964924 
L 112.825688 59.196629 
L 113.475029 57.340983 
L 114.140604 56.071941 
L 114.838647 55.196837 
L 115.617857 54.575897 
L 116.526935 54.14372 
L 117.69575 53.848233 
L 119.416505 53.665088 
L 122.533344 53.582234 
L 122.809314 222.391921 
L 123.052817 266.191176 
L 123.182686 270.542888 
L 123.215153 270.38276 
L 123.312554 267.735993 
L 123.539824 253.471417 
L 125.179411 132.913763 
L 125.828753 106.817701 
L 126.478094 89.27082 
L 127.111202 77.741987 
L 127.74431 69.935327 
L 128.393652 64.539371 
L 129.042993 60.922333 
L 129.692335 58.497757 
L 130.35791 56.839635 
L 131.039719 55.717617 
L 131.770228 54.938656 
L 132.581905 54.399345 
L 133.555917 54.024252 
L 134.870834 53.770967 
L 136.932493 53.625 
L 141.656453 53.571105 
L 201.655613 53.568 
L 398.487273 53.568 
L 398.487273 53.568 
" style="fill:none;stroke:#9467bd;stroke-linecap:square;stroke-width:1.5;"/>
   </g>
   <g id="line2d_30">
    <path clip-path="url(#p2b98bfda17)" d="M 73.832727 53.568 
L 106.299805 53.568 
L 106.575775 194.836969 
L 106.819278 231.491444 
L 106.949147 235.133806 
L 106.981614 234.999963 
L 107.079015 232.785491 
L 107.306285 220.849252 
L 108.945872 119.965567 
L 109.595214 98.128045 
L 110.244555 83.444586 
L 110.877663 73.797108 
L 111.527005 67.128113 
L 112.176346 62.657634 
L 112.825688 59.660966 
L 113.475029 57.652238 
L 114.140604 56.278506 
L 114.838647 55.331209 
L 115.601623 54.670009 
L 116.478234 54.210194 
L 117.582115 53.893346 
L 119.156768 53.691333 
L 121.96517 53.589865 
L 122.533344 53.583408 
L 122.809314 229.2789 
L 123.052817 274.864696 
L 123.182686 279.393886 
L 123.215153 279.227218 
L 123.312554 276.472464 
L 123.539824 261.625975 
L 125.179411 136.150464 
L 125.828753 108.989882 
L 126.478094 90.727223 
L 127.111202 78.728101 
L 127.74431 70.602989 
L 128.393652 64.986919 
L 129.042993 61.222333 
L 129.692335 58.698854 
L 130.341676 57.007314 
L 131.023485 55.82779 
L 131.737761 55.023387 
L 132.533204 54.459609 
L 133.490983 54.062243 
L 134.757199 53.794564 
L 136.68899 53.636926 
L 140.812309 53.573436 
L 175.779352 53.568 
L 398.487273 53.568 
L 398.487273 53.568 
" style="fill:none;stroke:#8c564b;stroke-linecap:square;stroke-width:1.5;"/>
   </g>
   <g id="line2d_31">
    <path clip-path="url(#p2b98bfda17)" d="M 73.832727 53.568 
L 106.299805 53.568 
L 106.575775 204.806885 
L 106.819278 244.048213 
L 106.949147 247.947631 
L 106.981614 247.804342 
L 107.079015 245.433587 
L 107.306285 232.654959 
L 108.945872 124.651509 
L 109.595214 101.272825 
L 110.244555 85.553096 
L 110.877663 75.224757 
L 111.510771 68.231002 
L 112.160113 63.396925 
L 112.809454 60.156528 
L 113.458796 57.984423 
L 114.124371 56.49896 
L 114.80618 55.493778 
L 115.552922 54.783712 
L 116.397066 54.290766 
L 117.436013 53.949109 
L 118.880798 53.724505 
L 121.299595 53.603272 
L 122.533344 53.584495 
L 122.809314 234.088276 
L 123.052817 280.921576 
L 123.182686 285.574682 
L 123.215153 285.403444 
L 123.312554 282.573274 
L 123.539824 267.320415 
L 125.179411 138.410692 
L 125.828753 110.506743 
L 126.478094 91.744246 
L 127.111202 79.416716 
L 127.74431 71.069226 
L 128.393652 65.299447 
L 129.042993 61.431828 
L 129.692335 58.839282 
L 130.341676 57.101446 
L 131.023485 55.889639 
L 131.737761 55.06322 
L 132.533204 54.484011 
L 133.474749 54.080873 
L 134.708498 53.807854 
L 136.591589 53.643191 
L 140.487638 53.574821 
L 168.685295 53.568 
L 398.487273 53.568 
L 398.487273 53.568 
" style="fill:none;stroke:#e377c2;stroke-linecap:square;stroke-width:1.5;"/>
   </g>
   <g id="line2d_32">
    <path clip-path="url(#p2b98bfda17)" d="M 73.832727 53.568 
L 106.299805 53.568 
L 106.575775 211.900222 
L 106.819278 252.982028 
L 106.949147 257.064336 
L 106.981614 256.914326 
L 107.079015 254.432378 
L 107.306285 241.054413 
L 108.945872 127.985435 
L 109.595214 103.510255 
L 110.244555 87.053247 
L 110.877663 76.240492 
L 111.510771 68.91872 
L 112.160113 63.857917 
L 112.809454 60.465541 
L 113.458796 58.19156 
L 114.124371 56.636427 
L 114.80618 55.5841 
L 115.536689 54.853522 
L 116.364599 54.33995 
L 117.371079 53.983266 
L 118.75093 53.745491 
L 120.991158 53.612653 
L 122.533344 53.585269 
L 122.809314 239.213974 
L 123.052817 287.376956 
L 123.182686 292.162159 
L 123.215153 291.986056 
L 123.312554 289.075517 
L 123.539824 273.389566 
L 125.179411 140.819657 
L 125.828753 112.123422 
L 126.478094 92.828196 
L 127.111202 80.150647 
L 127.74431 71.566143 
L 128.393652 65.632542 
L 129.042993 61.655108 
L 129.692335 58.988951 
L 130.341676 57.201772 
L 131.007251 55.979554 
L 131.721527 55.121128 
L 132.500737 54.52905 
L 133.426049 54.111498 
L 134.627331 53.827311 
L 136.41302 53.654317 
L 139.951931 53.577757 
L 160.146454 53.568 
L 398.487273 53.568 
L 398.487273 53.568 
" style="fill:none;stroke:#7f7f7f;stroke-linecap:square;stroke-width:1.5;"/>
   </g>
   <g id="line2d_33">
    <path clip-path="url(#p2b98bfda17)" d="M 73.832727 53.568 
L 106.299805 53.568 
L 106.575775 218.90354 
L 106.819278 261.802468 
L 106.949147 266.065343 
L 106.981614 265.908698 
L 107.079015 263.316969 
L 107.306285 249.347273 
L 108.945872 131.277051 
L 109.595214 105.71929 
L 110.244555 88.534359 
L 110.877663 77.243337 
L 111.510771 69.59771 
L 112.160113 64.313058 
L 112.809454 60.770631 
L 113.458796 58.396068 
L 114.124371 56.772149 
L 114.80618 55.673276 
L 115.536689 54.910383 
L 116.348366 54.382197 
L 117.338612 54.010394 
L 118.669762 53.762844 
L 120.796355 53.620573 
L 122.533344 53.586033 
L 122.809314 241.801921 
L 123.052817 290.636131 
L 123.182686 295.488 
L 123.215153 295.309435 
L 123.312554 292.35831 
L 123.539824 276.453688 
L 125.179411 142.03586 
L 125.828753 112.939627 
L 126.478094 93.375445 
L 127.111202 80.521183 
L 127.74431 71.81702 
L 128.393652 65.80071 
L 129.042993 61.767834 
L 129.692335 59.064514 
L 130.341676 57.252423 
L 131.007251 56.013168 
L 131.721527 55.142778 
L 132.500737 54.542446 
L 133.426049 54.119074 
L 134.611097 53.833568 
L 136.380553 53.657288 
L 139.838297 53.578611 
L 158.539334 53.568 
L 398.487273 53.568 
L 398.487273 53.568 
" style="fill:none;stroke:#bcbd22;stroke-linecap:square;stroke-width:1.5;"/>
   </g>
   <g id="patch_3">
    <path d="M 57.6 307.584 
L 57.6 41.472 
" style="fill:none;stroke:#000000;stroke-linecap:square;stroke-linejoin:miter;stroke-width:0.8;"/>
   </g>
   <g id="patch_4">
    <path d="M 414.72 307.584 
L 414.72 41.472 
" style="fill:none;stroke:#000000;stroke-linecap:square;stroke-linejoin:miter;stroke-width:0.8;"/>
   </g>
   <g id="patch_5">
    <path d="M 57.6 307.584 
L 414.72 307.584 
" style="fill:none;stroke:#000000;stroke-linecap:square;stroke-linejoin:miter;stroke-width:0.8;"/>
   </g>
   <g id="patch_6">
    <path d="M 57.6 41.472 
L 414.72 41.472 
" style="fill:none;stroke:#000000;stroke-linecap:square;stroke-linejoin:miter;stroke-width:0.8;"/>
   </g>
   <g id="text_17">
    <!-- Mean EPSC across conditions -->
    <defs>
     <path d="M 41.109375 46.296875 
Q 39.59375 47.171875 37.8125 47.578125 
Q 36.03125 48 33.890625 48 
Q 26.265625 48 22.1875 43.046875 
Q 18.109375 38.09375 18.109375 28.8125 
L 18.109375 0 
L 9.078125 0 
L 9.078125 54.6875 
L 18.109375 54.6875 
L 18.109375 46.1875 
Q 20.953125 51.171875 25.484375 53.578125 
Q 30.03125 56 36.53125 56 
Q 37.453125 56 38.578125 55.875 
Q 39.703125 55.765625 41.0625 55.515625 
z
" id="DejaVuSans-72"/>
     <path d="M 18.3125 70.21875 
L 18.3125 54.6875 
L 36.8125 54.6875 
L 36.8125 47.703125 
L 18.3125 47.703125 
L 18.3125 18.015625 
Q 18.3125 11.328125 20.140625 9.421875 
Q 21.96875 7.515625 27.59375 7.515625 
L 36.8125 7.515625 
L 36.8125 0 
L 27.59375 0 
Q 17.1875 0 13.234375 3.875 
Q 9.28125 7.765625 9.28125 18.015625 
L 9.28125 47.703125 
L 2.6875 47.703125 
L 2.6875 54.6875 
L 9.28125 54.6875 
L 9.28125 70.21875 
z
" id="DejaVuSans-74"/>
    </defs>
    <g transform="translate(148.453125 35.472)scale(0.12 -0.12)">
     <use xlink:href="#DejaVuSans-4d"/>
     <use x="86.279297" xlink:href="#DejaVuSans-65"/>
     <use x="147.802734" xlink:href="#DejaVuSans-61"/>
     <use x="209.082031" xlink:href="#DejaVuSans-6e"/>
     <use x="272.460938" xlink:href="#DejaVuSans-20"/>
     <use x="304.248047" xlink:href="#DejaVuSans-45"/>
     <use x="367.431641" xlink:href="#DejaVuSans-50"/>
     <use x="427.734375" xlink:href="#DejaVuSans-53"/>
     <use x="491.210938" xlink:href="#DejaVuSans-43"/>
     <use x="561.035156" xlink:href="#DejaVuSans-20"/>
     <use x="592.822266" xlink:href="#DejaVuSans-61"/>
     <use x="654.101562" xlink:href="#DejaVuSans-63"/>
     <use x="709.082031" xlink:href="#DejaVuSans-72"/>
     <use x="750.164062" xlink:href="#DejaVuSans-6f"/>
     <use x="811.345703" xlink:href="#DejaVuSans-73"/>
     <use x="863.445312" xlink:href="#DejaVuSans-73"/>
     <use x="915.544922" xlink:href="#DejaVuSans-20"/>
     <use x="947.332031" xlink:href="#DejaVuSans-63"/>
     <use x="1002.3125" xlink:href="#DejaVuSans-6f"/>
     <use x="1063.494141" xlink:href="#DejaVuSans-6e"/>
     <use x="1126.873047" xlink:href="#DejaVuSans-64"/>
     <use x="1190.349609" xlink:href="#DejaVuSans-69"/>
     <use x="1218.132812" xlink:href="#DejaVuSans-74"/>
     <use x="1257.341797" xlink:href="#DejaVuSans-69"/>
     <use x="1285.125" xlink:href="#DejaVuSans-6f"/>
     <use x="1346.306641" xlink:href="#DejaVuSans-6e"/>
     <use x="1409.685547" xlink:href="#DejaVuSans-73"/>
    </g>
   </g>
  </g>
 </g>
 <defs>
  <clipPath id="p2b98bfda17">
   <rect height="266.112" width="357.12" x="57.6" y="41.472"/>
  </clipPath>
 </defs>
</svg>
