<?xml version="1.0" encoding="utf-8" standalone="no"?>
<!DOCTYPE svg PUBLIC "-//W3C//DTD SVG 1.1//EN"
  "http://www.w3.org/Graphics/SVG/1.1/DTD/svg11.dtd">
<!-- Created with matplotlib (http://matplotlib.org/) -->
<svg height="345pt" version="1.1" viewBox="0 0 460 345" width="460pt" xmlns="http://www.w3.org/2000/svg" xmlns:xlink="http://www.w3.org/1999/xlink">
 <defs>
  <style type="text/css">
*{stroke-linecap:butt;stroke-linejoin:round;}
  </style>
 </defs>
 <g id="figure_1">
  <g id="patch_1">
   <path d="M 0 345.6 
L 460.8 345.6 
L 460.8 0 
L 0 0 
z
" style="fill:#ffffff;"/>
  </g>
  <g id="axes_1">
   <g id="patch_2">
    <path d="M 57.6 307.584 
L 414.72 307.584 
L 414.72 41.472 
L 57.6 41.472 
z
" style="fill:#ffffff;"/>
   </g>
   <g id="matplotlib.axis_1">
    <g id="xtick_1">
     <g id="line2d_1">
      <defs>
       <path d="M 0 0 
L 0 3.5 
" id="mcc70972645" style="stroke:#000000;stroke-width:0.8;"/>
      </defs>
      <g>
       <use style="stroke:#000000;stroke-width:0.8;" x="73.832727" xlink:href="#mcc70972645" y="307.584"/>
      </g>
     </g>
     <g id="text_1">
      <!-- 0.0 -->
      <defs>
       <path d="M 31.78125 66.40625 
Q 24.171875 66.40625 20.328125 58.90625 
Q 16.5 51.421875 16.5 36.375 
Q 16.5 21.390625 20.328125 13.890625 
Q 24.171875 6.390625 31.78125 6.390625 
Q 39.453125 6.390625 43.28125 13.890625 
Q 47.125 21.390625 47.125 36.375 
Q 47.125 51.421875 43.28125 58.90625 
Q 39.453125 66.40625 31.78125 66.40625 
z
M 31.78125 74.21875 
Q 44.046875 74.21875 50.515625 64.515625 
Q 56.984375 54.828125 56.984375 36.375 
Q 56.984375 17.96875 50.515625 8.265625 
Q 44.046875 -1.421875 31.78125 -1.421875 
Q 19.53125 -1.421875 13.0625 8.265625 
Q 6.59375 17.96875 6.59375 36.375 
Q 6.59375 54.828125 13.0625 64.515625 
Q 19.53125 74.21875 31.78125 74.21875 
z
" id="DejaVuSans-30"/>
       <path d="M 10.6875 12.40625 
L 21 12.40625 
L 21 0 
L 10.6875 0 
z
" id="DejaVuSans-2e"/>
      </defs>
      <g transform="translate(65.881165 322.182437)scale(0.1 -0.1)">
       <use xlink:href="#DejaVuSans-30"/>
       <use x="63.623047" xlink:href="#DejaVuSans-2e"/>
       <use x="95.410156" xlink:href="#DejaVuSans-30"/>
      </g>
     </g>
    </g>
    <g id="xtick_2">
     <g id="line2d_2">
      <g>
       <use style="stroke:#000000;stroke-width:0.8;" x="138.766883" xlink:href="#mcc70972645" y="307.584"/>
      </g>
     </g>
     <g id="text_2">
      <!-- 0.2 -->
      <defs>
       <path d="M 19.1875 8.296875 
L 53.609375 8.296875 
L 53.609375 0 
L 7.328125 0 
L 7.328125 8.296875 
Q 12.9375 14.109375 22.625 23.890625 
Q 32.328125 33.6875 34.8125 36.53125 
Q 39.546875 41.84375 41.421875 45.53125 
Q 43.3125 49.21875 43.3125 52.78125 
Q 43.3125 58.59375 39.234375 62.25 
Q 35.15625 65.921875 28.609375 65.921875 
Q 23.96875 65.921875 18.8125 64.3125 
Q 13.671875 62.703125 7.8125 59.421875 
L 7.8125 69.390625 
Q 13.765625 71.78125 18.9375 73 
Q 24.125 74.21875 28.421875 74.21875 
Q 39.75 74.21875 46.484375 68.546875 
Q 53.21875 62.890625 53.21875 53.421875 
Q 53.21875 48.921875 51.53125 44.890625 
Q 49.859375 40.875 45.40625 35.40625 
Q 44.1875 33.984375 37.640625 27.21875 
Q 31.109375 20.453125 19.1875 8.296875 
z
" id="DejaVuSans-32"/>
      </defs>
      <g transform="translate(130.815321 322.182437)scale(0.1 -0.1)">
       <use xlink:href="#DejaVuSans-30"/>
       <use x="63.623047" xlink:href="#DejaVuSans-2e"/>
       <use x="95.410156" xlink:href="#DejaVuSans-32"/>
      </g>
     </g>
    </g>
    <g id="xtick_3">
     <g id="line2d_3">
      <g>
       <use style="stroke:#000000;stroke-width:0.8;" x="203.701039" xlink:href="#mcc70972645" y="307.584"/>
      </g>
     </g>
     <g id="text_3">
      <!-- 0.4 -->
      <defs>
       <path d="M 37.796875 64.3125 
L 12.890625 25.390625 
L 37.796875 25.390625 
z
M 35.203125 72.90625 
L 47.609375 72.90625 
L 47.609375 25.390625 
L 58.015625 25.390625 
L 58.015625 17.1875 
L 47.609375 17.1875 
L 47.609375 0 
L 37.796875 0 
L 37.796875 17.1875 
L 4.890625 17.1875 
L 4.890625 26.703125 
z
" id="DejaVuSans-34"/>
      </defs>
      <g transform="translate(195.749476 322.182437)scale(0.1 -0.1)">
       <use xlink:href="#DejaVuSans-30"/>
       <use x="63.623047" xlink:href="#DejaVuSans-2e"/>
       <use x="95.410156" xlink:href="#DejaVuSans-34"/>
      </g>
     </g>
    </g>
    <g id="xtick_4">
     <g id="line2d_4">
      <g>
       <use style="stroke:#000000;stroke-width:0.8;" x="268.635195" xlink:href="#mcc70972645" y="307.584"/>
      </g>
     </g>
     <g id="text_4">
      <!-- 0.6 -->
      <defs>
       <path d="M 33.015625 40.375 
Q 26.375 40.375 22.484375 35.828125 
Q 18.609375 31.296875 18.609375 23.390625 
Q 18.609375 15.53125 22.484375 10.953125 
Q 26.375 6.390625 33.015625 6.390625 
Q 39.65625 6.390625 43.53125 10.953125 
Q 47.40625 15.53125 47.40625 23.390625 
Q 47.40625 31.296875 43.53125 35.828125 
Q 39.65625 40.375 33.015625 40.375 
z
M 52.59375 71.296875 
L 52.59375 62.3125 
Q 48.875 64.0625 45.09375 64.984375 
Q 41.3125 65.921875 37.59375 65.921875 
Q 27.828125 65.921875 22.671875 59.328125 
Q 17.53125 52.734375 16.796875 39.40625 
Q 19.671875 43.65625 24.015625 45.921875 
Q 28.375 48.1875 33.59375 48.1875 
Q 44.578125 48.1875 50.953125 41.515625 
Q 57.328125 34.859375 57.328125 23.390625 
Q 57.328125 12.15625 50.6875 5.359375 
Q 44.046875 -1.421875 33.015625 -1.421875 
Q 20.359375 -1.421875 13.671875 8.265625 
Q 6.984375 17.96875 6.984375 36.375 
Q 6.984375 53.65625 15.1875 63.9375 
Q 23.390625 74.21875 37.203125 74.21875 
Q 40.921875 74.21875 44.703125 73.484375 
Q 48.484375 72.75 52.59375 71.296875 
z
" id="DejaVuSans-36"/>
      </defs>
      <g transform="translate(260.683632 322.182437)scale(0.1 -0.1)">
       <use xlink:href="#DejaVuSans-30"/>
       <use x="63.623047" xlink:href="#DejaVuSans-2e"/>
       <use x="95.410156" xlink:href="#DejaVuSans-36"/>
      </g>
     </g>
    </g>
    <g id="xtick_5">
     <g id="line2d_5">
      <g>
       <use style="stroke:#000000;stroke-width:0.8;" x="333.56935" xlink:href="#mcc70972645" y="307.584"/>
      </g>
     </g>
     <g id="text_5">
      <!-- 0.8 -->
      <defs>
       <path d="M 31.78125 34.625 
Q 24.75 34.625 20.71875 30.859375 
Q 16.703125 27.09375 16.703125 20.515625 
Q 16.703125 13.921875 20.71875 10.15625 
Q 24.75 6.390625 31.78125 6.390625 
Q 38.8125 6.390625 42.859375 10.171875 
Q 46.921875 13.96875 46.921875 20.515625 
Q 46.921875 27.09375 42.890625 30.859375 
Q 38.875 34.625 31.78125 34.625 
z
M 21.921875 38.8125 
Q 15.578125 40.375 12.03125 44.71875 
Q 8.5 49.078125 8.5 55.328125 
Q 8.5 64.0625 14.71875 69.140625 
Q 20.953125 74.21875 31.78125 74.21875 
Q 42.671875 74.21875 48.875 69.140625 
Q 55.078125 64.0625 55.078125 55.328125 
Q 55.078125 49.078125 51.53125 44.71875 
Q 48 40.375 41.703125 38.8125 
Q 48.828125 37.15625 52.796875 32.3125 
Q 56.78125 27.484375 56.78125 20.515625 
Q 56.78125 9.90625 50.3125 4.234375 
Q 43.84375 -1.421875 31.78125 -1.421875 
Q 19.734375 -1.421875 13.25 4.234375 
Q 6.78125 9.90625 6.78125 20.515625 
Q 6.78125 27.484375 10.78125 32.3125 
Q 14.796875 37.15625 21.921875 38.8125 
z
M 18.3125 54.390625 
Q 18.3125 48.734375 21.84375 45.5625 
Q 25.390625 42.390625 31.78125 42.390625 
Q 38.140625 42.390625 41.71875 45.5625 
Q 45.3125 48.734375 45.3125 54.390625 
Q 45.3125 60.0625 41.71875 63.234375 
Q 38.140625 66.40625 31.78125 66.40625 
Q 25.390625 66.40625 21.84375 63.234375 
Q 18.3125 60.0625 18.3125 54.390625 
z
" id="DejaVuSans-38"/>
      </defs>
      <g transform="translate(325.617788 322.182437)scale(0.1 -0.1)">
       <use xlink:href="#DejaVuSans-30"/>
       <use x="63.623047" xlink:href="#DejaVuSans-2e"/>
       <use x="95.410156" xlink:href="#DejaVuSans-38"/>
      </g>
     </g>
    </g>
    <g id="xtick_6">
     <g id="line2d_6">
      <g>
       <use style="stroke:#000000;stroke-width:0.8;" x="398.503506" xlink:href="#mcc70972645" y="307.584"/>
      </g>
     </g>
     <g id="text_6">
      <!-- 1.0 -->
      <defs>
       <path d="M 12.40625 8.296875 
L 28.515625 8.296875 
L 28.515625 63.921875 
L 10.984375 60.40625 
L 10.984375 69.390625 
L 28.421875 72.90625 
L 38.28125 72.90625 
L 38.28125 8.296875 
L 54.390625 8.296875 
L 54.390625 0 
L 12.40625 0 
z
" id="DejaVuSans-31"/>
      </defs>
      <g transform="translate(390.551944 322.182437)scale(0.1 -0.1)">
       <use xlink:href="#DejaVuSans-31"/>
       <use x="63.623047" xlink:href="#DejaVuSans-2e"/>
       <use x="95.410156" xlink:href="#DejaVuSans-30"/>
      </g>
     </g>
    </g>
    <g id="text_7">
     <!-- Time (seconds) -->
     <defs>
      <path d="M -0.296875 72.90625 
L 61.375 72.90625 
L 61.375 64.59375 
L 35.5 64.59375 
L 35.5 0 
L 25.59375 0 
L 25.59375 64.59375 
L -0.296875 64.59375 
z
" id="DejaVuSans-54"/>
      <path d="M 9.421875 54.6875 
L 18.40625 54.6875 
L 18.40625 0 
L 9.421875 0 
z
M 9.421875 75.984375 
L 18.40625 75.984375 
L 18.40625 64.59375 
L 9.421875 64.59375 
z
" id="DejaVuSans-69"/>
      <path d="M 52 44.1875 
Q 55.375 50.25 60.0625 53.125 
Q 64.75 56 71.09375 56 
Q 79.640625 56 84.28125 50.015625 
Q 88.921875 44.046875 88.921875 33.015625 
L 88.921875 0 
L 79.890625 0 
L 79.890625 32.71875 
Q 79.890625 40.578125 77.09375 44.375 
Q 74.3125 48.1875 68.609375 48.1875 
Q 61.625 48.1875 57.5625 43.546875 
Q 53.515625 38.921875 53.515625 30.90625 
L 53.515625 0 
L 44.484375 0 
L 44.484375 32.71875 
Q 44.484375 40.625 41.703125 44.40625 
Q 38.921875 48.1875 33.109375 48.1875 
Q 26.21875 48.1875 22.15625 43.53125 
Q 18.109375 38.875 18.109375 30.90625 
L 18.109375 0 
L 9.078125 0 
L 9.078125 54.6875 
L 18.109375 54.6875 
L 18.109375 46.1875 
Q 21.1875 51.21875 25.484375 53.609375 
Q 29.78125 56 35.6875 56 
Q 41.65625 56 45.828125 52.96875 
Q 50 49.953125 52 44.1875 
z
" id="DejaVuSans-6d"/>
      <path d="M 56.203125 29.59375 
L 56.203125 25.203125 
L 14.890625 25.203125 
Q 15.484375 15.921875 20.484375 11.0625 
Q 25.484375 6.203125 34.421875 6.203125 
Q 39.59375 6.203125 44.453125 7.46875 
Q 49.3125 8.734375 54.109375 11.28125 
L 54.109375 2.78125 
Q 49.265625 0.734375 44.1875 -0.34375 
Q 39.109375 -1.421875 33.890625 -1.421875 
Q 20.796875 -1.421875 13.15625 6.1875 
Q 5.515625 13.8125 5.515625 26.8125 
Q 5.515625 40.234375 12.765625 48.109375 
Q 20.015625 56 32.328125 56 
Q 43.359375 56 49.78125 48.890625 
Q 56.203125 41.796875 56.203125 29.59375 
z
M 47.21875 32.234375 
Q 47.125 39.59375 43.09375 43.984375 
Q 39.0625 48.390625 32.421875 48.390625 
Q 24.90625 48.390625 20.390625 44.140625 
Q 15.875 39.890625 15.1875 32.171875 
z
" id="DejaVuSans-65"/>
      <path id="DejaVuSans-20"/>
      <path d="M 31 75.875 
Q 24.46875 64.65625 21.28125 53.65625 
Q 18.109375 42.671875 18.109375 31.390625 
Q 18.109375 20.125 21.3125 9.0625 
Q 24.515625 -2 31 -13.1875 
L 23.1875 -13.1875 
Q 15.875 -1.703125 12.234375 9.375 
Q 8.59375 20.453125 8.59375 31.390625 
Q 8.59375 42.28125 12.203125 53.3125 
Q 15.828125 64.359375 23.1875 75.875 
z
" id="DejaVuSans-28"/>
      <path d="M 44.28125 53.078125 
L 44.28125 44.578125 
Q 40.484375 46.53125 36.375 47.5 
Q 32.28125 48.484375 27.875 48.484375 
Q 21.1875 48.484375 17.84375 46.4375 
Q 14.5 44.390625 14.5 40.28125 
Q 14.5 37.15625 16.890625 35.375 
Q 19.28125 33.59375 26.515625 31.984375 
L 29.59375 31.296875 
Q 39.15625 29.25 43.1875 25.515625 
Q 47.21875 21.78125 47.21875 15.09375 
Q 47.21875 7.46875 41.1875 3.015625 
Q 35.15625 -1.421875 24.609375 -1.421875 
Q 20.21875 -1.421875 15.453125 -0.5625 
Q 10.6875 0.296875 5.421875 2 
L 5.421875 11.28125 
Q 10.40625 8.6875 15.234375 7.390625 
Q 20.0625 6.109375 24.8125 6.109375 
Q 31.15625 6.109375 34.5625 8.28125 
Q 37.984375 10.453125 37.984375 14.40625 
Q 37.984375 18.0625 35.515625 20.015625 
Q 33.0625 21.96875 24.703125 23.78125 
L 21.578125 24.515625 
Q 13.234375 26.265625 9.515625 29.90625 
Q 5.8125 33.546875 5.8125 39.890625 
Q 5.8125 47.609375 11.28125 51.796875 
Q 16.75 56 26.8125 56 
Q 31.78125 56 36.171875 55.265625 
Q 40.578125 54.546875 44.28125 53.078125 
z
" id="DejaVuSans-73"/>
      <path d="M 48.78125 52.59375 
L 48.78125 44.1875 
Q 44.96875 46.296875 41.140625 47.34375 
Q 37.3125 48.390625 33.40625 48.390625 
Q 24.65625 48.390625 19.8125 42.84375 
Q 14.984375 37.3125 14.984375 27.296875 
Q 14.984375 17.28125 19.8125 11.734375 
Q 24.65625 6.203125 33.40625 6.203125 
Q 37.3125 6.203125 41.140625 7.25 
Q 44.96875 8.296875 48.78125 10.40625 
L 48.78125 2.09375 
Q 45.015625 0.34375 40.984375 -0.53125 
Q 36.96875 -1.421875 32.421875 -1.421875 
Q 20.0625 -1.421875 12.78125 6.34375 
Q 5.515625 14.109375 5.515625 27.296875 
Q 5.515625 40.671875 12.859375 48.328125 
Q 20.21875 56 33.015625 56 
Q 37.15625 56 41.109375 55.140625 
Q 45.0625 54.296875 48.78125 52.59375 
z
" id="DejaVuSans-63"/>
      <path d="M 30.609375 48.390625 
Q 23.390625 48.390625 19.1875 42.75 
Q 14.984375 37.109375 14.984375 27.296875 
Q 14.984375 17.484375 19.15625 11.84375 
Q 23.34375 6.203125 30.609375 6.203125 
Q 37.796875 6.203125 41.984375 11.859375 
Q 46.1875 17.53125 46.1875 27.296875 
Q 46.1875 37.015625 41.984375 42.703125 
Q 37.796875 48.390625 30.609375 48.390625 
z
M 30.609375 56 
Q 42.328125 56 49.015625 48.375 
Q 55.71875 40.765625 55.71875 27.296875 
Q 55.71875 13.875 49.015625 6.21875 
Q 42.328125 -1.421875 30.609375 -1.421875 
Q 18.84375 -1.421875 12.171875 6.21875 
Q 5.515625 13.875 5.515625 27.296875 
Q 5.515625 40.765625 12.171875 48.375 
Q 18.84375 56 30.609375 56 
z
" id="DejaVuSans-6f"/>
      <path d="M 54.890625 33.015625 
L 54.890625 0 
L 45.90625 0 
L 45.90625 32.71875 
Q 45.90625 40.484375 42.875 44.328125 
Q 39.84375 48.1875 33.796875 48.1875 
Q 26.515625 48.1875 22.3125 43.546875 
Q 18.109375 38.921875 18.109375 30.90625 
L 18.109375 0 
L 9.078125 0 
L 9.078125 54.6875 
L 18.109375 54.6875 
L 18.109375 46.1875 
Q 21.34375 51.125 25.703125 53.5625 
Q 30.078125 56 35.796875 56 
Q 45.21875 56 50.046875 50.171875 
Q 54.890625 44.34375 54.890625 33.015625 
z
" id="DejaVuSans-6e"/>
      <path d="M 45.40625 46.390625 
L 45.40625 75.984375 
L 54.390625 75.984375 
L 54.390625 0 
L 45.40625 0 
L 45.40625 8.203125 
Q 42.578125 3.328125 38.25 0.953125 
Q 33.9375 -1.421875 27.875 -1.421875 
Q 17.96875 -1.421875 11.734375 6.484375 
Q 5.515625 14.40625 5.515625 27.296875 
Q 5.515625 40.1875 11.734375 48.09375 
Q 17.96875 56 27.875 56 
Q 33.9375 56 38.25 53.625 
Q 42.578125 51.265625 45.40625 46.390625 
z
M 14.796875 27.296875 
Q 14.796875 17.390625 18.875 11.75 
Q 22.953125 6.109375 30.078125 6.109375 
Q 37.203125 6.109375 41.296875 11.75 
Q 45.40625 17.390625 45.40625 27.296875 
Q 45.40625 37.203125 41.296875 42.84375 
Q 37.203125 48.484375 30.078125 48.484375 
Q 22.953125 48.484375 18.875 42.84375 
Q 14.796875 37.203125 14.796875 27.296875 
z
" id="DejaVuSans-64"/>
      <path d="M 8.015625 75.875 
L 15.828125 75.875 
Q 23.140625 64.359375 26.78125 53.3125 
Q 30.421875 42.28125 30.421875 31.390625 
Q 30.421875 20.453125 26.78125 9.375 
Q 23.140625 -1.703125 15.828125 -13.1875 
L 8.015625 -13.1875 
Q 14.5 -2 17.703125 9.0625 
Q 20.90625 20.125 20.90625 31.390625 
Q 20.90625 42.671875 17.703125 53.65625 
Q 14.5 64.65625 8.015625 75.875 
z
" id="DejaVuSans-29"/>
     </defs>
     <g transform="translate(197.844375 335.860562)scale(0.1 -0.1)">
      <use xlink:href="#DejaVuSans-54"/>
      <use x="61.037109" xlink:href="#DejaVuSans-69"/>
      <use x="88.820312" xlink:href="#DejaVuSans-6d"/>
      <use x="186.232422" xlink:href="#DejaVuSans-65"/>
      <use x="247.755859" xlink:href="#DejaVuSans-20"/>
      <use x="279.542969" xlink:href="#DejaVuSans-28"/>
      <use x="318.556641" xlink:href="#DejaVuSans-73"/>
      <use x="370.65625" xlink:href="#DejaVuSans-65"/>
      <use x="432.179688" xlink:href="#DejaVuSans-63"/>
      <use x="487.160156" xlink:href="#DejaVuSans-6f"/>
      <use x="548.341797" xlink:href="#DejaVuSans-6e"/>
      <use x="611.720703" xlink:href="#DejaVuSans-64"/>
      <use x="675.197266" xlink:href="#DejaVuSans-73"/>
      <use x="727.296875" xlink:href="#DejaVuSans-29"/>
     </g>
    </g>
   </g>
   <g id="matplotlib.axis_2">
    <g id="ytick_1">
     <g id="line2d_7">
      <defs>
       <path d="M 0 0 
L -3.5 0 
" id="m2113d73862" style="stroke:#000000;stroke-width:0.8;"/>
      </defs>
      <g>
       <use style="stroke:#000000;stroke-width:0.8;" x="57.6" xlink:href="#m2113d73862" y="291.57155"/>
      </g>
     </g>
     <g id="text_8">
      <!-- −175 -->
      <defs>
       <path d="M 10.59375 35.5 
L 73.1875 35.5 
L 73.1875 27.203125 
L 10.59375 27.203125 
z
" id="DejaVuSans-2212"/>
       <path d="M 8.203125 72.90625 
L 55.078125 72.90625 
L 55.078125 68.703125 
L 28.609375 0 
L 18.3125 0 
L 43.21875 64.59375 
L 8.203125 64.59375 
z
" id="DejaVuSans-37"/>
       <path d="M 10.796875 72.90625 
L 49.515625 72.90625 
L 49.515625 64.59375 
L 19.828125 64.59375 
L 19.828125 46.734375 
Q 21.96875 47.46875 24.109375 47.828125 
Q 26.265625 48.1875 28.421875 48.1875 
Q 40.625 48.1875 47.75 41.5 
Q 54.890625 34.8125 54.890625 23.390625 
Q 54.890625 11.625 47.5625 5.09375 
Q 40.234375 -1.421875 26.90625 -1.421875 
Q 22.3125 -1.421875 17.546875 -0.640625 
Q 12.796875 0.140625 7.71875 1.703125 
L 7.71875 11.625 
Q 12.109375 9.234375 16.796875 8.0625 
Q 21.484375 6.890625 26.703125 6.890625 
Q 35.15625 6.890625 40.078125 11.328125 
Q 45.015625 15.765625 45.015625 23.390625 
Q 45.015625 31 40.078125 35.4375 
Q 35.15625 39.890625 26.703125 39.890625 
Q 22.75 39.890625 18.8125 39.015625 
Q 14.890625 38.140625 10.796875 36.28125 
z
" id="DejaVuSans-35"/>
      </defs>
      <g transform="translate(23.132812 295.370768)scale(0.1 -0.1)">
       <use xlink:href="#DejaVuSans-2212"/>
       <use x="83.789062" xlink:href="#DejaVuSans-31"/>
       <use x="147.412109" xlink:href="#DejaVuSans-37"/>
       <use x="211.035156" xlink:href="#DejaVuSans-35"/>
      </g>
     </g>
    </g>
    <g id="ytick_2">
     <g id="line2d_8">
      <g>
       <use style="stroke:#000000;stroke-width:0.8;" x="57.6" xlink:href="#m2113d73862" y="257.571043"/>
      </g>
     </g>
     <g id="text_9">
      <!-- −150 -->
      <g transform="translate(23.132812 261.370261)scale(0.1 -0.1)">
       <use xlink:href="#DejaVuSans-2212"/>
       <use x="83.789062" xlink:href="#DejaVuSans-31"/>
       <use x="147.412109" xlink:href="#DejaVuSans-35"/>
       <use x="211.035156" xlink:href="#DejaVuSans-30"/>
      </g>
     </g>
    </g>
    <g id="ytick_3">
     <g id="line2d_9">
      <g>
       <use style="stroke:#000000;stroke-width:0.8;" x="57.6" xlink:href="#m2113d73862" y="223.570535"/>
      </g>
     </g>
     <g id="text_10">
      <!-- −125 -->
      <g transform="translate(23.132812 227.369754)scale(0.1 -0.1)">
       <use xlink:href="#DejaVuSans-2212"/>
       <use x="83.789062" xlink:href="#DejaVuSans-31"/>
       <use x="147.412109" xlink:href="#DejaVuSans-32"/>
       <use x="211.035156" xlink:href="#DejaVuSans-35"/>
      </g>
     </g>
    </g>
    <g id="ytick_4">
     <g id="line2d_10">
      <g>
       <use style="stroke:#000000;stroke-width:0.8;" x="57.6" xlink:href="#m2113d73862" y="189.570028"/>
      </g>
     </g>
     <g id="text_11">
      <!-- −100 -->
      <g transform="translate(23.132812 193.369247)scale(0.1 -0.1)">
       <use xlink:href="#DejaVuSans-2212"/>
       <use x="83.789062" xlink:href="#DejaVuSans-31"/>
       <use x="147.412109" xlink:href="#DejaVuSans-30"/>
       <use x="211.035156" xlink:href="#DejaVuSans-30"/>
      </g>
     </g>
    </g>
    <g id="ytick_5">
     <g id="line2d_11">
      <g>
       <use style="stroke:#000000;stroke-width:0.8;" x="57.6" xlink:href="#m2113d73862" y="155.569521"/>
      </g>
     </g>
     <g id="text_12">
      <!-- −75 -->
      <g transform="translate(29.495313 159.36874)scale(0.1 -0.1)">
       <use xlink:href="#DejaVuSans-2212"/>
       <use x="83.789062" xlink:href="#DejaVuSans-37"/>
       <use x="147.412109" xlink:href="#DejaVuSans-35"/>
      </g>
     </g>
    </g>
    <g id="ytick_6">
     <g id="line2d_12">
      <g>
       <use style="stroke:#000000;stroke-width:0.8;" x="57.6" xlink:href="#m2113d73862" y="121.569014"/>
      </g>
     </g>
     <g id="text_13">
      <!-- −50 -->
      <g transform="translate(29.495313 125.368233)scale(0.1 -0.1)">
       <use xlink:href="#DejaVuSans-2212"/>
       <use x="83.789062" xlink:href="#DejaVuSans-35"/>
       <use x="147.412109" xlink:href="#DejaVuSans-30"/>
      </g>
     </g>
    </g>
    <g id="ytick_7">
     <g id="line2d_13">
      <g>
       <use style="stroke:#000000;stroke-width:0.8;" x="57.6" xlink:href="#m2113d73862" y="87.568507"/>
      </g>
     </g>
     <g id="text_14">
      <!-- −25 -->
      <g transform="translate(29.495313 91.367726)scale(0.1 -0.1)">
       <use xlink:href="#DejaVuSans-2212"/>
       <use x="83.789062" xlink:href="#DejaVuSans-32"/>
       <use x="147.412109" xlink:href="#DejaVuSans-35"/>
      </g>
     </g>
    </g>
    <g id="ytick_8">
     <g id="line2d_14">
      <g>
       <use style="stroke:#000000;stroke-width:0.8;" x="57.6" xlink:href="#m2113d73862" y="53.568"/>
      </g>
     </g>
     <g id="text_15">
      <!-- 0 -->
      <g transform="translate(44.2375 57.367219)scale(0.1 -0.1)">
       <use xlink:href="#DejaVuSans-30"/>
      </g>
     </g>
    </g>
    <g id="text_16">
     <!-- Mean EPSC (pA) -->
     <defs>
      <path d="M 9.8125 72.90625 
L 24.515625 72.90625 
L 43.109375 23.296875 
L 61.8125 72.90625 
L 76.515625 72.90625 
L 76.515625 0 
L 66.890625 0 
L 66.890625 64.015625 
L 48.09375 14.015625 
L 38.1875 14.015625 
L 19.390625 64.015625 
L 19.390625 0 
L 9.8125 0 
z
" id="DejaVuSans-4d"/>
      <path d="M 34.28125 27.484375 
Q 23.390625 27.484375 19.1875 25 
Q 14.984375 22.515625 14.984375 16.5 
Q 14.984375 11.71875 18.140625 8.90625 
Q 21.296875 6.109375 26.703125 6.109375 
Q 34.1875 6.109375 38.703125 11.40625 
Q 43.21875 16.703125 43.21875 25.484375 
L 43.21875 27.484375 
z
M 52.203125 31.203125 
L 52.203125 0 
L 43.21875 0 
L 43.21875 8.296875 
Q 40.140625 3.328125 35.546875 0.953125 
Q 30.953125 -1.421875 24.3125 -1.421875 
Q 15.921875 -1.421875 10.953125 3.296875 
Q 6 8.015625 6 15.921875 
Q 6 25.140625 12.171875 29.828125 
Q 18.359375 34.515625 30.609375 34.515625 
L 43.21875 34.515625 
L 43.21875 35.40625 
Q 43.21875 41.609375 39.140625 45 
Q 35.0625 48.390625 27.6875 48.390625 
Q 23 48.390625 18.546875 47.265625 
Q 14.109375 46.140625 10.015625 43.890625 
L 10.015625 52.203125 
Q 14.9375 54.109375 19.578125 55.046875 
Q 24.21875 56 28.609375 56 
Q 40.484375 56 46.34375 49.84375 
Q 52.203125 43.703125 52.203125 31.203125 
z
" id="DejaVuSans-61"/>
      <path d="M 9.8125 72.90625 
L 55.90625 72.90625 
L 55.90625 64.59375 
L 19.671875 64.59375 
L 19.671875 43.015625 
L 54.390625 43.015625 
L 54.390625 34.71875 
L 19.671875 34.71875 
L 19.671875 8.296875 
L 56.78125 8.296875 
L 56.78125 0 
L 9.8125 0 
z
" id="DejaVuSans-45"/>
      <path d="M 19.671875 64.796875 
L 19.671875 37.40625 
L 32.078125 37.40625 
Q 38.96875 37.40625 42.71875 40.96875 
Q 46.484375 44.53125 46.484375 51.125 
Q 46.484375 57.671875 42.71875 61.234375 
Q 38.96875 64.796875 32.078125 64.796875 
z
M 9.8125 72.90625 
L 32.078125 72.90625 
Q 44.34375 72.90625 50.609375 67.359375 
Q 56.890625 61.8125 56.890625 51.125 
Q 56.890625 40.328125 50.609375 34.8125 
Q 44.34375 29.296875 32.078125 29.296875 
L 19.671875 29.296875 
L 19.671875 0 
L 9.8125 0 
z
" id="DejaVuSans-50"/>
      <path d="M 53.515625 70.515625 
L 53.515625 60.890625 
Q 47.90625 63.578125 42.921875 64.890625 
Q 37.9375 66.21875 33.296875 66.21875 
Q 25.25 66.21875 20.875 63.09375 
Q 16.5 59.96875 16.5 54.203125 
Q 16.5 49.359375 19.40625 46.890625 
Q 22.3125 44.4375 30.421875 42.921875 
L 36.375 41.703125 
Q 47.40625 39.59375 52.65625 34.296875 
Q 57.90625 29 57.90625 20.125 
Q 57.90625 9.515625 50.796875 4.046875 
Q 43.703125 -1.421875 29.984375 -1.421875 
Q 24.8125 -1.421875 18.96875 -0.25 
Q 13.140625 0.921875 6.890625 3.21875 
L 6.890625 13.375 
Q 12.890625 10.015625 18.65625 8.296875 
Q 24.421875 6.59375 29.984375 6.59375 
Q 38.421875 6.59375 43.015625 9.90625 
Q 47.609375 13.234375 47.609375 19.390625 
Q 47.609375 24.75 44.3125 27.78125 
Q 41.015625 30.8125 33.5 32.328125 
L 27.484375 33.5 
Q 16.453125 35.6875 11.515625 40.375 
Q 6.59375 45.0625 6.59375 53.421875 
Q 6.59375 63.09375 13.40625 68.65625 
Q 20.21875 74.21875 32.171875 74.21875 
Q 37.3125 74.21875 42.625 73.28125 
Q 47.953125 72.359375 53.515625 70.515625 
z
" id="DejaVuSans-53"/>
      <path d="M 64.40625 67.28125 
L 64.40625 56.890625 
Q 59.421875 61.53125 53.78125 63.8125 
Q 48.140625 66.109375 41.796875 66.109375 
Q 29.296875 66.109375 22.65625 58.46875 
Q 16.015625 50.828125 16.015625 36.375 
Q 16.015625 21.96875 22.65625 14.328125 
Q 29.296875 6.6875 41.796875 6.6875 
Q 48.140625 6.6875 53.78125 8.984375 
Q 59.421875 11.28125 64.40625 15.921875 
L 64.40625 5.609375 
Q 59.234375 2.09375 53.4375 0.328125 
Q 47.65625 -1.421875 41.21875 -1.421875 
Q 24.65625 -1.421875 15.125 8.703125 
Q 5.609375 18.84375 5.609375 36.375 
Q 5.609375 53.953125 15.125 64.078125 
Q 24.65625 74.21875 41.21875 74.21875 
Q 47.75 74.21875 53.53125 72.484375 
Q 59.328125 70.75 64.40625 67.28125 
z
" id="DejaVuSans-43"/>
      <path d="M 18.109375 8.203125 
L 18.109375 -20.796875 
L 9.078125 -20.796875 
L 9.078125 54.6875 
L 18.109375 54.6875 
L 18.109375 46.390625 
Q 20.953125 51.265625 25.265625 53.625 
Q 29.59375 56 35.59375 56 
Q 45.5625 56 51.78125 48.09375 
Q 58.015625 40.1875 58.015625 27.296875 
Q 58.015625 14.40625 51.78125 6.484375 
Q 45.5625 -1.421875 35.59375 -1.421875 
Q 29.59375 -1.421875 25.265625 0.953125 
Q 20.953125 3.328125 18.109375 8.203125 
z
M 48.6875 27.296875 
Q 48.6875 37.203125 44.609375 42.84375 
Q 40.53125 48.484375 33.40625 48.484375 
Q 26.265625 48.484375 22.1875 42.84375 
Q 18.109375 37.203125 18.109375 27.296875 
Q 18.109375 17.390625 22.1875 11.75 
Q 26.265625 6.109375 33.40625 6.109375 
Q 40.53125 6.109375 44.609375 11.75 
Q 48.6875 17.390625 48.6875 27.296875 
z
" id="DejaVuSans-70"/>
      <path d="M 34.1875 63.1875 
L 20.796875 26.90625 
L 47.609375 26.90625 
z
M 28.609375 72.90625 
L 39.796875 72.90625 
L 67.578125 0 
L 57.328125 0 
L 50.6875 18.703125 
L 17.828125 18.703125 
L 11.1875 0 
L 0.78125 0 
z
" id="DejaVuSans-41"/>
     </defs>
     <g transform="translate(17.053125 214.6655)rotate(-90)scale(0.1 -0.1)">
      <use xlink:href="#DejaVuSans-4d"/>
      <use x="86.279297" xlink:href="#DejaVuSans-65"/>
      <use x="147.802734" xlink:href="#DejaVuSans-61"/>
      <use x="209.082031" xlink:href="#DejaVuSans-6e"/>
      <use x="272.460938" xlink:href="#DejaVuSans-20"/>
      <use x="304.248047" xlink:href="#DejaVuSans-45"/>
      <use x="367.431641" xlink:href="#DejaVuSans-50"/>
      <use x="427.734375" xlink:href="#DejaVuSans-53"/>
      <use x="491.210938" xlink:href="#DejaVuSans-43"/>
      <use x="561.035156" xlink:href="#DejaVuSans-20"/>
      <use x="592.822266" xlink:href="#DejaVuSans-28"/>
      <use x="631.835938" xlink:href="#DejaVuSans-70"/>
      <use x="695.3125" xlink:href="#DejaVuSans-41"/>
      <use x="763.720703" xlink:href="#DejaVuSans-29"/>
     </g>
    </g>
   </g>
   <g id="line2d_15">
    <path clip-path="url(#p77474cc938)" d="M 73.832727 53.568 
L 122.614512 53.676716 
L 122.939183 53.878378 
L 123.442422 53.889789 
L 127.208603 53.603391 
L 133.929288 53.568564 
L 398.487273 53.568 
L 398.487273 53.568 
" style="fill:none;stroke:#1f77b4;stroke-linecap:square;stroke-width:1.5;"/>
   </g>
   <g id="line2d_16">
    <path clip-path="url(#p77474cc938)" d="M 73.832727 53.568 
L 106.348506 53.663687 
L 106.656943 53.977515 
L 107.046548 54.031034 
L 108.215363 53.833547 
L 110.065986 53.653683 
L 113.621131 53.57759 
L 122.533344 53.56804 
L 122.809314 54.682293 
L 123.069051 54.978418 
L 123.345021 54.971913 
L 123.945662 54.654958 
L 125.065776 54.129425 
L 126.267058 53.83636 
L 128.02028 53.659143 
L 131.445557 53.57905 
L 149.481019 53.568 
L 398.487273 53.568 
L 398.487273 53.568 
" style="fill:none;stroke:#ff7f0e;stroke-linecap:square;stroke-width:1.5;"/>
   </g>
   <g id="line2d_17">
    <path clip-path="url(#p77474cc938)" d="M 73.832727 53.568 
L 106.316039 53.669254 
L 106.592009 54.686164 
L 106.851745 54.947997 
L 107.143949 54.924941 
L 107.858225 54.54522 
L 108.929638 54.08338 
L 110.179621 53.806977 
L 112.062711 53.642921 
L 115.958761 53.574797 
L 122.533344 53.568118 
L 122.809314 56.855854 
L 123.052817 57.7089 
L 123.24762 57.779825 
L 123.474889 57.555828 
L 124.221632 56.316235 
L 125.000842 55.291571 
L 125.780052 54.636605 
L 126.672897 54.184715 
L 127.793011 53.87734 
L 129.416365 53.6818 
L 132.370869 53.586439 
L 143.831747 53.568016 
L 398.487273 53.568 
L 398.487273 53.568 
" style="fill:none;stroke:#2ca02c;stroke-linecap:square;stroke-width:1.5;"/>
   </g>
   <g id="line2d_18">
    <path clip-path="url(#p77474cc938)" d="M 73.832727 53.568 
L 106.299805 53.568 
L 106.575775 55.984875 
L 106.819278 56.611972 
L 107.030314 56.658285 
L 107.322518 56.411579 
L 108.962106 54.692713 
L 109.838717 54.224247 
L 110.926364 53.903858 
L 112.46855 53.697892 
L 115.195785 53.592208 
L 122.533344 53.568264 
L 122.809314 60.926782 
L 123.052817 62.836045 
L 123.198919 63.024529 
L 123.215153 63.018782 
L 123.361255 62.803509 
L 123.669692 61.813042 
L 124.838507 57.826552 
L 125.520315 56.373866 
L 126.218357 55.394195 
L 126.9651 54.720958 
L 127.825478 54.246647 
L 128.896891 53.918761 
L 130.406611 53.706394 
L 133.02021 53.595663 
L 141.18568 53.568181 
L 398.487273 53.568 
L 398.487273 53.568 
" style="fill:none;stroke:#d62728;stroke-linecap:square;stroke-width:1.5;"/>
   </g>
   <g id="line2d_19">
    <path clip-path="url(#p77474cc938)" d="M 73.832727 53.568 
L 106.299805 53.568 
L 106.575775 58.330852 
L 106.819278 59.56665 
L 106.997847 59.678469 
L 107.176416 59.46699 
L 107.598488 58.49978 
L 108.5238 56.463443 
L 109.238076 55.439235 
L 109.984819 54.749993 
L 110.845196 54.263797 
L 111.91661 53.927628 
L 113.410095 53.711319 
L 115.974994 53.59752 
L 122.533344 53.568519 
L 122.809314 67.840064 
L 123.052817 71.543003 
L 123.198919 71.908558 
L 123.215153 71.897413 
L 123.328788 71.614269 
L 123.588524 70.137816 
L 125.000842 61.049754 
L 125.650184 58.592349 
L 126.315759 56.903653 
L 126.997567 55.75984 
L 127.711843 54.979644 
L 128.52352 54.424208 
L 129.497532 54.037897 
L 130.796215 53.779138 
L 132.825408 53.628492 
L 137.354565 53.571716 
L 187.759704 53.568 
L 398.487273 53.568 
L 398.487273 53.568 
" style="fill:none;stroke:#9467bd;stroke-linecap:square;stroke-width:1.5;"/>
   </g>
   <g id="line2d_20">
    <path clip-path="url(#p77474cc938)" d="M 73.832727 53.568 
L 106.299805 53.568 
L 106.575775 61.666225 
L 106.819278 63.767437 
L 106.96538 63.974885 
L 106.981614 63.968563 
L 107.111482 63.771195 
L 107.403686 62.775051 
L 108.653668 58.117795 
L 109.319243 56.594863 
L 110.001052 55.557742 
L 110.731561 54.836831 
L 111.559472 54.32994 
L 112.582185 53.973804 
L 113.978269 53.739721 
L 116.267198 53.609924 
L 122.176206 53.569101 
L 122.533344 53.568883 
L 122.809314 77.641202 
L 123.052817 83.887078 
L 123.182686 84.507694 
L 123.215153 84.484875 
L 123.328788 84.007285 
L 123.588524 81.516898 
L 125.000842 66.187741 
L 125.650184 62.042749 
L 126.299525 59.250889 
L 126.948867 57.377638 
L 127.614442 56.096306 
L 128.312484 55.212691 
L 129.07546 54.595936 
L 129.968305 54.161068 
L 131.120886 53.859578 
L 132.792941 53.672095 
L 135.926014 53.583109 
L 149.545953 53.568003 
L 398.487273 53.568 
L 398.487273 53.568 
" style="fill:none;stroke:#8c564b;stroke-linecap:square;stroke-width:1.5;"/>
   </g>
   <g id="line2d_21">
    <path clip-path="url(#p77474cc938)" d="M 73.832727 53.568 
L 106.299805 53.568 
L 106.575775 66.611083 
L 106.819278 69.995318 
L 106.96538 70.329435 
L 106.981614 70.319252 
L 107.095249 70.060503 
L 107.354985 68.71119 
L 108.767303 60.405599 
L 109.432878 58.114163 
L 110.098453 56.586142 
L 110.780262 55.551199 
L 111.510771 54.832561 
L 112.338682 54.327365 
L 113.361395 53.972432 
L 114.757479 53.73914 
L 117.046408 53.609783 
L 122.533344 53.569423 
L 122.809314 90.379985 
L 123.052817 99.93096 
L 123.182686 100.879979 
L 123.215153 100.845084 
L 123.312554 100.268 
L 123.539824 97.157631 
L 125.179411 70.869648 
L 125.828753 65.179302 
L 126.478094 61.353137 
L 127.127436 58.786784 
L 127.776777 57.066289 
L 128.458586 55.866544 
L 129.172862 55.048347 
L 129.968305 54.4749 
L 130.90985 54.075772 
L 132.143599 53.805468 
L 134.02669 53.642443 
L 137.938973 53.574686 
L 166.672337 53.568 
L 398.487273 53.568 
L 398.487273 53.568 
" style="fill:none;stroke:#e377c2;stroke-linecap:square;stroke-width:1.5;"/>
   </g>
   <g id="line2d_22">
    <path clip-path="url(#p77474cc938)" d="M 73.832727 53.568 
L 106.299805 53.568 
L 106.575775 73.161195 
L 106.819278 78.244961 
L 106.949147 78.750136 
L 106.981614 78.731572 
L 107.095249 78.342882 
L 107.354985 76.315957 
L 108.767303 63.839377 
L 109.416645 60.465712 
L 110.065986 58.19338 
L 110.731561 56.637866 
L 111.41337 55.585075 
L 112.143879 54.854147 
L 112.97179 54.340326 
L 113.978269 53.983469 
L 115.35812 53.745577 
L 117.598348 53.612675 
L 122.533344 53.570137 
L 122.809314 105.509337 
L 123.052817 118.985621 
L 123.182686 120.324668 
L 123.215153 120.27543 
L 123.312554 119.461167 
L 123.539824 115.072467 
L 125.179411 77.980423 
L 125.828753 69.951411 
L 126.478094 64.552737 
L 127.127436 60.931643 
L 127.776777 58.504045 
L 128.442352 56.843814 
L 129.124161 55.720364 
L 129.85467 54.940408 
L 130.666347 54.400408 
L 131.640359 54.024835 
L 132.955276 53.771227 
L 135.016936 53.625072 
L 139.724662 53.57114 
L 199.07448 53.568 
L 398.487273 53.568 
L 398.487273 53.568 
" style="fill:none;stroke:#7f7f7f;stroke-linecap:square;stroke-width:1.5;"/>
   </g>
   <g id="line2d_23">
    <path clip-path="url(#p77474cc938)" d="M 73.832727 53.568 
L 106.299805 53.568 
L 106.575775 81.034028 
L 106.819278 88.160525 
L 106.949147 88.868686 
L 106.981614 88.842664 
L 107.079015 88.412119 
L 107.306285 86.091431 
L 108.945872 66.477257 
L 109.595214 62.231526 
L 110.244555 59.376715 
L 110.893897 57.461885 
L 111.559472 56.152203 
L 112.257514 55.249051 
L 113.02049 54.618661 
L 113.913335 54.174179 
L 115.049683 53.869019 
L 116.68927 53.677637 
L 119.724942 53.584898 
L 122.533344 53.570996 
L 122.809314 122.886377 
L 123.052817 140.871121 
L 123.182686 142.658137 
L 123.215153 142.592424 
L 123.312554 141.505745 
L 123.539824 135.648798 
L 125.179411 86.147601 
L 125.828753 75.432483 
L 126.478094 68.227682 
L 127.127436 63.39515 
L 127.776777 60.155399 
L 128.426119 57.983675 
L 129.091694 56.498465 
L 129.773502 55.493453 
L 130.520245 54.783507 
L 131.364389 54.290644 
L 132.403336 53.949045 
L 133.848121 53.724478 
L 136.266918 53.603266 
L 143.003837 53.568556 
L 398.487273 53.568 
L 398.487273 53.568 
" style="fill:none;stroke:#bcbd22;stroke-linecap:square;stroke-width:1.5;"/>
   </g>
   <g id="line2d_24">
    <path clip-path="url(#p77474cc938)" d="M 73.832727 53.568 
L 106.299805 53.568 
L 106.575775 90.769252 
L 106.819278 100.421707 
L 106.949147 101.380873 
L 106.981614 101.345627 
L 107.079015 100.762476 
L 107.306285 97.619231 
L 108.945872 71.052892 
L 109.595214 65.302279 
L 110.244555 61.435591 
L 110.893897 58.842056 
L 111.543238 57.10334 
L 112.225047 55.890889 
L 112.939323 55.064025 
L 113.734766 54.484505 
L 114.676311 54.081149 
L 115.91006 53.807983 
L 117.793151 53.643231 
L 121.672967 53.574893 
L 122.533344 53.572058 
L 122.809314 140.354592 
L 123.052817 162.871384 
L 123.182686 165.108703 
L 123.215153 165.026428 
L 123.312554 163.665897 
L 123.539824 156.332998 
L 125.179411 94.357592 
L 125.828753 80.942286 
L 126.478094 71.921891 
L 127.127436 65.871571 
L 127.776777 61.81541 
L 128.426119 59.096415 
L 129.07546 57.273809 
L 129.741035 56.027361 
L 130.439078 55.167837 
L 131.218287 54.557952 
L 132.127366 54.13347 
L 133.29618 53.843244 
L 135.033169 53.662411 
L 138.377278 53.580033 
L 155.065356 53.568 
L 398.487273 53.568 
L 398.487273 53.568 
" style="fill:none;stroke:#17becf;stroke-linecap:square;stroke-width:1.5;"/>
   </g>
   <g id="line2d_25">
    <path clip-path="url(#p77474cc938)" d="M 73.832727 53.568 
L 106.299805 53.568 
L 106.575775 102.232478 
L 106.819278 114.859248 
L 106.949147 116.113973 
L 106.981614 116.067866 
L 107.079015 115.305023 
L 107.306285 111.193215 
L 108.945872 76.440701 
L 109.595214 68.918089 
L 110.244555 63.859917 
L 110.893897 60.467209 
L 111.543238 58.192723 
L 112.208813 56.637204 
L 112.890622 55.584612 
L 113.621131 54.853849 
L 114.449042 54.340146 
L 115.455521 53.983372 
L 116.835372 53.745536 
L 119.0756 53.612664 
L 122.533344 53.573308 
L 122.809314 158.338297 
L 123.052817 185.520827 
L 123.182686 188.221726 
L 123.215153 188.122396 
L 123.312554 186.47993 
L 123.539824 177.627522 
L 125.179411 102.809829 
L 125.828753 86.614663 
L 126.478094 75.725102 
L 127.127436 68.421062 
L 127.776777 63.524402 
L 128.426119 60.241989 
L 129.07546 58.04171 
L 129.741035 56.536979 
L 130.422844 55.518758 
L 131.153353 54.811858 
L 131.997497 54.307499 
L 133.036444 53.957932 
L 134.464995 53.729737 
L 136.835092 53.605561 
L 143.24734 53.568723 
L 395.516535 53.568 
L 398.487273 53.568 
L 398.487273 53.568 
" style="fill:none;stroke:#1f77b4;stroke-linecap:square;stroke-width:1.5;"/>
   </g>
   <g id="line2d_26">
    <path clip-path="url(#p77474cc938)" d="M 73.832727 53.568 
L 106.299805 53.568 
L 106.575775 114.204686 
L 106.819278 129.937836 
L 106.949147 131.501242 
L 106.981614 131.443793 
L 107.079015 130.493278 
L 107.306285 125.369903 
L 108.945872 82.067737 
L 109.595214 72.694447 
L 110.244555 66.391886 
L 110.893897 62.16452 
L 111.543238 59.330476 
L 112.19258 57.43071 
L 112.858155 56.13149 
L 113.556197 55.235574 
L 114.319173 54.610237 
L 115.212018 54.169319 
L 116.348366 53.866606 
L 118.004187 53.675676 
L 121.072326 53.584267 
L 122.533344 53.574614 
L 122.809314 174.27342 
L 123.052817 205.590131 
L 123.182686 208.701787 
L 123.215153 208.587343 
L 123.312554 206.695052 
L 123.539824 196.496225 
L 125.179411 110.299205 
L 125.828753 91.640855 
L 126.478094 79.09506 
L 127.111202 70.852091 
L 127.760544 65.15399 
L 128.409885 61.334337 
L 129.059227 58.773933 
L 129.708568 57.057642 
L 130.390377 55.860858 
L 131.104653 55.044684 
L 131.900096 54.472656 
L 132.841641 54.074515 
L 134.091624 53.802523 
L 135.990948 53.640788 
L 139.968165 53.574281 
L 170.454751 53.568 
L 398.487273 53.568 
L 398.487273 53.568 
" style="fill:none;stroke:#ff7f0e;stroke-linecap:square;stroke-width:1.5;"/>
   </g>
   <g id="line2d_27">
    <path clip-path="url(#p77474cc938)" d="M 73.832727 53.568 
L 106.299805 53.568 
L 106.575775 127.490092 
L 106.819278 146.670351 
L 106.949147 148.576297 
L 106.981614 148.50626 
L 107.079015 147.34749 
L 107.306285 141.10159 
L 108.945872 88.311986 
L 109.595214 76.885022 
L 110.244555 69.20158 
L 110.893897 64.048005 
L 111.543238 60.593025 
L 112.19258 58.277024 
L 112.858155 56.693146 
L 113.539964 55.621368 
L 114.270473 54.877285 
L 115.098383 54.35422 
L 116.104863 53.990943 
L 117.46848 53.750589 
L 119.676241 53.614863 
L 122.533344 53.576063 
L 122.809314 188.863722 
L 123.052817 223.96563 
L 123.182686 227.453358 
L 123.215153 227.325073 
L 123.312554 225.204034 
L 123.539824 213.772415 
L 125.179411 117.156475 
L 125.828753 96.242835 
L 126.478094 82.180592 
L 127.111202 72.941271 
L 127.760544 66.554423 
L 128.409885 62.273077 
L 129.059227 59.40319 
L 129.708568 57.479445 
L 130.374143 56.163832 
L 131.072186 55.256612 
L 131.835162 54.623386 
L 132.728007 54.176905 
L 133.864354 53.870373 
L 135.503942 53.67813 
L 138.52338 53.585144 
L 150.714768 53.568009 
L 398.487273 53.568 
L 398.487273 53.568 
" style="fill:none;stroke:#2ca02c;stroke-linecap:square;stroke-width:1.5;"/>
   </g>
   <g id="line2d_28">
    <path clip-path="url(#p77474cc938)" d="M 73.832727 53.568 
L 106.299805 53.568 
L 106.575775 139.941654 
L 106.819278 162.352669 
L 106.949147 164.579656 
L 106.981614 164.497822 
L 107.079015 163.143866 
L 107.306285 155.845896 
L 108.945872 94.164321 
L 109.595214 80.812581 
L 110.244555 71.834927 
L 110.893897 65.813274 
L 111.543238 61.776332 
L 112.19258 59.07022 
L 112.841921 57.25625 
L 113.507496 56.015708 
L 114.221772 55.144413 
L 115.000982 54.543458 
L 115.926294 54.119647 
L 117.111342 53.833843 
L 118.880798 53.657381 
L 122.338542 53.578622 
L 122.533344 53.577421 
L 122.809314 202.139691 
L 123.052817 240.685804 
L 123.182686 244.515723 
L 123.215153 244.374843 
L 123.312554 242.045661 
L 123.539824 229.492303 
L 125.179411 123.396016 
L 125.828753 100.430251 
L 126.478094 84.988167 
L 127.111202 74.84225 
L 127.74431 67.972021 
L 128.393652 63.223324 
L 129.042993 60.04016 
L 129.692335 57.906419 
L 130.35791 56.447193 
L 131.039719 55.459765 
L 131.786461 54.76224 
L 132.630605 54.278 
L 133.685785 53.938653 
L 135.146804 53.718696 
L 137.630535 53.600631 
L 144.789526 53.568397 
L 398.487273 53.568 
L 398.487273 53.568 
" style="fill:none;stroke:#d62728;stroke-linecap:square;stroke-width:1.5;"/>
   </g>
   <g id="line2d_29">
    <path clip-path="url(#p77474cc938)" d="M 73.832727 53.568 
L 106.299805 53.568 
L 106.575775 152.357239 
L 106.819278 177.989673 
L 106.949147 180.536774 
L 106.981614 180.443177 
L 107.079015 178.8946 
L 107.306285 170.5476 
L 108.945872 99.999747 
L 109.595214 84.728791 
L 110.244555 74.460665 
L 110.893897 67.573443 
L 111.543238 62.95622 
L 112.19258 59.861125 
L 112.841921 57.786409 
L 113.507496 56.367549 
L 114.205539 55.389132 
L 114.952281 54.717651 
L 115.812659 54.24469 
L 116.884073 53.917748 
L 118.393792 53.705994 
L 121.007391 53.595583 
L 122.533344 53.578775 
L 122.809314 212.920477 
L 123.052817 254.26338 
L 123.182686 258.371157 
L 123.215153 258.220046 
L 123.312554 255.721836 
L 123.539824 242.257563 
L 125.179411 128.462802 
L 125.828753 103.830619 
L 126.478094 87.268044 
L 127.111202 76.385929 
L 127.74431 69.01719 
L 128.393652 63.923923 
L 129.042993 60.509786 
L 129.692335 58.221219 
L 130.35791 56.65611 
L 131.039719 55.597033 
L 131.770228 54.861768 
L 132.598138 54.344902 
L 133.604618 53.98593 
L 134.984468 53.74663 
L 137.224697 53.612939 
L 142.825268 53.569427 
L 271.508531 53.568 
L 398.487273 53.568 
L 398.487273 53.568 
" style="fill:none;stroke:#9467bd;stroke-linecap:square;stroke-width:1.5;"/>
   </g>
   <g id="line2d_30">
    <path clip-path="url(#p77474cc938)" d="M 73.832727 53.568 
L 106.299805 53.568 
L 106.575775 164.641609 
L 106.819278 193.461419 
L 106.949147 196.325249 
L 106.981614 196.220014 
L 107.079015 194.478872 
L 107.306285 185.093929 
L 108.945872 105.773502 
L 109.595214 88.603613 
L 110.244555 77.058652 
L 110.877663 69.473262 
L 111.527005 64.229724 
L 112.176346 60.714782 
L 112.825688 58.358633 
L 113.491263 56.747305 
L 114.173072 55.656952 
L 114.903581 54.899975 
L 115.715258 54.375884 
L 116.705504 54.006964 
L 118.052887 53.75941 
L 120.195715 53.619132 
L 122.533344 53.580115 
L 122.809314 221.806057 
L 123.052817 265.454014 
L 123.182686 269.790785 
L 123.215153 269.631239 
L 123.312554 266.993709 
L 123.539824 252.778654 
L 125.179411 132.638828 
L 125.828753 106.63319 
L 126.478094 89.147109 
L 127.111202 77.658224 
L 127.74431 69.878614 
L 128.393652 64.501355 
L 129.042993 60.89685 
L 129.692335 58.480675 
L 130.35791 56.828298 
L 131.039719 55.710169 
L 131.770228 54.933907 
L 132.581905 54.396465 
L 133.572151 54.018147 
L 134.887067 53.768251 
L 136.981194 53.623123 
L 141.818788 53.5708 
L 208.181496 53.568 
L 398.487273 53.568 
L 398.487273 53.568 
" style="fill:none;stroke:#8c564b;stroke-linecap:square;stroke-width:1.5;"/>
   </g>
   <g id="line2d_31">
    <path clip-path="url(#p77474cc938)" d="M 73.832727 53.568 
L 106.299805 53.568 
L 106.575775 176.688948 
L 106.819278 208.634631 
L 106.949147 211.80908 
L 106.981614 211.69243 
L 107.079015 209.76244 
L 107.306285 199.359581 
L 108.945872 111.435849 
L 109.595214 92.403669 
L 110.244555 79.606511 
L 110.877663 71.198389 
L 111.527005 65.386122 
L 112.176346 61.489941 
L 112.825688 58.878238 
L 113.475029 57.127559 
L 114.140604 55.930302 
L 114.85488 55.089409 
L 115.63409 54.509422 
L 116.559402 54.100398 
L 117.776917 53.819487 
L 119.595074 53.650055 
L 122.533344 53.581429 
L 122.809314 230.257763 
L 123.052817 276.098207 
L 123.182686 280.652788 
L 123.215153 280.485218 
L 123.312554 277.715169 
L 123.539824 262.785992 
L 125.179411 136.610935 
L 125.828753 109.298909 
L 126.478094 90.934419 
L 127.111202 78.868391 
L 127.74431 70.697974 
L 128.393652 65.05059 
L 129.042993 61.265013 
L 129.692335 58.727463 
L 130.341676 57.026491 
L 131.023485 55.840391 
L 131.737761 55.031502 
L 132.533204 54.46458 
L 133.490983 54.064999 
L 134.740965 53.798117 
L 136.656523 53.63871 
L 140.714908 53.573804 
L 173.571591 53.568 
L 398.487273 53.568 
L 398.487273 53.568 
" style="fill:none;stroke:#e377c2;stroke-linecap:square;stroke-width:1.5;"/>
   </g>
   <g id="line2d_32">
    <path clip-path="url(#p77474cc938)" d="M 73.832727 53.568 
L 106.299805 53.568 
L 106.575775 186.89506 
L 106.819278 221.488881 
L 106.949147 224.926476 
L 106.981614 224.800156 
L 107.079015 222.710179 
L 107.306285 211.444975 
L 108.945872 116.232805 
L 109.595214 95.622952 
L 110.244555 81.764974 
L 110.877663 72.659861 
L 111.527005 66.365786 
L 112.176346 62.14663 
L 112.825688 59.31843 
L 113.475029 57.422629 
L 114.140604 56.126125 
L 114.838647 55.232084 
L 115.601623 54.608056 
L 116.494468 54.16806 
L 117.630815 53.865981 
L 119.286636 53.67545 
L 122.354775 53.584233 
L 122.533344 53.582542 
L 122.809314 236.35909 
L 123.052817 283.782245 
L 123.182686 288.494051 
L 123.215153 288.320687 
L 123.312554 285.454968 
L 123.539824 270.010261 
L 125.179411 139.478385 
L 125.828753 111.223282 
L 126.478094 92.224671 
L 127.111202 79.742007 
L 127.74431 71.289468 
L 128.393652 65.44708 
L 129.042993 61.530789 
L 129.692335 58.905618 
L 130.341676 57.145912 
L 131.007251 55.942482 
L 131.721527 55.097253 
L 132.500737 54.514276 
L 133.426049 54.103143 
L 134.627331 53.823324 
L 136.429253 53.652144 
L 140.033099 53.577139 
L 161.493838 53.568 
L 398.487273 53.568 
L 398.487273 53.568 
" style="fill:none;stroke:#7f7f7f;stroke-linecap:square;stroke-width:1.5;"/>
   </g>
   <g id="line2d_33">
    <path clip-path="url(#p77474cc938)" d="M 73.832727 53.568 
L 106.299805 53.568 
L 106.575775 196.803825 
L 106.819278 233.968631 
L 106.949147 237.661706 
L 106.981614 237.525998 
L 107.079015 235.280696 
L 107.306285 223.17827 
L 108.945872 120.890005 
L 109.595214 98.748444 
L 110.244555 83.860551 
L 110.877663 74.078753 
L 111.527005 67.316907 
L 112.176346 62.784187 
L 112.825688 59.745797 
L 113.475029 57.709102 
L 114.140604 56.316243 
L 114.838647 55.355757 
L 115.585389 54.696582 
L 116.445767 54.232289 
L 117.533414 53.907922 
L 119.0756 53.699462 
L 121.770368 53.592996 
L 122.533344 53.583623 
L 122.809314 241.801145 
L 123.052817 290.635964 
L 123.182686 295.488 
L 123.215153 295.309466 
L 123.312554 292.358413 
L 123.539824 276.45388 
L 125.179411 142.035978 
L 125.828753 112.939707 
L 126.478094 93.375498 
L 127.111202 80.521219 
L 127.74431 71.817044 
L 128.393652 65.800726 
L 129.042993 61.767845 
L 129.692335 59.064521 
L 130.341676 57.252428 
L 131.007251 56.013172 
L 131.721527 55.14278 
L 132.500737 54.542448 
L 133.426049 54.119075 
L 134.611097 53.833568 
L 136.380553 53.657288 
L 139.838297 53.578611 
L 158.539334 53.568 
L 398.487273 53.568 
L 398.487273 53.568 
" style="fill:none;stroke:#bcbd22;stroke-linecap:square;stroke-width:1.5;"/>
   </g>
   <g id="patch_3">
    <path d="M 57.6 307.584 
L 57.6 41.472 
" style="fill:none;stroke:#000000;stroke-linecap:square;stroke-linejoin:miter;stroke-width:0.8;"/>
   </g>
   <g id="patch_4">
    <path d="M 414.72 307.584 
L 414.72 41.472 
" style="fill:none;stroke:#000000;stroke-linecap:square;stroke-linejoin:miter;stroke-width:0.8;"/>
   </g>
   <g id="patch_5">
    <path d="M 57.6 307.584 
L 414.72 307.584 
" style="fill:none;stroke:#000000;stroke-linecap:square;stroke-linejoin:miter;stroke-width:0.8;"/>
   </g>
   <g id="patch_6">
    <path d="M 57.6 41.472 
L 414.72 41.472 
" style="fill:none;stroke:#000000;stroke-linecap:square;stroke-linejoin:miter;stroke-width:0.8;"/>
   </g>
   <g id="text_17">
    <!-- Mean EPSC across conditions -->
    <defs>
     <path d="M 41.109375 46.296875 
Q 39.59375 47.171875 37.8125 47.578125 
Q 36.03125 48 33.890625 48 
Q 26.265625 48 22.1875 43.046875 
Q 18.109375 38.09375 18.109375 28.8125 
L 18.109375 0 
L 9.078125 0 
L 9.078125 54.6875 
L 18.109375 54.6875 
L 18.109375 46.1875 
Q 20.953125 51.171875 25.484375 53.578125 
Q 30.03125 56 36.53125 56 
Q 37.453125 56 38.578125 55.875 
Q 39.703125 55.765625 41.0625 55.515625 
z
" id="DejaVuSans-72"/>
     <path d="M 18.3125 70.21875 
L 18.3125 54.6875 
L 36.8125 54.6875 
L 36.8125 47.703125 
L 18.3125 47.703125 
L 18.3125 18.015625 
Q 18.3125 11.328125 20.140625 9.421875 
Q 21.96875 7.515625 27.59375 7.515625 
L 36.8125 7.515625 
L 36.8125 0 
L 27.59375 0 
Q 17.1875 0 13.234375 3.875 
Q 9.28125 7.765625 9.28125 18.015625 
L 9.28125 47.703125 
L 2.6875 47.703125 
L 2.6875 54.6875 
L 9.28125 54.6875 
L 9.28125 70.21875 
z
" id="DejaVuSans-74"/>
    </defs>
    <g transform="translate(148.453125 35.472)scale(0.12 -0.12)">
     <use xlink:href="#DejaVuSans-4d"/>
     <use x="86.279297" xlink:href="#DejaVuSans-65"/>
     <use x="147.802734" xlink:href="#DejaVuSans-61"/>
     <use x="209.082031" xlink:href="#DejaVuSans-6e"/>
     <use x="272.460938" xlink:href="#DejaVuSans-20"/>
     <use x="304.248047" xlink:href="#DejaVuSans-45"/>
     <use x="367.431641" xlink:href="#DejaVuSans-50"/>
     <use x="427.734375" xlink:href="#DejaVuSans-53"/>
     <use x="491.210938" xlink:href="#DejaVuSans-43"/>
     <use x="561.035156" xlink:href="#DejaVuSans-20"/>
     <use x="592.822266" xlink:href="#DejaVuSans-61"/>
     <use x="654.101562" xlink:href="#DejaVuSans-63"/>
     <use x="709.082031" xlink:href="#DejaVuSans-72"/>
     <use x="750.164062" xlink:href="#DejaVuSans-6f"/>
     <use x="811.345703" xlink:href="#DejaVuSans-73"/>
     <use x="863.445312" xlink:href="#DejaVuSans-73"/>
     <use x="915.544922" xlink:href="#DejaVuSans-20"/>
     <use x="947.332031" xlink:href="#DejaVuSans-63"/>
     <use x="1002.3125" xlink:href="#DejaVuSans-6f"/>
     <use x="1063.494141" xlink:href="#DejaVuSans-6e"/>
     <use x="1126.873047" xlink:href="#DejaVuSans-64"/>
     <use x="1190.349609" xlink:href="#DejaVuSans-69"/>
     <use x="1218.132812" xlink:href="#DejaVuSans-74"/>
     <use x="1257.341797" xlink:href="#DejaVuSans-69"/>
     <use x="1285.125" xlink:href="#DejaVuSans-6f"/>
     <use x="1346.306641" xlink:href="#DejaVuSans-6e"/>
     <use x="1409.685547" xlink:href="#DejaVuSans-73"/>
    </g>
   </g>
  </g>
 </g>
 <defs>
  <clipPath id="p77474cc938">
   <rect height="266.112" width="357.12" x="57.6" y="41.472"/>
  </clipPath>
 </defs>
</svg>
