<?xml version="1.0" encoding="utf-8" standalone="no"?>
<!DOCTYPE svg PUBLIC "-//W3C//DTD SVG 1.1//EN"
  "http://www.w3.org/Graphics/SVG/1.1/DTD/svg11.dtd">
<!-- Created with matplotlib (http://matplotlib.org/) -->
<svg height="345pt" version="1.1" viewBox="0 0 460 345" width="460pt" xmlns="http://www.w3.org/2000/svg" xmlns:xlink="http://www.w3.org/1999/xlink">
 <defs>
  <style type="text/css">
*{stroke-linecap:butt;stroke-linejoin:round;}
  </style>
 </defs>
 <g id="figure_1">
  <g id="patch_1">
   <path d="M 0 345.6 
L 460.8 345.6 
L 460.8 0 
L 0 0 
z
" style="fill:#ffffff;"/>
  </g>
  <g id="axes_1">
   <g id="patch_2">
    <path d="M 57.6 307.584 
L 414.72 307.584 
L 414.72 41.472 
L 57.6 41.472 
z
" style="fill:#ffffff;"/>
   </g>
   <g id="matplotlib.axis_1">
    <g id="xtick_1">
     <g id="line2d_1">
      <defs>
       <path d="M 0 0 
L 0 3.5 
" id="m6b0b9a3fc9" style="stroke:#000000;stroke-width:0.8;"/>
      </defs>
      <g>
       <use style="stroke:#000000;stroke-width:0.8;" x="73.832727" xlink:href="#m6b0b9a3fc9" y="307.584"/>
      </g>
     </g>
     <g id="text_1">
      <!-- 0.0 -->
      <defs>
       <path d="M 31.78125 66.40625 
Q 24.171875 66.40625 20.328125 58.90625 
Q 16.5 51.421875 16.5 36.375 
Q 16.5 21.390625 20.328125 13.890625 
Q 24.171875 6.390625 31.78125 6.390625 
Q 39.453125 6.390625 43.28125 13.890625 
Q 47.125 21.390625 47.125 36.375 
Q 47.125 51.421875 43.28125 58.90625 
Q 39.453125 66.40625 31.78125 66.40625 
z
M 31.78125 74.21875 
Q 44.046875 74.21875 50.515625 64.515625 
Q 56.984375 54.828125 56.984375 36.375 
Q 56.984375 17.96875 50.515625 8.265625 
Q 44.046875 -1.421875 31.78125 -1.421875 
Q 19.53125 -1.421875 13.0625 8.265625 
Q 6.59375 17.96875 6.59375 36.375 
Q 6.59375 54.828125 13.0625 64.515625 
Q 19.53125 74.21875 31.78125 74.21875 
z
" id="DejaVuSans-30"/>
       <path d="M 10.6875 12.40625 
L 21 12.40625 
L 21 0 
L 10.6875 0 
z
" id="DejaVuSans-2e"/>
      </defs>
      <g transform="translate(65.881165 322.182437)scale(0.1 -0.1)">
       <use xlink:href="#DejaVuSans-30"/>
       <use x="63.623047" xlink:href="#DejaVuSans-2e"/>
       <use x="95.410156" xlink:href="#DejaVuSans-30"/>
      </g>
     </g>
    </g>
    <g id="xtick_2">
     <g id="line2d_2">
      <g>
       <use style="stroke:#000000;stroke-width:0.8;" x="138.766883" xlink:href="#m6b0b9a3fc9" y="307.584"/>
      </g>
     </g>
     <g id="text_2">
      <!-- 0.2 -->
      <defs>
       <path d="M 19.1875 8.296875 
L 53.609375 8.296875 
L 53.609375 0 
L 7.328125 0 
L 7.328125 8.296875 
Q 12.9375 14.109375 22.625 23.890625 
Q 32.328125 33.6875 34.8125 36.53125 
Q 39.546875 41.84375 41.421875 45.53125 
Q 43.3125 49.21875 43.3125 52.78125 
Q 43.3125 58.59375 39.234375 62.25 
Q 35.15625 65.921875 28.609375 65.921875 
Q 23.96875 65.921875 18.8125 64.3125 
Q 13.671875 62.703125 7.8125 59.421875 
L 7.8125 69.390625 
Q 13.765625 71.78125 18.9375 73 
Q 24.125 74.21875 28.421875 74.21875 
Q 39.75 74.21875 46.484375 68.546875 
Q 53.21875 62.890625 53.21875 53.421875 
Q 53.21875 48.921875 51.53125 44.890625 
Q 49.859375 40.875 45.40625 35.40625 
Q 44.1875 33.984375 37.640625 27.21875 
Q 31.109375 20.453125 19.1875 8.296875 
z
" id="DejaVuSans-32"/>
      </defs>
      <g transform="translate(130.815321 322.182437)scale(0.1 -0.1)">
       <use xlink:href="#DejaVuSans-30"/>
       <use x="63.623047" xlink:href="#DejaVuSans-2e"/>
       <use x="95.410156" xlink:href="#DejaVuSans-32"/>
      </g>
     </g>
    </g>
    <g id="xtick_3">
     <g id="line2d_3">
      <g>
       <use style="stroke:#000000;stroke-width:0.8;" x="203.701039" xlink:href="#m6b0b9a3fc9" y="307.584"/>
      </g>
     </g>
     <g id="text_3">
      <!-- 0.4 -->
      <defs>
       <path d="M 37.796875 64.3125 
L 12.890625 25.390625 
L 37.796875 25.390625 
z
M 35.203125 72.90625 
L 47.609375 72.90625 
L 47.609375 25.390625 
L 58.015625 25.390625 
L 58.015625 17.1875 
L 47.609375 17.1875 
L 47.609375 0 
L 37.796875 0 
L 37.796875 17.1875 
L 4.890625 17.1875 
L 4.890625 26.703125 
z
" id="DejaVuSans-34"/>
      </defs>
      <g transform="translate(195.749476 322.182437)scale(0.1 -0.1)">
       <use xlink:href="#DejaVuSans-30"/>
       <use x="63.623047" xlink:href="#DejaVuSans-2e"/>
       <use x="95.410156" xlink:href="#DejaVuSans-34"/>
      </g>
     </g>
    </g>
    <g id="xtick_4">
     <g id="line2d_4">
      <g>
       <use style="stroke:#000000;stroke-width:0.8;" x="268.635195" xlink:href="#m6b0b9a3fc9" y="307.584"/>
      </g>
     </g>
     <g id="text_4">
      <!-- 0.6 -->
      <defs>
       <path d="M 33.015625 40.375 
Q 26.375 40.375 22.484375 35.828125 
Q 18.609375 31.296875 18.609375 23.390625 
Q 18.609375 15.53125 22.484375 10.953125 
Q 26.375 6.390625 33.015625 6.390625 
Q 39.65625 6.390625 43.53125 10.953125 
Q 47.40625 15.53125 47.40625 23.390625 
Q 47.40625 31.296875 43.53125 35.828125 
Q 39.65625 40.375 33.015625 40.375 
z
M 52.59375 71.296875 
L 52.59375 62.3125 
Q 48.875 64.0625 45.09375 64.984375 
Q 41.3125 65.921875 37.59375 65.921875 
Q 27.828125 65.921875 22.671875 59.328125 
Q 17.53125 52.734375 16.796875 39.40625 
Q 19.671875 43.65625 24.015625 45.921875 
Q 28.375 48.1875 33.59375 48.1875 
Q 44.578125 48.1875 50.953125 41.515625 
Q 57.328125 34.859375 57.328125 23.390625 
Q 57.328125 12.15625 50.6875 5.359375 
Q 44.046875 -1.421875 33.015625 -1.421875 
Q 20.359375 -1.421875 13.671875 8.265625 
Q 6.984375 17.96875 6.984375 36.375 
Q 6.984375 53.65625 15.1875 63.9375 
Q 23.390625 74.21875 37.203125 74.21875 
Q 40.921875 74.21875 44.703125 73.484375 
Q 48.484375 72.75 52.59375 71.296875 
z
" id="DejaVuSans-36"/>
      </defs>
      <g transform="translate(260.683632 322.182437)scale(0.1 -0.1)">
       <use xlink:href="#DejaVuSans-30"/>
       <use x="63.623047" xlink:href="#DejaVuSans-2e"/>
       <use x="95.410156" xlink:href="#DejaVuSans-36"/>
      </g>
     </g>
    </g>
    <g id="xtick_5">
     <g id="line2d_5">
      <g>
       <use style="stroke:#000000;stroke-width:0.8;" x="333.56935" xlink:href="#m6b0b9a3fc9" y="307.584"/>
      </g>
     </g>
     <g id="text_5">
      <!-- 0.8 -->
      <defs>
       <path d="M 31.78125 34.625 
Q 24.75 34.625 20.71875 30.859375 
Q 16.703125 27.09375 16.703125 20.515625 
Q 16.703125 13.921875 20.71875 10.15625 
Q 24.75 6.390625 31.78125 6.390625 
Q 38.8125 6.390625 42.859375 10.171875 
Q 46.921875 13.96875 46.921875 20.515625 
Q 46.921875 27.09375 42.890625 30.859375 
Q 38.875 34.625 31.78125 34.625 
z
M 21.921875 38.8125 
Q 15.578125 40.375 12.03125 44.71875 
Q 8.5 49.078125 8.5 55.328125 
Q 8.5 64.0625 14.71875 69.140625 
Q 20.953125 74.21875 31.78125 74.21875 
Q 42.671875 74.21875 48.875 69.140625 
Q 55.078125 64.0625 55.078125 55.328125 
Q 55.078125 49.078125 51.53125 44.71875 
Q 48 40.375 41.703125 38.8125 
Q 48.828125 37.15625 52.796875 32.3125 
Q 56.78125 27.484375 56.78125 20.515625 
Q 56.78125 9.90625 50.3125 4.234375 
Q 43.84375 -1.421875 31.78125 -1.421875 
Q 19.734375 -1.421875 13.25 4.234375 
Q 6.78125 9.90625 6.78125 20.515625 
Q 6.78125 27.484375 10.78125 32.3125 
Q 14.796875 37.15625 21.921875 38.8125 
z
M 18.3125 54.390625 
Q 18.3125 48.734375 21.84375 45.5625 
Q 25.390625 42.390625 31.78125 42.390625 
Q 38.140625 42.390625 41.71875 45.5625 
Q 45.3125 48.734375 45.3125 54.390625 
Q 45.3125 60.0625 41.71875 63.234375 
Q 38.140625 66.40625 31.78125 66.40625 
Q 25.390625 66.40625 21.84375 63.234375 
Q 18.3125 60.0625 18.3125 54.390625 
z
" id="DejaVuSans-38"/>
      </defs>
      <g transform="translate(325.617788 322.182437)scale(0.1 -0.1)">
       <use xlink:href="#DejaVuSans-30"/>
       <use x="63.623047" xlink:href="#DejaVuSans-2e"/>
       <use x="95.410156" xlink:href="#DejaVuSans-38"/>
      </g>
     </g>
    </g>
    <g id="xtick_6">
     <g id="line2d_6">
      <g>
       <use style="stroke:#000000;stroke-width:0.8;" x="398.503506" xlink:href="#m6b0b9a3fc9" y="307.584"/>
      </g>
     </g>
     <g id="text_6">
      <!-- 1.0 -->
      <defs>
       <path d="M 12.40625 8.296875 
L 28.515625 8.296875 
L 28.515625 63.921875 
L 10.984375 60.40625 
L 10.984375 69.390625 
L 28.421875 72.90625 
L 38.28125 72.90625 
L 38.28125 8.296875 
L 54.390625 8.296875 
L 54.390625 0 
L 12.40625 0 
z
" id="DejaVuSans-31"/>
      </defs>
      <g transform="translate(390.551944 322.182437)scale(0.1 -0.1)">
       <use xlink:href="#DejaVuSans-31"/>
       <use x="63.623047" xlink:href="#DejaVuSans-2e"/>
       <use x="95.410156" xlink:href="#DejaVuSans-30"/>
      </g>
     </g>
    </g>
    <g id="text_7">
     <!-- Time (seconds) -->
     <defs>
      <path d="M -0.296875 72.90625 
L 61.375 72.90625 
L 61.375 64.59375 
L 35.5 64.59375 
L 35.5 0 
L 25.59375 0 
L 25.59375 64.59375 
L -0.296875 64.59375 
z
" id="DejaVuSans-54"/>
      <path d="M 9.421875 54.6875 
L 18.40625 54.6875 
L 18.40625 0 
L 9.421875 0 
z
M 9.421875 75.984375 
L 18.40625 75.984375 
L 18.40625 64.59375 
L 9.421875 64.59375 
z
" id="DejaVuSans-69"/>
      <path d="M 52 44.1875 
Q 55.375 50.25 60.0625 53.125 
Q 64.75 56 71.09375 56 
Q 79.640625 56 84.28125 50.015625 
Q 88.921875 44.046875 88.921875 33.015625 
L 88.921875 0 
L 79.890625 0 
L 79.890625 32.71875 
Q 79.890625 40.578125 77.09375 44.375 
Q 74.3125 48.1875 68.609375 48.1875 
Q 61.625 48.1875 57.5625 43.546875 
Q 53.515625 38.921875 53.515625 30.90625 
L 53.515625 0 
L 44.484375 0 
L 44.484375 32.71875 
Q 44.484375 40.625 41.703125 44.40625 
Q 38.921875 48.1875 33.109375 48.1875 
Q 26.21875 48.1875 22.15625 43.53125 
Q 18.109375 38.875 18.109375 30.90625 
L 18.109375 0 
L 9.078125 0 
L 9.078125 54.6875 
L 18.109375 54.6875 
L 18.109375 46.1875 
Q 21.1875 51.21875 25.484375 53.609375 
Q 29.78125 56 35.6875 56 
Q 41.65625 56 45.828125 52.96875 
Q 50 49.953125 52 44.1875 
z
" id="DejaVuSans-6d"/>
      <path d="M 56.203125 29.59375 
L 56.203125 25.203125 
L 14.890625 25.203125 
Q 15.484375 15.921875 20.484375 11.0625 
Q 25.484375 6.203125 34.421875 6.203125 
Q 39.59375 6.203125 44.453125 7.46875 
Q 49.3125 8.734375 54.109375 11.28125 
L 54.109375 2.78125 
Q 49.265625 0.734375 44.1875 -0.34375 
Q 39.109375 -1.421875 33.890625 -1.421875 
Q 20.796875 -1.421875 13.15625 6.1875 
Q 5.515625 13.8125 5.515625 26.8125 
Q 5.515625 40.234375 12.765625 48.109375 
Q 20.015625 56 32.328125 56 
Q 43.359375 56 49.78125 48.890625 
Q 56.203125 41.796875 56.203125 29.59375 
z
M 47.21875 32.234375 
Q 47.125 39.59375 43.09375 43.984375 
Q 39.0625 48.390625 32.421875 48.390625 
Q 24.90625 48.390625 20.390625 44.140625 
Q 15.875 39.890625 15.1875 32.171875 
z
" id="DejaVuSans-65"/>
      <path id="DejaVuSans-20"/>
      <path d="M 31 75.875 
Q 24.46875 64.65625 21.28125 53.65625 
Q 18.109375 42.671875 18.109375 31.390625 
Q 18.109375 20.125 21.3125 9.0625 
Q 24.515625 -2 31 -13.1875 
L 23.1875 -13.1875 
Q 15.875 -1.703125 12.234375 9.375 
Q 8.59375 20.453125 8.59375 31.390625 
Q 8.59375 42.28125 12.203125 53.3125 
Q 15.828125 64.359375 23.1875 75.875 
z
" id="DejaVuSans-28"/>
      <path d="M 44.28125 53.078125 
L 44.28125 44.578125 
Q 40.484375 46.53125 36.375 47.5 
Q 32.28125 48.484375 27.875 48.484375 
Q 21.1875 48.484375 17.84375 46.4375 
Q 14.5 44.390625 14.5 40.28125 
Q 14.5 37.15625 16.890625 35.375 
Q 19.28125 33.59375 26.515625 31.984375 
L 29.59375 31.296875 
Q 39.15625 29.25 43.1875 25.515625 
Q 47.21875 21.78125 47.21875 15.09375 
Q 47.21875 7.46875 41.1875 3.015625 
Q 35.15625 -1.421875 24.609375 -1.421875 
Q 20.21875 -1.421875 15.453125 -0.5625 
Q 10.6875 0.296875 5.421875 2 
L 5.421875 11.28125 
Q 10.40625 8.6875 15.234375 7.390625 
Q 20.0625 6.109375 24.8125 6.109375 
Q 31.15625 6.109375 34.5625 8.28125 
Q 37.984375 10.453125 37.984375 14.40625 
Q 37.984375 18.0625 35.515625 20.015625 
Q 33.0625 21.96875 24.703125 23.78125 
L 21.578125 24.515625 
Q 13.234375 26.265625 9.515625 29.90625 
Q 5.8125 33.546875 5.8125 39.890625 
Q 5.8125 47.609375 11.28125 51.796875 
Q 16.75 56 26.8125 56 
Q 31.78125 56 36.171875 55.265625 
Q 40.578125 54.546875 44.28125 53.078125 
z
" id="DejaVuSans-73"/>
      <path d="M 48.78125 52.59375 
L 48.78125 44.1875 
Q 44.96875 46.296875 41.140625 47.34375 
Q 37.3125 48.390625 33.40625 48.390625 
Q 24.65625 48.390625 19.8125 42.84375 
Q 14.984375 37.3125 14.984375 27.296875 
Q 14.984375 17.28125 19.8125 11.734375 
Q 24.65625 6.203125 33.40625 6.203125 
Q 37.3125 6.203125 41.140625 7.25 
Q 44.96875 8.296875 48.78125 10.40625 
L 48.78125 2.09375 
Q 45.015625 0.34375 40.984375 -0.53125 
Q 36.96875 -1.421875 32.421875 -1.421875 
Q 20.0625 -1.421875 12.78125 6.34375 
Q 5.515625 14.109375 5.515625 27.296875 
Q 5.515625 40.671875 12.859375 48.328125 
Q 20.21875 56 33.015625 56 
Q 37.15625 56 41.109375 55.140625 
Q 45.0625 54.296875 48.78125 52.59375 
z
" id="DejaVuSans-63"/>
      <path d="M 30.609375 48.390625 
Q 23.390625 48.390625 19.1875 42.75 
Q 14.984375 37.109375 14.984375 27.296875 
Q 14.984375 17.484375 19.15625 11.84375 
Q 23.34375 6.203125 30.609375 6.203125 
Q 37.796875 6.203125 41.984375 11.859375 
Q 46.1875 17.53125 46.1875 27.296875 
Q 46.1875 37.015625 41.984375 42.703125 
Q 37.796875 48.390625 30.609375 48.390625 
z
M 30.609375 56 
Q 42.328125 56 49.015625 48.375 
Q 55.71875 40.765625 55.71875 27.296875 
Q 55.71875 13.875 49.015625 6.21875 
Q 42.328125 -1.421875 30.609375 -1.421875 
Q 18.84375 -1.421875 12.171875 6.21875 
Q 5.515625 13.875 5.515625 27.296875 
Q 5.515625 40.765625 12.171875 48.375 
Q 18.84375 56 30.609375 56 
z
" id="DejaVuSans-6f"/>
      <path d="M 54.890625 33.015625 
L 54.890625 0 
L 45.90625 0 
L 45.90625 32.71875 
Q 45.90625 40.484375 42.875 44.328125 
Q 39.84375 48.1875 33.796875 48.1875 
Q 26.515625 48.1875 22.3125 43.546875 
Q 18.109375 38.921875 18.109375 30.90625 
L 18.109375 0 
L 9.078125 0 
L 9.078125 54.6875 
L 18.109375 54.6875 
L 18.109375 46.1875 
Q 21.34375 51.125 25.703125 53.5625 
Q 30.078125 56 35.796875 56 
Q 45.21875 56 50.046875 50.171875 
Q 54.890625 44.34375 54.890625 33.015625 
z
" id="DejaVuSans-6e"/>
      <path d="M 45.40625 46.390625 
L 45.40625 75.984375 
L 54.390625 75.984375 
L 54.390625 0 
L 45.40625 0 
L 45.40625 8.203125 
Q 42.578125 3.328125 38.25 0.953125 
Q 33.9375 -1.421875 27.875 -1.421875 
Q 17.96875 -1.421875 11.734375 6.484375 
Q 5.515625 14.40625 5.515625 27.296875 
Q 5.515625 40.1875 11.734375 48.09375 
Q 17.96875 56 27.875 56 
Q 33.9375 56 38.25 53.625 
Q 42.578125 51.265625 45.40625 46.390625 
z
M 14.796875 27.296875 
Q 14.796875 17.390625 18.875 11.75 
Q 22.953125 6.109375 30.078125 6.109375 
Q 37.203125 6.109375 41.296875 11.75 
Q 45.40625 17.390625 45.40625 27.296875 
Q 45.40625 37.203125 41.296875 42.84375 
Q 37.203125 48.484375 30.078125 48.484375 
Q 22.953125 48.484375 18.875 42.84375 
Q 14.796875 37.203125 14.796875 27.296875 
z
" id="DejaVuSans-64"/>
      <path d="M 8.015625 75.875 
L 15.828125 75.875 
Q 23.140625 64.359375 26.78125 53.3125 
Q 30.421875 42.28125 30.421875 31.390625 
Q 30.421875 20.453125 26.78125 9.375 
Q 23.140625 -1.703125 15.828125 -13.1875 
L 8.015625 -13.1875 
Q 14.5 -2 17.703125 9.0625 
Q 20.90625 20.125 20.90625 31.390625 
Q 20.90625 42.671875 17.703125 53.65625 
Q 14.5 64.65625 8.015625 75.875 
z
" id="DejaVuSans-29"/>
     </defs>
     <g transform="translate(197.844375 335.860562)scale(0.1 -0.1)">
      <use xlink:href="#DejaVuSans-54"/>
      <use x="61.037109" xlink:href="#DejaVuSans-69"/>
      <use x="88.820312" xlink:href="#DejaVuSans-6d"/>
      <use x="186.232422" xlink:href="#DejaVuSans-65"/>
      <use x="247.755859" xlink:href="#DejaVuSans-20"/>
      <use x="279.542969" xlink:href="#DejaVuSans-28"/>
      <use x="318.556641" xlink:href="#DejaVuSans-73"/>
      <use x="370.65625" xlink:href="#DejaVuSans-65"/>
      <use x="432.179688" xlink:href="#DejaVuSans-63"/>
      <use x="487.160156" xlink:href="#DejaVuSans-6f"/>
      <use x="548.341797" xlink:href="#DejaVuSans-6e"/>
      <use x="611.720703" xlink:href="#DejaVuSans-64"/>
      <use x="675.197266" xlink:href="#DejaVuSans-73"/>
      <use x="727.296875" xlink:href="#DejaVuSans-29"/>
     </g>
    </g>
   </g>
   <g id="matplotlib.axis_2">
    <g id="ytick_1">
     <g id="line2d_7">
      <defs>
       <path d="M 0 0 
L -3.5 0 
" id="m54d0aaf366" style="stroke:#000000;stroke-width:0.8;"/>
      </defs>
      <g>
       <use style="stroke:#000000;stroke-width:0.8;" x="57.6" xlink:href="#m54d0aaf366" y="292.356813"/>
      </g>
     </g>
     <g id="text_8">
      <!-- −175 -->
      <defs>
       <path d="M 10.59375 35.5 
L 73.1875 35.5 
L 73.1875 27.203125 
L 10.59375 27.203125 
z
" id="DejaVuSans-2212"/>
       <path d="M 8.203125 72.90625 
L 55.078125 72.90625 
L 55.078125 68.703125 
L 28.609375 0 
L 18.3125 0 
L 43.21875 64.59375 
L 8.203125 64.59375 
z
" id="DejaVuSans-37"/>
       <path d="M 10.796875 72.90625 
L 49.515625 72.90625 
L 49.515625 64.59375 
L 19.828125 64.59375 
L 19.828125 46.734375 
Q 21.96875 47.46875 24.109375 47.828125 
Q 26.265625 48.1875 28.421875 48.1875 
Q 40.625 48.1875 47.75 41.5 
Q 54.890625 34.8125 54.890625 23.390625 
Q 54.890625 11.625 47.5625 5.09375 
Q 40.234375 -1.421875 26.90625 -1.421875 
Q 22.3125 -1.421875 17.546875 -0.640625 
Q 12.796875 0.140625 7.71875 1.703125 
L 7.71875 11.625 
Q 12.109375 9.234375 16.796875 8.0625 
Q 21.484375 6.890625 26.703125 6.890625 
Q 35.15625 6.890625 40.078125 11.328125 
Q 45.015625 15.765625 45.015625 23.390625 
Q 45.015625 31 40.078125 35.4375 
Q 35.15625 39.890625 26.703125 39.890625 
Q 22.75 39.890625 18.8125 39.015625 
Q 14.890625 38.140625 10.796875 36.28125 
z
" id="DejaVuSans-35"/>
      </defs>
      <g transform="translate(23.132812 296.156032)scale(0.1 -0.1)">
       <use xlink:href="#DejaVuSans-2212"/>
       <use x="83.789062" xlink:href="#DejaVuSans-31"/>
       <use x="147.412109" xlink:href="#DejaVuSans-37"/>
       <use x="211.035156" xlink:href="#DejaVuSans-35"/>
      </g>
     </g>
    </g>
    <g id="ytick_2">
     <g id="line2d_8">
      <g>
       <use style="stroke:#000000;stroke-width:0.8;" x="57.6" xlink:href="#m54d0aaf366" y="258.244125"/>
      </g>
     </g>
     <g id="text_9">
      <!-- −150 -->
      <g transform="translate(23.132812 262.043344)scale(0.1 -0.1)">
       <use xlink:href="#DejaVuSans-2212"/>
       <use x="83.789062" xlink:href="#DejaVuSans-31"/>
       <use x="147.412109" xlink:href="#DejaVuSans-35"/>
       <use x="211.035156" xlink:href="#DejaVuSans-30"/>
      </g>
     </g>
    </g>
    <g id="ytick_3">
     <g id="line2d_9">
      <g>
       <use style="stroke:#000000;stroke-width:0.8;" x="57.6" xlink:href="#m54d0aaf366" y="224.131438"/>
      </g>
     </g>
     <g id="text_10">
      <!-- −125 -->
      <g transform="translate(23.132812 227.930657)scale(0.1 -0.1)">
       <use xlink:href="#DejaVuSans-2212"/>
       <use x="83.789062" xlink:href="#DejaVuSans-31"/>
       <use x="147.412109" xlink:href="#DejaVuSans-32"/>
       <use x="211.035156" xlink:href="#DejaVuSans-35"/>
      </g>
     </g>
    </g>
    <g id="ytick_4">
     <g id="line2d_10">
      <g>
       <use style="stroke:#000000;stroke-width:0.8;" x="57.6" xlink:href="#m54d0aaf366" y="190.01875"/>
      </g>
     </g>
     <g id="text_11">
      <!-- −100 -->
      <g transform="translate(23.132812 193.817969)scale(0.1 -0.1)">
       <use xlink:href="#DejaVuSans-2212"/>
       <use x="83.789062" xlink:href="#DejaVuSans-31"/>
       <use x="147.412109" xlink:href="#DejaVuSans-30"/>
       <use x="211.035156" xlink:href="#DejaVuSans-30"/>
      </g>
     </g>
    </g>
    <g id="ytick_5">
     <g id="line2d_11">
      <g>
       <use style="stroke:#000000;stroke-width:0.8;" x="57.6" xlink:href="#m54d0aaf366" y="155.906063"/>
      </g>
     </g>
     <g id="text_12">
      <!-- −75 -->
      <g transform="translate(29.495313 159.705281)scale(0.1 -0.1)">
       <use xlink:href="#DejaVuSans-2212"/>
       <use x="83.789062" xlink:href="#DejaVuSans-37"/>
       <use x="147.412109" xlink:href="#DejaVuSans-35"/>
      </g>
     </g>
    </g>
    <g id="ytick_6">
     <g id="line2d_12">
      <g>
       <use style="stroke:#000000;stroke-width:0.8;" x="57.6" xlink:href="#m54d0aaf366" y="121.793375"/>
      </g>
     </g>
     <g id="text_13">
      <!-- −50 -->
      <g transform="translate(29.495313 125.592594)scale(0.1 -0.1)">
       <use xlink:href="#DejaVuSans-2212"/>
       <use x="83.789062" xlink:href="#DejaVuSans-35"/>
       <use x="147.412109" xlink:href="#DejaVuSans-30"/>
      </g>
     </g>
    </g>
    <g id="ytick_7">
     <g id="line2d_13">
      <g>
       <use style="stroke:#000000;stroke-width:0.8;" x="57.6" xlink:href="#m54d0aaf366" y="87.680688"/>
      </g>
     </g>
     <g id="text_14">
      <!-- −25 -->
      <g transform="translate(29.495313 91.479906)scale(0.1 -0.1)">
       <use xlink:href="#DejaVuSans-2212"/>
       <use x="83.789062" xlink:href="#DejaVuSans-32"/>
       <use x="147.412109" xlink:href="#DejaVuSans-35"/>
      </g>
     </g>
    </g>
    <g id="ytick_8">
     <g id="line2d_14">
      <g>
       <use style="stroke:#000000;stroke-width:0.8;" x="57.6" xlink:href="#m54d0aaf366" y="53.568"/>
      </g>
     </g>
     <g id="text_15">
      <!-- 0 -->
      <g transform="translate(44.2375 57.367219)scale(0.1 -0.1)">
       <use xlink:href="#DejaVuSans-30"/>
      </g>
     </g>
    </g>
    <g id="text_16">
     <!-- Mean EPSC (pA) -->
     <defs>
      <path d="M 9.8125 72.90625 
L 24.515625 72.90625 
L 43.109375 23.296875 
L 61.8125 72.90625 
L 76.515625 72.90625 
L 76.515625 0 
L 66.890625 0 
L 66.890625 64.015625 
L 48.09375 14.015625 
L 38.1875 14.015625 
L 19.390625 64.015625 
L 19.390625 0 
L 9.8125 0 
z
" id="DejaVuSans-4d"/>
      <path d="M 34.28125 27.484375 
Q 23.390625 27.484375 19.1875 25 
Q 14.984375 22.515625 14.984375 16.5 
Q 14.984375 11.71875 18.140625 8.90625 
Q 21.296875 6.109375 26.703125 6.109375 
Q 34.1875 6.109375 38.703125 11.40625 
Q 43.21875 16.703125 43.21875 25.484375 
L 43.21875 27.484375 
z
M 52.203125 31.203125 
L 52.203125 0 
L 43.21875 0 
L 43.21875 8.296875 
Q 40.140625 3.328125 35.546875 0.953125 
Q 30.953125 -1.421875 24.3125 -1.421875 
Q 15.921875 -1.421875 10.953125 3.296875 
Q 6 8.015625 6 15.921875 
Q 6 25.140625 12.171875 29.828125 
Q 18.359375 34.515625 30.609375 34.515625 
L 43.21875 34.515625 
L 43.21875 35.40625 
Q 43.21875 41.609375 39.140625 45 
Q 35.0625 48.390625 27.6875 48.390625 
Q 23 48.390625 18.546875 47.265625 
Q 14.109375 46.140625 10.015625 43.890625 
L 10.015625 52.203125 
Q 14.9375 54.109375 19.578125 55.046875 
Q 24.21875 56 28.609375 56 
Q 40.484375 56 46.34375 49.84375 
Q 52.203125 43.703125 52.203125 31.203125 
z
" id="DejaVuSans-61"/>
      <path d="M 9.8125 72.90625 
L 55.90625 72.90625 
L 55.90625 64.59375 
L 19.671875 64.59375 
L 19.671875 43.015625 
L 54.390625 43.015625 
L 54.390625 34.71875 
L 19.671875 34.71875 
L 19.671875 8.296875 
L 56.78125 8.296875 
L 56.78125 0 
L 9.8125 0 
z
" id="DejaVuSans-45"/>
      <path d="M 19.671875 64.796875 
L 19.671875 37.40625 
L 32.078125 37.40625 
Q 38.96875 37.40625 42.71875 40.96875 
Q 46.484375 44.53125 46.484375 51.125 
Q 46.484375 57.671875 42.71875 61.234375 
Q 38.96875 64.796875 32.078125 64.796875 
z
M 9.8125 72.90625 
L 32.078125 72.90625 
Q 44.34375 72.90625 50.609375 67.359375 
Q 56.890625 61.8125 56.890625 51.125 
Q 56.890625 40.328125 50.609375 34.8125 
Q 44.34375 29.296875 32.078125 29.296875 
L 19.671875 29.296875 
L 19.671875 0 
L 9.8125 0 
z
" id="DejaVuSans-50"/>
      <path d="M 53.515625 70.515625 
L 53.515625 60.890625 
Q 47.90625 63.578125 42.921875 64.890625 
Q 37.9375 66.21875 33.296875 66.21875 
Q 25.25 66.21875 20.875 63.09375 
Q 16.5 59.96875 16.5 54.203125 
Q 16.5 49.359375 19.40625 46.890625 
Q 22.3125 44.4375 30.421875 42.921875 
L 36.375 41.703125 
Q 47.40625 39.59375 52.65625 34.296875 
Q 57.90625 29 57.90625 20.125 
Q 57.90625 9.515625 50.796875 4.046875 
Q 43.703125 -1.421875 29.984375 -1.421875 
Q 24.8125 -1.421875 18.96875 -0.25 
Q 13.140625 0.921875 6.890625 3.21875 
L 6.890625 13.375 
Q 12.890625 10.015625 18.65625 8.296875 
Q 24.421875 6.59375 29.984375 6.59375 
Q 38.421875 6.59375 43.015625 9.90625 
Q 47.609375 13.234375 47.609375 19.390625 
Q 47.609375 24.75 44.3125 27.78125 
Q 41.015625 30.8125 33.5 32.328125 
L 27.484375 33.5 
Q 16.453125 35.6875 11.515625 40.375 
Q 6.59375 45.0625 6.59375 53.421875 
Q 6.59375 63.09375 13.40625 68.65625 
Q 20.21875 74.21875 32.171875 74.21875 
Q 37.3125 74.21875 42.625 73.28125 
Q 47.953125 72.359375 53.515625 70.515625 
z
" id="DejaVuSans-53"/>
      <path d="M 64.40625 67.28125 
L 64.40625 56.890625 
Q 59.421875 61.53125 53.78125 63.8125 
Q 48.140625 66.109375 41.796875 66.109375 
Q 29.296875 66.109375 22.65625 58.46875 
Q 16.015625 50.828125 16.015625 36.375 
Q 16.015625 21.96875 22.65625 14.328125 
Q 29.296875 6.6875 41.796875 6.6875 
Q 48.140625 6.6875 53.78125 8.984375 
Q 59.421875 11.28125 64.40625 15.921875 
L 64.40625 5.609375 
Q 59.234375 2.09375 53.4375 0.328125 
Q 47.65625 -1.421875 41.21875 -1.421875 
Q 24.65625 -1.421875 15.125 8.703125 
Q 5.609375 18.84375 5.609375 36.375 
Q 5.609375 53.953125 15.125 64.078125 
Q 24.65625 74.21875 41.21875 74.21875 
Q 47.75 74.21875 53.53125 72.484375 
Q 59.328125 70.75 64.40625 67.28125 
z
" id="DejaVuSans-43"/>
      <path d="M 18.109375 8.203125 
L 18.109375 -20.796875 
L 9.078125 -20.796875 
L 9.078125 54.6875 
L 18.109375 54.6875 
L 18.109375 46.390625 
Q 20.953125 51.265625 25.265625 53.625 
Q 29.59375 56 35.59375 56 
Q 45.5625 56 51.78125 48.09375 
Q 58.015625 40.1875 58.015625 27.296875 
Q 58.015625 14.40625 51.78125 6.484375 
Q 45.5625 -1.421875 35.59375 -1.421875 
Q 29.59375 -1.421875 25.265625 0.953125 
Q 20.953125 3.328125 18.109375 8.203125 
z
M 48.6875 27.296875 
Q 48.6875 37.203125 44.609375 42.84375 
Q 40.53125 48.484375 33.40625 48.484375 
Q 26.265625 48.484375 22.1875 42.84375 
Q 18.109375 37.203125 18.109375 27.296875 
Q 18.109375 17.390625 22.1875 11.75 
Q 26.265625 6.109375 33.40625 6.109375 
Q 40.53125 6.109375 44.609375 11.75 
Q 48.6875 17.390625 48.6875 27.296875 
z
" id="DejaVuSans-70"/>
      <path d="M 34.1875 63.1875 
L 20.796875 26.90625 
L 47.609375 26.90625 
z
M 28.609375 72.90625 
L 39.796875 72.90625 
L 67.578125 0 
L 57.328125 0 
L 50.6875 18.703125 
L 17.828125 18.703125 
L 11.1875 0 
L 0.78125 0 
z
" id="DejaVuSans-41"/>
     </defs>
     <g transform="translate(17.053125 214.6655)rotate(-90)scale(0.1 -0.1)">
      <use xlink:href="#DejaVuSans-4d"/>
      <use x="86.279297" xlink:href="#DejaVuSans-65"/>
      <use x="147.802734" xlink:href="#DejaVuSans-61"/>
      <use x="209.082031" xlink:href="#DejaVuSans-6e"/>
      <use x="272.460938" xlink:href="#DejaVuSans-20"/>
      <use x="304.248047" xlink:href="#DejaVuSans-45"/>
      <use x="367.431641" xlink:href="#DejaVuSans-50"/>
      <use x="427.734375" xlink:href="#DejaVuSans-53"/>
      <use x="491.210938" xlink:href="#DejaVuSans-43"/>
      <use x="561.035156" xlink:href="#DejaVuSans-20"/>
      <use x="592.822266" xlink:href="#DejaVuSans-28"/>
      <use x="631.835938" xlink:href="#DejaVuSans-70"/>
      <use x="695.3125" xlink:href="#DejaVuSans-41"/>
      <use x="763.720703" xlink:href="#DejaVuSans-29"/>
     </g>
    </g>
   </g>
   <g id="line2d_15">
    <path clip-path="url(#p16cc3e7d90)" d="M 73.832727 53.568 
L 122.679446 53.677241 
L 123.101518 53.777896 
L 124.205399 53.706848 
L 127.030034 53.592773 
L 135.958481 53.568101 
L 398.487273 53.568 
L 398.487273 53.568 
" style="fill:none;stroke:#1f77b4;stroke-linecap:square;stroke-width:1.5;"/>
   </g>
   <g id="line2d_16">
    <path clip-path="url(#p16cc3e7d90)" d="M 73.832727 53.568 
L 106.364739 53.674887 
L 106.673177 53.927576 
L 107.095249 53.96402 
L 112.728287 53.582343 
L 122.533344 53.568034 
L 122.825548 54.197841 
L 123.117752 54.35015 
L 123.556057 54.287504 
L 125.715118 53.774861 
L 127.760544 53.6267 
L 132.387102 53.571395 
L 187.402566 53.568 
L 398.487273 53.568 
L 398.487273 53.568 
" style="fill:none;stroke:#ff7f0e;stroke-linecap:square;stroke-width:1.5;"/>
   </g>
   <g id="line2d_17">
    <path clip-path="url(#p16cc3e7d90)" d="M 73.832727 53.568 
L 106.316039 53.646617 
L 106.592009 54.436179 
L 106.867979 54.643175 
L 107.225117 54.596125 
L 109.838717 53.796888 
L 111.770508 53.637644 
L 115.86136 53.573604 
L 122.533344 53.568092 
L 122.809314 55.41538 
L 123.069051 55.906313 
L 123.29632 55.91855 
L 123.669692 55.637858 
L 124.968375 54.55581 
L 125.893687 54.127878 
L 127.078735 53.837875 
L 128.831957 53.659649 
L 132.241 53.579223 
L 150.016726 53.568 
L 398.487273 53.568 
L 398.487273 53.568 
" style="fill:none;stroke:#2ca02c;stroke-linecap:square;stroke-width:1.5;"/>
   </g>
   <g id="line2d_18">
    <path clip-path="url(#p16cc3e7d90)" d="M 73.832727 53.568 
L 106.299805 53.568 
L 106.575775 55.374959 
L 106.835512 55.855182 
L 107.062782 55.86716 
L 107.436153 55.59261 
L 108.734836 54.534217 
L 109.676381 54.110195 
L 110.877663 53.826749 
L 112.679586 53.653274 
L 116.250965 53.577449 
L 122.533344 53.568197 
L 122.809314 57.47298 
L 123.052817 58.486123 
L 123.231386 58.577783 
L 123.426189 58.380741 
L 123.913195 57.443825 
L 124.789806 55.895616 
L 125.520315 55.05694 
L 126.315759 54.480663 
L 127.257304 54.07904 
L 128.491053 53.806998 
L 130.374143 53.642923 
L 134.270193 53.574797 
L 162.565251 53.568 
L 398.487273 53.568 
L 398.487273 53.568 
" style="fill:none;stroke:#d62728;stroke-linecap:square;stroke-width:1.5;"/>
   </g>
   <g id="line2d_19">
    <path clip-path="url(#p16cc3e7d90)" d="M 73.832727 53.568 
L 106.299805 53.568 
L 106.575775 56.949412 
L 106.819278 57.826773 
L 107.014081 57.899728 
L 107.24135 57.66936 
L 107.97186 56.42104 
L 108.75107 55.358292 
L 109.514046 54.6892 
L 110.390657 54.221587 
L 111.478304 53.902459 
L 113.036724 53.696062 
L 115.780192 53.59163 
L 122.533344 53.568369 
L 122.809314 60.954334 
L 123.052817 62.870711 
L 123.198919 63.059892 
L 123.215153 63.054123 
L 123.361255 62.83804 
L 123.669692 61.843865 
L 124.838507 57.842471 
L 125.520315 56.384354 
L 126.218357 55.401022 
L 126.9651 54.725267 
L 127.825478 54.249184 
L 128.896891 53.920072 
L 130.406611 53.706911 
L 133.02021 53.595767 
L 141.169447 53.568183 
L 398.487273 53.568 
L 398.487273 53.568 
" style="fill:none;stroke:#9467bd;stroke-linecap:square;stroke-width:1.5;"/>
   </g>
   <g id="line2d_20">
    <path clip-path="url(#p16cc3e7d90)" d="M 73.832727 53.568 
L 106.299805 53.568 
L 106.575775 59.238368 
L 106.819278 60.709634 
L 106.981614 60.850462 
L 106.997847 60.842759 
L 107.176416 60.590985 
L 107.598488 59.439483 
L 108.507566 57.049191 
L 109.205609 55.840649 
L 109.919884 55.032611 
L 110.715328 54.465363 
L 111.656873 54.07044 
L 112.906856 53.800637 
L 114.822413 53.639484 
L 118.848331 53.573986 
L 122.533344 53.568618 
L 122.809314 66.253329 
L 123.052817 69.54453 
L 123.198919 69.869431 
L 123.215153 69.859524 
L 123.328788 69.607855 
L 123.588524 68.29555 
L 125.000842 60.217915 
L 125.666417 57.989375 
L 126.331992 56.503297 
L 127.013801 55.496763 
L 127.760544 54.785613 
L 128.604688 54.291897 
L 129.643634 53.949706 
L 131.088419 53.72475 
L 133.507216 53.603327 
L 140.244135 53.568557 
L 398.487273 53.568 
L 398.487273 53.568 
" style="fill:none;stroke:#8c564b;stroke-linecap:square;stroke-width:1.5;"/>
   </g>
   <g id="line2d_21">
    <path clip-path="url(#p16cc3e7d90)" d="M 73.832727 53.568 
L 106.299805 53.568 
L 106.575775 62.540154 
L 106.819278 64.868122 
L 106.96538 65.097957 
L 106.981614 65.090952 
L 107.111482 64.872285 
L 107.403686 63.768641 
L 108.653668 58.608792 
L 109.319243 56.921511 
L 110.001052 55.772467 
L 110.715328 54.987886 
L 111.510771 54.437874 
L 112.46855 54.050196 
L 113.751 53.786842 
L 115.731491 53.632609 
L 120.049613 53.572519 
L 122.533344 53.568979 
L 122.809314 73.207556 
L 123.052817 78.303022 
L 123.182686 78.809316 
L 123.215153 78.790696 
L 123.328788 78.401059 
L 123.588524 76.369335 
L 125.000842 63.863462 
L 125.650184 60.481886 
L 126.299525 58.204226 
L 126.9651 56.645064 
L 127.646909 55.589805 
L 128.377418 54.857163 
L 129.205329 54.342137 
L 130.211808 53.984443 
L 131.591659 53.745994 
L 133.831887 53.612779 
L 139.448692 53.569407 
L 269.868944 53.568 
L 398.487273 53.568 
L 398.487273 53.568 
" style="fill:none;stroke:#e377c2;stroke-linecap:square;stroke-width:1.5;"/>
   </g>
   <g id="line2d_22">
    <path clip-path="url(#p16cc3e7d90)" d="M 73.832727 53.568 
L 106.299805 53.568 
L 106.575775 67.111696 
L 106.819278 70.625823 
L 106.96538 70.972764 
L 106.981614 70.96219 
L 107.095249 70.69351 
L 107.354985 69.292408 
L 108.767303 60.668036 
L 109.432878 58.288651 
L 110.098453 56.701983 
L 110.780262 55.627318 
L 111.510771 54.881096 
L 112.338682 54.35651 
L 113.345161 53.992175 
L 114.708778 53.751121 
L 116.91654 53.615 
L 122.338542 53.569666 
L 122.533344 53.569477 
L 122.809314 82.51031 
L 123.052817 90.019355 
L 123.182686 90.765465 
L 123.215153 90.738025 
L 123.312554 90.284301 
L 123.539824 87.838864 
L 125.179411 67.170825 
L 125.828753 62.696986 
L 126.478094 59.688796 
L 127.127436 57.671089 
L 127.793011 56.291043 
L 128.491053 55.339367 
L 129.237796 54.686236 
L 130.114407 54.21965 
L 131.218287 53.898137 
L 132.776707 53.694407 
L 135.536409 53.591092 
L 145.000562 53.568068 
L 398.487273 53.568 
L 398.487273 53.568 
" style="fill:none;stroke:#7f7f7f;stroke-linecap:square;stroke-width:1.5;"/>
   </g>
   <g id="line2d_23">
    <path clip-path="url(#p16cc3e7d90)" d="M 73.832727 53.568 
L 106.299805 53.568 
L 106.575775 72.685452 
L 106.819278 77.645778 
L 106.949147 78.138687 
L 106.981614 78.120574 
L 107.095249 77.741321 
L 107.354985 75.763612 
L 108.767303 63.589977 
L 109.416645 60.298228 
L 110.065986 58.081071 
L 110.731561 56.563326 
L 111.41337 55.536098 
L 112.143879 54.822918 
L 112.97179 54.321573 
L 113.994503 53.969347 
L 115.406821 53.736145 
L 117.728217 53.608239 
L 122.533344 53.570085 
L 122.809314 93.147673 
L 123.052817 103.416545 
L 123.182686 104.436873 
L 123.215153 104.399348 
L 123.312554 103.778862 
L 123.539824 100.434636 
L 125.179411 72.170351 
L 125.828753 66.052216 
L 126.478094 61.938408 
L 127.127436 59.179121 
L 127.776777 57.329283 
L 128.442352 56.064182 
L 129.140394 55.191789 
L 129.919604 54.572774 
L 130.828683 54.141936 
L 131.997497 53.847365 
L 133.718252 53.664788 
L 136.997427 53.580839 
L 152.74396 53.568001 
L 398.487273 53.568 
L 398.487273 53.568 
" style="fill:none;stroke:#bcbd22;stroke-linecap:square;stroke-width:1.5;"/>
   </g>
   <g id="line2d_24">
    <path clip-path="url(#p16cc3e7d90)" d="M 73.832727 53.568 
L 106.299805 53.568 
L 106.575775 79.871881 
L 106.819278 86.69684 
L 106.949147 87.375038 
L 106.981614 87.350117 
L 107.079015 86.937788 
L 107.306285 84.715294 
L 108.945872 65.931039 
L 109.595214 61.864954 
L 110.244555 59.130936 
L 110.893897 57.297126 
L 111.559472 56.04286 
L 112.257514 55.177922 
L 113.036724 54.564193 
L 113.945802 54.137035 
L 115.114617 53.844979 
L 116.835372 53.663961 
L 120.147014 53.580478 
L 122.533344 53.570869 
L 122.809314 105.48279 
L 123.052817 118.951941 
L 123.182686 120.290246 
L 123.215153 120.241025 
L 123.312554 119.427159 
L 123.539824 115.040695 
L 125.179411 77.967799 
L 125.828753 69.942939 
L 126.478094 64.547057 
L 127.127436 60.927835 
L 127.776777 58.501493 
L 128.442352 56.84212 
L 129.124161 55.719251 
L 129.85467 54.939698 
L 130.666347 54.399977 
L 131.640359 54.024599 
L 132.955276 53.771122 
L 135.016936 53.625043 
L 139.724662 53.571139 
L 199.106947 53.568 
L 398.487273 53.568 
L 398.487273 53.568 
" style="fill:none;stroke:#17becf;stroke-linecap:square;stroke-width:1.5;"/>
   </g>
   <g id="line2d_25">
    <path clip-path="url(#p16cc3e7d90)" d="M 73.832727 53.568 
L 106.299805 53.568 
L 106.575775 88.796261 
L 106.819278 97.936792 
L 106.949147 98.845088 
L 106.981614 98.811711 
L 107.079015 98.259488 
L 107.306285 95.282947 
L 108.945872 70.12557 
L 109.595214 64.679944 
L 110.244555 61.018328 
L 110.893897 58.562344 
L 111.559472 56.88253 
L 112.24128 55.745805 
L 112.955556 54.970587 
L 113.767233 54.418712 
L 114.741245 54.034881 
L 116.039929 53.777783 
L 118.069121 53.628104 
L 122.533344 53.571842 
L 122.809314 119.185496 
L 123.052817 136.209703 
L 123.182686 137.901233 
L 123.215153 137.839016 
L 123.312554 136.810329 
L 123.539824 131.266073 
L 125.179411 84.407987 
L 125.828753 74.265011 
L 126.478094 67.444917 
L 127.127436 62.870421 
L 127.776777 59.80366 
L 128.426119 57.747896 
L 129.091694 56.34199 
L 129.789736 55.372506 
L 130.536479 54.707155 
L 131.396856 54.238512 
L 132.484503 53.911107 
L 134.010456 53.702027 
L 136.672757 53.593999 
L 145.260299 53.568131 
L 398.487273 53.568 
L 398.487273 53.568 
" style="fill:none;stroke:#1f77b4;stroke-linecap:square;stroke-width:1.5;"/>
   </g>
   <g id="line2d_26">
    <path clip-path="url(#p16cc3e7d90)" d="M 73.832727 53.568 
L 106.299805 53.568 
L 106.575775 98.88529 
L 106.819278 110.643579 
L 106.949147 111.812003 
L 106.981614 111.769067 
L 107.079015 111.058693 
L 107.306285 107.229699 
L 108.945872 74.867496 
L 109.595214 67.862296 
L 110.244555 63.152029 
L 110.893897 59.992675 
L 111.543238 57.87463 
L 112.208813 56.426102 
L 112.906856 55.427222 
L 113.653598 54.741696 
L 114.513976 54.258844 
L 115.585389 53.925063 
L 117.078875 53.710297 
L 119.643774 53.59731 
L 122.533344 53.572943 
L 122.809314 134.577422 
L 123.052817 155.594939 
L 123.182686 157.683236 
L 123.215153 157.606423 
L 123.312554 156.33643 
L 123.539824 149.491653 
L 125.179411 91.642097 
L 125.828753 79.119891 
L 126.478094 70.700013 
L 127.127436 65.052483 
L 127.776777 61.266353 
L 128.426119 58.728371 
L 129.07546 57.027101 
L 129.757269 55.840792 
L 130.471545 55.031761 
L 131.266988 54.464738 
L 132.224767 54.065087 
L 133.474749 53.798158 
L 135.390307 53.638723 
L 139.448692 53.573805 
L 172.305375 53.568 
L 398.487273 53.568 
L 398.487273 53.568 
" style="fill:none;stroke:#ff7f0e;stroke-linecap:square;stroke-width:1.5;"/>
   </g>
   <g id="line2d_27">
    <path clip-path="url(#p16cc3e7d90)" d="M 73.832727 53.568 
L 106.299805 53.568 
L 106.575775 109.786494 
L 106.819278 124.373274 
L 106.949147 125.822766 
L 106.981614 125.769502 
L 107.079015 124.888245 
L 107.306285 120.138176 
L 108.945872 79.991151 
L 109.595214 71.30083 
L 110.244555 65.457495 
L 110.893897 61.538149 
L 111.543238 58.910602 
L 112.19258 57.14926 
L 112.858155 55.944705 
L 113.572431 55.098685 
L 114.35164 54.515162 
L 115.276952 54.103644 
L 116.478234 53.823563 
L 118.280157 53.652223 
L 121.884003 53.577147 
L 122.533344 53.574132 
L 122.809314 149.781508 
L 123.052817 174.743566 
L 123.182686 177.22378 
L 123.215153 177.132547 
L 123.312554 175.624192 
L 123.539824 167.494765 
L 125.179411 98.787903 
L 125.828753 83.91551 
L 126.478094 73.915376 
L 127.127436 67.207908 
L 127.776777 62.711192 
L 128.426119 59.696877 
L 129.07546 57.676311 
L 129.741035 56.294482 
L 130.439078 55.341601 
L 131.18582 54.687645 
L 132.062431 54.220471 
L 133.166312 53.898553 
L 134.724732 53.694566 
L 137.484433 53.591122 
L 146.948587 53.568068 
L 398.487273 53.568 
L 398.487273 53.568 
" style="fill:none;stroke:#2ca02c;stroke-linecap:square;stroke-width:1.5;"/>
   </g>
   <g id="line2d_28">
    <path clip-path="url(#p16cc3e7d90)" d="M 73.832727 53.568 
L 106.299805 53.568 
L 106.575775 122.887475 
L 106.819278 140.873512 
L 106.949147 142.660788 
L 106.981614 142.595112 
L 107.079015 141.50849 
L 107.306285 135.65148 
L 108.945872 86.148718 
L 109.595214 75.433233 
L 110.244555 68.228185 
L 110.893897 63.395487 
L 111.543238 60.155625 
L 112.19258 57.983826 
L 112.858155 56.498565 
L 113.539964 55.493519 
L 114.286706 54.783548 
L 115.13085 54.290669 
L 116.169797 53.949058 
L 117.614582 53.724484 
L 120.033379 53.603267 
L 122.533344 53.575561 
L 122.809314 164.896616 
L 123.052817 193.780048 
L 123.182686 196.649867 
L 123.215153 196.544295 
L 123.312554 194.798967 
L 123.539824 185.392405 
L 125.179411 105.891841 
L 125.828753 88.683031 
L 126.478094 77.1119 
L 127.111202 69.509316 
L 127.760544 64.253891 
L 128.409885 60.730982 
L 129.059227 58.369492 
L 129.724802 56.754512 
L 130.406611 55.661687 
L 131.13712 54.902994 
L 131.948797 54.377715 
L 132.939043 54.007959 
L 134.270193 53.761772 
L 136.396786 53.620284 
L 141.41295 53.570379 
L 219.236536 53.568 
L 398.487273 53.568 
L 398.487273 53.568 
" style="fill:none;stroke:#d62728;stroke-linecap:square;stroke-width:1.5;"/>
   </g>
   <g id="line2d_29">
    <path clip-path="url(#p16cc3e7d90)" d="M 73.832727 53.568 
L 106.299805 53.568 
L 106.575775 136.067019 
L 106.819278 157.472698 
L 106.949147 159.599785 
L 106.981614 159.521622 
L 107.079015 158.228403 
L 107.306285 151.257813 
L 108.945872 92.343211 
L 109.595214 79.590417 
L 110.244555 71.015491 
L 110.893897 65.263964 
L 111.543238 61.408115 
L 112.19258 58.823396 
L 112.841921 57.090799 
L 113.52373 55.882644 
L 114.238006 55.058715 
L 115.033449 54.481251 
L 115.974994 54.079328 
L 117.208743 53.807131 
L 119.091834 53.642964 
L 122.533344 53.576998 
L 122.809314 182.283701 
L 123.052817 215.678004 
L 123.182686 218.996005 
L 123.215153 218.873943 
L 123.312554 216.856026 
L 123.539824 205.980364 
L 125.179411 114.063624 
L 125.828753 94.167192 
L 126.478094 80.788917 
L 127.111202 71.998983 
L 127.760544 65.922782 
L 128.409885 61.849675 
L 129.059227 59.119375 
L 129.708568 57.289198 
L 130.374143 56.037574 
L 131.072186 55.17448 
L 131.851395 54.562063 
L 132.760474 54.135818 
L 133.929288 53.844387 
L 135.666277 53.662803 
L 138.994153 53.580204 
L 155.471195 53.568 
L 398.487273 53.568 
L 398.487273 53.568 
" style="fill:none;stroke:#9467bd;stroke-linecap:square;stroke-width:1.5;"/>
   </g>
   <g id="line2d_30">
    <path clip-path="url(#p16cc3e7d90)" d="M 73.832727 53.568 
L 106.299805 53.568 
L 106.575775 150.500393 
L 106.819278 175.651039 
L 106.949147 178.150264 
L 106.981614 178.058427 
L 107.079015 176.538956 
L 107.306285 168.348847 
L 108.945872 99.127015 
L 109.595214 84.143092 
L 110.244555 74.067965 
L 110.893897 67.310197 
L 111.543238 62.779759 
L 112.19258 59.742839 
L 112.841921 57.70712 
L 113.507496 56.314928 
L 114.205539 55.354902 
L 114.952281 54.696042 
L 115.812659 54.231971 
L 116.900306 53.90776 
L 118.442492 53.699399 
L 121.13726 53.592984 
L 122.533344 53.578572 
L 122.809314 196.914811 
L 123.052817 234.104858 
L 123.182686 237.799974 
L 123.215153 237.66403 
L 123.312554 235.416722 
L 123.539824 223.304819 
L 125.179411 120.940049 
L 125.828753 98.782027 
L 126.478094 83.883068 
L 127.111202 74.093999 
L 127.760544 67.327127 
L 128.409885 62.791037 
L 129.059227 59.750389 
L 129.708568 57.71218 
L 130.374143 56.318286 
L 131.072186 55.357086 
L 131.818928 54.697421 
L 132.679306 54.232783 
L 133.766953 53.908175 
L 135.309139 53.69956 
L 138.003907 53.593015 
L 146.867419 53.568106 
L 398.487273 53.568 
L 398.487273 53.568 
" style="fill:none;stroke:#8c564b;stroke-linecap:square;stroke-width:1.5;"/>
   </g>
   <g id="line2d_31">
    <path clip-path="url(#p16cc3e7d90)" d="M 73.832727 53.568 
L 106.299805 53.568 
L 106.575775 166.215199 
L 106.819278 195.443302 
L 106.949147 198.347704 
L 106.981614 198.240978 
L 107.079015 196.475169 
L 107.306285 186.957269 
L 108.945872 106.513102 
L 109.595214 89.099966 
L 110.244555 77.391447 
L 110.877663 69.698594 
L 111.527005 64.380769 
L 112.176346 60.816031 
L 112.825688 58.426502 
L 113.491263 56.792347 
L 114.173072 55.686547 
L 114.903581 54.918845 
L 115.715258 54.387329 
L 116.705504 54.013183 
L 118.036654 53.764073 
L 120.147014 53.621436 
L 122.533344 53.580286 
L 122.809314 212.175608 
L 123.052817 253.324734 
L 123.182686 257.413189 
L 123.215153 257.262765 
L 123.312554 254.776193 
L 123.539824 241.374842 
L 125.179411 128.112404 
L 125.828753 103.595463 
L 126.478094 87.110377 
L 127.111202 76.279174 
L 127.74431 68.94491 
L 128.393652 63.875473 
L 129.042993 60.477309 
L 129.692335 58.199448 
L 130.35791 56.641662 
L 131.039719 55.58754 
L 131.770228 54.855715 
L 132.598138 54.341267 
L 133.604618 53.983975 
L 134.984468 53.745794 
L 137.224697 53.612729 
L 142.857735 53.569392 
L 274.722772 53.568 
L 398.487273 53.568 
L 398.487273 53.568 
" style="fill:none;stroke:#e377c2;stroke-linecap:square;stroke-width:1.5;"/>
   </g>
   <g id="line2d_32">
    <path clip-path="url(#p16cc3e7d90)" d="M 73.832727 53.568 
L 106.299805 53.568 
L 106.575775 181.159235 
L 106.819278 214.264805 
L 106.949147 217.554512 
L 106.981614 217.433627 
L 107.079015 215.433562 
L 107.306285 204.652995 
L 108.945872 113.53692 
L 109.595214 93.813718 
L 110.244555 80.55192 
L 110.877663 71.838515 
L 111.527005 65.815216 
L 112.176346 61.777571 
L 112.825688 59.071042 
L 113.475029 57.2568 
L 114.140604 56.016073 
L 114.838647 55.160494 
L 115.617857 54.553409 
L 116.526935 54.130874 
L 117.711983 53.839254 
L 119.465205 53.660117 
L 122.533344 53.581916 
L 122.809314 227.473493 
L 123.052817 272.59135 
L 123.182686 277.074106 
L 123.215153 276.909167 
L 123.312554 274.182752 
L 123.539824 259.488821 
L 125.179411 135.302208 
L 125.828753 108.420609 
L 126.478094 90.345537 
L 127.111202 78.469666 
L 127.74431 70.428012 
L 128.393652 64.869628 
L 129.042993 61.143711 
L 129.692335 58.646151 
L 130.341676 56.971987 
L 131.023485 55.804579 
L 131.737761 55.008438 
L 132.533204 54.45045 
L 133.490983 54.057166 
L 134.757199 53.792237 
L 136.705224 53.635539 
L 140.893477 53.573118 
L 177.938413 53.568 
L 398.487273 53.568 
L 398.487273 53.568 
" style="fill:none;stroke:#7f7f7f;stroke-linecap:square;stroke-width:1.5;"/>
   </g>
   <g id="line2d_33">
    <path clip-path="url(#p16cc3e7d90)" d="M 73.832727 53.568 
L 106.299805 53.568 
L 106.575775 197.983484 
L 106.819278 235.454372 
L 106.949147 239.177862 
L 106.981614 239.041037 
L 107.079015 236.777243 
L 107.306285 224.575144 
L 108.945872 121.444455 
L 109.595214 99.12054 
L 110.244555 84.110034 
L 110.877663 74.247675 
L 111.510771 67.569456 
L 112.160113 62.953476 
L 112.809454 59.859276 
L 113.458796 57.785169 
L 114.124371 56.366725 
L 114.822413 55.388596 
L 115.569156 54.717313 
L 116.429533 54.244491 
L 117.500947 53.917645 
L 119.010666 53.705954 
L 121.624266 53.595575 
L 122.533344 53.583751 
L 122.809314 241.801186 
L 123.052817 290.635973 
L 123.182686 295.488 
L 123.215153 295.309464 
L 123.312554 292.358408 
L 123.539824 276.45387 
L 125.179411 142.035972 
L 125.828753 112.939703 
L 126.478094 93.375496 
L 127.111202 80.521217 
L 127.74431 71.817043 
L 128.393652 65.800725 
L 129.042993 61.767844 
L 129.692335 59.064521 
L 130.341676 57.252428 
L 131.007251 56.013172 
L 131.721527 55.14278 
L 132.500737 54.542447 
L 133.426049 54.119075 
L 134.611097 53.833568 
L 136.380553 53.657288 
L 139.838297 53.578611 
L 158.539334 53.568 
L 398.487273 53.568 
L 398.487273 53.568 
" style="fill:none;stroke:#bcbd22;stroke-linecap:square;stroke-width:1.5;"/>
   </g>
   <g id="patch_3">
    <path d="M 57.6 307.584 
L 57.6 41.472 
" style="fill:none;stroke:#000000;stroke-linecap:square;stroke-linejoin:miter;stroke-width:0.8;"/>
   </g>
   <g id="patch_4">
    <path d="M 414.72 307.584 
L 414.72 41.472 
" style="fill:none;stroke:#000000;stroke-linecap:square;stroke-linejoin:miter;stroke-width:0.8;"/>
   </g>
   <g id="patch_5">
    <path d="M 57.6 307.584 
L 414.72 307.584 
" style="fill:none;stroke:#000000;stroke-linecap:square;stroke-linejoin:miter;stroke-width:0.8;"/>
   </g>
   <g id="patch_6">
    <path d="M 57.6 41.472 
L 414.72 41.472 
" style="fill:none;stroke:#000000;stroke-linecap:square;stroke-linejoin:miter;stroke-width:0.8;"/>
   </g>
   <g id="text_17">
    <!-- Mean EPSC across conditions -->
    <defs>
     <path d="M 41.109375 46.296875 
Q 39.59375 47.171875 37.8125 47.578125 
Q 36.03125 48 33.890625 48 
Q 26.265625 48 22.1875 43.046875 
Q 18.109375 38.09375 18.109375 28.8125 
L 18.109375 0 
L 9.078125 0 
L 9.078125 54.6875 
L 18.109375 54.6875 
L 18.109375 46.1875 
Q 20.953125 51.171875 25.484375 53.578125 
Q 30.03125 56 36.53125 56 
Q 37.453125 56 38.578125 55.875 
Q 39.703125 55.765625 41.0625 55.515625 
z
" id="DejaVuSans-72"/>
     <path d="M 18.3125 70.21875 
L 18.3125 54.6875 
L 36.8125 54.6875 
L 36.8125 47.703125 
L 18.3125 47.703125 
L 18.3125 18.015625 
Q 18.3125 11.328125 20.140625 9.421875 
Q 21.96875 7.515625 27.59375 7.515625 
L 36.8125 7.515625 
L 36.8125 0 
L 27.59375 0 
Q 17.1875 0 13.234375 3.875 
Q 9.28125 7.765625 9.28125 18.015625 
L 9.28125 47.703125 
L 2.6875 47.703125 
L 2.6875 54.6875 
L 9.28125 54.6875 
L 9.28125 70.21875 
z
" id="DejaVuSans-74"/>
    </defs>
    <g transform="translate(148.453125 35.472)scale(0.12 -0.12)">
     <use xlink:href="#DejaVuSans-4d"/>
     <use x="86.279297" xlink:href="#DejaVuSans-65"/>
     <use x="147.802734" xlink:href="#DejaVuSans-61"/>
     <use x="209.082031" xlink:href="#DejaVuSans-6e"/>
     <use x="272.460938" xlink:href="#DejaVuSans-20"/>
     <use x="304.248047" xlink:href="#DejaVuSans-45"/>
     <use x="367.431641" xlink:href="#DejaVuSans-50"/>
     <use x="427.734375" xlink:href="#DejaVuSans-53"/>
     <use x="491.210938" xlink:href="#DejaVuSans-43"/>
     <use x="561.035156" xlink:href="#DejaVuSans-20"/>
     <use x="592.822266" xlink:href="#DejaVuSans-61"/>
     <use x="654.101562" xlink:href="#DejaVuSans-63"/>
     <use x="709.082031" xlink:href="#DejaVuSans-72"/>
     <use x="750.164062" xlink:href="#DejaVuSans-6f"/>
     <use x="811.345703" xlink:href="#DejaVuSans-73"/>
     <use x="863.445312" xlink:href="#DejaVuSans-73"/>
     <use x="915.544922" xlink:href="#DejaVuSans-20"/>
     <use x="947.332031" xlink:href="#DejaVuSans-63"/>
     <use x="1002.3125" xlink:href="#DejaVuSans-6f"/>
     <use x="1063.494141" xlink:href="#DejaVuSans-6e"/>
     <use x="1126.873047" xlink:href="#DejaVuSans-64"/>
     <use x="1190.349609" xlink:href="#DejaVuSans-69"/>
     <use x="1218.132812" xlink:href="#DejaVuSans-74"/>
     <use x="1257.341797" xlink:href="#DejaVuSans-69"/>
     <use x="1285.125" xlink:href="#DejaVuSans-6f"/>
     <use x="1346.306641" xlink:href="#DejaVuSans-6e"/>
     <use x="1409.685547" xlink:href="#DejaVuSans-73"/>
    </g>
   </g>
  </g>
 </g>
 <defs>
  <clipPath id="p16cc3e7d90">
   <rect height="266.112" width="357.12" x="57.6" y="41.472"/>
  </clipPath>
 </defs>
</svg>
